<svg width="39" height="65" viewBox="0 0 39 65" fill="none" xmlns="http://www.w3.org/2000/svg">
<path d="M8.59995 19.0693C19.28 28.3495 28.52 40.0045 35.79 53.3037C36.85 55.2523 39.45 53.4256 38.38 51.4648C30.81 37.6176 21.23 25.585 10.11 15.915C8.53996 14.5388 7.03995 17.7053 8.59995 19.0693Z" fill="#00FFAB"/>
<path d="M32.2202 1.36978C26.4002 18.3713 18.7302 34.4473 9.53023 49.0618C6.90023 53.2391 4.12019 57.2824 1.24019 61.2161C-0.0398076 62.9699 2.07019 65.5518 3.36019 63.798C13.7102 49.6829 22.5602 33.9601 29.5702 17.0804C31.5702 12.2576 33.4102 7.33735 35.1202 2.34407C35.4302 1.43066 34.7802 0.346782 34.0702 0.0910283C33.2102 -0.21344 32.5302 0.456376 32.2202 1.36978Z" fill="#00FFAB"/>
</svg>
