<svg width="31" height="30" viewBox="0 0 31 30" fill="none" xmlns="http://www.w3.org/2000/svg">
<path d="M11.4601 7.57023C6.58008 10.2902 4.97014 16.6902 6.78014 21.7702C8.81014 27.4902 14.6202 30.1802 20.4202 28.8402C26.3902 27.4602 30.9901 22.2502 30.9101 16.0202C30.8301 9.71024 26.5002 3.74023 20.5402 1.70023C13.2602 -0.789767 5.0601 2.69024 0.740105 8.77024C-0.379895 10.3502 2.22007 11.8503 3.33007 10.2803C6.44007 5.90025 12.1301 3.22025 17.5101 4.03025C22.5701 4.79025 26.5702 8.86021 27.6702 13.8002C28.7402 18.6102 26.3101 23.1302 21.9001 25.1802C17.8701 27.0502 12.6302 26.3803 10.3002 22.2803C8.06016 18.3503 8.8301 12.4702 12.9901 10.1502C14.6601 9.22025 13.1501 6.63023 11.4601 7.57023Z" fill="#00FFAB"/>
</svg>
