<svg width="850" height="171" viewBox="0 0 850 171" fill="none" xmlns="http://www.w3.org/2000/svg">
<g clip-path="url(#clip0_2_778)">
<g opacity="0.4">
<path opacity="0.31" d="M25.78 61.9803C28.07 61.8403 29.74 61.8903 30.78 62.1303C31.65 61.5903 32.46 61.2103 33.21 61.0003C34.93 61.0103 36.25 60.8903 37.19 60.6303C38.23 60.3303 39.16 59.9203 40 59.4203C50.9 56.1803 59.42 57.6103 65.57 63.7103C66.96 67.3703 68.83 69.4003 71.21 69.7903C74.78 71.8903 77.18 74.5803 78.43 77.8903L78.11 78.0203C78.2 78.2303 78.37 78.3103 78.62 78.2503C79.86 81.4103 78.54 87.9103 74.67 97.7603C73.84 99.3603 72.97 100.31 72.04 100.6L71.39 99.9903C74.71 94.3903 75.62 89.6203 74.1 85.6803L73.08 83.1303C70.13 80.5103 66.86 79.1603 63.27 79.0803C60.51 78.8203 57.33 79.0903 53.73 79.8903L53.11 80.4303L52.22 80.2803C51.89 80.6703 51.45 80.9403 50.91 81.0903L50.72 80.7203L50.16 81.3103L49.41 81.5303C49.16 81.5903 48.99 81.4903 48.89 81.2403L48.33 81.8303L46.13 82.5003C41.45 83.8603 35.01 87.8003 26.82 94.3403C23.47 97.7503 21.05 100.65 19.55 103.03C18.71 104.45 19.88 109.26 23.05 117.46L22.73 117.59L23.33 118.26L24.77 121.93C25.27 123.17 26.2 125.2 27.55 128.02L27.23 128.15C33.38 139.77 38.68 147.45 43.15 151.2C49.44 156.7 54.67 158.83 58.85 157.58L60.3 157.19C62.33 156.48 64.12 155.12 65.68 153.09L67.18 152.7L67.32 153.07C67.82 154.35 65.76 156.45 61.12 159.37C54.04 161.47 46.45 158.13 38.33 149.37C32.18 142.76 26.99 134.06 22.78 123.28C22.56 123.33 22.41 123.25 22.32 123.04C21.31 119.57 20.74 117.4 20.6 116.54C20.54 116.29 20.37 116.21 20.09 116.31L18.75 111.81L17.78 109.25C17.69 109 17.77 108.83 18.01 108.74L17.3 108.14C17.4 107.58 17.39 107.18 17.26 106.94C13.03 112.25 12.25 118.34 14.92 125.23C16.09 128.98 16.96 131.56 17.51 132.98L17.19 133.11C17.62 133.52 17.89 133.84 17.98 134.09L17.94 134.97C18.34 135.34 18.6 135.67 18.73 135.95L19.38 138.64C19.78 139.01 20.02 139.34 20.12 139.62L19.8 139.7C20.2 140.14 20.87 141.19 21.8 142.83L21.42 142.86C23.12 147.26 25.58 149 28.8 148.09L29.4 148.7L29.59 149.07C29.78 149.57 29.62 149.89 29.12 150.04C28.9 150.09 27.83 150.14 25.9 150.18C29.37 155.72 34.53 160.2 41.39 163.61C41.85 163.46 43.51 163.79 46.35 164.59C47.44 164.94 49.93 165.02 53.83 164.82C61.09 161.87 67.76 157.85 73.83 152.77C79.41 146.51 82.79 143.21 83.97 142.86L84.11 143.23C84.24 143.51 82.38 146.11 78.53 151.02L78.61 151.4C91.15 141.67 97.87 136.68 98.77 136.43L99.47 136.21L99.61 136.58C100.07 137.79 95.49 141.86 85.87 148.8C86.06 149.34 82.25 152.23 74.43 157.49C68.71 161.93 61.18 165.5 51.85 168.21L51.72 167.89L51.11 168.49C40.96 171.48 30.67 170.43 20.25 165.33C12.87 160.35 7.89999 154.58 5.32999 148.02C5.07999 148.11 4.90999 148.04 4.81999 147.79C4.72999 147.54 4.80999 147.39 5.05999 147.33L3.92999 145.55C-0.200013 134.9 -1.10001 122.38 1.23999 107.97C1.48999 107.84 2.09999 105.89 3.07999 102.12C2.98999 101.87 2.80999 101.78 2.55999 101.83C1.62999 98.8703 4.18999 92.3903 10.24 82.4103L12.6 76.8503C12.46 76.5003 13.34 74.8703 15.23 71.9803C18.2 66.5303 21.7 63.1803 25.78 61.9803ZM4.35999 140.25C4.44999 140.46 4.61999 140.54 4.86999 140.48L5.92999 144.24C7.77999 149.14 10.93 154.07 15.38 159.02L15.7 158.94L15.56 158.57C11.92 154.14 9.44999 150.22 8.15999 146.81L8.53999 146.78L7.82999 146.12C7.63999 145.58 7.59999 145.06 7.70999 144.54L6.99999 143.94C4.34999 135.37 3.93999 125.82 5.77999 115.29C6.15999 111.35 8.92999 102.63 14.08 89.1303C13.43 87.3903 13.96 86.2703 15.68 85.7703L20.2 76.3103L19.82 76.4003C18.64 76.7503 16.36 79.3203 12.97 84.1303C10.56 86.9203 7.77999 93.8803 4.63999 105.03C1.68999 117.57 1.58999 129.32 4.35999 140.25ZM9.39999 143.64L10.06 144.3C15.25 157.64 23.44 165.3 34.64 167.27C38.93 167.37 41.37 167.34 41.98 167.18L42.35 167.04L42.21 166.67C39.92 167.33 35.48 165.77 28.9 162.02C25.29 159.82 21.59 156 17.79 150.55L18.17 150.46C16.42 148.7 14.51 145.15 12.45 139.83C11.77 140.07 10.77 138.88 9.42999 136.28C8.88999 134.93 8.71999 127.07 8.93999 112.67L8.74999 112.36C5.94999 124.17 6.27999 134.55 9.72999 143.5L9.39999 143.64ZM12.07 124.01C12.52 128.84 13.32 132.71 14.47 135.62L14.88 136.68C14.97 136.93 14.91 137.1 14.7 137.19L15.35 137.8L15.9 139.24C17.94 143.32 19.37 145.24 20.19 144.99L20 144.62L18.79 142.52L19.16 142.38L17.72 140.79C15.26 133.74 13.53 128.25 12.52 124.3L12.44 123.92L12.07 124.01ZM15 99.8603C15.18 100.25 14.61 103 13.29 108.11L13.67 108.08C15.98 104.86 16.67 102.07 15.75 99.6903L15 99.8603ZM15.17 76.9703L15.54 76.8303C19.16 73.0703 22.55 70.1703 25.72 68.1303C26.64 65.9403 27.54 64.7103 28.39 64.4603L28.25 64.0903L25.68 64.8903C22.35 65.8603 18.85 69.8803 15.17 76.9703ZM18.04 100.22L18.18 100.59L18.55 100.45C25.66 89.9403 36.48 82.5303 51.03 78.2003L51.17 78.6303L51.78 77.9803L52.91 77.7303C53.16 77.6403 53.31 77.7003 53.36 77.9103C53.65 77.8503 53.73 77.7003 53.6 77.4503C58.53 76.0003 63.99 76.3003 69.96 78.3503C73.44 80.2303 75.63 82.3103 76.54 84.5803L76.92 84.4903C76.96 81.7403 76.87 80.1203 76.65 79.6303L76.15 78.1303C74.56 74.1603 71.8 71.7103 67.89 70.7703L68.44 74.2903L67.69 74.5103L67.42 73.8203L66.21 71.6703C66.32 71.2203 66.2 70.5903 65.84 69.7803C60.9 68.7803 56.78 68.7603 53.49 69.7103L49.04 71.0503C40.82 73.4903 31.24 79.5703 20.31 89.2803C17.54 92.6803 16.76 95.9203 17.95 99.0103C17.7 99.0803 17.73 99.4803 18.04 100.22ZM18.42 146.71L18.56 147.08C20.35 151.7 25 156.59 32.5 161.78L33.38 161.88C30.23 159.5 26.25 154.94 21.44 148.23C21.2 148.32 20.19 147.82 18.42 146.71ZM43.22 61.3203L39.9 62.3003L39.34 62.8903L40.35 64.6203L40.54 64.9303C40.68 65.3203 40.45 65.8103 39.83 66.4103C38.04 65.0203 36.36 64.5603 34.79 65.0503C35.07 65.7603 34.95 66.1903 34.45 66.3403C34.2 66.4303 33.78 66.4303 33.19 66.3303C28.39 69.0503 24.03 75.7903 20.08 86.5603L20.45 86.4203C29.62 77.9803 37.12 72.9103 42.95 71.2103C42.77 70.7803 43.91 70.1803 46.37 69.4003L51.14 67.9303C55.29 66.7203 60.01 66.5703 65.31 67.4703L65.23 67.0903C63.67 63.1203 59.05 60.8003 51.35 60.1203C46.38 60.6903 43.86 60.8903 43.77 60.7203L43.22 61.3203Z" fill="#00FFAB"/>
<path opacity="0.31" d="M125.83 53.6004C136.19 52.7804 145.94 65.4304 155.1 91.5604C156.32 95.8904 157.49 102.38 158.61 111.03L158.28 111.77C158.54 112.26 158.68 112.64 158.7 112.89L158.32 112.92C158.34 113.18 158.48 113.29 158.73 113.27C158.66 116.57 158.48 118.23 158.19 118.25L158.58 118.99C157.69 127.65 155.64 135.53 152.43 142.62C146.91 154.72 141.37 160.99 135.81 161.43C134.98 162.48 133.28 163.62 130.7 164.85L130.26 164.12L129.53 164.56L129.15 164.59C128.35 164.65 126.81 163.9 124.53 162.32C118.09 161.77 112.96 160.02 109.14 157.06C103.18 150.99 99.04 143.08 96.74 133.35C94.35 124.8 92.93 115.68 92.5 105.98C91.76 88.7804 94.31 74.9004 100.13 64.3504C103.52 59.5504 107.32 56.9804 111.54 56.6504L112.69 56.5604C114.07 56.4504 115.97 56.6704 118.39 57.2104L119.15 57.1504C120.56 55.5704 122.79 54.3804 125.83 53.6004ZM95.61 82.2004L95.67 82.9104L96.05 82.8804C96 82.2304 96.31 80.8104 96.98 78.6404C96.4 78.6804 95.94 79.8704 95.61 82.2004ZM98.22 88.8004C98.47 88.7804 98.59 88.9004 98.58 89.1604C97.96 89.2104 97.33 92.0404 96.67 97.6504C96.71 98.6704 96.63 99.1904 96.41 99.2104C96.39 99.4704 96.51 99.5904 96.77 99.5704L96.54 102.22L96.71 106.43C96.73 106.68 96.61 106.82 96.36 106.84L96.74 107.52L96.96 111.67C96.94 111.93 96.81 112.07 96.55 112.09L96.99 112.82C97 113.4 96.89 113.92 96.67 114.38L97.06 115.12C97.08 115.38 96.98 115.77 96.77 116.3C97.36 118.67 97.69 120.52 97.76 121.87L97.38 121.9C100.61 137.41 104.87 147.97 110.14 153.59C113.65 156.86 116.12 158.44 117.54 158.33C109.43 151.98 105.01 140.43 104.27 123.66L104.65 123.63L104.26 122.89L104.11 120.27C104.02 118.23 104.03 115.56 104.14 112.26C104.16 112 104.04 111.88 103.78 111.9L104.07 110.01C103.52 97.4404 104.69 87.0904 107.6 78.9604C108.46 75.4504 109.13 73.3704 109.63 72.7104L108.1 72.8304C103.52 73.1904 100.22 78.5104 98.22 88.8004ZM107.17 60.3904L106.41 60.4504L105.67 60.1304C104.68 61.9604 103.95 62.9004 103.48 62.9304C103.5 62.7104 103.38 62.6104 103.13 62.6304C101.43 65.2104 99.79 68.2504 98.2 71.7404L98.64 72.4704L98.67 72.8004C97.72 72.8704 97.05 74.7004 96.63 78.2804L97.34 78.2204C99.2 72.1504 102.78 67.1904 108.07 63.3304C112.1 60.2304 114.81 58.6304 116.19 58.5204C116.18 57.9704 114.79 57.7004 112.01 57.7004C109.95 58.0904 108.34 58.9804 107.17 60.3904ZM99.9 75.3904C99.9 75.9004 99.55 76.8104 98.85 78.1004L99.23 78.0704C99.74 78.0304 100.08 77.2504 100.25 75.7404L100.27 75.3504L99.9 75.3904ZM108.54 65.9904L108.56 65.6004L107.04 66.4904L107.48 67.1704C105.26 69.6504 103.83 71.6604 103.18 73.2104C105.14 72.0704 106.75 71.4504 108.03 71.3504L110.32 71.1704C110.25 70.2204 111.5 67.3304 114.08 62.4804L113.7 62.5104C112.32 62.6204 110.6 63.7804 108.54 65.9904ZM108.64 84.5804C107.77 84.6504 106.83 89.2804 105.84 98.4604L106.52 114.75L106.99 116.58L106.61 116.61L107 117.35L107.1 119.26C107.41 125.97 109.73 135.4 114.05 147.57C117.64 154.64 120.82 158.06 123.58 157.85L123.54 156.7L124.25 156.64C124.29 157.62 124.57 158.1 125.08 158.06C126.56 157.36 128.61 155.06 131.23 151.16C127.27 148.77 123.83 141.94 120.89 130.69C119.19 121.24 118.24 114.24 118.03 109.68L117.93 107L117.46 105.17L117.84 105.14L117.45 104.4L117.41 103.25C117.39 103 117.51 102.86 117.76 102.84L117.32 102.11L116.96 93.4204C116.94 93.1704 117.06 93.0304 117.31 93.0104C117.29 92.7604 117.15 92.6404 116.9 92.6604C117.18 86.9004 117.58 81.5404 118.1 76.6004C116 74.5004 114.43 73.4904 113.42 73.5704L113.04 73.6004C109.92 77.1204 108.45 80.7904 108.64 84.5804ZM106.4 129.19C109.28 143.88 111.5 151.17 113.06 151.05C113.09 151.85 114.14 153.16 116.22 154.97L116.24 154.59C112.27 148.76 109.11 140.29 106.77 129.17L106.4 129.19ZM111.8 71.0504L112.59 71.3704C116.04 67.8104 119.36 65.9004 122.56 65.6504C123.02 64.5904 123.62 64.0304 124.35 63.9704L124.37 63.5904C120.85 62.5904 118.3 62.1504 116.7 62.2804C115.04 63.5004 113.41 66.4304 111.8 71.0504ZM114.44 71.2304L114.5 71.9404C115.86 73.3704 117.28 74.0204 118.77 73.9104C118.71 72.7404 119.5 70.6504 121.13 67.6304L120.75 67.6604C118.25 68.4804 117.02 69.3404 117.06 70.2504C115.93 70.8504 115.06 71.1804 114.44 71.2304ZM118.16 59.9104L118.2 61.0604C120.05 60.9104 122.35 61.4804 125.08 62.7704L125.07 62.0004C124.28 61.7304 122.58 60.8604 119.98 59.3804L118.16 59.9104ZM123.77 67.0404C120.89 70.4504 119.53 73.9804 119.67 77.6204L120.11 78.3504L120.12 79.1204C119.03 79.2104 118.54 85.3204 118.66 97.4504C118.92 97.9104 119.05 98.2804 119.08 98.5704L118.7 98.6004L119.14 99.3304L119.17 100.42C119.19 100.68 119.07 100.81 118.82 100.83L119.21 101.57C119.23 101.82 119.11 101.96 118.86 101.98C119.12 102.47 119.26 102.85 119.28 103.1C119.3 103.35 119.18 103.49 118.93 103.51L119.38 105.01C120.36 127.17 124.27 141.78 131.12 148.85L132.33 149.52C137.88 138.33 140.39 126.23 139.83 113.22L139.52 107.21C139.16 98.9704 135.58 85.9604 128.76 68.1804C126.86 67.5604 125.2 67.1804 123.77 67.0404ZM118.7 158.55L118.68 158.93C119.12 158.9 119.75 159.1 120.59 159.55L121.35 159.49L121.37 159.1C120.68 159.15 119.9 158.96 119.02 158.52L118.7 158.55ZM121.5 58.4904L121.48 58.8804C121.88 58.8504 123.44 59.6004 126.16 61.1504L134.35 66.2104C141.93 73.2604 147.72 82.0504 151.74 92.6004L152.5 92.5404L152.52 92.1504C148.92 78.5004 143.31 68.5604 135.69 62.3204C131.22 59.3804 126.85 58.0804 122.6 58.4104L121.5 58.4904ZM121.79 56.5504L121.82 56.9304C130.03 56.2804 137.01 60.0504 142.73 68.2304L143.11 68.2004L143.1 67.4304C136.72 58.8304 131.22 54.7104 126.6 55.0704L125.89 55.1204C125.06 55.1904 123.69 55.6704 121.79 56.5504ZM125.17 64.6804L124.79 65.4804C124.83 66.0204 126.13 66.4204 128.67 66.6604L128.61 65.9004C126.54 65.0604 125.39 64.6604 125.17 64.6804ZM127.18 162.49C127.2 163.15 128.72 163.52 131.77 163.61C132.9 163.05 133.51 162.5 133.62 161.98L127.18 162.49ZM127.72 157.51L128.48 157.45C130.41 157.3 133 155.82 136.25 153L136.22 152.62C135.06 152.71 133.9 152.44 132.75 151.8L132.37 151.83L127.72 157.51ZM128.52 158.55L128.55 158.93L130.02 158.81L130.04 158.42L128.52 158.55ZM130.78 157.98L130.81 158.36L131.14 158.33C134.39 156.83 135.99 155.83 135.95 155.32C133.19 157.04 131.47 157.93 130.78 157.98ZM131.26 66.0604L136.03 70.2404L136.01 70.6304L136.39 70.6004L136.38 69.8304L131.64 66.0404L131.26 66.0604ZM131.87 70.9504L131.93 71.7104C134.82 80.5104 136.82 86.1904 137.94 88.7404L137.61 89.4804C139.31 94.8304 140.6 100.95 141.47 107.83C141.45 108.05 141.31 108.17 141.06 108.19L141.54 110.07L141.64 111.98C141.66 112.23 141.54 112.37 141.29 112.39C141.31 112.64 141.43 112.76 141.65 112.75C142.22 125.58 139.6 137.8 133.79 149.41C133.32 149.52 133.09 149.79 133.09 150.23C135.13 151.09 136.79 151.47 138.06 151.37C142.22 146.62 144.42 142 144.65 137.52C146.12 130.6 146.71 123.97 146.43 117.63L146.3 114.62C145.73 101.79 141.05 87.2204 132.26 70.9104L131.87 70.9504ZM134.6 159.22L135.36 159.16C136.49 158.67 137.34 157.85 137.91 156.71L137.15 156.77C135.43 158.07 134.58 158.89 134.6 159.22ZM135.4 73.3604L135.43 73.7404C143.13 88.3804 147.23 101.46 147.74 112.98L147.78 114.9C147.83 115.48 147.97 115.98 148.23 116.4C148.01 116.86 147.92 117.36 147.96 117.9L148.13 122.82C148.15 123.08 148.03 123.21 147.78 123.23L148.22 123.96L148.2 124.34L147.88 125.13L148.64 125.07L149.21 112.85C148.95 112.39 148.82 112.04 148.8 111.79L149.18 111.76C148.92 111.27 148.78 110.89 148.76 110.64C148.72 109.69 148.46 106.55 147.96 101.21L148.72 101.15L148.75 101.53C149.07 103.7 149.24 104.95 149.26 105.27L148.88 105.3L149.32 106.03L149.39 108.27L149.97 112.78L149.59 112.81L150.03 113.54L150.06 113.92C150.04 114.18 149.91 114.32 149.65 114.34C149.67 114.59 149.81 114.71 150.06 114.69C150.28 119.39 149.34 126.43 147.23 135.82L147.21 136.2L147.59 136.17C151.24 127.32 152.94 119.84 152.68 113.72L153.06 113.69L152.62 112.96L152.64 112.57C152.62 112.32 152.74 112.18 152.99 112.16L152.55 111.48C152.55 110.97 152.67 110.7 152.93 110.68C152.46 100.11 148.04 88.8104 139.67 76.7804L139.34 76.8104L139.35 77.5804C143.22 83.4604 146.33 90.9304 148.69 99.9904L148.31 100.02C147.98 100.05 146.98 97.4804 145.29 92.3004L145.25 90.3804L144.49 90.4404L144.37 88.2004C143.67 88.1104 142.43 85.6604 140.66 80.8704C137.55 75.8404 135.8 73.3304 135.4 73.3604ZM137.57 71.6504L137.63 72.4104C137.96 72.3804 138.6 72.8504 139.55 73.7904C139.18 72.7704 138.52 72.0504 137.57 71.6504ZM139.5 158.06L139.83 158.03C141.28 157.92 143.82 155.07 147.44 149.48C146.6 149.55 143.96 152.41 139.5 158.06ZM140.84 154.17L141.22 154.14L142.24 152.52L141.86 152.55C141.5 152.58 141.16 153.12 140.84 154.17ZM147.91 125.53C147.94 126.37 147.84 127 147.62 127.42L148.38 127.36L148.29 125.5L147.91 125.53ZM154.06 128.44C152.39 136 150.38 141.86 148.04 146.03L148.8 145.97C150.82 143.29 152.73 137.82 154.53 129.55L154.44 128.41L154.06 128.44ZM151.86 129.77C151.88 130.46 150.87 133.45 148.84 138.73L148.87 139.11L149.25 139.08C150.82 134.9 151.83 131.91 152.27 130.12L152.24 129.74L151.86 129.77ZM151.76 92.9104L152.56 94.0004L152.24 94.7904L153.03 95.1104L152.96 93.5804C152.92 93.0704 152.65 92.8404 152.14 92.8804L151.76 92.9104ZM152.74 89.4404C154.82 96.8504 156.18 107.51 156.8 121.43L157.18 121.4C157.28 117.59 157.28 114.79 157.18 113.01C156.85 105.17 155.63 97.3004 153.51 89.3804L152.74 89.4404ZM154.69 124.61L154.73 126.53L155.11 126.5L155.07 124.58L154.69 124.61Z" fill="#00FFAB"/>
<path opacity="0.31" d="M221.35 44.0302L222.44 43.9402C222.95 43.9002 223.26 44.5502 223.36 45.9002L224.51 45.8102C227.38 45.5802 230.45 49.7502 233.72 58.3002L233.78 59.1202L233.07 59.1702C231.88 58.0602 230.57 55.7502 229.12 52.2402C227.34 49.6402 225.86 48.2902 224.69 48.2002L224.02 49.4102C224.37 53.8402 225.5 60.3202 227.42 68.8402C227.44 69.0902 227.32 69.2302 227.07 69.2502C229.83 81.9802 233.76 103.1 238.87 132.61L239.96 132.52C239.35 129.9 238.47 125.01 237.32 117.86C237.3 117.57 237.41 117.41 237.67 117.39L237.13 115.46L236.34 105.48C236.29 104.86 236.12 104.35 235.83 103.93C236.05 103.44 236.13 102.88 236.08 102.26L235.57 100.71L235.95 100.68L235.5 99.8902L235.47 99.5102C235.45 99.2602 235.57 99.1202 235.82 99.1002C235.8 98.8102 235.66 98.6702 235.4 98.7002L235.63 96.7102L235.09 89.9002C235.07 89.6502 235.19 89.5102 235.44 89.4902L234.99 88.7002C234.97 88.4502 235.09 88.3102 235.34 88.2902C235.32 88.0402 235.18 87.9202 234.93 87.9402C234.91 81.6202 235.09 76.1202 235.49 71.4402C235.2 70.9902 235.03 70.4502 234.98 69.8302L235.88 61.7502C235.86 61.4902 235.72 61.3802 235.47 61.4002C235.57 58.9802 235.84 57.7502 236.28 57.7102C236.26 57.4202 236.12 57.2802 235.86 57.3102C236.48 51.6602 237.26 48.8102 238.2 48.7302L239.35 48.6402C239.93 48.6002 240.63 49.6002 241.45 51.6602C241.49 52.2002 240.67 52.9502 238.99 53.8802C236.94 65.8502 236.69 81.8002 238.26 101.72L238.67 106.9C238.69 107.15 238.57 107.29 238.32 107.31C238.62 107.84 238.78 108.23 238.8 108.48C241.18 130.27 243.27 141.1 245.09 140.95L245.66 143.26C245.48 143.27 245.15 143.7 244.66 144.55C244.95 145 245.12 145.54 245.17 146.16L245.88 146.1C245.82 145.3 246 144.34 246.42 143.21C246.13 142.72 245.97 142.33 245.94 142.04L247.32 140.78L248.17 141.86L247.79 141.89L248.24 142.68C248.46 145.44 247.9 147.9 246.57 150.05L246.63 150.87L248.09 154.76L247.71 154.79C249.18 157.64 250.69 160.99 252.23 164.86L251.85 164.89C250.32 165.01 247.67 159.86 243.88 149.45L243.09 149.13L242.38 149.19C241.19 150.34 240.49 150.93 240.27 150.95C236.74 151.23 229.11 145.14 217.38 132.68C204.4 117.39 193.64 103.12 185.09 89.8602L184.71 89.8902L184.74 90.2702C185.71 99.2602 186.55 105.36 187.28 108.56L186.95 108.59C188.91 117.69 190.41 124.13 191.44 127.93L191.06 127.96C194.04 138.33 196.28 144.57 197.8 146.68L197.71 145.48L198.47 145.42C198.57 146.66 198.89 147.56 199.45 148.14C199.24 148.71 199.14 149.12 199.16 149.37C199.89 151.18 200.88 152.58 202.13 153.58C202.86 153.52 203 150.7 202.56 145.1L202.47 143.9L203.23 143.84C204.09 145.05 204.55 145.95 204.59 146.53L204.21 146.56L204.66 147.35C204.68 147.6 204.56 147.74 204.31 147.76L204.76 148.55L205.07 152.53C205.09 152.82 204.98 152.98 204.72 153L205.16 153.73C205.29 155.33 204.48 156.2 202.73 156.34C201.97 156.4 200.5 155.46 198.34 153.51C197.82 154.87 196.9 155.6 195.55 155.7C189.41 156.18 184.63 146.67 181.23 127.15C180.36 122.21 179.18 113.45 177.68 100.88L178.06 100.85L177.62 100.12L177.5 98.5402C177.48 98.2502 177.59 98.0902 177.85 98.0702L177.41 97.3402L177.35 96.5202C177.33 96.2702 177.45 96.1302 177.7 96.1102L177.25 95.3202L177.57 94.4702C177.55 94.2202 177.41 94.1002 177.16 94.1202L177.38 92.0702L176.88 85.6902C176.86 85.4402 176.98 85.3002 177.23 85.2802L176.78 84.4902L176.47 80.5102C176.42 79.9302 176.51 79.3902 176.73 78.9002C176.44 78.4102 176.28 78.0202 176.25 77.7302L176.63 77.7002C171.14 68.8802 168.15 64.2902 167.64 63.9302C167.93 67.6702 167.83 69.5602 167.32 69.6102L167.77 70.4002L168.46 79.1802C168.61 81.1402 168.86 82.5902 169.19 83.5102C169.07 85.2702 169.08 87.0102 169.22 88.7202L170.1 99.9002C170.15 100.52 170.32 101.03 170.61 101.45C170.63 101.74 170.52 101.9 170.26 101.92L170.8 103.85L171.87 117.42C171.96 118.55 172.2 120.01 172.6 121.8L172.28 122.59L172.82 124.58C172.84 124.87 172.75 125.28 172.53 125.81L173.77 131.75L173.39 131.78L173.83 132.51L173.86 132.95C174.78 144.66 178.16 152.67 183.99 157C185.65 158.15 186.71 158.74 187.15 158.78C188.02 158.71 188.56 157.61 188.75 155.47L189.48 154.97L189.93 155.76L189.29 157.4C189.8 157.43 190.08 157.69 190.12 158.16C189.74 159.8 188.8 160.68 187.31 160.79C184.48 161.01 180.85 157.95 176.44 151.61C174.72 148.86 173.19 143.75 171.83 136.29L172.21 136.26C171.48 136.32 169.31 115.08 165.7 72.5402L165.26 71.8102C165.69 63.8002 166.1 59.4702 166.48 58.8202L167.63 58.7302C173 63.2402 175.71 65.8502 175.76 66.5402L176.47 66.4902L176.44 66.1102C176.5 54.3302 177.65 48.3502 179.91 48.1702C181.21 48.4702 181.92 49.3502 182.04 50.8002L181.66 50.8302C182.3 52.4302 182.64 53.4602 182.67 53.9302L182.29 53.9602C182.57 54.2302 182.78 55.2902 182.92 57.1502L184.61 54.9902L186.85 54.8102C188.17 55.8402 188.92 57.3902 189.08 59.4602L189.17 60.6602C189.21 61.2002 188.98 61.5002 188.47 61.5402C187.74 61.6002 187.17 60.5702 186.74 58.4402L186.36 58.4702C185.86 58.6202 185.42 59.3302 185.05 60.6002C189.33 63.4402 193.56 67.9202 197.74 74.0302C204.05 82.6702 210.98 94.1802 218.51 108.54C218.84 108.59 221.56 111.32 226.67 116.73C224.29 105.51 222.39 95.8902 220.99 87.8802L221.37 87.8502C221.08 87.4002 220.73 86.2202 220.32 84.3102C220.3 84.0602 220.42 83.9202 220.67 83.9002L220.06 81.0902L219.4 72.7502C219.35 72.1302 219.2 71.6002 218.94 71.1402C219.12 70.6902 219.19 70.1502 219.14 69.5302L218.92 66.7502C218.68 62.7502 218.77 60.7302 219.21 60.6902C219.19 60.4402 219.05 60.3202 218.8 60.3402C218.79 57.3802 219.05 55.8802 219.6 55.8302C219.58 55.5802 219.44 55.4602 219.19 55.4802C219.06 53.7702 219.74 51.3102 221.24 48.0802C220.87 46.6802 220.65 45.4902 220.57 44.5102L221.35 44.0302ZM172.72 65.9202L172.78 66.7402C172.87 67.9402 174.07 68.7802 176.38 69.2502L176.32 68.4902C175.63 68.5402 174.69 67.8102 173.51 66.3002L172.72 65.9202ZM178.4 71.1202L178.46 71.8802C180.13 74.0502 180.98 75.3402 181.01 75.7402L181.77 75.6802C181.67 74.3402 180.54 72.8102 178.4 71.1202ZM180.04 53.7102C179.06 57.5602 178.53 61.8802 178.43 66.6702L178.82 67.4602C178.64 67.9902 178.56 68.4002 178.59 68.6802C180.19 70.0202 181.02 71.0102 181.07 71.6702L181.45 71.6402C181.53 66.6202 181.83 62.6002 182.36 59.5502C182 59.5802 181.58 59.2102 181.12 58.4402L180.81 54.4602C180.77 53.9302 180.51 53.6702 180.04 53.7102ZM178.8 81.1302L179.27 87.1302C179.29 87.3902 179.17 87.5202 178.92 87.5402L179.37 88.3302L179.11 89.9402L179.62 91.4902L179.36 93.1002C179.38 93.3902 179.54 93.7802 179.84 94.2702C179.7 95.7402 179.67 96.9502 179.74 97.9002L179.9 99.9202C179.95 100.5 180.11 101.02 180.41 101.47C180.43 101.73 180.31 101.86 180.06 101.88C181.49 113.54 182.56 120.83 183.27 123.74L182.94 123.77C185.93 139.44 188.77 148.58 191.47 151.18C193.27 152.65 194.33 153.37 194.66 153.34C195.75 153.25 196.57 152.53 197.12 151.17C194.81 148.32 192.04 140.36 188.82 127.3C186.75 120.11 184.8 109.42 182.94 95.2302L183.32 95.2002L182.88 94.4702L182.15 85.2602L178.8 81.1302ZM184.25 64.6202C183.85 68.8202 183.71 71.6502 183.82 73.1002L183.91 74.3002C189.12 80.5102 193.22 85.0002 196.22 87.7602L211.97 101.77L211.94 101.39C206.41 90.6702 199.3 79.7302 190.59 68.5702C190.37 68.5902 189.56 67.8502 188.17 66.3502L188.3 67.9302C187.02 68.0302 185.67 66.9302 184.25 64.6202ZM184.29 79.1002L184.32 79.4802L185.15 81.0002L184.06 81.0902L184.19 82.6702C189.72 93.4302 200.88 107.94 217.69 126.22C220.32 129.38 223.98 132.97 228.69 136.98L228.72 137.42L229.1 137.39L229.04 136.57C220.94 125.25 216.4 118.64 215.41 116.75L216.17 116.69C218.42 119.66 220.34 121.79 221.94 123.09C222.54 124.18 222.84 124.81 222.86 124.99L223.24 124.96L223.21 124.58C218.84 113.66 215.33 107.39 212.67 105.77C195.63 90.8802 186.17 81.9902 184.29 79.1002ZM221.76 54.0402C221.76 57.2602 221.5 58.8902 220.99 58.9302C221.01 59.1802 221.15 59.3002 221.4 59.2802C221.14 61.9702 221.11 64.6602 221.32 67.3502L221.35 67.7302C221.37 67.9802 221.25 68.1202 221 68.1402L221.45 68.9302L221.57 70.5102C222.99 88.5002 226.25 106.18 231.35 123.55C232.69 124.36 233.97 126.12 235.17 128.84L235.55 128.81C232.2 108.56 227.72 83.6202 222.13 54.0002L221.76 54.0402ZM222.13 115.83L222.16 116.21C226.79 127.22 230.82 135.35 234.23 140.6L234.61 140.57L234.58 140.13C233.12 137.91 230.76 131.8 227.49 121.82L222.13 115.83ZM232.59 129.49L232.62 129.87C234.31 134.13 236.24 138 238.42 141.48L238.45 141.86L238.83 141.83L238.8 141.45C238.53 137.96 236.46 133.98 232.59 129.49ZM237.17 144.38L237.23 145.14L238.38 145.87L238.32 145.05C237.85 145.09 237.59 144.85 237.55 144.34L237.17 144.38Z" fill="#00FFAB"/>
<path opacity="0.31" d="M328.19 37.4204C330.51 37.6704 331.7 38.1504 331.76 38.8404C330.97 39.4904 329.72 40.1504 328.02 40.8404L327.99 40.4604C327.94 39.8804 328.36 39.5504 329.23 39.4904L329.2 39.0504L328.76 39.0904C320.82 40.8504 315.88 41.8104 313.96 41.9604L313.99 42.4004L314.49 43.2404C313.88 43.8704 313.05 44.2304 312 44.3104L312.03 44.6904C314.03 44.5304 315.05 44.7404 315.1 45.3204C315.17 46.2304 309.43 48.1104 297.88 50.9604L297.91 51.4004L300.47 51.2004C303.05 51.0004 307.14 50.2504 312.75 48.9704L313.25 49.7504L313.32 50.6204C305.45 52.4104 296.54 53.7004 286.58 54.4804L285.8 77.3104C285.82 77.6004 285.96 77.7404 286.22 77.7204C285.87 80.2704 285.87 83.7104 286.21 88.0304L286.45 91.0304L287.23 90.5304L287.67 90.5004L287.7 90.9404C287.77 91.7804 287.38 92.2304 286.54 92.2904C286.59 92.8704 286.75 93.1504 287.04 93.1304L286.84 96.1604C288.62 114.05 289.74 122.97 290.21 122.94C289.96 123.47 289.86 124.07 289.91 124.72C290.24 125.24 290.42 125.65 290.45 125.94L290.01 125.98L291.89 133.18L291.59 134.9L292.87 139.96L292.03 140.47C291.38 140.52 290.24 137.03 288.63 129.99C288.34 130.01 288.15 129.44 288.06 128.28L287.62 128.32L287.79 130.5C288.57 132.96 289 134.65 289.07 135.56C288.23 135.63 287.85 136.08 287.92 136.91L287.05 136.98L287.02 136.54C287 136.29 287.14 136.15 287.43 136.12C286.74 134.86 286.34 133.45 286.22 131.88L285.78 131.91L285.88 133.22C286.44 136.61 286.79 139.17 286.92 140.87L287.79 140.8L287.62 138.67L288.44 138.61L288.64 141.17C288.69 141.79 288.88 142.34 289.21 142.83C288.96 146.58 288.54 148.48 287.96 148.53C287.06 148.31 286.56 147.49 286.45 146.07L286.07 146.1C286.32 149.23 286 150.82 285.13 150.89L284.69 150.93C282.98 151.06 280.71 145.94 277.88 135.56L277.85 135.12L278.29 135.09L277.79 134.31L276.57 118.88C276.26 114.99 276 109.86 275.79 103.47C271.1 83.8404 268.33 68.7304 267.5 58.1504L266.59 57.7804C258.67 58.4104 250.22 60.2204 241.24 63.2404C240.23 64.7504 239.73 65.6404 239.75 65.9404C240.3 65.9704 240.59 66.2204 240.63 66.6904L240.73 68.0004L240.35 68.0304C237.63 66.4904 236.26 65.5904 236.24 65.3404L236.17 64.4704C236.87 63.6104 239.99 61.5004 245.54 58.1404C245.37 56.0004 252.3 53.0204 266.34 49.2004L266.17 47.0704C256.29 48.4304 249.52 49.6804 245.84 50.8104C245.31 50.5604 244.73 50.4604 244.12 50.5104L244.09 50.0704C244.05 49.5604 246.97 48.6204 252.86 47.2404L252.89 47.6804L253.73 47.1704C254.02 47.1504 254.18 47.2804 254.2 47.5704L267.31 44.8404C267.81 45.0904 268.38 45.2004 269.03 45.1404L270.69 44.5704L270.72 45.0104C271.01 44.9904 271.14 44.8304 271.12 44.5404L274.15 44.7404L289.52 43.5304C290.17 43.4804 290.73 43.2904 291.18 42.9604C291.71 43.2104 292.31 43.3104 292.96 43.2604L298.96 42.7904C299.21 42.7704 299.35 42.8904 299.37 43.1404C311.41 41.0104 321.01 39.1204 328.19 37.4204ZM243.7 50.5004C245.81 51.7604 246.88 52.5404 246.9 52.8304L246.46 52.8704C244.25 52.2804 243.05 51.6604 242.86 51.0104L243.7 50.5004ZM247.75 58.7904L247.78 59.2304C260.48 56.6204 266.8 54.8204 266.72 53.8404C266.62 52.5704 266.7 51.7004 266.95 51.2404L266.51 51.2804C264.05 51.4704 257.8 53.9804 247.75 58.7904ZM267.5 46.9204L267.63 48.6104L268.45 48.5504L268.42 48.1104C268.09 47.5904 267.91 47.1804 267.89 46.8904L267.5 46.9204ZM267.8 50.7404C268.09 51.1204 268.29 52.1104 268.42 53.7104C270.28 52.7204 271.83 52.1804 273.06 52.0804C272.73 51.6704 272.52 50.8204 272.42 49.5504C271.82 49.8204 270.28 50.2104 267.8 50.7404ZM268.72 57.5804L268.75 58.0204C268.79 58.4904 269.13 59.1804 269.79 60.0804C269.62 61.6304 269.57 62.9104 269.65 63.9304C269.72 64.8004 270.09 65.7804 270.76 66.8604L270.39 67.7704L275.04 94.0604L275.48 94.0304L275.08 88.9004L275.52 88.8604C275.5 88.5704 275.34 88.4304 275.05 88.4604C275.05 83.7804 275.15 81.3404 275.35 81.1404C275.33 80.8504 275.17 80.7204 274.88 80.7404C274.88 69.1104 275.01 61.7904 275.29 58.7704C274.89 57.3804 274.54 56.6904 274.25 56.7104C274.1 56.7104 272.26 57.0104 268.72 57.5804ZM268.75 46.8204C269.08 47.3404 269.26 47.7504 269.28 48.0404L270.97 47.9104C271.55 47.8704 271.82 47.5704 271.78 47.0204L271.71 46.1504L269.58 46.3204L268.75 46.8204ZM268.96 54.9804L268.99 55.4204L273.3 55.0804C273.85 55.0404 274.1 54.7204 274.05 54.1404L273.98 53.2704C271.5 54.3404 269.83 54.9104 268.96 54.9804ZM273.4 46.0204L273.47 46.8904L273.91 46.8504C274.27 46.8204 275.7 46.5604 278.18 46.0704L278.15 45.6304L273.4 46.0204ZM274.15 49.8504C274.48 50.3704 274.66 50.7804 274.69 51.0704C281.28 48.8304 284.92 47.6904 285.61 47.6304L285.58 47.1904L285.14 47.2204C277.75 48.1804 274.08 49.0504 274.15 49.8504ZM275.25 52.7304L275.32 53.6004L275.82 54.4404C276.02 54.1304 279.25 53.4404 285.53 52.3604C285.46 51.5304 285.53 50.5104 285.73 49.3304L285.29 49.3704C284.57 49.4104 281.22 50.5404 275.25 52.7304ZM276.84 67.2504C276.89 67.9004 276.79 68.4804 276.54 68.9704L277.41 68.9004L277.28 67.2104L276.84 67.2504ZM276.6 69.8504L276.67 81.8604L277.11 81.8204L276.74 82.7304L276.81 83.6004C276.86 84.2204 277.05 84.7704 277.38 85.2604C276.89 86.4304 276.72 88.0204 276.88 90.0204L277.08 92.5804C277.1 92.8704 276.97 93.0304 276.68 93.0504L277.18 93.8904L277.21 94.3304C277.23 94.6204 277.1 94.7804 276.81 94.8004C276.83 95.0504 276.99 95.1704 277.28 95.1504L277.02 97.3704C277.6 104.75 279.61 115.61 283.05 129.97L283.49 129.94C283.42 129.07 283.53 128.62 283.82 128.6L283.32 127.82C283.02 124.08 282.79 119.21 282.61 113.23C282.59 112.98 282.43 112.86 282.14 112.88L282.4 110.67L281.39 97.8604C281.34 97.2404 281.44 96.6704 281.69 96.1404C281.67 95.8504 281.51 95.7204 281.22 95.7404L281.42 92.7004L281.15 89.2704L280.48 86.3604L280.92 86.3204L277.48 69.8004L276.6 69.8504ZM278.15 116.57L279.23 130.25C279.95 139.41 281.86 145.57 284.97 148.72L284.86 141.82C280.97 129.11 278.86 120.68 278.53 116.54L278.15 116.57ZM280.21 61.3904L280.98 71.2004C281.07 72.4004 281.34 73.9704 281.79 75.9104C281.53 76.3304 281.45 77.2004 281.56 78.5104L282.33 82.7304L281.89 82.7704C282.22 83.2904 282.4 83.7004 282.43 83.9904C282.56 85.6604 282.99 89.2104 283.71 94.6404L284.58 94.5704L284.34 91.5704C284.26 90.5504 284.29 89.2704 284.42 87.7204C284.12 87.2004 283.96 86.7704 283.94 86.4404L284.32 86.4104L283.87 85.6204C282.4 74.4004 281.6 68.0104 281.48 66.4404L280.98 65.6004C280.96 65.3504 281.09 65.2104 281.39 65.1804C281.01 64.1104 280.77 62.8304 280.65 61.3404L280.21 61.3904ZM280.61 55.3204L280.64 55.7604C281.25 56.0404 282.05 59.0004 283.04 64.6204C282.79 65.1204 282.69 65.6904 282.74 66.3404L283.61 66.2704L283.64 66.7104C283.66 67.0004 283.53 67.1604 283.24 67.1804C283.26 67.4704 283.42 67.6004 283.71 67.5804L283.51 70.5604L284.29 74.8304L284.73 74.7904C284.46 67.6804 284.52 63.0804 284.9 61.0104C284.88 60.7204 284.74 60.5804 284.48 60.6004C284.79 57.5804 284.92 55.7004 284.86 54.9704L280.61 55.3204ZM283.78 95.5004L284.42 103.62L284.86 103.58L284.22 95.4604L283.78 95.5004ZM284.77 124.66L285.11 128.91L285.71 131L286.15 130.96L286.12 130.58C285.72 129.22 285.42 127.23 285.21 124.62L284.77 124.66ZM286.52 48.8804L286.72 51.4404L286.4 52.2904C298.82 49.3004 307.08 46.9304 311.18 45.1804L311.15 44.7404C310.86 44.7604 310.7 44.6504 310.68 44.3904C309.11 45.3504 307.43 45.9104 305.65 46.0504C305.36 46.0704 304.93 45.9604 304.36 45.7104L298.9 47.4604L298.83 46.5904L304.67 44.8704L304.64 44.4304L301.7 44.6604C300.77 44.7404 295.71 46.1404 286.52 48.8804ZM287.36 119.3L287.63 122.73L288.07 122.7L287.8 119.26L287.36 119.3Z" fill="#00FFAB"/>
<path opacity="0.31" d="M364.03 32.8302L365.39 32.7202L367.01 41.4202C365.52 41.5402 366.56 57.0402 370.13 87.9102L370.78 91.2602C372.05 98.1402 376.62 111.79 384.49 132.2C385.49 139.36 385.49 142.98 384.47 143.06C383.56 143.13 380.16 133.45 374.28 114.02L372.81 113.48L372.16 113.53L374.37 125.53C376.68 133.03 377.91 137.23 378.05 138.13C378.23 139.03 377.87 139.52 376.96 139.59C368.69 129.31 363.94 120.87 362.73 114.27C357.82 113.74 352.35 113.72 346.32 114.19C346.21 113.76 345.94 113.56 345.51 113.6L340.01 135.7C340.37 137.5 340.1 138.43 339.19 138.51L337.17 138.67C337.06 138.2 336.72 137.55 336.14 136.72C336.7 129.87 338.06 122.52 340.22 114.68L333.51 115.21C331.92 117.82 330.02 127.24 327.79 143.47L326.59 144.22L327.51 145.52C327.03 149.62 326.28 151.71 325.26 151.79L323.52 149.9L323.1 143.84L322.83 142.49L322.18 142.54C321.8 149.81 320.89 153.5 319.43 153.62L318.78 153.67L318.51 152.32C320.03 143.31 323 132.24 327.41 119.09L327.58 116.39C326.16 116.5 323.09 117.18 318.36 118.43L318.15 117.13C319.78 116.52 321.53 116.15 323.38 116L323.27 115.35C319.13 115.68 315.95 115.71 313.73 115.44C312.13 116.01 310.15 116.38 307.78 116.57L307.4 114.57C307.69 114.55 310.56 114.08 316.01 113.18C316.12 113.65 316.39 113.86 316.83 113.83C316.65 112.93 318.54 112.1 322.5 111.35L322.66 112L323.86 111.25L329.26 110.82C335.84 69.4902 339.82 47.9302 341.22 46.1302C342.13 46.0602 342.69 46.6902 342.91 48.0302L338.32 82.2902L338.48 82.9302L339.13 82.8802C338.94 81.9102 342.4 71.0302 349.5 50.2502L348.26 43.5402C348.22 42.6302 348.59 42.1402 349.35 42.0802C350.45 43.0202 351.14 44.3202 351.41 45.9802L352.77 45.8702C352.97 43.2902 355.05 39.7502 359.01 35.2302L362.5 35.6102C362.39 33.8602 362.9 32.9202 364.03 32.8302ZM323.59 113.32L323.7 113.97L327.08 113.7L326.92 113.06L323.59 113.32ZM325.77 136.19C325.98 137.53 325.82 139.13 325.27 141L325.38 141.65L326.09 141.59L326.53 136.78L326.42 136.13L325.77 136.19ZM326.93 131.38C327 131.85 326.89 132.53 326.6 133.43L326.71 134.08L327.42 134.02C327.31 133.56 327.4 132.87 327.7 131.97L327.59 131.32L326.93 131.38ZM348.83 57.7902C341.91 78.0502 336.76 95.8402 333.4 111.17L341.52 110.53C344.3 103.55 347.9 91.0702 352.34 73.0902C351.73 72.2602 351.38 71.6102 351.31 71.1402C350.86 68.7302 350.31 64.4702 349.65 58.3802L349.49 57.7302L348.83 57.7902ZM352.59 81.8502C349.98 90.9402 347.89 100.6 346.32 110.82L358.75 107.81C358.86 108.28 359.13 108.49 359.57 108.46C359.5 107.99 359.68 107.74 360.11 107.7C358.24 102.51 356.49 96.7802 354.86 90.5002L355.57 90.4502L354.65 89.1502L353.3 81.8002L352.59 81.8502ZM351.89 52.1102C352.22 53.9502 352.45 56.4202 352.58 59.5202L353.5 60.7602C352.85 62.3102 352.65 63.6802 352.89 64.8702L354.36 65.4702L355.9 59.2602L352.53 52.0602L351.89 52.1102ZM352.54 111.04L352.65 111.69C355.92 111.43 358.94 111.65 361.7 112.35L361.16 109.65L360.51 109.7L352.54 111.04ZM354.14 45.7902C354.27 46.5102 353.98 47.4502 353.26 48.6002C354.8 51.8802 355.63 53.8402 355.75 54.4902L356.4 54.4402L354.78 45.7402L354.14 45.7902ZM356.93 64.5502C355.46 71.4302 354.85 75.5602 355.11 76.9302L355.7 80.2802C357.68 90.9502 360.05 100.02 362.84 107.48C366.33 106.77 368 105.96 367.86 105.05L366.56 101.81L367.21 101.76C366.6 100.93 366.25 100.26 366.17 99.7602C365.54 96.3702 363.13 84.5902 358.94 64.4002L356.93 64.5502ZM357.14 43.5302L357.73 46.8902C358.75 46.8102 359.39 44.0502 359.66 38.6202L358.95 38.6802C357.3 39.5302 356.7 41.1502 357.14 43.5302ZM360.17 56.1802L362 66.2402C363.73 70.4902 364.72 73.3402 364.98 74.7802L365.63 74.7302C365.38 73.4302 364.62 61.9702 363.36 40.3502C360.66 47.8002 359.59 53.0802 360.17 56.1802ZM363.06 108.83L363.33 110.18C363.45 110.83 364.25 111.44 365.72 112.02L367.74 111.86C368.61 111.79 368.98 111.31 368.83 110.4L368.45 108.4L363.06 108.83ZM365.39 114.08L365.55 114.73C368.91 123.06 371.56 128.74 373.48 131.77L374.13 131.72L372.23 125.07L370.88 117.71C370.39 115.04 368.56 113.83 365.39 114.08ZM368.79 102.95L369.06 104.3C369.35 105.19 369.88 105.61 370.64 105.55L370.15 102.84L368.79 102.95ZM370.37 107.6L370.96 110.96L372.98 110.8L372.6 108.75C372.46 107.88 371.93 107.49 371.02 107.56L370.37 107.6Z" fill="#00FFAB"/>
<path opacity="0.31" d="M412.47 31.48C414.76 31.34 416.43 31.39 417.47 31.64C418.34 31.1 419.15 30.7201 419.9 30.5101C421.62 30.5201 422.94 30.4 423.88 30.14C424.92 29.84 425.85 29.4301 426.69 28.9301C437.59 25.6901 446.11 27.1201 452.26 33.2201C453.65 36.8801 455.52 38.91 457.9 39.3C461.47 41.4 463.87 44.0901 465.12 47.4001L464.8 47.53C464.89 47.74 465.06 47.82 465.31 47.76C466.55 50.92 465.23 57.42 461.36 67.27C460.54 68.87 459.66 69.82 458.73 70.1101L458.08 69.5C461.4 63.9001 462.31 59.13 460.79 55.19L459.77 52.64C456.82 50.0201 453.55 48.67 449.96 48.59C447.2 48.33 444.02 48.6001 440.42 49.4001L439.8 49.94L438.91 49.7901C438.58 50.18 438.14 50.45 437.6 50.6L437.41 50.23L436.85 50.82L436.1 51.0401C435.85 51.1 435.68 51 435.58 50.75L435.02 51.34L432.82 52.01C428.14 53.37 421.7 57.31 413.51 63.85C410.16 67.26 407.74 70.16 406.24 72.5401C405.4 73.96 406.57 78.7701 409.74 86.9701L409.42 87.1L410.02 87.77L411.46 91.4401C411.96 92.6801 412.89 94.7101 414.24 97.5301L413.92 97.6601C420.07 109.28 425.37 116.96 429.84 120.71C436.13 126.21 441.36 128.34 445.54 127.1L446.99 126.71C449.02 126 450.81 124.64 452.37 122.61L453.88 122.22L454.02 122.59C454.52 123.87 452.46 125.97 447.82 128.89C440.74 130.98 433.15 127.65 425.03 118.89C418.88 112.28 413.69 103.58 409.48 92.8001C409.26 92.8501 409.11 92.7701 409.02 92.5601C408.01 89.09 407.44 86.92 407.3 86.06C407.24 85.81 407.07 85.7301 406.79 85.8301L405.45 81.3301L404.48 78.77C404.39 78.52 404.47 78.3501 404.71 78.2601L404 77.6601C404.1 77.1001 404.09 76.7001 403.96 76.46C399.73 81.7701 398.95 87.8601 401.62 94.7501C402.79 98.5001 403.66 101.08 404.21 102.5L403.89 102.63C404.32 103.03 404.59 103.36 404.68 103.61L404.64 104.49C405.03 104.86 405.3 105.19 405.43 105.47L406.08 108.16C406.48 108.53 406.72 108.86 406.82 109.14L406.5 109.22C406.9 109.66 407.57 110.71 408.5 112.35L408.12 112.38C409.82 116.78 412.28 118.53 415.5 117.61L416.1 118.22L416.29 118.59C416.48 119.09 416.32 119.41 415.82 119.56C415.61 119.61 414.53 119.66 412.6 119.7C416.07 125.24 421.23 129.72 428.09 133.13C428.55 132.98 430.21 133.31 433.05 134.11C434.14 134.46 436.63 134.54 440.53 134.34C447.79 131.39 454.46 127.37 460.53 122.29C466.11 116.03 469.49 112.73 470.67 112.38L470.81 112.75C470.94 113.03 469.08 115.63 465.23 120.54L465.31 120.92C477.85 111.19 484.57 106.2 485.47 105.95L486.17 105.73L486.31 106.1C486.77 107.31 482.19 111.38 472.57 118.32C472.76 118.85 468.95 121.75 461.13 127.01C455.41 131.45 447.88 135.02 438.55 137.73L438.41 137.41L437.8 138.01C427.65 141 417.36 139.95 406.94 134.85C399.56 129.87 394.59 124.1 392.02 117.54C391.77 117.63 391.6 117.56 391.51 117.31C391.42 117.06 391.5 116.91 391.75 116.85L390.62 115.07C386.49 104.43 385.59 91.9 387.93 77.49C388.18 77.36 388.79 75.41 389.77 71.64C389.68 71.39 389.51 71.3 389.25 71.35C388.32 68.39 390.88 61.91 396.93 51.93L399.29 46.37C399.15 46.02 400.03 44.3901 401.92 41.5001C404.9 36.0301 408.4 32.68 412.47 31.48ZM391.05 109.75C391.14 109.96 391.31 110.04 391.56 109.98L392.62 113.74C394.47 118.64 397.62 123.57 402.07 128.52L402.39 128.44L402.25 128.07C398.61 123.64 396.14 119.72 394.85 116.31L395.23 116.28L394.52 115.62C394.33 115.09 394.29 114.56 394.4 114.04L393.69 113.44C391.04 104.87 390.63 95.3201 392.47 84.7901C392.85 80.8501 395.62 72.1301 400.77 58.6301C400.12 56.8901 400.65 55.7701 402.37 55.2701L406.89 45.8101L406.51 45.9001C405.33 46.2501 403.05 48.82 399.66 53.62C397.25 56.41 394.47 63.38 391.32 74.52C388.39 87.07 388.29 98.8201 391.05 109.75ZM396.09 113.14L396.75 113.8C401.93 127.14 410.13 134.8 421.33 136.77C425.62 136.87 428.06 136.84 428.67 136.68L429.04 136.54L428.9 136.17C426.61 136.82 422.17 135.27 415.59 131.52C411.98 129.32 408.28 125.5 404.48 120.05L404.86 119.96C403.11 118.2 401.21 114.65 399.14 109.33C398.46 109.57 397.46 108.38 396.12 105.78C395.58 104.43 395.41 96.57 395.63 82.17L395.44 81.8601C392.64 93.6701 392.97 104.05 396.41 113L396.09 113.14ZM398.77 93.5101C399.22 98.3401 400.02 102.21 401.17 105.12L401.58 106.19C401.67 106.44 401.61 106.61 401.4 106.7L402.05 107.31L402.6 108.75C404.64 112.83 406.07 114.75 406.89 114.5L406.7 114.13L405.49 112.03L405.86 111.89L404.42 110.3C401.96 103.25 400.23 97.76 399.23 93.8101L399.15 93.4301L398.77 93.5101ZM401.69 69.3601C401.87 69.75 401.3 72.5 399.98 77.6101L400.36 77.5801C402.67 74.3601 403.36 71.5701 402.44 69.1901L401.69 69.3601ZM401.86 46.4701L402.23 46.3301C405.85 42.5701 409.24 39.6701 412.41 37.6301C413.33 35.4401 414.23 34.21 415.08 33.96L414.94 33.5901L412.37 34.39C409.05 35.36 405.54 39.3801 401.86 46.4701ZM404.74 69.7201L404.88 70.09L405.25 69.95C412.36 59.44 423.18 52.0201 437.73 47.7001L437.87 48.1301L438.48 47.48L439.61 47.23C439.86 47.14 440.01 47.2001 440.06 47.41C440.35 47.35 440.43 47.2001 440.3 46.9501C445.23 45.5 450.69 45.8 456.66 47.85C460.14 49.73 462.33 51.8101 463.24 54.0801L463.62 54C463.66 51.25 463.57 49.63 463.35 49.14L462.85 47.64C461.26 43.67 458.5 41.22 454.59 40.28L455.14 43.8L454.39 44.0201L454.12 43.3301L452.91 41.1801C453.02 40.7301 452.9 40.1001 452.54 39.2901C447.6 38.2901 443.48 38.2701 440.19 39.2201L435.74 40.5601C427.52 43.0001 417.94 49.0801 407.01 58.7901C404.24 62.1901 403.46 65.43 404.65 68.52C404.39 68.58 404.42 68.98 404.74 69.7201ZM405.11 116.21L405.25 116.58C407.04 121.19 411.69 126.09 419.19 131.28L420.07 131.38C416.92 129 412.94 124.44 408.13 117.73C407.89 117.82 406.88 117.32 405.11 116.21ZM429.92 30.82L426.6 31.8L426.04 32.39L427.05 34.12L427.24 34.4301C427.38 34.8201 427.15 35.3101 426.53 35.9101C424.74 34.5201 423.06 34.06 421.49 34.55C421.77 35.26 421.65 35.6901 421.15 35.8401C420.9 35.9301 420.48 35.9301 419.89 35.8301C415.09 38.5501 410.73 45.2901 406.78 56.0601L407.15 55.92C416.32 47.48 423.82 42.41 429.65 40.71C429.47 40.28 430.61 39.6801 433.07 38.9001L437.84 37.4301C441.99 36.2301 446.71 36.0701 452.01 36.9701L451.93 36.5901C450.37 32.6201 445.75 30.3001 438.05 29.6201C433.09 30.1901 430.56 30.39 430.47 30.22L429.92 30.82Z" fill="#00FFAB"/>
<path opacity="0.31" d="M556.51 19.4102C558.83 19.6702 560.02 20.1402 560.08 20.8302C559.29 21.4802 558.04 22.1402 556.34 22.8302L556.31 22.4502C556.26 21.8702 556.68 21.5402 557.55 21.4702L557.52 21.0302L557.08 21.0602C549.14 22.8202 544.2 23.7802 542.28 23.9302L542.31 24.3702L542.82 25.2102C542.21 25.8402 541.38 26.2002 540.33 26.2802L540.36 26.6602C542.36 26.5002 543.38 26.7102 543.43 27.2902C543.5 28.2002 537.76 30.0802 526.21 32.9302L526.24 33.3702L528.8 33.1702C531.38 32.9702 535.47 32.2202 541.08 30.9402L541.58 31.7202L541.65 32.5902C533.78 34.3802 524.87 35.6702 514.91 36.4502L514.13 59.2802C514.15 59.5702 514.29 59.7102 514.55 59.6902C514.2 62.2402 514.2 65.6802 514.54 70.0002L514.78 73.0002L515.56 72.5002L516 72.4602L516.03 72.9002C516.1 73.7402 515.71 74.1902 514.87 74.2502C514.92 74.8302 515.08 75.1102 515.37 75.0902L515.17 78.1202C516.95 96.0102 518.07 104.93 518.54 104.9C518.29 105.43 518.19 106.03 518.24 106.68C518.57 107.2 518.75 107.61 518.78 107.9L518.34 107.94L520.22 115.14L519.92 116.86L521.2 121.92L520.36 122.42C519.71 122.47 518.57 118.98 516.96 111.94C516.67 111.96 516.48 111.39 516.39 110.23L515.95 110.26L516.12 112.44C516.9 114.9 517.33 116.59 517.4 117.5C516.56 117.57 516.18 118.02 516.25 118.85L515.38 118.92L515.35 118.48C515.33 118.23 515.47 118.09 515.76 118.06C515.07 116.8 514.67 115.39 514.55 113.82L514.11 113.86L514.21 115.17C514.77 118.56 515.12 121.12 515.25 122.82L516.12 122.75L515.95 120.62L516.77 120.56L516.97 123.12C517.02 123.74 517.21 124.29 517.54 124.78C517.29 128.53 516.87 130.43 516.29 130.47C515.39 130.25 514.89 129.43 514.78 128.01L514.4 128.04C514.65 131.17 514.33 132.76 513.46 132.83L513.02 132.86C511.31 132.99 509.04 127.87 506.21 117.49L506.18 117.05L506.62 117.01L506.12 116.23L504.9 100.8C504.59 96.9102 504.33 91.7701 504.12 85.3902C499.43 65.7602 496.66 50.6502 495.83 40.0702L494.92 39.7002C487 40.3302 478.55 42.1402 469.57 45.1602C468.56 46.6702 468.06 47.5602 468.08 47.8602C468.63 47.8902 468.92 48.1402 468.96 48.6102L469.06 49.9202L468.68 49.9502C465.96 48.4102 464.59 47.5102 464.57 47.2602L464.5 46.3902C465.2 45.5302 468.32 43.4202 473.87 40.0502C473.7 37.9102 480.63 34.9302 494.67 31.1102L494.5 28.9802C484.62 30.3502 477.85 31.5902 474.17 32.7202C473.64 32.4702 473.06 32.3702 472.45 32.4202L472.42 31.9802C472.38 31.4702 475.3 30.5302 481.19 29.1502L481.22 29.5902L482.06 29.0802C482.35 29.0602 482.51 29.1902 482.53 29.4802L495.64 26.7402C496.14 26.9902 496.71 27.1002 497.36 27.0402L499.02 26.4702L499.05 26.9102C499.34 26.8902 499.47 26.7302 499.45 26.4402L502.48 26.6402L517.85 25.4302C518.5 25.3802 519.06 25.1902 519.51 24.8602C520.04 25.1102 520.64 25.2102 521.29 25.1602L527.29 24.6902C527.54 24.6702 527.68 24.7902 527.7 25.0402C539.73 23.0002 549.33 21.1102 556.51 19.4102ZM472.02 32.4902C474.13 33.7502 475.2 34.5302 475.22 34.8202L474.78 34.8502C472.57 34.2602 471.37 33.6402 471.18 33.0002L472.02 32.4902ZM476.07 40.7802L476.1 41.2202C488.8 38.6102 495.12 36.8102 495.04 35.8302C494.94 34.5602 495.02 33.6902 495.27 33.2302L494.83 33.2602C492.37 33.4602 486.12 35.9702 476.07 40.7802ZM495.82 28.9102L495.95 30.6002L496.77 30.5402L496.74 30.1002C496.41 29.5802 496.23 29.1702 496.21 28.8802L495.82 28.9102ZM496.12 32.7302C496.41 33.1102 496.61 34.1002 496.74 35.7002C498.6 34.7102 500.15 34.1702 501.38 34.0702C501.05 33.6602 500.84 32.8202 500.74 31.5402C500.14 31.8102 498.6 32.2102 496.12 32.7302ZM497.04 39.5702L497.07 40.0102C497.11 40.4802 497.45 41.1702 498.11 42.0702C497.94 43.6202 497.89 44.9002 497.97 45.9202C498.04 46.7902 498.41 47.7702 499.08 48.8502L498.71 49.7602L503.36 76.0502L503.8 76.0102L503.4 70.8802L503.84 70.8502C503.82 70.5602 503.66 70.4202 503.37 70.4502C503.37 65.7702 503.47 63.3302 503.67 63.1302C503.65 62.8402 503.49 62.7102 503.2 62.7302C503.2 51.1002 503.33 43.7702 503.61 40.7502C503.21 39.3602 502.86 38.6702 502.57 38.6902C502.42 38.7102 500.58 39.0002 497.04 39.5702ZM497.07 28.8102C497.4 29.3302 497.58 29.7402 497.6 30.0302L499.29 29.9002C499.87 29.8502 500.14 29.5602 500.1 29.0102L500.03 28.1402L497.9 28.3102L497.07 28.8102ZM497.28 36.9702L497.31 37.4102L501.62 37.0702C502.17 37.0302 502.42 36.7202 502.37 36.1302L502.3 35.2602C499.82 36.3302 498.15 36.9002 497.28 36.9702ZM501.73 28.0102L501.8 28.8802L502.24 28.8502C502.6 28.8202 504.03 28.5602 506.51 28.0702L506.48 27.6302L501.73 28.0102ZM502.47 31.8402C502.8 32.3602 502.98 32.7702 503.01 33.0602C509.6 30.8202 513.24 29.6702 513.93 29.6202L513.9 29.1802L513.46 29.2202C506.07 30.1702 502.4 31.0402 502.47 31.8402ZM503.57 34.7202L503.64 35.5902L504.14 36.4302C504.34 36.1202 507.57 35.4302 513.85 34.3502C513.78 33.5102 513.85 32.5002 514.05 31.3202L513.61 31.3502C512.89 31.4102 509.54 32.5302 503.57 34.7202ZM505.16 49.2402C505.21 49.8902 505.11 50.4702 504.86 50.9702L505.73 50.9002L505.6 49.2102L505.16 49.2402ZM504.92 51.8402L504.99 63.8502L505.43 63.8202L505.06 64.7302L505.13 65.6002C505.18 66.2202 505.37 66.7702 505.7 67.2602C505.21 68.4302 505.04 70.0202 505.2 72.0202L505.4 74.5802C505.42 74.8702 505.29 75.0302 505 75.0502L505.5 75.8902L505.53 76.3302C505.55 76.6202 505.42 76.7802 505.13 76.8002C505.15 77.0602 505.31 77.1702 505.6 77.1502L505.34 79.3602C505.92 86.7402 507.93 97.6102 511.37 111.96L511.81 111.92C511.74 111.05 511.85 110.6 512.14 110.58L511.64 109.8C511.34 106.06 511.11 101.19 510.93 95.2102C510.91 94.9602 510.75 94.8402 510.46 94.8602L510.72 92.6502L509.71 79.8402C509.66 79.2202 509.76 78.6502 510.01 78.1102C509.99 77.8202 509.83 77.6902 509.54 77.7102L509.74 74.6802L509.47 71.2402L508.8 68.3302L509.24 68.2902L505.8 51.7802L504.92 51.8402ZM506.47 98.5602L507.55 112.24C508.27 121.4 510.18 127.56 513.29 130.71L513.18 123.81C509.29 111.1 507.18 102.67 506.85 98.5302L506.47 98.5602ZM508.53 43.3802L509.3 53.1902C509.39 54.3902 509.66 55.9602 510.11 57.9002C509.85 58.3202 509.77 59.1902 509.88 60.5002L510.65 64.7202L510.21 64.7502C510.54 65.2702 510.72 65.6802 510.75 65.9702C510.88 67.6402 511.31 71.1902 512.03 76.6202L512.9 76.5502L512.66 73.5502C512.58 72.5302 512.61 71.2502 512.74 69.7002C512.44 69.1702 512.28 68.7502 512.26 68.4202L512.64 68.3902L512.19 67.6002C510.72 56.3802 509.92 49.9902 509.8 48.4202L509.3 47.5802C509.28 47.3302 509.41 47.1902 509.71 47.1602C509.33 46.0902 509.09 44.8102 508.97 43.3202L508.53 43.3802ZM508.93 37.3102L508.96 37.7502C509.57 38.0302 510.37 40.9802 511.36 46.6102C511.11 47.1102 511.01 47.6802 511.06 48.3302L511.93 48.2602L511.96 48.7002C511.98 48.9902 511.85 49.1502 511.56 49.1702C511.58 49.4602 511.74 49.6002 512.03 49.5702L511.83 52.5502L512.61 56.8202L513.05 56.7902C512.78 49.6802 512.84 45.0802 513.22 43.0102C513.2 42.7202 513.06 42.5802 512.8 42.6002C513.11 39.5802 513.24 37.7002 513.18 36.9702L508.93 37.3102ZM512.1 77.4902L512.74 85.6102L513.18 85.5702L512.54 77.4502L512.1 77.4902ZM513.09 106.65L513.43 110.9L514.03 112.99L514.47 112.96L514.44 112.58C514.04 111.22 513.74 109.23 513.53 106.62L513.09 106.65ZM514.84 30.8702L515.04 33.4302L514.72 34.2802C527.14 31.2902 535.4 28.9202 539.5 27.1702L539.47 26.7302C539.18 26.7502 539.02 26.6402 539 26.3802C537.43 27.3402 535.75 27.9002 533.97 28.0402C533.68 28.0602 533.25 27.9502 532.68 27.7002L527.22 29.4502L527.15 28.5802L532.99 26.8602L532.96 26.4202L530.02 26.6502C529.09 26.7302 524.03 28.1302 514.84 30.8702ZM515.68 101.29L515.95 104.73L516.39 104.69L516.12 101.26L515.68 101.29Z" fill="#00FFAB"/>
<path opacity="0.31" d="M753.57 1.51025L754.14 2.51025C751.97 4.62025 751.01 7.36025 751.28 10.7403L752.26 10.6603C752.13 9.03025 753.25 6.27025 755.61 2.39025L756.15 2.35025C756.62 2.31025 757.15 2.75025 757.73 3.65025C757.27 6.10025 757.08 7.96025 757.18 9.23025L756.14 9.31025L755.98 7.35025L756.45 6.33025L755.43 5.86025C753.83 11.5103 752.51 18.1603 751.46 25.8103L752.03 26.8103L753.49 45.2903L752.51 45.3703L752.79 48.8603L751.75 48.9403L750.52 33.4003L750.03 33.4403C748.76 47.0403 748.23 55.1203 748.43 57.7003C748.69 60.9703 750.38 67.5503 753.5 77.4303L753.99 77.3903L753.4 69.8703C753.37 69.5403 753.53 69.3702 753.85 69.3402L753.28 68.4003L753.04 65.4003C753.01 65.0403 753.16 64.8403 753.49 64.8203L752.93 63.9303L752.29 55.8603L753.33 55.7803L753.69 60.3103C753.72 60.6403 753.55 60.8103 753.18 60.8403L753.81 61.8303L754.56 71.3203L754.25 74.3102C754.66 74.8603 754.91 75.7003 755 76.8303L754.46 76.8703C754.88 77.5003 755.09 77.9703 755.12 78.3003L754.65 79.3303C755.45 80.6203 755.88 81.7602 755.96 82.7402L756.45 82.7002L755 64.2003L755.98 64.1203L756.34 68.6503C756.37 68.9803 756.21 69.1503 755.89 69.1803L756.46 70.1203L757.69 85.6603C757.9 88.3503 761.18 93.7803 767.53 101.94C768.62 103.21 769.34 103.83 769.71 103.8L770.65 103.23L771.22 104.17C771.27 104.82 770.97 105.18 770.32 105.23L768.79 105.35C762.97 99.7402 759.44 95.3203 758.2 92.0902L757.71 92.1302C758.11 97.2202 758.13 101.59 757.76 105.24C758.14 105.83 758.34 106.31 758.37 106.67C757.76 109.1 757.18 110.33 756.63 110.37C755.95 110.09 755.43 109.97 755.06 110L754.17 110.56C749.27 108.28 746.4 101.79 745.56 91.1003L744.61 79.1103L743.92 76.6403L744.41 76.6003C743.19 74.1003 742.06 66.3303 741.03 53.2803L740.83 50.7703C740.8 50.4403 740.96 50.2703 741.28 50.2403C741.25 49.9103 741.08 49.7603 740.75 49.7903C740.66 35.6503 741.21 25.5303 742.42 19.4303L742.38 18.9403L741.89 18.9803C740.41 26.1603 739.36 29.7703 738.74 29.8203L738.7 29.2803L740.03 21.1603L739.54 21.2003C738.96 21.2403 738.38 22.3003 737.81 24.3503C738.14 24.3203 738.31 24.4703 738.34 24.8003C736.29 26.6103 733.26 35.0603 729.26 50.1503C727.59 53.0603 726.43 61.8603 725.8 76.5303C726.13 76.5003 726.44 78.3303 726.73 82.0003L727.27 81.9603C727.31 80.6403 727.75 79.9502 728.59 79.8802C728.62 80.2103 728.79 80.3603 729.12 80.3303C729.1 80.0803 731.76 64.9503 737.11 34.9403L738.09 34.8603C736.45 43.7303 733.85 59.7003 730.29 82.7603L727.58 85.9902L726.54 86.0703C725.85 86.1203 725.48 85.8103 725.42 85.1203C724.83 85.5003 724.37 85.7003 724.04 85.7203C732.31 93.2203 736.48 97.4302 736.55 98.3402L736.06 98.3802C729.31 92.5502 725.41 89.6703 724.35 89.7603L718.78 83.1803L717.74 83.2603L719.5 86.0803L718.64 87.6803L713.35 84.5902L710.39 85.3703L709.29 83.9202L710.15 82.3102L710.11 81.8203C698.95 71.5103 692.83 66.2903 691.76 66.1503C691.84 67.1702 691.72 67.6903 691.39 67.7203L691.96 68.7203L693.02 82.1903C693.08 82.9203 693.29 83.5602 693.67 84.1103C693.39 84.7203 693.29 85.5803 693.38 86.7103C693.81 92.2002 693.9 97.7103 693.64 103.26C698.32 112.95 702.22 117.67 705.34 117.42L706.63 114.3L706.43 111.79L707.47 111.71C707.59 113.2 707.83 114.17 708.19 114.61C707.9 117.38 706.66 118.84 704.48 119.02C702.7 119.16 700.4 117.66 697.6 114.52L697.64 115.01C701.59 120.55 709.07 128.5 720.09 138.86L719.6 138.9C705.18 127.64 696.41 118.27 693.3 110.8L692.81 110.84C692.93 112.33 692.17 113.58 690.53 114.59L687.96 113.26C687.33 115.98 686.6 117.37 685.77 117.44C679.75 116.23 675.46 106.35 672.9 87.7903L671.56 70.7803L670.68 65.8603L671.17 65.8203C671.14 65.4902 670.97 65.3403 670.64 65.3703L670.93 62.8203L669.82 48.8103C669.58 45.7603 669.4 41.4203 669.29 35.8003C667.74 33.2503 666.92 31.4703 666.84 30.4503L666.76 29.4103C666.61 27.5603 667.52 26.3303 669.49 25.7403C669.5 21.7203 670.02 19.6603 671.03 19.5803C672.04 19.5003 672.86 21.4503 673.47 25.4203C675.95 27.2403 677.38 28.1303 677.74 28.1003L678.2 21.0003C677.82 20.3703 677.62 19.8903 677.59 19.5703C678.24 19.5203 678.55 19.1603 678.49 18.5103C679.69 18.4203 681.33 20.2803 683.43 24.1003C684.78 21.3203 686.19 19.8803 687.64 19.7603L688.21 20.7603L688.25 21.2503C688.28 21.5803 688.12 21.7503 687.8 21.7803L688.37 22.7803L689.04 31.2303C689.18 33.0503 696.37 45.5602 710.6 68.7503C710.68 69.8003 711.6 70.7403 713.34 71.5503L713.89 71.5103C722.04 42.2703 729.74 23.0703 736.99 13.9003C742.96 6.04025 748.48 1.91025 753.57 1.51025ZM668.7 27.8403L668.93 30.7803L669.37 30.7503L669.14 27.8003L668.7 27.8403ZM671.26 29.0603C671.28 29.2803 671.29 31.4703 671.29 35.6403C671.87 35.5903 673.06 37.8603 674.84 42.4303L675.33 42.3903L675.85 35.7703C674.39 33.9103 673.61 32.4703 673.53 31.4503L672.53 32.0203L672.49 31.5303C672.46 31.2003 672.62 31.0303 672.94 31.0003C672.56 30.4103 672.35 29.7303 672.29 28.9703L671.26 29.0603ZM671.76 41.6403C671.79 46.2103 671.85 49.0603 671.94 50.1803C671.99 50.8303 672.18 51.1503 672.51 51.1203L672.29 54.6503L673.52 70.1903C673.54 70.4803 673.39 70.6403 673.06 70.6603L673.63 71.6603L674.69 85.1302C674.75 85.8903 674.97 86.5503 675.34 87.1103C675.06 87.7203 674.95 88.3903 675 89.1103L676.02 89.5202L675.69 91.5703C678.43 105.44 680.65 112.3 682.36 112.17C682.44 113.22 683.36 114.18 685.11 115.03L685.6 114.99L685.69 109.94C681.91 100.47 679.72 91.9202 679.11 84.2903L679.42 81.2503L678.95 75.2503C676.78 64.4503 675.55 57.1803 675.25 53.4303C675.21 52.9203 675.17 50.5803 675.14 46.4203C673.22 43.2103 672.09 41.6203 671.76 41.6403ZM676.93 30.7003L677.05 32.1703L677.59 32.1303C677.56 31.7703 677.69 31.2603 677.97 30.6203L676.93 30.7003ZM677.45 49.7503C677.71 53.0903 677.68 54.7803 677.35 54.8003L677.92 55.7403L678.32 60.7603L678.81 60.7203C678.49 56.7203 678.5 54.7103 678.83 54.6803C678.8 54.3203 678.62 54.1503 678.3 54.1703L678.59 51.6203L677.94 49.7003L677.45 49.7503ZM677.6 39.1503L677.47 43.7103L677.67 46.2203L678.16 46.1803C678.29 43.2103 678.33 41.3603 678.27 40.6303L678.15 39.1003L677.6 39.1503ZM680.27 53.5303L681.1 64.0503C681.16 64.8103 681.38 65.4503 681.75 65.9703L681.33 67.0003C681.71 67.5902 681.92 68.2702 681.98 69.0303C682.01 69.3603 681.85 69.5303 681.53 69.5602L682.09 70.4502L682.41 74.4803C682.5 75.6803 682.79 77.1803 683.26 78.9703C683.28 79.2603 683.13 79.4203 682.8 79.4403C683.18 83.8003 685.8 91.4803 690.65 102.47L691.14 102.43L691.1 101.94C690.6 99.7503 689.24 95.3203 687.03 88.6503L687.58 88.6103L684.31 72.8503C684.28 72.4902 684.43 72.2902 684.76 72.2702L683.72 65.3303C683.63 64.2003 683.57 61.3603 683.54 56.7903C683.18 56.8103 682.09 55.7303 680.27 53.5303ZM680.38 42.4403L680.44 49.5103C681.87 51.4103 682.78 52.3403 683.19 52.3103L683.21 46.2703C681.68 44.0803 680.91 42.7903 680.87 42.3903L680.38 42.4403ZM680.69 33.8603L680.4 36.4603C680.46 37.2603 681.28 39.0403 682.85 41.8103L683.34 41.7703L682.87 35.7703C682.15 34.9903 681.77 34.3203 681.73 33.7803L680.69 33.8603ZM681.01 30.8703L681.05 31.3603C681.7 31.3103 682.01 30.9603 681.95 30.3003L681.91 29.7603C681.26 29.9203 680.96 30.2903 681.01 30.8703ZM681.89 86.5902L682.29 91.6103L682.97 94.0202L682.48 94.0602C683.02 96.6902 683.61 97.9703 684.27 97.9202L684.19 97.0003L683.5 94.4803L683.99 94.4403C683.62 93.9603 683.09 91.3302 682.38 86.5602L681.89 86.5902ZM682.06 31.7803L682.1 32.3203C682.26 32.9303 682.63 33.2103 683.21 33.1603L683.02 30.7103C682.34 30.8803 682.02 31.2303 682.06 31.7803ZM683.82 98.5103L683.9 99.4902C684.33 100.81 684.59 101.96 684.67 102.94L685.16 102.9L685.04 101.43L684.31 98.4703L683.82 98.5103ZM685.41 49.1203C685.44 49.4903 685.32 50.0103 685.04 50.6903C685.06 50.9803 685.24 51.1103 685.57 51.0903L685.36 54.6703L685.48 56.1403C687.9 58.9903 689.52 60.5203 690.34 60.7503L690.19 58.7903L689.52 55.8303C689.76 55.1903 689.87 54.6903 689.84 54.3203C687.31 51.4803 686.02 49.7403 685.97 49.0803L685.41 49.1203ZM685.12 38.5603L685.67 45.5903C687.45 47.7903 688.54 48.8703 688.94 48.8403C688.86 47.8203 688.97 47.3003 689.26 47.2803C688.94 43.1803 687.56 40.2703 685.12 38.5603ZM685.48 30.5203L685.52 31.0103C687.08 34.5803 688.04 36.3503 688.41 36.3203L688.37 35.8303C687.27 32.2203 686.31 30.4503 685.48 30.5203ZM685.66 96.8802L685.73 97.8102C685.74 97.9902 686.4 99.7902 687.69 103.2C687.77 104.22 687.55 105.57 687.02 107.26C688.58 109.92 689.39 111.54 689.43 112.12L689.87 112.08C690.34 112.04 690.95 111.17 691.69 109.47C691.6 108.38 690 104.98 686.88 99.2603L686.2 96.8503L685.66 96.8802ZM685.79 60.1703L685.86 61.1003C686 62.8803 686.08 65.7302 686.1 69.6403C686.44 70.2702 686.63 70.7702 686.66 71.1302L686.22 71.1702L686.73 72.1203L686.77 72.6603C686.8 72.9903 686.66 73.1603 686.37 73.1903C689.56 89.5403 691.75 98.2402 692.93 99.2803L692.14 89.3003C692.11 88.9703 692.25 88.8002 692.54 88.7702L692.02 87.7702L691.9 86.3003C691.87 85.9703 692.01 85.8002 692.3 85.7702C692.27 85.4402 692.12 85.2903 691.83 85.3102L691.99 81.7903L690.69 65.2703C687.89 61.8403 686.26 60.1403 685.79 60.1703ZM686 23.9003L686.57 24.9003L686.24 26.9503C686.98 27.9503 687.37 28.7403 687.41 29.3303L687.85 29.2903L687.22 26.8703L686.98 23.8203L686 23.9003ZM689.44 36.2403L689.63 38.6903C689.78 40.5403 693.81 46.9403 701.73 57.8703C701.76 58.2703 703.3 60.8403 706.34 65.5703L706.83 65.5303L706.75 64.4903C695.65 47.0803 690.04 37.6503 689.93 36.2003L689.44 36.2403ZM689.77 46.7503C689.92 48.6803 689.83 49.8703 689.5 50.3403L693.32 53.5503L693.28 53.0003C692.53 51.8503 691.53 49.7603 690.26 46.7103L689.77 46.7503ZM690.44 55.2503L691.01 56.1903L691.09 57.2303C691.12 57.5603 690.96 57.7303 690.64 57.7603L691.21 58.7003L691.29 59.7403C691.31 60.0303 691.16 60.1903 690.83 60.2203C690.98 62.1503 695.71 66.6403 705 73.6903C708.59 76.9903 710.4 78.8603 710.43 79.3003L711.78 77.6603C701.83 66.0503 695.05 58.7203 691.45 55.6803L691.41 55.1903L690.44 55.2503ZM693.44 48.0003L693.48 48.4903C698.11 57.6303 701.15 62.2603 702.58 62.3603L703.07 62.3203C698.01 54.7803 694.95 50.0003 693.87 47.9603L693.44 48.0003ZM714.93 72.9103C715.71 73.9503 716.13 74.9402 716.21 75.8802C715.58 76.2602 715.08 76.4603 714.72 76.4902C716.76 79.6602 718.89 81.1503 721.11 80.9803C720.86 77.7803 723.44 63.6603 728.85 38.6203C733.65 25.7303 739.04 15.4303 745.01 7.72025L745.55 7.68025L745.47 6.64025C736.34 12.8803 728.1 29.6403 720.75 56.9203C717.76 65.9303 715.83 71.2603 714.93 72.9103ZM723.35 76.7402L723.2 81.8003L723.24 82.2903C723.4 82.9703 723.78 83.2903 724.36 83.2503L724.8 83.2103C724.38 81.6003 724.06 79.4303 723.85 76.7002L723.35 76.7402ZM738.74 29.8303L738.78 30.3203C738.56 31.6903 738.49 32.8703 738.56 33.8503L737.52 33.9303C737.54 31.2603 737.94 29.8903 738.74 29.8303ZM740.76 17.1103C740.79 17.4703 740.65 17.9903 740.34 18.6803L740.37 19.1203L740.92 19.0803C740.89 18.7503 741.02 18.2503 741.29 17.5703L741.25 17.0803L740.76 17.1103ZM742.64 15.9203C742.67 16.2803 742.55 16.8003 742.27 17.4803L742.31 17.9703L742.8 17.9303C742.77 17.6003 742.9 17.1003 743.17 16.4203L743.13 15.8803L742.64 15.9203ZM743.36 50.0903L743.93 51.0303C743.65 51.6403 743.54 52.3203 743.6 53.0803C743.66 53.8103 743.87 54.4703 744.25 55.0603L743.83 56.0303C743.86 56.3603 744.03 56.5103 744.36 56.4803L744.07 59.0803L744.74 67.5303L745.23 67.4902C745.42 61.5503 745.46 57.8603 745.34 56.4003L744.55 46.4203C744.53 46.1303 744.68 45.9703 745.01 45.9503C744.98 45.5903 744.8 45.4203 744.48 45.4403C744.25 38.4003 744.25 32.0403 744.46 26.3503C743.32 26.4503 742.96 34.3603 743.36 50.0903ZM743.84 12.3103L743.88 12.8503C744.57 12.8003 744.89 12.4203 744.83 11.7303L744.79 11.2403C744.11 11.4103 743.79 11.7703 743.84 12.3103ZM748.03 14.0103C746.8 23.8703 746.39 31.4603 746.81 36.7603L747.12 40.7403L747.61 40.7003C747.38 37.3203 748.1 31.5603 749.76 23.4103L749.19 22.4703C749.16 22.1403 749.32 21.9703 749.64 21.9403C749.61 21.6103 749.44 21.4603 749.11 21.4903C749.08 21.1303 749.2 20.6103 749.48 19.9303C749.02 18.2503 748.7 16.2603 748.52 13.9703L748.03 14.0103ZM748.33 69.2803L748.49 71.3003C749.3 81.5503 751.31 92.2702 754.54 103.46L755.08 103.42L755.3 99.8903L754.31 87.4103C754.28 87.0803 754.44 86.9102 754.76 86.8802L748.87 69.2402L748.33 69.2803ZM749.41 5.84025L749.1 8.88025C749.61 10.6703 749.93 12.4903 750.08 14.3403L750.57 14.3003L749.9 5.80025L749.41 5.84025ZM749.18 98.8903C750.08 101.96 751.33 105.05 752.93 108.14L754.4 108.02C751.67 103.12 750.26 100.05 750.16 98.8102L749.18 98.8903ZM753.18 47.2903L754.16 47.2103L753.95 50.7403L752.93 50.3303L753.18 47.2903ZM754.02 51.7203L754.59 52.7203L754.67 53.7003C754.7 54.0603 754.55 54.2603 754.22 54.2803L754.78 55.1703L754.86 56.2103C754.89 56.5403 754.73 56.7103 754.41 56.7403L754.98 57.7403L755.02 58.2303C755.05 58.5603 754.89 58.7303 754.57 58.7603L755.14 59.7003L755.22 60.6803L754.24 60.7603L753.65 53.2903L753.08 52.3503L754.02 51.7203ZM755.95 88.7603L756.15 91.3203L756.64 91.2803L756.44 88.7203L755.95 88.7603Z" fill="#00FFAB"/>
<path opacity="0.31" d="M771.91 4.50023C772.88 7.10023 773.38 8.55023 773.41 8.88023C773.05 8.91023 772.88 9.12024 772.91 9.52024L773.46 9.48023L778.48 8.48023L778.39 7.39023L777.57 4.60023L778.67 3.96023C779.44 6.28023 780.48 7.70023 781.8 8.21023L782.9 7.57023L783.45 7.53023C783.85 7.50023 784.06 7.67023 784.09 8.03023L785.14 7.40023L786.83 7.27023C793.12 6.77023 809.49 4.35023 835.96 -0.00976562C837.53 0.450234 838.34 0.950234 838.38 1.50023C838.42 2.05023 837.9 2.65023 836.82 3.32023C836.36 2.63023 836.12 2.08023 836.09 1.68023C835.07 1.76023 830.81 2.48023 823.31 3.84023L823.35 4.38023C825.97 4.17023 827.32 4.63023 827.41 5.76023L827.45 6.30023C826.81 7.89023 825.74 8.74023 824.25 8.86023L824.16 7.72023C825.29 7.63023 825.82 7.20023 825.76 6.44023L814.44 6.24023L813.34 6.87023C812.98 6.90023 812.78 6.73023 812.75 6.37023L808.87 7.22023L804.34 7.58023C792.04 9.32023 785.95 10.9302 786.07 12.4202L786.25 14.6602C797.15 13.8002 813.04 12.1602 833.92 9.75023L834.56 10.8502C834.58 11.1402 834.06 11.7502 833 12.6702L827.34 12.5702L821.72 13.0102C820.88 13.0802 820.15 13.3202 819.53 13.7302C819.17 13.7602 818.97 13.5902 818.94 13.2302L813.37 14.2202L805.52 14.8402C804.17 14.9502 802.5 15.2602 800.49 15.7902C799.99 15.4602 798.67 15.3902 796.52 15.5602L793.73 16.3302L794.64 20.2102L794.82 22.5002C794.85 22.8602 794.66 23.0602 794.26 23.0902C794.29 23.4502 794.5 23.6202 794.9 23.5902C795.03 30.3802 794.45 39.6602 793.15 51.4302C793.81 51.0102 794.34 50.7902 794.74 50.7602L823.24 46.2102L827.71 45.8602C828.47 45.8002 828.92 46.5302 829.04 48.0602L832.96 47.7502C833.51 47.7102 834.11 48.2102 834.78 49.2502C834.82 49.7902 834.3 50.4002 833.22 51.0702L832.68 51.1102L832.59 50.0202C831.31 50.4902 830.56 50.7302 830.34 50.7502C829.94 50.7802 829.36 50.6402 828.61 50.3402C804.3 57.0102 792.19 60.7802 792.25 61.6502C790.41 76.7902 789.71 87.2102 790.16 92.9202L790.76 92.8702C797.04 92.7402 801.91 92.5402 805.36 92.2702L806.51 92.1802C810.83 91.8402 824.23 89.6502 846.7 85.6102L848.34 85.4802C849.11 85.5302 849.52 85.8802 849.58 86.5302L829.57 90.9102L829.53 90.3702C829.2 90.7602 826.23 91.3802 820.63 92.2202L820.67 92.7602C824.27 92.4802 826.72 92.4702 828.02 92.7302C830.46 92.1702 832.88 91.8002 835.28 91.6102L837.52 91.4302C845.41 90.8102 849.4 91.0602 849.48 92.1902C849.52 92.7302 849 93.3402 847.92 94.0102L845.68 94.1902L843.9 93.1802C843.93 93.6202 842.88 94.6502 840.74 96.2802C842.23 96.1602 843 96.4702 843.06 97.1902C843.15 98.3202 841.89 98.9802 839.27 99.1902C839.25 98.9702 838.66 98.6502 837.49 98.2302C834.32 98.8502 832.16 99.9502 831 101.54L829.31 101.67L830.82 99.3002L830.22 99.3502C821.98 101.5 814.93 102.81 809.08 103.27L806.25 103.49L803.51 104.25L803.47 103.71L802.37 104.34L792.28 105.14L792.46 107.43L792.13 110.25L790.99 110.34C790.23 110.4 789.57 109.32 789.03 107.09C789.39 107.06 789.56 106.87 789.53 106.5L787.29 106.68L787.33 107.22C787.75 107.92 787.98 108.47 788.01 108.87L786.47 110.14C785.95 108.68 785.65 107.39 785.56 106.26L784.51 106.89C785.83 109.27 786.53 110.92 786.6 111.83L785.5 112.46L781.27 108.84L781.18 107.7C774.18 109.86 770.74 111.65 770.85 113.07L769.76 113.16L769.71 112.56L770.62 110.24L770.08 110.28C769.45 110.69 768.72 110.93 767.89 111L768.52 112.1C768.58 112.86 768.23 113.28 767.47 113.34L766.83 112.24L766.79 111.7C766.59 109.16 770.93 106.93 779.81 105.02L779.76 104.42L779 101.68C776.26 102.66 774.8 103.16 774.62 103.18L774.57 102.58C774.52 102 775.76 100.97 778.28 99.4902C776.61 92.6402 775.56 86.5002 775.13 81.0902L774 66.4902C772.16 67.2602 771.29 68.2802 771.39 69.5502C770.66 69.6102 770.27 69.2602 770.21 68.4902L770.17 67.9502C770.13 67.4802 771.52 66.0502 774.33 63.6702L773.75 56.3602L774.03 52.9402C774 52.5802 773.81 52.4102 773.44 52.4402L773.54 46.7802L772.34 31.5702C772.31 31.2102 772.12 31.0402 771.75 31.0702C771.72 30.7102 771.89 30.5102 772.25 30.4802C771.78 29.2002 771.45 27.3402 771.26 24.9102L770.71 24.9502L770.29 27.2302L769.74 27.2702C769.01 27.3302 768.62 26.9802 768.56 26.2102L768.52 25.6702L771.4 19.7902L770.55 15.9102L770.28 12.5302L769.74 12.5702C766.76 13.2802 765.34 14.5302 765.48 16.3102L763.79 16.4402C763.52 13.0602 765.64 11.1902 770.15 10.8402L769.4 8.10023L769.22 5.87023C769.16 5.10023 770.06 4.65023 771.91 4.50023ZM773.67 12.2602L773.76 13.4002L774.98 15.0002C776.75 13.3602 778.2 12.5002 779.33 12.4102C778.91 11.7102 778.68 11.1602 778.65 10.7602L778.05 10.8102C777.69 10.8402 777.52 11.0302 777.55 11.4002L776.36 10.9402L774.67 11.0702C773.96 11.2502 773.62 11.6502 773.67 12.2602ZM775.76 17.2002L776.31 17.1602C777.07 17.1002 777.42 16.6902 777.36 15.9302L776.76 15.9802C776.05 16.1702 775.71 16.5802 775.76 17.2002ZM776.48 19.3902C776.55 20.2302 776.42 20.9902 776.11 21.6702C776.67 24.0802 777.17 28.1902 777.63 34.0002L778.17 33.9602C778.05 27.3502 777.94 23.4102 777.84 22.1402L777.15 21.0402C777.49 20.2802 777.65 19.7002 777.62 19.3002L776.48 19.3902ZM778.63 18.1302C779.08 18.7902 779.33 19.3202 779.36 19.7202L780.45 19.6302L780.32 18.0002L778.63 18.1302ZM779.59 58.7002L779.72 60.3902L780.86 60.3002C781.59 60.2402 781.92 59.8302 781.86 59.0702L781.68 56.8402L781.14 56.8802C780.6 56.9202 780.08 57.5302 779.59 58.7002ZM779.98 63.7702C779.52 67.6502 779.61 73.6602 780.25 81.8002L780.65 86.8702C780.8 88.7602 781.22 91.5602 781.92 95.2702C782.62 94.8102 783.16 94.5702 783.56 94.5402L782.52 88.9702L782.17 84.5002C781.94 81.6302 781.79 74.8602 781.72 64.1802C782.08 64.1502 782.25 63.9602 782.22 63.5902L779.98 63.7702ZM779.85 25.9302C779.6 37.1802 779.81 46.9502 780.46 55.2302C781.16 54.8102 781.71 54.5802 782.11 54.5502L781.4 45.5502C781.37 45.1902 781.54 44.9902 781.9 44.9602C781.87 44.6002 781.68 44.4302 781.31 44.4602L781.41 38.8002L780.39 25.8802L779.85 25.9302ZM780.84 10.0002L780.97 11.6902C781.67 11.2702 782.22 11.0402 782.62 11.0102L782.53 9.87023L780.84 10.0002ZM781.07 12.8302L781.29 15.6102L783.53 15.4302C783.5 15.0302 783.64 14.4502 783.94 13.7002C782.68 13.0702 781.72 12.7802 781.07 12.8302ZM781.97 17.2602C782.24 20.7502 783.08 28.9702 784.46 41.9102C784.53 47.5002 784.65 51.2602 784.8 53.1902L785.95 53.1002C786.53 53.0602 786.98 51.5202 787.29 48.5002C787.26 48.1402 787.05 47.9702 786.65 48.0002L787.03 45.1202L786.72 41.1902C786.44 37.7002 786.38 34.5102 786.51 31.6102C785.26 25.4602 784.49 20.6202 784.21 17.0902L781.97 17.2602ZM782.6 96.9202L782.69 98.0102L783.23 97.9702C783.99 97.9102 784.35 97.5202 784.29 96.7902L782.6 96.9202ZM783.36 99.6502L783.54 101.88C783.94 101.85 784.52 102.01 785.28 102.35L785.19 101.21C784.77 100.51 784.54 99.9602 784.51 99.5602L783.36 99.6502ZM784.59 65.1102C784.62 65.4702 784.83 65.6402 785.23 65.6102L784.94 69.5802L786.05 83.6402L786.65 83.5902C786.82 71.4002 786.82 64.2302 786.65 62.0902L786.05 62.1402C785.55 62.1802 785.06 63.1702 784.59 65.1102ZM784.65 58.3002L784.69 58.8402C786.52 58.4002 787.35 57.0202 787.16 54.6902L786.61 54.7302C785.17 55.2602 784.51 56.4502 784.65 58.3002ZM786.99 16.3102C787.02 16.6702 786.83 16.8702 786.43 16.9002C787.48 20.4802 788.26 25.5002 788.77 31.9702L789.57 42.1102C789.72 44.0702 789.79 47.2702 789.78 51.6902L791.47 51.5602C792.56 41.7502 793.09 31.7202 793.05 21.4802C792.59 20.7802 792.35 20.2402 792.32 19.8402C792.67 19.1902 792.8 18.2502 792.7 17.0102L792.65 16.4102L789.23 16.1302C788.53 16.5502 787.98 16.7802 787.58 16.8102C787.55 16.4502 787.36 16.2902 786.99 16.3102ZM789.43 61.8702L789.65 64.7002L790.2 64.6602L789.98 61.8302L789.43 61.8702ZM789.96 53.9302C789.71 55.9202 789.6 57.0702 789.63 57.3602L790.77 57.2702C790.75 56.9802 790.84 55.8402 791.05 53.8502L789.96 53.9302ZM791.68 97.3002C791.71 97.6702 791.9 97.8302 792.27 97.8002C791.64 99.0902 791.37 100.25 791.45 101.26L792.59 101.77L805.51 100.75L811.08 99.7102L811.13 100.31L812.23 99.6202L813.92 99.4902C827.28 97.3002 836.17 95.4702 840.59 93.9902L840.55 93.4502L832.1 94.1202L826.53 95.1102L826.49 94.5702L825.44 95.2002C825.08 95.2302 824.88 95.0602 824.85 94.7002C824.45 94.7302 824.27 94.9302 824.29 95.2902C822.99 95.0302 815.46 95.0702 801.7 95.4302C795.78 96.6102 792.44 97.2402 791.68 97.3002ZM793.3 53.1202L792.79 54.2602L792.97 56.5502C815.61 51.9502 826.88 48.9802 826.77 47.6302C807.29 51.0702 796.13 52.9002 793.3 53.1202Z" fill="#00FFAB"/>
</g>
</g>
<defs>
<clipPath id="clip0_2_778">
<rect width="849.58" height="170.21" fill="white"/>
</clipPath>
</defs>
</svg>
