<svg width="26" height="26" viewBox="0 0 26 26" fill="none" xmlns="http://www.w3.org/2000/svg">
<path d="M3.42999 13.6599C2.96999 5.45992 14.5199 -0.36008 19.9499 6.59992C22.1399 9.39992 22.7599 13.3999 21.5899 16.7399C20.3599 20.2499 16.9299 22.1499 13.3299 22.0999C9.3799 22.0399 5.18995 19.78 3.88996 15.89C3.27995 14.07 0.37994 14.8499 0.99994 16.6899C4.10994 25.9699 18.66 28.47 23.65 19.45C25.92 15.34 25.59 9.97995 23.17 6.00995C20.48 1.57995 15.3799 -0.490041 10.3699 0.889959C4.79993 2.41996 0.109882 7.70993 0.439882 13.6699C0.539882 15.5799 3.53999 15.5899 3.42999 13.6599Z" fill="#00FFAB"/>
</svg>
