<svg width="290" height="140" viewBox="0 0 290 140" fill="none" xmlns="http://www.w3.org/2000/svg">
<path d="M2.79002 133.14C0.140018 134.09 0.459925 137.46 2.56993 138.88C5.28993 140.7 7.96993 137.96 9.19993 135.71C11.0199 132.4 12.66 129 14.51 125.7C16.43 122.28 18.45 118.91 20.56 115.59C24.75 109 29.28 102.62 34.15 96.5199C38.9 90.5599 43.87 84.3699 49.62 79.3399C54.34 75.2099 61.67 70.6699 67.8 74.6599C72.11 77.4699 73.13 83.2499 74.14 87.9099C75.22 92.9099 76.28 98.2699 79.79 102.22C84.06 107.03 91.1 107.73 96.93 105.74C103.52 103.49 108.2 98.0999 111.97 92.4899C116.62 85.5699 120.8 78.2999 125.17 71.1999C127.21 67.8799 129.16 64.4699 131.38 61.2699C133.14 58.7199 135.27 56.1399 138.12 54.7599C142.04 52.8599 146.13 54.3599 148.48 57.7999C150.87 61.3099 152.06 65.5399 153.44 69.5199C154.94 73.8499 156.54 78.2999 159.43 81.9199C163.04 86.4399 168.5 88.2599 174.16 87.0799C181.71 85.4999 187.91 80.0599 193.87 75.5199C221.91 54.1999 249.94 32.8699 277.98 11.5499C281.45 8.90995 284.91 6.27991 288.38 3.63991C289.9 2.48991 288.4 -0.120054 286.87 1.04995C259.51 21.8599 232.15 42.6699 204.8 63.4799C198.13 68.5499 191.58 73.89 184.71 78.68C179.43 82.36 171.89 86.7299 165.47 83.2199C161.87 81.2499 159.77 77.4499 158.23 73.7899C156.48 69.6199 155.3 65.2299 153.55 61.0499C152.11 57.6099 150.15 53.9499 146.72 52.1499C142.07 49.7099 136.79 51.2999 133.08 54.68C130.72 56.83 128.89 59.5299 127.21 62.2199C125.07 65.6599 122.97 69.11 120.84 72.56C116.66 79.35 112.74 86.4399 108.06 92.9099C104.2 98.2499 98.98 103.15 92.11 103.76C89.12 104.03 86.01 103.47 83.56 101.65C81.59 100.18 80.25 98.0099 79.36 95.7499C75.93 87.0699 76.7899 72.3298 64.8399 70.3198C58.1899 69.1998 51.89 73.3199 47.16 77.5399C41.69 82.4199 36.93 88.3099 32.35 94.0199C22.86 105.86 14.56 118.63 7.67002 132.15C7.02002 133.43 6.40992 135.26 5.18992 136.12C4.86992 136.35 4.53992 136.57 4.18992 136.35C4.01992 136.24 3.99999 136.03 3.88999 135.88C3.68999 135.61 4.26994 135.79 3.58994 136.04C5.39994 135.39 4.62002 132.49 2.79002 133.14Z" fill="#00FFAB"/>
</svg>
