<svg width="447" height="190" viewBox="0 0 447 190" fill="none" xmlns="http://www.w3.org/2000/svg">
<path d="M3.45999 98.36C30.14 68.01 61.16 41.56 95.38 20.07C105.03 14.01 114.93 8.36002 125.04 3.10002C124.31 2.54002 123.57 1.97002 122.84 1.41002C112.67 29.55 102.49 57.69 92.32 85.83C87.26 99.83 82.2 113.83 77.13 127.83C74.57 134.9 72.02 141.97 69.46 149.04C67.28 155.08 64.56 161.13 63.14 167.41C61.46 174.77 61.53 186.59 71.35 187.77C77.18 188.47 82.18 184.13 85.94 180.23C90.11 175.91 94.09 171.4 97.98 166.82C113.48 148.58 127.18 128.93 141.77 109.98C156.29 91.12 171.88 72.78 190.7 58.03C193.09 56.16 195.54 54.36 198.02 52.61C197.27 52.18 196.52 51.75 195.76 51.31C195.89 70.65 188.41 88.73 179.87 105.72C171.36 122.66 161.51 139.1 155.39 157.13C152 167.12 149.94 177.56 150.08 188.15C150.09 189.2 151.38 190.14 152.34 189.45C194.4 159.13 236.46 128.81 278.52 98.49C290.47 89.88 302.42 81.26 314.37 72.65C313.64 72.09 312.9 71.52 312.17 70.96C308.03 94.86 303.89 118.75 299.75 142.65C299.54 143.87 300.75 145.07 301.95 144.34C339.36 121.87 376.77 99.39 414.18 76.92C424.8 70.54 435.41 64.16 446.03 57.79C447.68 56.8 446.18 54.2 444.52 55.2C407.11 77.67 369.7 100.15 332.29 122.62C321.67 129 311.06 135.38 300.44 141.75C301.17 142.31 301.91 142.88 302.64 143.44C306.78 119.54 310.92 95.65 315.06 71.75C315.26 70.61 314.03 69.21 312.86 70.06C270.8 100.38 228.74 130.7 186.68 161.02C174.73 169.63 162.78 178.25 150.83 186.86C151.58 187.29 152.33 187.72 153.09 188.16C152.83 168.84 160.23 150.74 168.75 133.75C177.25 116.79 187.11 100.35 193.29 82.34C196.72 72.35 198.83 61.91 198.76 51.32C198.75 50.26 197.46 49.35 196.5 50.02C158.44 76.75 133.91 117.06 105.51 152.91C98.36 161.94 91.01 171.03 82.8 179.14C79.14 182.76 72.36 187.77 67.66 182.81C64.8 179.79 64.96 174.75 65.51 170.93C66.31 165.35 68.64 160.08 70.55 154.82C73.01 148.03 75.46 141.24 77.92 134.44C82.83 120.86 87.74 107.27 92.66 93.69C103.69 63.19 114.71 32.7 125.74 2.20003C126.21 0.890029 124.61 -0.0499736 123.54 0.510026C87.47 19.26 54.15 43.24 24.92 71.5C16.73 79.42 8.86999 87.68 1.33999 96.24C0.0699929 97.68 2.18999 99.81 3.45999 98.36Z" fill="#00FFAB"/>
</svg>
