<svg width="663" height="260" viewBox="0 0 663 260" fill="none" xmlns="http://www.w3.org/2000/svg">
<g clip-path="url(#clip0_105_293)">
<g opacity="0.4">
<path opacity="0.31" d="M34.02 47.3501C37.52 46.8201 49.65 45.5001 70.42 43.3701L70.6 44.2301L72.15 43.1101L74.26 42.7901C74.58 42.7401 74.83 43.0001 74.99 43.5701L76.48 42.4601L109.09 37.5601C109.98 37.5701 110.49 37.9201 110.63 38.6001C110.85 39.5601 108.04 40.8901 102.21 42.5701L102.09 42.1501L102.59 40.3101C93.51 42.1901 86.91 43.4401 82.8 44.0601L77.01 44.9301C73.62 45.4401 68.14 46.0101 60.56 46.6301C61.62 48.7601 63.23 49.6601 65.39 49.3301C65.32 48.3501 65.6 47.8001 66.25 47.7101C67.56 48.3201 76.79 48.4101 93.94 47.9701L94.08 48.5001C94.41 49.9601 86.61 52.0601 70.69 54.7801L70.89 55.7401L81.95 85.1601C81.65 86.0901 81.63 87.1101 81.91 88.2101C82.03 88.7501 82.43 89.4401 83.11 90.3001C84.3 104.87 83.01 115.9 79.24 123.4C75.93 128.87 74.61 133.07 75.27 136L76.36 141.04C76.56 141.86 76.24 142.33 75.41 142.45C74.8 142.54 73.99 141.98 73 140.77L72.68 139.38C72.63 139.02 72.89 138.8 73.46 138.71C72.66 137.8 72.12 136.76 71.83 135.58C71.25 135.67 69.83 137.61 67.57 141.42L66.22 141.62C65.9 141.67 65.65 141.37 65.48 140.74C61.15 146 57.47 148.86 54.44 149.31L52.28 149.64C49.72 150.02 47.59 149.33 45.88 147.56C44.95 148.25 44.25 148.63 43.79 148.7C36.11 149.85 28.21 144.41 20.1 132.35C17.28 126.36 15.5 121.71 14.74 118.39C11.09 99.2501 11.08 89.4101 14.72 88.8601L16.18 88.6401C16.79 88.5501 17.6 89.1301 18.6 90.3801L18.66 90.8101L17.52 90.9801L15.73 90.4801C14.41 93.9901 13.97 96.6401 14.38 98.4201C15.06 99.2801 15.45 99.8801 15.54 100.24C14.59 100.53 14.22 101.14 14.43 102.07L14.76 103.51C15 104.62 15.43 105.55 16.06 106.3C15.54 108.26 15.65 110.95 16.39 114.38L17.7 120.15C20.08 130.82 26.52 139.32 37.02 145.67C38.35 145.47 40.02 145.77 42.02 146.58L41.79 145.4C33.2 138.28 27.53 128.52 24.78 116.1L24.51 111.72C24.38 111.08 24.09 110.79 23.66 110.85L23.58 107.38L23.25 105.94C19.97 91.2401 19.18 83.7701 20.87 83.5101L21.82 84.6901L22.73 88.8701L22.29 90.7101L22.99 90.6001L22.68 91.8601L24.92 101.98C29.73 123.67 36.93 136.77 46.53 141.26L49.84 141.59C50.65 135.94 50.94 132.58 50.7 131.51L49.59 126.7L50.62 126.55L50.75 127.08C52.34 134.22 52.45 139.47 51.07 142.85C54.57 142.32 56.37 142.33 56.49 142.86L63.71 139.4L62.22 132.77C61.77 130.77 61.1 128.88 60.21 127.1C57.87 110.79 57.29 102.54 58.48 102.36C58.29 101.61 57.97 101.28 57.5 101.35C57.01 78.9301 56.52 66.6601 56.06 64.5201C50.09 60.8801 46.39 59.1701 44.95 59.3901C18.2 63.4101 3.33 63.7301 0.35 60.3401L0.06 59.1101L4.28 57.7601L4 56.6201L0.38 57.1601L0 55.4001C11.68 51.6901 23.02 49.0101 34.02 47.3501ZM2.11 59.1201L7.86 61.6801L11.38 60.4301C27.1 59.5401 36.78 58.8201 40.42 58.2801L39.99 56.5201C34.03 54.8701 29.08 54.3401 25.15 54.9401L18.66 55.9201C18.3 55.9701 18.06 55.7201 17.93 55.1401L16.38 56.2601C16.09 56.3001 15.89 56.0701 15.78 55.5701C10.27 57.3901 5.71 58.5801 2.11 59.1201ZM8.16 53.7801L8.44 54.9001L55.01 50.1701L55.47 48.4401L55.1 46.7301C54.56 46.8101 48.63 47.4501 37.3 48.6301C33.02 49.2701 23.3 50.9901 8.16 53.7801ZM29.68 123.33L30.4 126.65L31.53 126.48L30.81 123.16L29.68 123.33ZM31.2 126.8L31.57 128.51C32.24 129.26 32.7 130.24 32.95 131.45L34.14 131.27L33.77 129.56C33.1 128.78 32.62 127.8 32.33 126.62L31.2 126.8ZM33.75 131.62L34.12 133.33C37.87 139.15 41.8 143.07 45.9 145.11L47.69 144.84L47.42 143.77C39.92 139.26 35.76 135.14 34.95 131.43L33.75 131.62ZM35.85 53.2701C36.19 54.8001 39.52 55.9601 45.83 56.7501L56.21 55.1901C56.04 54.3301 56.37 53.1601 57.17 51.6701C51.93 51.9001 48.09 52.2101 45.64 52.5701L39.85 53.4401L35.85 53.2701ZM50.9 143.81L49.81 146.46L50.06 147.42L54.66 146.73L58.28 145.41L57.9 143.59L52.65 144.38L50.9 143.81ZM50.47 57.8201L49.97 59.6601C52.76 61.3101 54.81 62.0301 56.1 61.8301L56.57 60.1601L55.87 56.9501L52.95 58.1601C51.91 57.8401 51.08 57.7301 50.47 57.8201ZM59.28 57.2101C59.02 60.6001 59.02 62.9501 59.28 64.2301L63.11 66.2001L62.67 60.6801L61.81 56.8301L59.28 57.2101ZM59.21 83.9901L61.4 120.99C61.53 121.63 61.83 121.92 62.3 121.85L62.7 126.71C64.29 131.63 65.19 134.56 65.4 135.48L66.48 135.32C66.75 132.7 67.76 129.27 69.52 125.02L60.34 83.8201L59.21 83.9901ZM59.98 66.6801L59.48 68.5201L60.63 73.6001C61.34 76.8501 61.74 79.7601 61.83 82.3201C62.72 84.0701 64.14 89.3601 66.1 98.2101L67.24 98.0401C65.31 80.3001 64.13 70.4701 63.69 68.5401L59.98 66.6801ZM63.61 56.5601C64.17 59.0901 64.76 62.8401 65.36 67.8001L68.32 69.1201L67.94 67.3001C67.69 66.1201 66.63 62.4801 64.75 56.3901L63.61 56.5601ZM65.36 71.1801L66.81 77.8801C66.89 78.2001 66.7 78.3901 66.23 78.4601C66.39 79.2501 66.7 79.6101 67.17 79.5401L69.61 107.16L70.78 112.4L71.86 112.24C73.2 100.09 72.85 89.4201 70.81 80.2101L70 76.6201C69.92 76.3001 70.14 76.1001 70.68 76.0201C68.94 72.5201 67.47 70.8601 66.28 71.0401L65.36 71.1801ZM67.73 58.2101L68.44 61.4801L69.58 61.3101L68.87 58.0401L67.73 58.2101ZM69.01 50.5501L69.57 53.1801L74.17 52.4901L82.92 50.4001L82.7 49.2701C80.57 49.5901 76.01 50.0201 69.01 50.5501ZM74.51 75.0001C75.3 95.9301 74.87 113.68 73.22 128.23C80.77 117.18 82.95 104.44 79.75 90.0301C77.39 81.6801 76 76.6201 75.59 74.8401L74.51 75.0001Z" fill="#00FFAB"/>
<path opacity="0.31" d="M150.86 20.0599L151.94 19.8999C151.96 20.2699 151.84 20.8199 151.58 21.5599L160.5 52.1899C161.18 52.0899 161.77 54.1699 162.27 58.4499L162.81 58.3699C162.68 57.2799 162.8 56.7099 163.16 56.6599C160.12 45.9799 158.3 37.9599 157.72 32.5899L159.29 32.3499C157.7 27.8699 156.8 24.7599 156.62 23.0199L157.62 22.3199C158.12 22.2399 159.07 24.2599 160.46 28.3599C160.96 28.2799 161.55 28.7499 162.22 29.7499L162.85 35.0699C162.86 35.3999 163.05 35.5399 163.41 35.4799L163.03 36.6399L163.06 37.1899L164.14 37.0299L164.17 37.5799L163.32 39.3099L164.35 39.1599C164.5 40.4299 164.53 42.0499 164.42 44.0199C166.15 49.9199 168.96 63.3999 172.82 84.4599C175.24 105.44 173.31 118.38 167.04 123.27C162.92 125.77 159.79 128.23 157.64 130.66C155.13 132.11 152.36 133.06 149.33 133.51C133.86 135.84 121.58 125.77 112.5 103.32C110.54 95.9099 109.07 89.4399 108.09 83.9099C105.82 57.7799 106.07 42.7599 108.84 38.8399C110.38 35.3299 112.11 33.0899 114.03 32.1399C114.73 32.1399 115.13 32.4399 115.21 33.0099C112.72 33.3799 110.63 38.7499 108.95 49.0999L109.77 56.0599L110.7 59.6799L111.24 59.5999C110.1 49.7799 110.79 43.3499 113.32 40.3199L113.86 40.2399C114.36 40.1599 114.95 40.6299 115.62 41.6299L115.7 42.1699C112.53 42.6499 112.03 52.4699 114.21 71.6499L114.39 73.2299C114.42 73.4499 114.87 75.7199 115.75 80.0499L115.21 80.1299C116.73 86.5399 117.93 90.8699 118.82 93.1399L118.33 93.2099C121.79 106.44 126.05 115.37 131.09 119.99C134.88 122.66 137.18 123.94 137.97 123.82L137.95 123.33C131.72 119.14 127.53 107.84 125.39 89.4399L123.78 75.0799C123.66 74.2899 123.39 73.5899 122.97 72.9899C123.27 72.3199 123.37 71.5799 123.25 70.7899L122.75 65.9999C121.96 59.2599 122.45 55.7599 124.21 55.4899L125.32 55.8799C125.36 55.1399 125.68 54.7199 126.29 54.6299C126.79 54.5499 127.4 55.1799 128.12 56.5099C126.57 58.9599 125.91 61.0499 126.13 62.7799L126.32 64.4099L125.24 64.5699L125.13 63.4799L124.59 63.5599L125.04 67.3099L125.53 67.2399L125.39 65.5999L125.88 65.5299L126.14 67.6499C126.19 68.0099 126.04 68.2199 125.68 68.2699L126.33 69.2799L126.91 74.6099L125.88 74.7599L125.98 75.7999L127.06 75.6399L127.09 76.1899L126.06 76.3399L126.17 77.4299C126.22 77.7499 126.42 77.8899 126.78 77.8399L126.35 79.0099L126.46 80.0999L127.46 79.3999L128 79.3199L128.15 80.3499C127.7 82.9999 127.5 84.4799 127.55 84.8099L127.63 85.3499C127.77 86.5099 128.05 87.3699 128.46 87.9299L128 93.3599C128.52 95.8299 129.01 97.0199 129.48 96.9499L129.1 98.1099L129.68 103.44C129.98 105.2 130.44 106.04 131.05 105.94C131.1 106.26 130.94 106.45 130.58 106.51C135.84 119.43 141.21 125.48 146.69 124.66C147.05 124.61 147.55 124.37 148.19 123.94C148.85 124.17 149.58 124.23 150.37 124.11C154.44 123.5 156.44 118.87 156.36 110.21C156.55 109 155.75 99.0199 153.96 80.2699C147.6 48.0099 143.26 32.0499 140.96 32.3999L140.8 31.3199C140.84 30.6099 141.17 30.2099 141.78 30.1199L142.27 30.0499C144.68 32.0799 148.2 42.3799 152.83 60.9199C154.34 67.7699 155.73 75.1599 156.99 83.0799L159.04 110.37L159.12 110.91L159.66 110.83C162.21 101.78 162.62 89.8099 160.9 74.9199C159.02 58.4699 155.17 40.6299 149.37 21.4099L150.86 20.0599ZM108.87 67.0199L110.19 78.7099C110.33 79.9099 110.27 80.8199 109.99 81.4499C111.53 94.8999 115.82 107.25 122.86 118.5L123.35 118.43L123.25 117.39L120.66 113.41L121.15 113.34C118.49 107.66 115.14 94.0799 111.1 72.5999C110.74 72.6499 110.16 70.7699 109.36 66.9399L108.87 67.0199ZM128.53 120.91L128.64 122C130.78 123.96 134.28 126.31 139.16 129.05L140.16 128.35L140.65 128.28C140.83 129.73 142.87 130.16 146.76 129.57C150.61 128.7 152.49 127.86 152.41 127.06C141.56 128.69 133.76 126.62 129.02 120.84L128.53 120.91ZM162.75 119.03C158.24 125.83 155.07 129.36 153.23 129.64L153.26 130.19L153.8 130.11C158.15 127.87 161.31 124.15 163.29 118.95L162.75 119.03ZM166.49 66.9799C167.67 80.2199 168.09 91.7199 167.75 101.47L167.91 102.55L168.4 102.48C168.68 95.5099 168.75 91.3299 168.62 89.9499L168.07 85.1699L169.1 85.0199L169.65 89.7999L169.48 93.0899C169.53 93.4499 169.74 93.5999 170.1 93.5499C171.13 102.61 169.02 112.5 163.77 123.2L164.31 123.12C169.74 117.29 171.98 110.28 171.05 102.09L171.59 102.01C171.54 101.65 171.35 101.49 171.02 101.54C171.33 97.9899 171.12 93.1399 170.38 86.9799L169.88 82.1899C169.48 78.8199 168.53 73.7299 167.03 66.9099L166.49 66.9799Z" fill="#00FFAB"/>
<path opacity="0.31" d="M208.67 17.95C211.9 17.87 215.45 17.54 219.3 16.96L220.88 18.66C220.03 19.64 216.81 20.54 211.22 21.38L211.07 20.74L209.83 20.93L210.72 22.07C210.29 22.14 210.12 22.38 210.22 22.81C221.11 21.17 229.44 24.97 235.22 34.21L235.7 36.68L234.55 37.46C221.22 31.46 210.18 29.12 201.42 30.44C193.84 32.76 190.23 36.05 190.57 40.31L191.16 40.22C198.01 36.24 203.11 34 206.46 33.5L207.7 33.31C218.54 32.34 224.55 35.02 225.72 41.33L226.94 44.3L227.04 44.95L225.8 45.14C223.69 39.67 220.53 36.35 216.34 35.17C213.38 35.32 211.85 35.13 211.77 34.58L210.62 35.36C210.22 35.42 209.98 35.25 209.88 34.86L206.94 35.91C206.62 35.96 205.34 35.95 203.12 35.88C199.06 39.03 196.81 40.64 196.38 40.71C196.22 39.89 195.72 39.54 194.9 39.66L192.48 43.79C195.37 46.82 203.39 51.11 216.53 56.65C231.35 65.7 239.42 73.76 240.74 80.83L240.09 80.93L240.98 82.07L241.74 86.38C242.2 88.71 242.03 92.33 241.22 97.24C243.4 108.82 235.59 118.01 217.77 124.82C214.89 125.25 213.27 125.7 212.94 126.15C204.58 127.41 195.44 123.93 185.55 115.72C183.77 112.93 182.8 111.17 182.66 110.46L182.42 109.22L183.66 109.03C184.88 115.7 192.38 120.7 206.15 124.01C206.82 124.31 209.17 124.39 213.2 124.22C217.35 123.6 222.84 121.3 229.69 117.32L229.59 116.67L230.18 116.58L231.58 117.03C231.46 116.46 233.18 114.3 236.75 110.56C238.46 106.21 239.19 103.35 238.95 101.99L238.85 101.34C237.7 101.51 236.39 103.61 234.93 107.63C234.57 107.68 233.76 109.08 232.52 111.81C227.73 116.73 222.74 119.58 217.55 120.36L213.87 120.91C205.22 122.21 196.91 118.61 188.96 110.11C184.33 103.62 181.61 98.13 180.79 93.64C180.41 89.9 180.69 87.96 181.63 87.82C185.29 89.37 187.43 91.8 188.03 95.1C188.68 98.47 189.48 100.45 190.42 101.05L190.57 101.69C190.63 102.09 190.46 102.31 190.07 102.37C193.49 109.93 203.99 112.78 221.55 110.91L222.14 110.82L223.29 110.04C224.07 110.33 224.93 110.4 225.87 110.26C230.64 106.7 233.07 103.81 233.14 101.59C231.91 94.84 223.75 87.43 208.67 79.33C203.45 79.16 197.91 76.82 192.08 72.31C185.39 68.27 181.44 62.96 180.23 56.39L179.9 54.56C178.64 47.89 184.13 37.57 196.37 23.6C201.64 20.28 205.75 18.39 208.67 17.95ZM183.63 50.8C183.35 53.87 183.24 55.58 183.3 55.94C186.04 64.38 189.52 68.28 193.74 67.64C188.03 62.01 184.88 57.63 184.3 54.51L184.32 51.35L184.22 50.7L183.63 50.8ZM184.4 48.2L184.63 49.38L185.23 49.29C185.03 48.21 185.42 46.9 186.41 45.35L186.17 44.11C185.33 44.24 184.75 45.6 184.4 48.2ZM187.07 49.01C186.76 51.82 186.69 53.73 186.88 54.73C189.96 60.28 194.55 65.51 200.63 70.42C201.32 71.09 206.69 72.61 216.74 74.97C223.41 77.4 228.42 80.44 231.77 84.1C232.6 83.97 232.9 83.28 232.68 82.03C231.33 74.79 227.11 68.05 220.02 61.81C214.49 58.4 209.78 56.99 205.89 57.57L202.16 58.13L200.51 59.65C194.33 58.03 191.03 56.21 190.62 54.17C188.82 50.65 187.64 48.92 187.07 49.01ZM189.39 44.24C189.57 45.17 189.51 46.03 189.22 46.81C192.1 54.42 195.91 57.86 200.67 57.14L208.73 55.93L208.63 55.28C196.87 51.34 190.65 47.62 189.98 44.15L189.39 44.24ZM193.57 70.21L193.71 70.8C198.62 74.3 201.89 75.93 203.51 75.69C202.15 74.19 198.84 72.37 193.57 70.21ZM194.62 109.92L194.71 110.51C201.69 116.21 207.25 118.75 211.39 118.12L211.54 118.76C216.48 118.02 221.36 115.81 226.19 112.13L226.09 111.48L223.1 112.59C210.68 114.48 201.18 113.58 194.62 109.92ZM207.32 24.45L207.66 26.34L206.42 26.53C205.63 26.65 205.15 26.3 204.99 25.47C199.35 27.17 196.65 28.62 196.91 29.84L199.85 28.79L201.74 28.51C211.3 27.85 221.19 29.73 231.4 34.17L231.99 34.08C228.33 27.88 224.84 25.04 221.53 25.53C220.8 26.05 220.21 26.34 219.78 26.4L218.94 25.25C219.34 25.19 219.51 24.96 219.45 24.57C216.22 24.2 212.18 24.17 207.32 24.45ZM198.44 24.57L198.58 25.16L199.77 24.98C200.5 24.47 201.09 24.17 201.52 24.11L201.42 23.46L200.83 23.55C200.17 24.09 199.37 24.43 198.44 24.57ZM207.85 75.03C213.48 78.39 221.09 81.67 230.68 84.87L230.54 84.28C226.14 81.25 221.24 78.82 215.84 76.98L214.74 77.75L210.44 75.25C209.64 74.96 208.78 74.89 207.85 75.03ZM222.28 84.25L222.37 84.84C229.32 90.14 232.99 93.81 233.37 95.85L233.96 95.76L233.98 92.6L233.41 89.53C231.17 87.6 227.46 85.84 222.28 84.25ZM226.78 46.86L228.02 46.67L228.35 48.5L227.11 48.69L226.78 46.86ZM227.32 67.02L227.47 67.66C230.95 72.63 234 79.97 236.64 89.67L239.56 91.78C239.27 90.13 239.74 89.21 240.97 89.02L240.64 87.19L239.4 87.38L238.49 82.43C237.05 77.52 233.55 72.35 227.97 66.92L227.32 67.02ZM236.81 94.07L236.79 97.23L237.03 98.47C237.35 98.42 237.86 97.72 238.54 96.36C238 95.7 237.64 94.91 237.46 93.98L236.81 94.07Z" fill="#00FFAB"/>
<path opacity="0.31" d="M321.44 0C323.78 0.09 325 0.48 325.1 1.16C324.36 1.86 323.16 2.61 321.51 3.41L321.45 3.03C321.36 2.45 321.75 2.1 322.62 1.97L322.56 1.54L322.13 1.61C314.33 3.93 309.47 5.23 307.56 5.51L307.63 5.94L308.19 6.74C307.63 7.41 306.82 7.83 305.78 7.99L305.84 8.37C307.82 8.07 308.86 8.21 308.94 8.79C309.08 9.69 303.48 11.97 292.16 15.62L292.22 16.05L294.76 15.67C297.32 15.29 301.35 14.26 306.85 12.58L307.4 13.33L307.53 14.2C299.81 16.54 291.01 18.45 281.13 19.94L281.96 42.77C282 43.06 282.15 43.18 282.4 43.15C282.23 45.72 282.47 49.15 283.12 53.44L283.57 56.41L284.32 55.86L284.75 55.79L284.81 56.22C284.94 57.05 284.58 57.53 283.75 57.65C283.84 58.23 284.02 58.49 284.31 58.45L284.32 61.49C287.35 79.21 289.1 88.03 289.57 87.96C289.36 88.51 289.3 89.11 289.4 89.76C289.77 90.26 289.98 90.65 290.02 90.94L289.6 91L291.99 98.05L291.81 99.79L293.44 104.74L292.64 105.3C291.99 105.4 290.61 101.99 288.51 95.08C288.22 95.12 287.99 94.57 287.82 93.41L287.39 93.48L287.72 95.64C288.67 98.04 289.21 99.69 289.35 100.59C288.52 100.71 288.17 101.19 288.29 102.02L287.42 102.15L287.35 101.72C287.31 101.47 287.44 101.32 287.73 101.28C286.96 100.07 286.46 98.69 286.22 97.14L285.79 97.2L285.99 98.5C286.79 101.85 287.31 104.37 287.57 106.06L288.44 105.93L288.12 103.82L288.93 103.7L289.31 106.24C289.4 106.85 289.63 107.39 289.99 107.85C290 111.61 289.72 113.53 289.14 113.62C288.23 113.46 287.67 112.68 287.46 111.27L287.08 111.33C287.55 114.43 287.35 116.05 286.48 116.18L286.05 116.25C284.36 116.5 281.73 111.55 278.18 101.4L278.11 100.97L278.54 100.9L277.99 100.15L275.69 84.85C275.11 80.99 274.49 75.89 273.83 69.53C267.76 50.28 263.94 35.4 262.37 24.91L261.44 24.61C253.58 25.79 245.28 28.2 236.53 31.84C235.62 33.41 235.19 34.35 235.24 34.63C235.79 34.62 236.1 34.85 236.17 35.32L236.37 36.62L235.99 36.68C233.17 35.33 231.74 34.54 231.7 34.28L231.57 33.41C232.21 32.5 235.18 30.18 240.48 26.43C240.16 24.3 246.87 20.84 260.6 16.05L260.28 13.94C250.52 16 243.85 17.72 240.26 19.11C239.71 18.9 239.13 18.84 238.52 18.93L238.45 18.5C238.37 18 241.22 16.85 247 15.06L247.07 15.49L247.87 14.93C248.16 14.89 248.33 15.01 248.37 15.3L261.26 11.65C261.77 11.87 262.35 11.93 263 11.83L264.61 11.15L264.68 11.58C264.97 11.54 265.09 11.37 265.05 11.08L268.09 11.07L283.34 8.78C283.99 8.68 284.53 8.45 284.95 8.1C285.5 8.31 286.1 8.37 286.75 8.27L292.7 7.38C292.95 7.34 293.1 7.45 293.14 7.7C304.96 4.76 314.4 2.2 321.44 0ZM238.08 19C240.27 20.11 241.39 20.81 241.44 21.09L241 21.16C238.76 20.72 237.52 20.19 237.28 19.56L238.08 19ZM242.71 26.99L242.78 27.42C255.27 23.92 261.44 21.68 261.29 20.71C261.1 19.45 261.12 18.58 261.34 18.1L260.91 18.17C258.45 18.54 252.39 21.48 242.71 26.99ZM261.57 13.76L261.82 15.44L262.63 15.32L262.57 14.89C262.2 14.39 261.99 14 261.95 13.71L261.57 13.76ZM262.14 17.54C262.45 17.9 262.73 18.87 262.97 20.46C264.76 19.34 266.26 18.69 267.49 18.51C267.14 18.12 266.86 17.3 266.68 16.03C266.08 16.34 264.58 16.84 262.14 17.54ZM262.81 13.57C263.18 14.07 263.39 14.46 263.43 14.75L265.11 14.5C265.69 14.41 265.93 14.1 265.85 13.56L265.72 12.69L263.61 13.01L262.81 13.57ZM263.54 24.3L263.6 24.73C263.67 25.2 264.06 25.86 264.78 26.71C264.72 28.27 264.76 29.55 264.92 30.56C265.05 31.43 265.49 32.37 266.23 33.4L265.93 34.33L272.42 60.23L272.85 60.17L272.09 55.09L272.52 55.02C272.48 54.73 272.31 54.61 272.02 54.65C271.69 49.98 271.61 47.54 271.8 47.33C271.76 47.04 271.59 46.92 271.3 46.96C270.48 35.36 270.1 28.04 270.16 25.01C269.66 23.65 269.27 22.99 268.98 23.03C268.85 23.06 267.03 23.48 263.54 24.3ZM263.59 21.69L263.66 22.12L267.93 21.48C268.47 21.4 268.7 21.07 268.61 20.49L268.48 19.62C266.08 20.87 264.46 21.56 263.59 21.69ZM267.4 12.44L267.53 13.31L267.96 13.24C268.32 13.19 269.72 12.83 272.17 12.16L272.1 11.73L267.4 12.44ZM268.41 16.21C268.78 16.71 268.99 17.1 269.03 17.39C275.45 14.69 278.99 13.29 279.68 13.19L279.62 12.76L279.19 12.83C271.88 14.29 268.29 15.42 268.41 16.21ZM269.71 19L269.84 19.87L270.4 20.67C270.57 20.35 273.75 19.43 279.94 17.91C279.82 17.08 279.81 16.07 279.93 14.87L279.5 14.94C278.78 15.04 275.51 16.4 269.71 19ZM272.31 33.38C272.41 34.03 272.35 34.61 272.13 35.12L273 34.99L272.75 33.31L272.31 33.38ZM272.26 35.98L273.18 47.95L273.61 47.88L273.31 48.81L273.44 49.68C273.53 50.29 273.76 50.83 274.12 51.29C273.71 52.5 273.66 54.09 273.95 56.07L274.33 58.61C274.37 58.9 274.25 59.07 273.96 59.11L274.52 59.91L274.58 60.34C274.62 60.63 274.5 60.8 274.21 60.84C274.25 61.09 274.41 61.2 274.7 61.15L274.59 63.38C275.69 70.7 278.46 81.4 282.9 95.48L283.33 95.41C283.2 94.54 283.28 94.09 283.57 94.05L283.02 93.3C282.46 89.59 281.88 84.75 281.28 78.8C281.24 78.55 281.08 78.44 280.79 78.49L280.9 76.26L278.99 63.55C278.9 62.94 278.96 62.36 279.17 61.81C279.13 61.52 278.96 61.4 278.67 61.44L278.66 58.4L278.17 55L277.3 52.14L277.73 52.08L273.13 35.85L272.26 35.98ZM275.24 21.21L275.3 21.64C275.93 21.88 276.93 24.77 278.32 30.31C278.1 30.82 278.04 31.4 278.14 32.05L279.01 31.92L279.08 32.35C279.12 32.64 279 32.81 278.71 32.85C278.75 33.14 278.92 33.26 279.21 33.22L279.22 36.21L280.3 40.42L280.73 40.35C279.96 33.28 279.7 28.69 279.93 26.59C279.89 26.3 279.74 26.18 279.49 26.21C279.59 23.17 279.58 21.29 279.47 20.57L275.24 21.21ZM275.27 27.29L276.73 37.02C276.91 38.21 277.29 39.76 277.87 41.66C277.64 42.1 277.62 42.97 277.82 44.27L278.89 48.42L278.46 48.48C278.83 48.98 279.04 49.37 279.08 49.66C279.33 51.32 280 54.83 281.11 60.19L281.98 60.06L281.53 57.09C281.38 56.08 281.32 54.8 281.34 53.25C281.01 52.75 280.81 52.33 280.77 52.01L281.15 51.95L280.65 51.2C278.39 40.11 277.15 33.79 276.91 32.24L276.35 31.44C276.31 31.19 276.44 31.04 276.73 31C276.28 29.96 275.94 28.71 275.72 27.23L275.27 27.29ZM277.1 82.48L279.14 96.05C280.51 105.14 282.85 111.14 286.16 114.07L285.57 107.19C280.79 94.78 278.09 86.52 277.48 82.41L277.1 82.48ZM280.68 14.37L281.06 16.91L280.8 17.78C292.97 13.92 301.05 10.98 305.02 8.94L304.95 8.51C304.66 8.55 304.5 8.45 304.46 8.2C302.96 9.27 301.33 9.94 299.56 10.21C299.27 10.25 298.84 10.17 298.25 9.96L292.93 12.09L292.8 11.22L298.51 9.09L298.44 8.66L295.52 9.1C294.6 9.23 289.65 10.99 280.68 14.37ZM281.23 61.07L282.44 69.13L282.87 69.07L281.67 61L281.23 61.07ZM284.27 90.09L284.9 94.31L285.65 96.35L286.08 96.29L286.02 95.91C285.52 94.58 285.08 92.62 284.69 90.03L284.27 90.09ZM286.48 84.56L286.99 87.97L287.42 87.91L286.91 84.5L286.48 84.56Z" fill="#00FFAB"/>
</g>
</g>
<g clip-path="url(#clip1_105_293)">
<g opacity="0.4">
<path opacity="0.31" d="M343.2 133.78L344.07 133.7L344.21 135.39C344.25 135.68 344.13 135.84 343.84 135.89L344.35 136.7C344.85 154.73 344.81 166.09 344.22 170.79L345.04 170.72C345.23 159.48 345.98 153.8 347.29 153.68C347.69 153.62 348.15 153.99 348.67 154.8L349.16 159.54C349.17 159.83 349.02 159.99 348.73 159.99L349.24 160.8L349.37 161.67L348.5 161.75L348.58 162.62L349.45 162.54V162.93C351.43 183.24 348.55 212.73 340.79 251.39C340.88 252.22 340.37 253 339.26 253.72L337.57 253.86C329.79 254.62 321.24 240.5 311.9 211.49L310.53 206.44L310.45 205.57L309.58 205.65C309.78 216.57 309.59 222.05 309.01 222.1L309.52 222.91L309.59 223.34C309.6 223.63 309.47 223.78 309.21 223.78C309.22 224.07 309.37 224.22 309.66 224.21C309.7 227.63 309.57 229.37 309.28 229.41C309.32 229.7 309.49 229.82 309.78 229.78L309.56 231.97L310.05 237.1C310.09 237.39 309.97 237.55 309.68 237.6C309.68 237.86 309.83 237.98 310.12 237.98L309.96 240.99L310.23 243.55C309.46 244.55 308.99 245.62 308.83 246.75C308.99 247.35 309.5 248.16 310.36 249.18C310.54 252.62 310.27 254.37 309.55 254.44C308.72 254.53 308.21 253.72 308.02 252.02L307.61 252C307.79 253.71 307.45 254.61 306.58 254.7L306.93 258.13C306.97 258.68 306.58 258.99 305.75 259.08C303.5 259.31 300.29 255.88 296.13 248.8L294.25 247.7L294.89 249.76L294.95 250.19C294.97 250.59 294.58 251.06 293.78 251.58L292.47 251.72C287.2 247.54 282.59 239.93 278.64 228.91C273.59 212.45 269.26 196.03 265.65 179.65L263.25 172.54L262.82 172.6L263.03 174.73C263.41 178.73 264.03 182.27 264.9 185.34L264.47 185.41C264.84 185.91 265.03 186.32 265.04 186.65C265.45 190.86 266.12 194.67 267.03 198.07L266.6 198.14C266.89 198.39 267.33 200.08 267.91 203.2H267.52C268.66 209.04 270.4 215.21 272.74 221.72C272.45 221.73 272.32 221.88 272.36 222.16C273.05 222.09 273.94 223.88 275.04 227.51L275.05 227.95C274.69 228 274.03 227.2 273.08 225.54V225.15L273.44 224.21C272.57 224.3 270.69 219.89 267.8 210.96L268.24 210.95C264.54 196.3 262.12 183.15 261 171.52L261.87 171.44C261.73 170.24 261.47 169.12 261.09 168.07C261.42 164.85 262.13 163.2 263.22 163.1C263.34 163.67 263.66 163.92 264.16 163.84H264.55C264.58 161.81 265.06 160.74 266 160.63H266.39C269.4 160.32 273.48 165.24 278.62 175.38L279.06 175.37C278.87 173.37 279.21 172.33 280.08 172.23C279.94 171.03 279.24 169.96 277.99 169L277.84 167.25C277.83 166.96 277.96 166.81 278.22 166.81C277.55 165.81 277.16 164.68 277.05 163.45L276.98 163.02C277.04 162.46 277.31 162.16 277.79 162.12C280.71 165.62 286.34 179.18 294.68 202.77C295.76 205.34 297.38 211.64 299.51 221.68L299.95 221.67L303.55 179.04C303.38 177.18 303.87 174.68 305.02 171.52L304.51 170.71L304.44 169.89C304.46 169.3 304.71 168.98 305.18 168.95C306.57 172.28 309.13 176.49 312.88 181.56C316.9 190.43 320.43 198.58 323.47 206.02C325.41 211.55 328.13 220.49 331.65 232.83L332.08 232.77C332.45 215.87 332.73 206.94 332.92 205.99C332.91 205.7 332.76 205.55 332.47 205.56C333.03 199.47 332.79 191 331.75 180.17H332.14L331.62 179.31L331.55 178.49C331.54 178.2 331.67 178.03 331.92 177.99L331.41 177.18L331.06 173.36C331.05 173.07 331.18 172.9 331.43 172.86C331.17 172.83 330.9 171.41 330.63 168.61L330.2 168.67C330.35 170.16 330.19 174.35 329.71 181.24C329.27 181.27 328.79 180.88 328.26 180.07L329.07 179.56L328.56 178.75C328.71 174.12 329.4 166.29 330.62 155.27L331.43 154.76L331.86 154.69C332.8 154.59 333.81 158.95 334.88 167.78L334.44 167.79C334.45 168.08 334.6 168.23 334.89 168.22L334.88 172.54C334.92 173.08 335.09 173.36 335.39 173.35C335.46 179.94 335.35 183.26 335.06 183.3C335.1 183.59 335.27 183.71 335.56 183.67C335.61 186.24 335.44 187.56 335.05 187.62C335.09 187.91 335.26 188.03 335.55 187.99C334.69 206.04 334.62 218.84 335.35 226.4L335.41 226.83L336.27 231.07L335.84 231.14C336.13 231.39 336.64 233.64 337.35 237.88L336.48 237.96L336.26 235.39L335.83 235.45L335.91 236.71L335.09 236.78L334.89 235.1L335.76 235.02L334.18 227.85H333.79C333.92 232.14 334.08 235.29 334.27 237.29L334.42 239.04C334.46 239.33 334.34 239.48 334.04 239.48C335.52 242.95 336.27 244.75 336.29 244.89L336.72 244.82L336.6 244.01L335.59 238.02L336.46 237.94L336.81 241.37L337.62 240.86C337.93 241.18 338.16 242.16 338.34 243.79L338.78 243.78C337.78 233.42 337.7 222.36 338.55 210.58C338.54 210.29 338.39 210.14 338.1 210.15L338.35 199.33C338.31 199.08 338.15 198.96 337.85 198.96C338.03 191.56 337.73 183.97 336.97 176.2C336.91 175.55 336.99 174.96 337.2 174.45L336.69 173.64C336.93 173.05 337.03 172.61 336.99 172.32C336.98 172.03 336.83 171.88 336.54 171.89L336.77 169.75L336.69 168.88C336.36 165.68 336.1 161.54 335.93 156.44L335.42 155.63L335.58 153.01L335.02 147.45C335.01 147.16 335.14 147.01 335.4 147.01L334.89 146.2L334.74 144.45C334.72 144.05 335.11 143.58 335.91 143.06L336.79 143.43L336.63 146.44L338.53 165.68C338.54 165.97 338.41 166.12 338.15 166.12C338.16 166.41 338.31 166.56 338.6 166.55L338.44 169.56L338.87 173.86C338.91 174.15 338.79 174.3 338.49 174.3C338.83 174.84 339 175.26 339.01 175.55C339.35 179.07 339.69 186.95 340.02 199.18L340.16 200.49L340.59 200.42C342.16 172.13 342.83 156.82 342.59 154.5L343.02 154.44C343.02 154.18 342.87 154.06 342.58 154.06C342.38 140.61 342.58 133.84 343.2 133.78ZM262.63 166.19C262.77 167.61 262.55 168.34 261.97 168.39C262.31 168.93 262.5 169.34 262.54 169.63C263.94 169.13 264.6 168.64 264.53 168.17L263.27 168.25L263.21 167.87L263.94 166.49L263.93 166.05L262.63 166.19ZM266.58 167.09L266.72 168.4L267.59 168.27L267.46 167.02L266.58 167.09ZM267.22 173.52L267.43 175.65L267.86 175.58L267.65 173.46L267.22 173.52ZM267.49 176.07L267.5 176.51C267.67 178.11 268.1 179.65 268.8 181.13C268.59 181.68 268.49 182.12 268.5 182.45L275.43 204.63L275.86 204.57L275.73 203.32C272.48 190.72 270 181.61 268.31 176.01L267.49 176.07ZM267.9 162.63L267.97 163.06L275.06 187.43C275.35 187.39 275.5 187.51 275.5 187.81L275.06 187.82C275.84 189.55 276.24 190.67 276.28 191.18L275.85 191.24C276.56 192.53 277.31 194.32 278.09 196.6L277.66 196.66L279.85 201.64C279.89 201.89 279.76 202.04 279.47 202.08C284.83 215.69 289.49 229.48 293.43 243.45C293.72 243.41 293.89 243.68 293.94 244.26L294.76 244.19C291.22 233.66 287.54 219.34 283.71 201.22L284.15 201.21C281.11 184.61 278 174.83 274.82 171.87C273.82 168.89 271.51 165.81 267.9 162.63ZM273.83 206.09L273.96 207.34L274.83 207.26C274.5 206.76 274.3 206.34 274.26 206.02L273.83 206.09ZM274.41 207.77L274.54 209.02C279.04 225.19 283.82 237.4 288.89 245.63C290.87 248.02 292.14 249.2 292.68 249.15L292.6 248.28C290.02 248.52 285.13 238.21 277.94 217.36C277.8 215.91 276.76 212.69 274.83 207.71L274.41 207.77ZM275.07 227.97C275.83 227.89 276.51 228.84 277.1 230.82L276.66 230.83C276.01 230.89 275.48 229.94 275.07 227.97ZM275.39 195.13C280.65 214.21 284.39 226.07 286.6 230.72L287.42 230.65C283.98 218.82 280.87 208.9 278.08 200.92C278.04 200.41 277.31 198.9 275.9 196.38L276.27 195.5L276.2 195.07L275.39 195.13ZM280.15 173.12L280.23 174.38C280.46 176.67 281.54 180.3 283.47 185.28L283.91 185.27L283.85 184.84L280.58 173.05L280.15 173.12ZM282.68 186.23L282.81 187.1L285.19 198.52L284.75 198.53C286.07 203.42 288.96 215.37 293.4 234.39L294.27 234.31C292.25 222.56 290.79 215.07 289.9 211.85L290.34 211.84C287.37 198.68 284.96 190.14 283.12 186.22L282.68 186.23ZM286.47 185L286.61 186.31L287.49 186.62L287.43 186.24C287.09 185.7 286.92 185.28 286.91 184.99L286.47 185ZM287.1 235.89L287.17 236.71C288.55 239.27 289.3 241.07 289.42 242.12L289.85 242.05L289.78 241.62C289.74 241.37 288.97 239.44 287.47 235.83L287.1 235.89ZM287.12 187.11C287.19 187.8 289.39 194.35 293.72 206.75L294.15 206.68V206.29C291.96 198.1 289.74 191.69 287.5 187.05L287.12 187.11ZM288.12 197.8L288.32 199.48C291.5 211.54 294.26 225.37 296.61 240.98L296.67 241.41L296.23 241.42C295.85 240.34 295.61 239.36 295.51 238.49L295.08 238.55L295.28 240.23C295.34 241.14 296 242.1 297.26 243.09C297.3 243.34 297.17 243.49 296.88 243.53C298.24 248.67 300.04 252.38 302.26 254.67C302.44 254.64 303.22 255.28 304.59 256.59L305.03 256.58L305.02 256.14C304.84 254.47 303.34 250.88 300.52 245.37C295.49 223.19 291.5 207.31 288.55 197.73L288.12 197.8ZM294 209.31L294.06 209.74L294.44 209.68C294.48 209.97 294.36 210.14 294.07 210.18L302.78 246.42L303.6 246.35C303.59 246.06 303.42 245.64 303.08 245.1L303.24 242.48C303.18 241.86 302.99 241.32 302.66 240.85C302.87 240.3 302.95 239.72 302.89 239.1L302.67 236.92C301.79 235.95 301.08 234.58 300.56 232.81L300.72 229.8C300.63 228.93 300 226.98 298.84 223.94L298.76 223.07L299.12 222.19C298.32 222.27 296.95 218.52 294.99 210.92C294.7 210.96 294.53 210.69 294.48 210.11C294.77 210.1 294.9 209.96 294.86 209.67L294 209.31ZM303.71 193.69C301.9 213.76 301.11 224.92 301.33 227.17C302.48 230.17 303.75 234.35 305.15 239.7L305.59 239.69C306.84 228.89 307.24 221.08 306.77 216.29L306.56 214.55C306.55 214.26 306.7 214.11 306.99 214.1C306.65 213.56 306.46 213.15 306.42 212.86C306.38 212.57 306.5 212.41 306.79 212.36L306.15 210.3L305.58 204.3C305.57 204.01 305.72 203.86 306.01 203.85L305.45 203.05L304.58 193.61L303.71 193.69ZM305.59 177.54C305.61 179.86 305.43 181.03 305.07 181.05C306.18 183.76 306.78 185.57 306.88 186.47L307.32 186.46L307.26 181.27C306.47 179.18 306.06 177.93 306.03 177.53L305.59 177.54ZM305.42 189.23L305.77 192.66C305.98 195.06 306.46 198.6 307.2 203.28L306.82 203.34C307.1 203.48 307.36 204.75 307.61 207.15L308.04 207.08C308.15 202.42 308.11 199.11 307.93 197.14C306.66 192.83 305.96 190.17 305.85 189.16L305.42 189.23ZM306.68 242.19C306.61 245.15 306.48 246.88 306.3 247.39L307.18 247.76L307.12 242.57L307.11 242.13L306.68 242.19ZM309.15 187.57L309.72 193.57C309.76 193.86 309.64 194.01 309.34 194.01L309.85 194.82L309.92 195.25C310.76 204.04 315.96 219.23 325.5 240.8C327.38 243.72 329.51 246.24 331.89 248.36H332.28L331.76 247.5L331.62 245.81C331.56 245.16 331.66 244.57 331.91 244.05C328.09 241.23 323.29 230.34 317.49 211.38C315.6 206.39 312.96 198.44 309.59 187.52L309.15 187.57ZM309.24 179.37C313.77 193.55 316.71 201.75 318.08 203.98L317.79 205.74L318.6 205.23C318.64 205.52 318.54 205.96 318.3 206.55C323.06 222.76 327.28 233.7 330.98 239.37L331.42 239.36C331.36 238.71 331.46 238.12 331.71 237.6C331.37 237.06 331.18 236.65 331.14 236.36C331.43 236.32 331.55 236.17 331.52 235.92C330.87 235.98 329.42 231.37 327.17 222.08C323.26 208.55 318.98 197.03 314.34 187.51C312.98 185.61 311.56 182.88 310.06 179.3L309.24 179.37ZM328.67 188.28V188.67C328.77 191.57 328.62 193.03 328.22 193.05L328.73 193.86C328.78 194.44 328.53 194.76 327.99 194.8L328.5 195.61L328.51 196.05C328.6 196.63 328.35 196.94 327.77 196.99L327.7 196.56C327.51 194.52 327.65 192.94 328.15 191.79L327.63 190.93C327.81 189.2 328.15 188.32 328.67 188.28ZM329.27 181.28L329.35 182.15C329.73 186.15 329.5 188.19 328.67 188.28L328.16 187.47L328.39 185.72L327.87 184.86C328.34 182.54 328.8 181.35 329.27 181.28ZM332.47 169.79L332.61 171.48L333.04 171.41L332.9 169.72L332.47 169.79ZM338.86 245.09C339 246.51 338.51 247.28 337.38 247.41C337.12 247.41 336.22 246.92 334.67 245.94L334.23 245.95L334.73 251.13C336.41 251.54 337.73 251.69 338.67 251.59C339.37 250.12 339.6 248.22 339.36 245.9L339.29 245.08L338.86 245.09ZM341.78 203.4C341.76 206.43 341.1 213.11 339.82 223.44C339.86 223.73 340.01 223.85 340.26 223.82C340.1 227.94 340.14 231.25 340.37 233.76L340.44 234.19L340.87 234.13L341.48 231.94C341.24 229.4 341.52 220.3 342.3 204.66L342.16 203.35L341.78 203.4ZM341.95 201.22L342.15 202.9L342.59 202.89L342.38 201.15L341.95 201.22ZM344.72 180.67L345.23 181.48C345.11 182.64 344.89 183.25 344.56 183.29L345.07 184.1L343.54 199.32C343.55 199.61 343.7 199.76 343.99 199.75L343.02 225.28L343.16 226.59L343.54 226.53C347.75 198.65 349.19 177.79 347.85 163.95L347.34 163.14C347.59 162.59 347.69 162.15 347.64 161.82C346.99 161.88 346.16 168.15 345.16 180.61L344.72 180.67Z" fill="#00FFAB"/>
<path opacity="0.31" d="M402.03 134.06L403.38 133.86L405.61 142.43C404.13 142.65 406.26 158.04 412 188.59L412.88 191.89C414.64 198.67 420.16 211.96 429.44 231.76C430.95 238.83 431.19 242.45 430.19 242.6C429.29 242.74 425.22 233.32 417.98 214.35L416.48 213.91L415.83 214.01L418.88 225.83C421.71 233.15 423.23 237.25 423.44 238.14C423.68 239.03 423.35 239.54 422.45 239.67C413.47 230 408.15 221.91 406.47 215.42C401.54 215.24 396.08 215.6 390.1 216.5C389.96 216.08 389.68 215.9 389.25 215.97L385.32 238.4C385.81 240.17 385.6 241.12 384.7 241.26L382.7 241.56C382.56 241.1 382.17 240.48 381.53 239.69C381.6 232.82 382.44 225.4 384.04 217.41L377.39 218.41C375.99 221.13 374.75 230.66 373.67 247.01L372.52 247.84L373.53 249.07C373.34 253.19 372.74 255.33 371.73 255.48L369.86 253.72L369.01 247.71L368.64 246.38L367.99 246.48C368.13 253.76 367.47 257.51 366.03 257.73L365.38 257.83L365.01 256.5C365.89 247.41 368.07 236.15 371.55 222.72L371.53 220.01C370.12 220.22 367.11 221.12 362.48 222.7L362.18 221.42C363.77 220.7 365.48 220.21 367.32 219.93L367.17 219.29C363.06 219.91 359.89 220.16 357.66 220.06C356.1 220.74 354.15 221.25 351.81 221.6L351.29 219.63C351.58 219.59 354.41 218.92 359.78 217.63C359.92 218.09 360.21 218.28 360.64 218.22C360.4 217.33 362.22 216.38 366.13 215.35L366.34 215.98L367.49 215.15L372.84 214.35C376.49 172.66 378.95 150.87 380.21 148.98C381.11 148.84 381.72 149.44 382.02 150.75L379.85 185.25L380.06 185.88L380.71 185.78C380.46 184.82 383.14 173.73 388.76 152.5L387.05 145.9C386.95 144.99 387.28 144.48 388.04 144.37C389.2 145.23 389.98 146.48 390.37 148.11L391.72 147.91C391.74 145.33 393.56 141.64 397.19 136.86L400.69 137C400.47 135.2 400.91 134.23 402.03 134.06ZM367.35 217.19L367.5 217.83L370.85 217.33L370.64 216.7L367.35 217.19ZM371.15 239.85C371.46 241.17 371.41 242.78 370.99 244.68L371.14 245.32L371.84 245.21L371.94 240.38L371.79 239.74L371.15 239.85ZM371.96 234.97C372.07 235.43 372 236.12 371.77 237.04L371.92 237.68L372.62 237.57C372.48 237.11 372.52 236.42 372.75 235.5L372.6 234.86L371.96 234.97ZM388.62 160.02C383.14 180.72 379.26 198.83 376.99 214.36L385.05 213.15C387.33 205.99 390.05 193.28 393.2 175.04C392.53 174.26 392.14 173.63 392.03 173.17C391.41 170.79 390.56 166.59 389.47 160.56L389.26 159.93L388.62 160.02ZM394.07 183.76C392.11 193.01 390.7 202.79 389.85 213.1L402.04 209.22C402.18 209.68 402.47 209.87 402.9 209.81C402.79 209.35 402.96 209.08 403.39 209.02C401.16 203.97 399.01 198.38 396.94 192.24L397.64 192.13L396.63 190.9L394.77 183.66L394.07 183.76ZM391.28 154.15C391.74 155.96 392.14 158.41 392.49 161.49L393.5 162.67C392.96 164.26 392.86 165.64 393.18 166.81L394.69 167.3L395.79 161L391.93 154.06L391.28 154.15ZM393.07 147.68C393.25 148.39 393.03 149.35 392.4 150.55C394.17 153.71 395.13 155.61 395.3 156.25L395.95 156.15L393.72 147.58L393.07 147.68ZM395.91 145.21L396.74 148.51C397.75 148.36 398.2 145.56 398.08 140.12L397.38 140.23C395.79 141.21 395.3 142.87 395.91 145.21ZM396.07 212.88L396.22 213.52C399.47 213.03 402.49 213.04 405.29 213.54L404.56 210.88L403.91 210.98L396.07 212.88ZM397.18 166.2C396.2 173.17 395.88 177.33 396.23 178.67L397.06 181.97C399.78 192.47 402.79 201.35 406.1 208.6C409.53 207.64 411.14 206.72 410.94 205.83L409.42 202.69L410.07 202.59C409.4 201.81 409.01 201.17 408.9 200.67C408.03 197.34 404.79 185.75 399.19 165.91L397.18 166.2ZM399.82 157.62L402.36 167.52C404.38 171.64 405.57 174.41 405.93 175.83L406.58 175.73C406.24 174.45 404.68 163.07 401.89 141.59C399.72 149.23 399.03 154.57 399.82 157.62ZM406.41 209.94L406.78 211.27C406.95 211.91 407.79 212.46 409.3 212.94L411.3 212.64C412.17 212.51 412.49 212 412.29 211.11L411.77 209.14L406.41 209.94ZM409.11 215.01L409.32 215.64C413.26 223.71 416.3 229.19 418.43 232.08L419.08 231.98L416.72 225.48L414.86 218.24C414.16 215.62 412.25 214.54 409.11 215.01ZM411.72 203.67L412.09 205C412.44 205.87 413 206.25 413.75 206.13L413.07 203.47L411.72 203.67ZM413.62 208.19L414.45 211.49L416.45 211.19L415.92 209.17C415.72 208.32 415.17 207.96 414.26 208.09L413.62 208.19Z" fill="#00FFAB"/>
<path opacity="0.31" d="M502.23 120.77C504.57 120.86 505.79 121.25 505.89 121.93C505.15 122.63 503.95 123.38 502.3 124.18L502.24 123.8C502.15 123.22 502.54 122.87 503.41 122.74L503.34 122.31L502.91 122.38C495.11 124.7 490.25 126 488.34 126.28L488.4 126.71L488.96 127.51C488.4 128.18 487.59 128.6 486.55 128.76L486.61 129.14C488.59 128.84 489.63 128.98 489.71 129.56C489.85 130.46 484.25 132.74 472.93 136.4L473 136.83L475.54 136.45C478.1 136.07 482.13 135.04 487.63 133.36L488.18 134.11L488.31 134.98C480.59 137.32 471.79 139.23 461.91 140.72L462.74 163.55C462.78 163.84 462.93 163.96 463.18 163.93C463.01 166.5 463.25 169.93 463.9 174.22L464.35 177.19L465.1 176.64L465.53 176.57L465.6 177C465.72 177.83 465.37 178.31 464.54 178.43C464.63 179.01 464.81 179.27 465.1 179.23L465.11 182.27C468.14 199.99 469.89 208.81 470.36 208.74C470.15 209.29 470.09 209.89 470.19 210.54C470.56 211.04 470.77 211.43 470.81 211.72L470.38 211.79L472.77 218.84L472.59 220.58L474.22 225.53L473.42 226.09C472.77 226.19 471.39 222.78 469.28 215.87C468.99 215.91 468.76 215.36 468.59 214.2L468.16 214.26L468.49 216.42C469.44 218.82 469.98 220.47 470.12 221.37C469.29 221.5 468.94 221.97 469.06 222.8L468.19 222.93L468.12 222.5C468.08 222.25 468.21 222.1 468.5 222.06C467.73 220.85 467.23 219.47 466.99 217.92L466.56 217.99L466.75 219.29C467.55 222.64 468.07 225.16 468.33 226.85L469.2 226.72L468.88 224.61L469.69 224.49L470.07 227.03C470.16 227.64 470.39 228.18 470.75 228.64C470.76 232.4 470.48 234.32 469.9 234.41C468.99 234.25 468.43 233.47 468.22 232.06L467.84 232.12C468.31 235.22 468.11 236.84 467.24 236.97L466.81 237.03C465.12 237.28 462.49 232.33 458.94 222.18L458.87 221.75L459.3 221.69L458.75 220.94L456.45 205.64C455.87 201.78 455.25 196.68 454.59 190.33C448.53 171.08 444.7 156.2 443.13 145.71L442.2 145.41C434.34 146.59 426.04 149 417.29 152.64C416.38 154.21 415.95 155.15 416 155.43C416.55 155.42 416.86 155.65 416.93 156.12L417.13 157.42L416.75 157.48C413.93 156.13 412.5 155.34 412.46 155.08L412.33 154.21C412.97 153.3 415.94 150.98 421.23 147.23C420.91 145.1 427.62 141.64 441.35 136.85L441.03 134.74C431.27 136.8 424.6 138.52 421.01 139.91C420.46 139.7 419.88 139.64 419.27 139.73L419.21 139.3C419.13 138.8 421.98 137.65 427.76 135.86L427.83 136.29L428.63 135.73C428.92 135.69 429.08 135.81 429.13 136.1L442.02 132.45C442.53 132.67 443.11 132.73 443.76 132.63L445.37 131.95L445.44 132.38C445.73 132.34 445.85 132.17 445.81 131.88L448.85 131.87L464.1 129.58C464.75 129.48 465.29 129.26 465.71 128.9C466.26 129.11 466.86 129.17 467.51 129.07L473.46 128.18C473.71 128.14 473.86 128.25 473.9 128.5C485.75 125.53 495.19 122.97 502.23 120.77ZM418.87 139.77C421.06 140.88 422.18 141.58 422.23 141.86L421.8 141.93C419.56 141.49 418.32 140.96 418.08 140.33L418.87 139.77ZM423.5 147.76L423.56 148.19C436.05 144.69 442.22 142.45 442.07 141.48C441.88 140.22 441.9 139.35 442.12 138.87L441.69 138.93C439.24 139.31 433.18 142.25 423.5 147.76ZM442.36 134.53L442.61 136.21L443.42 136.09L443.35 135.66C442.98 135.16 442.77 134.77 442.73 134.48L442.36 134.53ZM442.93 138.31C443.24 138.67 443.52 139.64 443.76 141.23C445.55 140.11 447.05 139.46 448.28 139.28C447.93 138.89 447.65 138.07 447.47 136.8C446.88 137.11 445.37 137.61 442.93 138.31ZM443.6 134.34C443.97 134.84 444.18 135.23 444.22 135.52L445.9 135.27C446.48 135.18 446.72 134.87 446.64 134.33L446.51 133.46L444.4 133.78L443.6 134.34ZM444.33 145.07L444.4 145.5C444.47 145.97 444.86 146.63 445.58 147.48C445.52 149.04 445.57 150.32 445.72 151.33C445.85 152.2 446.29 153.14 447.03 154.17L446.73 155.1L453.22 181L453.65 180.93L452.89 175.85L453.32 175.79C453.28 175.5 453.11 175.38 452.82 175.42C452.49 170.75 452.41 168.31 452.6 168.1C452.56 167.81 452.39 167.69 452.1 167.73C451.28 156.13 450.9 148.81 450.96 145.78C450.46 144.42 450.07 143.76 449.78 143.8C449.64 143.83 447.82 144.25 444.33 145.07ZM444.38 142.46L444.45 142.89L448.72 142.25C449.26 142.17 449.49 141.84 449.4 141.26L449.27 140.39C446.88 141.64 445.25 142.33 444.38 142.46ZM448.19 133.21L448.32 134.08L448.75 134.01C449.11 133.96 450.51 133.6 452.96 132.94L452.9 132.51L448.19 133.21ZM449.2 136.98C449.57 137.48 449.78 137.87 449.82 138.16C456.24 135.46 459.78 134.06 460.47 133.96L460.4 133.53L459.97 133.59C452.67 135.06 449.08 136.19 449.2 136.98ZM450.5 139.77L450.63 140.64L451.19 141.44C451.36 141.12 454.54 140.2 460.73 138.68C460.6 137.85 460.6 136.84 460.72 135.64L460.29 135.7C459.57 135.81 456.31 137.17 450.5 139.77ZM453.11 154.15C453.21 154.8 453.15 155.38 452.93 155.89L453.8 155.76L453.55 154.08L453.11 154.15ZM453.06 156.75L453.98 168.72L454.41 168.65L454.11 169.58L454.24 170.45C454.33 171.06 454.56 171.6 454.92 172.06C454.51 173.27 454.46 174.86 454.75 176.84L455.13 179.38C455.17 179.67 455.05 179.83 454.76 179.88L455.32 180.68L455.39 181.11C455.43 181.4 455.31 181.56 455.02 181.61C455.06 181.86 455.22 181.97 455.51 181.92L455.4 184.15C456.5 191.47 459.27 202.17 463.71 216.25L464.14 216.19C464.01 215.32 464.09 214.87 464.38 214.83L463.83 214.08C463.27 210.37 462.69 205.53 462.09 199.58C462.05 199.33 461.89 199.22 461.6 199.27L461.71 197.04L459.8 184.33C459.71 183.72 459.77 183.14 459.98 182.59C459.94 182.3 459.77 182.18 459.48 182.22L459.47 179.18L458.96 175.77L458.09 172.91L458.52 172.85L453.92 156.62L453.06 156.75ZM456.03 141.98L456.1 142.41C456.73 142.65 457.73 145.54 459.12 151.08C458.9 151.59 458.84 152.17 458.94 152.82L459.81 152.69L459.88 153.12C459.92 153.41 459.8 153.57 459.51 153.62C459.55 153.91 459.72 154.03 460.01 153.99L460.02 156.98L461.1 161.19L461.53 161.13C460.76 154.06 460.5 149.47 460.73 147.37C460.69 147.08 460.54 146.96 460.29 146.99C460.39 143.95 460.38 142.07 460.27 141.35L456.03 141.98ZM456.06 148.06L457.52 157.79C457.7 158.98 458.08 160.53 458.66 162.43C458.43 162.87 458.41 163.74 458.61 165.04L459.68 169.19L459.25 169.26C459.62 169.76 459.83 170.15 459.87 170.44C460.12 172.1 460.79 175.61 461.9 180.98L462.77 180.85L462.32 177.88C462.17 176.87 462.11 175.59 462.13 174.04C461.8 173.54 461.61 173.12 461.56 172.8L461.94 172.74L461.44 171.99C459.18 160.9 457.94 154.58 457.71 153.03L457.15 152.23C457.11 151.98 457.24 151.83 457.53 151.79C457.08 150.75 456.74 149.49 456.52 148.02L456.06 148.06ZM457.89 203.25L459.93 216.82C461.3 225.91 463.64 231.91 466.95 234.84L466.36 227.96C461.58 215.55 458.89 207.29 458.27 203.19L457.89 203.25ZM461.47 135.14L461.85 137.68L461.59 138.55C473.77 134.69 481.84 131.75 485.81 129.71L485.74 129.28C485.45 129.32 485.29 129.22 485.25 128.97C483.75 130.04 482.12 130.71 480.35 130.98C480.06 131.02 479.63 130.94 479.04 130.73L473.72 132.86L473.59 131.99L479.3 129.86L479.24 129.43L476.32 129.87C475.39 130 470.44 131.76 461.47 135.14ZM462.03 181.84L463.24 189.9L463.67 189.83L462.46 181.77L462.03 181.84ZM465.06 210.86L465.69 215.08L466.44 217.12L466.87 217.05L466.81 216.67C466.32 215.34 465.87 213.38 465.48 210.79L465.06 210.86ZM467.27 205.33L467.78 208.74L468.21 208.67L467.7 205.26L467.27 205.33Z" fill="#00FFAB"/>
<path opacity="0.31" d="M518.23 119.08C520.51 118.78 522.17 118.71 523.23 118.88C524.06 118.28 524.84 117.85 525.58 117.59C527.3 117.48 528.61 117.26 529.52 116.94C530.53 116.57 531.44 116.1 532.24 115.54C542.88 111.54 551.49 112.37 558.05 118.02C559.69 121.57 561.71 123.46 564.1 123.69C567.81 125.53 570.4 128.05 571.87 131.26L571.56 131.42C571.67 131.63 571.84 131.69 572.09 131.62C573.55 134.68 572.69 141.26 569.53 151.36C568.82 153.02 568.01 154.02 567.11 154.38L566.42 153.82C569.34 148 569.91 143.18 568.12 139.35L566.92 136.88C563.79 134.47 560.44 133.36 556.85 133.53C554.08 133.47 550.92 133.96 547.39 135.01L546.81 135.59L545.91 135.5C545.6 135.92 545.19 136.22 544.66 136.41L544.44 136.06L543.93 136.69L543.2 136.97C542.95 137.05 542.78 136.96 542.66 136.72L542.15 137.35L540.01 138.17C535.43 139.85 529.29 144.24 521.58 151.34C518.48 154.98 516.26 158.04 514.94 160.52C514.2 162 515.7 166.71 519.44 174.66L519.13 174.82L519.78 175.44L521.48 179C522.07 180.2 523.14 182.16 524.69 184.88L524.38 185.04C531.33 196.2 537.16 203.49 541.88 206.91C548.54 211.95 553.91 213.71 557.99 212.17L559.41 211.68C561.38 210.83 563.08 209.34 564.49 207.21L565.96 206.71L566.13 207.07C566.72 208.31 564.81 210.55 560.39 213.79C553.48 216.38 545.67 213.59 536.96 205.42C530.36 199.26 524.57 190.95 519.61 180.49C519.4 180.56 519.24 180.49 519.14 180.28C517.89 176.89 517.17 174.77 516.97 173.92C516.9 173.67 516.72 173.61 516.44 173.72L514.78 169.32L513.63 166.84C513.52 166.6 513.59 166.42 513.83 166.31L513.08 165.76C513.14 165.2 513.1 164.8 512.95 164.56C509.11 170.15 508.76 176.29 511.9 182.97C513.33 186.63 514.38 189.14 515.03 190.52L514.72 190.68C515.18 191.05 515.47 191.36 515.58 191.6L515.6 192.48C516.02 192.82 516.31 193.13 516.46 193.4L517.3 196.04C517.72 196.38 517.99 196.69 518.1 196.97L517.78 197.07C518.21 197.49 518.95 198.48 520 200.05L519.62 200.11C521.63 204.38 524.2 205.95 527.35 204.81L527.99 205.38L528.21 205.73C528.43 206.21 528.29 206.55 527.81 206.73C527.6 206.8 526.53 206.92 524.6 207.1C528.45 212.38 533.92 216.48 540.99 219.4C541.44 219.22 543.12 219.43 546.01 220.03C547.12 220.31 549.61 220.21 553.49 219.74C560.53 216.29 566.9 211.81 572.6 206.31C577.72 199.68 580.86 196.15 582.01 195.71L582.18 196.07C582.33 196.34 580.66 199.06 577.16 204.24L577.27 204.61C589.1 194.02 595.45 188.57 596.32 188.25L597 187.98L597.17 188.34C597.71 189.51 593.43 193.9 584.33 201.5C584.55 202.02 580.96 205.18 573.53 210.98C568.14 215.81 560.88 219.9 551.76 223.27L551.6 222.96L551.03 223.6C541.12 227.3 530.78 226.98 520.02 222.62C512.31 218.17 506.94 212.77 503.92 206.4C503.68 206.51 503.5 206.45 503.39 206.2C503.28 205.96 503.35 205.8 503.6 205.73L502.35 204.04C497.48 193.71 495.7 181.28 497.02 166.74C497.26 166.59 497.73 164.61 498.45 160.78C498.34 160.54 498.16 160.45 497.91 160.53C496.78 157.64 498.87 151 504.21 140.61L506.17 134.9C506.01 134.56 506.77 132.88 508.45 129.86C511 124.15 514.25 120.56 518.23 119.08ZM502.38 198.67C502.48 198.88 502.66 198.94 502.91 198.87L504.24 202.54C506.43 207.3 509.92 211.99 514.71 216.62L515.03 216.52L514.86 216.16C510.92 212 508.18 208.26 506.65 204.95L507.03 204.89L506.28 204.28C506.05 203.76 505.98 203.24 506.04 202.71L505.29 202.16C502.04 193.8 500.97 184.3 502.06 173.67C502.16 169.71 504.31 160.82 508.5 146.99C507.73 145.3 508.18 144.15 509.86 143.52L513.7 133.76L513.33 133.87C512.18 134.3 510.08 137.03 507.04 142.06C504.83 145.01 502.55 152.15 500.2 163.49C498.12 176.23 498.85 187.95 502.38 198.67ZM507.65 201.69L508.35 202.3C514.46 215.24 523.17 222.3 534.48 223.48C538.76 223.28 541.2 223.08 541.8 222.88L542.16 222.71L542 222.35C539.76 223.17 535.23 221.93 528.39 218.64C524.63 216.7 520.67 213.15 516.5 207.98L516.87 207.87C515 206.23 512.85 202.83 510.41 197.67C509.75 197.95 508.66 196.85 507.14 194.34C506.5 193.04 505.78 185.2 504.99 170.83L504.78 170.53C502.82 182.51 503.87 192.84 507.95 201.52L507.65 201.69ZM508.71 134.78L509.07 134.61C512.41 130.61 515.59 127.47 518.61 125.21C519.38 122.96 520.18 121.67 521.02 121.36L520.85 121L518.34 122C515.09 123.19 511.88 127.45 508.71 134.78ZM508.93 181.92C509.72 186.71 510.79 190.51 512.14 193.33L512.63 194.36C512.74 194.6 512.69 194.78 512.49 194.88L513.18 195.44L513.83 196.83C516.15 200.76 517.71 202.57 518.52 202.26L518.3 201.9L516.95 199.89L517.31 199.72L515.76 198.24C512.81 191.38 510.7 186.02 509.42 182.16L509.31 181.79L508.93 181.92ZM510.15 157.63C510.35 158.01 509.98 160.79 509.03 165.98L509.41 165.92C511.48 162.55 511.98 159.71 510.89 157.4L510.15 157.63ZM513.21 157.77L513.38 158.13L513.74 157.96C520.09 146.98 530.37 138.82 544.57 133.47L544.74 133.89L545.3 133.2L546.41 132.87C546.65 132.76 546.81 132.81 546.87 133.02C547.15 132.94 547.22 132.78 547.08 132.55C551.9 130.76 557.36 130.67 563.47 132.3C567.07 133.93 569.4 135.85 570.47 138.05L570.84 137.94C570.69 135.2 570.48 133.59 570.23 133.11L569.62 131.65C567.75 127.8 564.83 125.55 560.86 124.89L561.66 128.36L560.93 128.64L560.61 127.97L559.25 125.91C559.33 125.46 559.16 124.84 558.75 124.05C553.75 123.4 549.64 123.67 546.43 124.85L542.09 126.5C534.06 129.51 524.94 136.25 514.71 146.71C512.19 150.29 511.63 153.59 513.04 156.58C512.79 156.66 512.85 157.05 513.21 157.77ZM535.59 117.19L532.34 118.4L531.83 119.03L532.96 120.68L533.17 120.98C533.34 121.36 533.14 121.87 532.57 122.51C530.68 121.24 528.97 120.91 527.44 121.51C527.77 122.2 527.68 122.64 527.19 122.82C526.95 122.93 526.53 122.96 525.93 122.9C521.34 125.95 517.45 132.99 514.28 144.01L514.64 143.84C523.2 134.77 530.32 129.19 536.01 127.08C535.8 126.67 536.9 125.99 539.3 125.04L543.95 123.23C548 121.74 552.7 121.25 558.05 121.77L557.94 121.4C556.11 117.55 551.33 115.56 543.6 115.43C538.69 116.35 536.18 116.73 536.08 116.56L535.59 117.19ZM516.86 204.12L517.03 204.48C519.14 208.96 524.12 213.52 531.97 218.16L532.86 218.19C529.55 216.03 525.26 211.77 519.99 205.41C519.75 205.53 518.7 205.1 516.86 204.12Z" fill="#00FFAB"/>
<path opacity="0.31" d="M602.95 106.18L603.53 107.09C603.62 107.96 603.13 108.48 602.05 108.64L602.4 111.35C602.42 111.72 602.34 111.91 602.16 111.94L602.54 112.6C602.6 113.22 602.52 113.54 602.3 113.58L602.92 116.25L604.02 125.43L604.78 125.32L604.85 125.81L604.63 126.56C604.88 126.52 605.01 126.73 605 127.17C604.47 127.32 604.24 127.6 604.29 128C604.62 128.47 604.81 128.88 604.86 129.24L604.53 129.29L604.91 129.95L605.16 131.96C605.17 132.29 605.09 132.47 604.91 132.5L605.29 133.16L605.74 137.24L605.65 139.19L606.08 139.12L605.69 140.17L605.93 142.51L607.05 143.72C606.45 143.88 606.16 144.17 606.18 144.57L606.81 149.84C607 151.1 607.35 151.7 607.85 151.62L607.68 153.8V154.19L608.44 156.29L608.06 156.35L608.44 157.01L609.1 162.11L614.56 161.29C615.17 161.2 615.7 160.99 616.13 160.67C616.45 160.62 616.64 160.72 616.67 160.98L618.56 160.31C625.99 159.19 632.43 157.82 637.9 156.19L637.89 156.52L641.18 155.25C640.29 150.81 639.73 148.33 639.51 147.81C639.46 147.45 639.57 147.25 639.86 147.2C637.6 137.07 635.6 124.36 633.85 109.06L634.17 108.24L633.67 107.49C633.85 106.02 634.2 105.25 634.71 105.18L636.39 104.93C637.01 104.91 637.33 105.18 637.34 105.73L637.48 106.65L636.94 106.73C636.39 106.52 636.01 106.43 635.79 106.46C635.57 106.97 635.49 107.37 635.53 107.66C637.06 120.78 639.56 136.55 643.03 154.98L644.76 154.33C643.78 148.06 643.11 143.39 642.76 140.31L642 133.82C641.81 132.08 641.48 130.34 641 128.61C641.14 127.59 641.1 126.09 640.87 124.09V123.7L640.17 121.65L640.6 121.58C640.58 121.44 640.44 121.38 640.19 121.42L640.36 119.63C640.27 118.76 639.68 114.86 638.6 107.95L639.55 107.25C639.71 107.82 640.06 108.06 640.6 107.98L640.2 108.98C640.83 112.94 641.29 114.9 641.58 114.86C642.01 114.79 642.49 115.16 643.02 115.97L643.54 120.54L642.78 120.65L642.77 120.93C642.8 121.15 642.98 121.23 643.31 121.18L642.96 122.17C646.26 139.22 648.38 149.41 649.32 152.73C649.68 152.42 650.13 152.22 650.67 152.14L650.51 151.06L649.87 149L650.25 148.94L649.82 148.29C649.77 147.93 649.88 147.73 650.17 147.68C650.15 147.57 650 147.54 649.71 147.58C649.61 146.67 649.64 145.67 649.81 144.58C648.12 134.81 646.95 127.02 646.3 121.22L645.8 120.47L646.11 119.59C645.68 118.18 645.4 116.99 645.3 116.01L645.1 114.71L645.97 114.58L645.67 112.25L645.03 110.19L646.44 109.98L646.52 110.52C646.65 111.64 646.57 112.23 646.29 112.27C649.42 129.9 651.5 142.97 652.52 151.48L652.74 151.45C653.42 151.35 654.02 150.87 654.52 150.02C650.24 122.75 647.59 109.2 646.58 109.35L646.13 105.6C646.18 104.97 646.46 104.61 646.96 104.53C647.83 104.4 648.64 106.29 649.42 110.19L649.04 110.25C649.56 111.24 650.49 114.9 651.85 121.22C651.9 121.55 651.8 121.73 651.55 121.76L652.23 124.48L652.29 124.86C652.5 126.78 653.86 135.06 656.35 149.69L656.62 149.65C657.3 149.55 658.78 149.05 661.04 148.16L662.1 149.33C661.36 150.51 660.1 151.7 658.32 152.88L657.72 152.97L657.64 152.43L658.94 150.8C657.35 151.26 656.57 151.73 656.61 152.2L657.36 158.67C657.41 159.03 657.3 159.23 657.01 159.28C657.03 159.39 657.2 159.42 657.52 159.37C657.58 162.68 657.69 165.04 657.87 166.45L658.06 168.47C658.11 168.8 658.01 168.98 657.75 169.01C657.77 169.15 657.93 169.2 658.22 169.16L658 171.35C658.54 175.91 658.69 179.47 658.44 182.01C658.47 182.19 658.62 182.26 658.91 182.22L658.69 184.41L659.14 188.49C659.27 189.61 659.31 191.12 659.27 193.01C659.3 193.19 659.45 193.26 659.74 193.22C660.11 199.36 659.88 202.49 659.05 202.61C658.4 202.71 657.64 201.24 656.78 198.19L657.59 198.07L657.38 196.33L656.73 196.81C656.31 196.25 656.09 195.86 656.06 195.64L655.9 195.66L656.39 200.01L657.09 202.06C656.12 202.21 655.62 203.92 655.6 207.21L654.68 207.35C654.07 207.44 653.73 207.18 653.68 206.56L653.57 205.8C653.39 204.35 653.39 203.12 653.57 202.1L651.74 193.58L652.12 193.52L651.69 192.87L651.6 191.56L652.63 191.4L652.96 194.67L653.18 194.64L652.2 186.66C652.17 186.44 652.03 186.35 651.77 186.39C651.71 185.99 651.82 185.77 652.11 185.73L646.06 161.31L645.79 161.35C645.33 161.72 644.83 161.94 644.29 162.02L645.6 173.66L646.3 175.71L645.97 175.76L646.35 176.42C646.4 176.74 646.31 176.92 646.1 176.96L646.48 177.62C646.8 180.49 648.2 189.16 650.67 203.65C651.21 203.57 651.51 203.69 651.55 204.02C651.6 204.38 651.5 204.58 651.25 204.62C652.1 207.59 652.71 210.5 653.06 213.36L652.21 213.93C651.16 214.09 649.31 206.64 646.64 191.6C645.68 185.73 645.1 181.84 644.88 179.92L644.38 179.17C644.33 178.85 644.45 178.66 644.74 178.62L644.13 176.78L642.62 163.79C642.55 163.36 642.32 163.17 641.93 163.23C636.94 165.35 630.55 166.99 622.76 168.16C620.84 168.15 618.13 168.41 614.64 168.94C613.88 169.05 612.52 169.94 610.56 171.6L611.36 178.39L612.06 180.44L611.68 180.5L612.06 181.16C612.9 188.22 614.26 193.83 616.14 197.97L615.71 198.04C617.4 203.61 618.59 207.97 619.28 211.11L618.31 211.26C616.4 211.55 613.25 199.89 608.85 176.29C608.8 175.97 608.92 175.78 609.21 175.74C608.82 174.84 608.56 173.72 608.43 172.37C608.32 172.39 607.37 173.06 605.58 174.4C606.32 178.34 606.8 181.28 607.01 183.2L607.38 186.41L608.08 188.46L607.7 188.52L608.08 189.18L608.58 193.64C608.71 194.54 609.24 196.42 610.14 199.27L609.76 199.33L610.14 199.99L610.52 203.25C610.57 203.57 610.47 203.75 610.21 203.79C610.51 204.3 611.57 208.66 613.39 216.86L612.48 217.44C612.01 217.51 610.82 214.52 608.92 208.46C608.31 208.11 606.38 204.44 603.12 197.44C601.57 197.67 599.25 193.04 596.17 183.55L596.06 182.85L595.84 182.88L591.47 187.68L590.93 187.76L590.78 186.79C592.89 183.16 594.45 181.26 595.46 181.11C594.79 179.81 594.2 177.04 593.71 172.8L593.67 172.53L592.97 172.64C592.25 172.75 591.97 173.6 592.14 175.2L591.65 175.27C591.22 175.33 590.12 174.52 588.35 172.83L588.27 171.9C589.28 170.02 590.63 168.71 592.32 167.97C591.35 161.74 590.68 157.06 590.32 153.95L590.14 152.37L589.44 150.26L589.82 150.2L589.39 149.55L587.89 136.61C587.38 120.98 589.15 112.86 593.19 112.25L593.16 112.81C590.38 117.1 589.28 121.69 589.87 126.58C589.65 126.61 589.46 128.65 589.3 132.69C589.33 132.91 589.51 132.99 589.84 132.94C589.7 134.47 589.65 135.33 589.67 135.51C590.52 143.13 591.98 153.58 594.05 166.87C596.35 165.97 597.59 165.51 597.77 165.48C597.31 163.89 595.06 152.6 591.02 131.6C590.88 130.4 591.6 129.58 593.19 129.12L591.76 123.64L592.61 123.01C593.58 122.86 594.61 125.49 595.68 130.9L595.93 132.96C596.07 133.38 596.39 133.55 596.89 133.48L596.54 134.47C596.92 135.52 597.16 136.4 597.27 137.13L597.43 137.11C597.34 129.38 597.22 124.92 597.08 123.72L597.01 123.29C597.03 122.96 597.14 122.77 597.32 122.75L596.89 122.1L596.82 121.28C596.77 120.96 596.89 120.77 597.18 120.73C597.16 120.59 597 120.53 596.71 120.58C596.45 114.17 596.78 110.89 597.72 110.75C598.33 110.66 598.7 111.01 598.82 111.8L599.42 111.71C599.08 109.57 600.27 107.73 602.95 106.18ZM590.09 172.16L590.11 172.32C591.76 171.3 592.73 170.76 593.02 170.72L592.87 169.75C591.61 169.93 590.68 170.74 590.09 172.16ZM590.96 187.9L591.56 187.81C591.59 188.51 591.3 188.9 590.69 188.99L590.2 189.06C590.24 188.35 590.49 187.97 590.96 187.9ZM593.19 130.99C593.24 131.54 593.15 131.82 592.93 131.86C593.64 134.89 594.22 136.37 594.65 136.3L594.43 138.49L594.55 139.3C594.93 142.82 595.95 148.12 597.6 155.21L598.2 155.12L597.1 145.94C595.49 136.93 594.3 132.48 593.55 132.59C593.48 132.16 593.58 131.92 593.83 131.88C593.55 131.48 593.39 131.17 593.36 130.96L593.19 130.99ZM594.65 168.65L594.8 169.62L595.45 169.52L598.1 168.74L597.94 167.33C597.64 167.37 596.55 167.81 594.65 168.65ZM595.42 171.57C595.38 171.58 595.79 174.13 596.63 179.24L596.95 179.19C598.66 177.83 599.48 176.91 599.41 176.44L599.04 173.62C598.98 173 598.79 172.48 598.47 172.05C598.68 171.5 598.75 170.97 598.68 170.47L598.41 170.51C597.26 170.69 596.26 171.04 595.42 171.57ZM599.15 179.47C599.28 180.56 598.67 181.33 597.34 181.79C597.57 183.56 599.31 188.04 602.57 195.22L602.79 195.19C601.7 190.38 600.68 185.11 599.75 179.39L599.15 179.47ZM597.69 155.8C598.17 157.79 598.56 160 598.85 162.43L599.07 162.4L598.23 155.72L597.69 155.8ZM597.82 114.31C597.85 114.75 597.88 116.18 597.91 118.61L598.14 120.12L598.25 120.1C598.09 118.76 598.14 116.89 598.4 114.49L597.82 114.31ZM599.56 122.62L599.1 132.04C599.36 132.55 599.51 132.94 599.55 133.19C599.16 134.5 598.91 137.16 598.81 141.15C598.84 141.33 599.01 141.4 599.34 141.35C599.32 143.16 599.14 144.09 598.82 144.14L601.57 153.63L601.19 153.69L601.57 154.35C602.42 159.27 602.91 162.31 603.05 163.47C603.3 163.43 603.45 163.52 603.48 163.74L604.13 163.31L607.27 162.84L606.66 161.38L602.33 134.05C602.3 133.83 602.06 133 601.62 131.56L602 131.5C601.25 129.73 600.64 126.75 600.16 122.54L599.56 122.62ZM600.87 112.52C601 113.61 600.79 114.19 600.25 114.27C600.27 114.38 600.4 114.41 600.65 114.38C600.7 114.74 600.65 115.21 600.48 115.79C600.88 117.21 601.13 118.4 601.24 119.38L601.47 120.89L602.01 120.81L601.38 118.8L601.71 118.75L601.33 118.09C601.28 117.77 601.37 117.59 601.58 117.56L601.15 116.9L601.09 112.82L601.1 112.49L600.87 112.52ZM601.6 121.48C601.83 121.78 602.01 122.36 602.14 123.22L602.3 123.2L602.09 121.41L601.6 121.48ZM601.71 166.32L601.92 167.73L602.14 167.7L601.93 166.29L601.71 166.32ZM602.19 170.28L602.61 173.81L603.2 173.72C603.16 173.17 603.17 172.89 603.24 172.88C603.12 172.82 602.93 171.69 602.67 169.48C602.29 169.62 602.13 169.88 602.19 170.28ZM602.4 182.69L602.57 184.21C604.81 196.15 606.49 202.04 607.6 201.87C604.55 191.86 602.87 185.46 602.56 182.66L602.4 182.69ZM603.38 177.07L603.58 179.14L604.33 181.18L604 181.23C604.17 181.35 604.62 183.4 605.37 187.38L605.59 187.35L604.99 182.63C604.93 182.01 604.75 181.5 604.43 181.11C604.37 180.71 604.48 180.49 604.77 180.45C604.38 179.59 604.08 178.21 603.87 176.33C603.49 176.46 603.32 176.71 603.38 177.07ZM603.65 165.25L603.69 165.52L604.3 167.37L605.06 167.26L607.83 167.29L607.49 164.69L603.65 165.25ZM604.9 169.15C604.94 169.4 604.85 169.54 604.63 169.58C604.96 170.56 605.18 171.41 605.29 172.13C606.9 171.08 607.87 170.53 608.19 170.48L607.98 169.07C606.11 169.1 605.08 169.13 604.9 169.15ZM609.64 163.91L610.1 167.32L614.37 166.68C624.82 162.38 630.53 160.16 631.51 160.01L631.48 159.79L630.83 159.89C622.11 161.76 615.05 163.09 609.64 163.91ZM620.51 165.98L620.54 166.2L628.87 164.95C637.88 162.86 642.35 161.52 642.26 160.95C641.86 160.01 641.6 158.87 641.47 157.53C632.68 161.57 625.69 164.39 620.51 165.98ZM639.9 104C640.52 103.98 640.88 104.26 640.97 104.83C640.14 104.96 639.81 105.7 639.98 107.08L638.95 107.23L638.74 105.49C638.75 105.06 639.13 104.56 639.9 104ZM642.04 117.89L642.31 120.06L642.47 120.04L642.2 117.87L642.04 117.89ZM643.68 157.13L644.06 160.06C644.35 159.79 644.93 159.6 645.8 159.47L645.41 156.49L643.68 157.13ZM644.55 139.75L645.29 146.5C645.42 147.59 645.83 149.96 646.53 153.61L647.56 153.45C646.82 151.98 645.88 147.4 644.72 139.72L644.55 139.75ZM647.25 156.21L647.53 158.43L648.12 158.34L647.84 156.11L647.25 156.21ZM648.12 160.17L648.46 162.77L649 162.69L648.34 160.14L648.12 160.17ZM650 155.35C650.08 155.89 650.01 156.18 649.8 156.21L650.56 160.13L651.66 168.92L652.25 168.83L651.02 158.78C650.97 158.46 651.07 158.28 651.32 158.24C651.04 157.84 650.88 157.5 650.83 157.21L651.02 155.19L650 155.35ZM651.32 189.55L652.35 189.4L652.45 190.82L651.42 190.97L651.32 189.55ZM652.68 153.34L652.98 156.06C653.11 157.19 653.17 158.69 653.16 160.57L653.61 161.33C653.4 161.88 653.31 162.42 653.36 162.97C653.39 163.19 653.55 163.27 653.84 163.23L653.62 165.42C654.53 173.17 655.69 180.92 657.12 188.68L657.34 188.65C657.05 186.26 656.58 179.77 655.91 169.18C655.87 168.89 655.97 168.45 656.21 167.86C656.19 167.72 656.03 167.67 655.74 167.71L655.9 165.47L654.78 155.79C654.72 155.14 654.8 154.57 655.02 154.09C654.69 153.62 654.5 153.21 654.45 152.85C654.74 152.81 654.87 152.71 654.85 152.57L654.58 152.61L652.68 153.34ZM653.58 182.85L653.75 184.32C654.29 186.42 654.68 188.53 654.92 190.67L655.08 190.65L654.66 187.12C654.2 185.31 653.91 183.88 653.79 182.83L653.58 182.85ZM657.32 193.79L657.53 195.58L657.69 195.56L657.48 193.77L657.32 193.79Z" fill="#00FFAB"/>
</g>
</g>
<defs>
<clipPath id="clip0_105_293">
<rect width="325.1" height="149.73" fill="white"/>
</clipPath>
<clipPath id="clip1_105_293">
<rect width="401.09" height="155.1" fill="white" transform="translate(261 104)"/>
</clipPath>
</defs>
</svg>
