<svg width="803" height="128" viewBox="0 0 803 128" fill="none" xmlns="http://www.w3.org/2000/svg">
<g opacity="0.4">
<path opacity="0.31" d="M36.35 0.00996965C37.12 0.0199696 40.3401 2.41997 46.0101 7.17997C57.6201 12.42 63.35 19.54 63.18 28.55C63.1 32.82 59.49 37.89 52.35 43.78C50.17 45.16 48.76 45.85 48.1 45.84L48.0901 46.55C59.3501 46.75 66.5501 49.93 69.6901 56.07C75.5901 62.52 78.5301 68.41 78.5101 73.73L78.5001 74.44C78.3001 85.56 66.19 96.1 42.16 106.06C39.09 108.37 32.28 110.13 21.72 111.33C13.59 111.18 8.03008 108.28 5.03008 102.61C3.25008 95.87 1.97004 89.3 1.17004 82.9C1.18004 82.43 1.40008 82.19 1.84008 82.2C0.620081 73.25 0.0800343 64.57 0.230034 56.19L0.320061 51.27C1.34006 26.97 3.44004 14.84 6.61004 14.9L5.95007 12.1C7.09007 9.30997 8.05005 7.92997 8.81005 7.93997C10.6701 7.96997 11.4401 16.65 11.1301 33.96C11.0401 38.85 11.1901 43.99 11.5601 49.39L12.2701 49.4C12.6201 30.12 13.0501 19.37 13.5601 17.15C13.1001 16.3 12.8801 15.35 12.9001 14.29C13.8501 14.31 14.33 13.86 14.35 12.95L14.48 5.89997C14.49 5.23997 15.2001 4.55997 16.5901 3.85997L17.9501 7.38997C16.9701 8.89997 16.4801 10.3 16.4501 11.57L17.16 11.58C18.4 11.31 21.02 9.01997 24.99 4.71997L34.2001 0.669966C35.1201 0.219966 35.84 -3.03526e-05 36.35 0.00996965ZM2.24004 59.73L2.93005 61.16L2.83007 66.79C2.68007 75.07 4.12008 86.32 7.15008 100.56L7.86004 100.57C7.88004 99.51 8.13005 98.57 8.62005 97.74L7.98003 93.52L8.00005 92.15C8.01005 91.68 8.25002 91.44 8.72002 91.45C8.73002 90.98 8.50007 90.73 8.02007 90.73C8.54007 88 9.16004 80.3 9.86004 67.63L8.43005 68.26L6.30004 68.22C5.39004 68.2 4.94008 67.74 4.96008 66.83C5.87008 62.62 7.77008 60.54 10.6501 60.59L10.7001 57.8C8.59007 59.15 5.78004 59.79 2.24004 59.73ZM6.59008 15.61L6.56005 17.03L5.77007 21.23C6.23007 22.15 6.45006 22.85 6.44006 23.32C4.36006 23.28 2.99006 33.8 2.32006 54.86L5.89007 54.21L6.55004 54.22L6.53008 55.59C5.14008 55.57 4.44005 56.03 4.43005 56.97L4.42004 57.68L5.13006 57.69C7.68006 57.74 9.56006 56.84 10.7601 55L10.8 52.87L10.1401 52.86L7.98003 54.24L7.27007 54.23L7.30004 52.81L10.1901 50.07C9.80006 45.29 9.63005 41.53 9.68005 38.79L9.69006 38.13C9.70006 37.66 9.94003 37.42 10.41 37.43L9.72002 36L9.91003 25.5C9.95003 23.02 9.79003 19.04 9.41003 13.57C8.22003 14.95 7.28008 15.62 6.59008 15.61ZM7.05004 66.16L9.89007 66.21L10.61 62.72C9.99004 62.71 8.80004 63.86 7.05004 66.16ZM8.04003 10.71L8.00005 12.85L9.42004 12.88L9.46008 10.75L8.04003 10.71ZM13.37 106.96L13.36 107.67C16.74 108.2 18.83 108.72 19.62 109.21C24.58 109.3 31.86 107.79 41.47 104.68L41.48 103.97L40.7701 103.96C34.8401 105.24 25.71 106.24 13.37 106.96ZM13.5701 95.76L13.41 104.89L14.0701 104.9L14.23 95.77L13.5701 95.76ZM14.2101 59.94L14.1301 64.15L14.79 64.16L14.87 59.95L14.2101 59.94ZM14.29 55.73L14.2501 57.86C15.1601 57.88 15.6301 57.41 15.6401 56.46L15.6501 55.75L14.29 55.73ZM14.3801 50.87L14.3301 53.66C14.9901 53.67 15.6901 52.97 16.4501 51.56L16.49 49.48L15.7801 49.47C14.8601 49.6 14.3901 50.06 14.3801 50.87ZM16.1901 65.61C15.1001 73.54 14.5001 80.31 14.4001 85.93L15.0001 92.29L15.7101 92.3C15.7601 89.27 16.8401 81.11 18.9401 67.8C18.0301 67.78 17.59 67.06 17.61 65.64L16.1901 65.61ZM14.43 48.02C16.65 48.06 18.6801 38.74 20.5101 20.07C21.5201 16.37 22.0501 13.57 22.0801 11.67C17.3401 15.6 14.79 27.72 14.43 48.02ZM16.23 63.53L16.9401 63.54C18.8101 62.85 19.7501 62.15 19.7701 61.46C18.8601 61.44 18.41 60.96 18.43 60.01L18.4401 59.35L19.12 57.94L18.4601 57.93C17.0301 58.21 16.29 60.07 16.23 63.53ZM16.37 15.79L16.36 16.5L17.0701 16.51L17.8301 13.73C16.8901 13.72 16.4 14.4 16.37 15.79ZM37.29 63.2L36.5801 63.19C33.6601 65.47 30.5901 66.58 27.3901 66.52C27.4101 65.57 29.06 64.67 32.36 63.82L32.37 63.11L23.9501 62.96C23.0001 63.13 22.05 64.28 21.1 66.41L27.3901 66.52C27.3801 67.25 25.26 68.14 21.05 69.2L17.85 92.33C20.18 92.37 21.3401 92.85 21.3201 93.76L17.8201 93.7C17.2401 99.6 16.94 103.11 16.92 104.24L18.29 104.27C42.21 102.11 54.2 99.76 54.24 97.2C61.28 93.17 65.57 88.8 67.11 84.08C69.03 80.58 70.0301 77.08 70.0901 73.58C70.1701 69.02 68.6101 64.78 65.4001 60.86C57.8101 62.62 48.45 63.4 37.29 63.2ZM17.0901 55.13L17.0801 55.79L17.79 55.8C19.66 55.14 20.6 54.47 20.62 53.77L20.6501 52.35C18.5101 53.22 17.3301 54.14 17.0901 55.13ZM17.9001 49.51L17.86 51.59L19.23 51.62C19.25 50.38 19.9901 48.99 21.4401 47.45L20.0201 47.42C19.3601 47.4 18.6601 48.1 17.9001 49.51ZM23.4401 15.2C21.8901 22.47 20.3 32.74 18.67 46.02L19.3301 46.03C20.2501 45.57 20.96 45.35 21.48 45.36L21.61 38.36C21.62 37.89 21.8601 37.65 22.3301 37.66C22.3401 37.19 22.1101 36.94 21.6301 36.94L24.0901 15.93L24.1 15.22L23.4401 15.2ZM22.0301 93.78L23.4001 93.8C25.5301 94.75 26.68 95.72 26.85 96.71L26.1901 96.7C23.4001 95.51 22.0201 94.54 22.0301 93.78ZM23.29 60.1C28.47 57.71 31.3101 55.91 31.8101 54.67L31.1501 54.66C25.9601 55.71 23.34 57.52 23.29 60.1ZM23.5301 46.82L23.5101 48.19C26.3501 46.6 27.7701 45.46 27.7801 44.77L26.41 44.75C24.5 45.39 23.5401 46.09 23.5301 46.82ZM26.3201 10.33C26.1501 19.7 25.24 30.68 23.6 43.26C28.45 43.35 32.9401 41.09 37.0701 36.5C40.2801 36.56 43.4201 31 46.5001 19.82L46.55 17.03C43.78 15.16 42.3901 13.97 42.4001 13.46C43.3201 13 44.02 12.78 44.49 12.79L44.5201 11.37C44.0201 9.02997 41.47 7.81997 36.87 7.72997C35.66 7.70997 32.1501 8.57997 26.3201 10.33ZM24.9001 49.63L26.3201 49.66C31.2101 45.52 34.05 43.45 34.85 43.47L34.86 42.81L34.1501 42.8C31.6601 43.81 28.5701 46.09 24.9001 49.63ZM27.0901 6.83996L40.4001 5.70997C40.1001 4.27997 38.5 3.06997 35.6 2.06997C29.95 4.15997 27.1101 5.74996 27.0901 6.83996ZM28.2001 60.9C29.1501 60.92 29.62 61.16 29.61 61.64L31.05 60.95C31.49 60.96 31.7001 61.2 31.6901 61.67C34.6401 61.72 37.0201 60.36 38.8201 57.59L38.85 56.17C32.54 57.7 28.9901 59.28 28.2001 60.9ZM29.12 49L29.0901 50.42C38.9201 48.96 43.87 46.93 43.91 44.34L43.92 43.63C43.94 42.72 43.4901 42.25 42.5801 42.24L39.74 42.19C33.32 46.74 29.78 49.01 29.12 49ZM48.62 17.08C48.48 25.03 44.14 32.9 35.62 40.69L36.99 40.71C46.16 35.62 52.59 29.67 56.29 22.84C56.32 21.1 53.76 19.17 48.62 17.08ZM40.93 55.55C41.39 56.43 41.61 57.13 41.6 57.64L40.1301 60.4C40.6401 60.41 41.3501 60.66 42.2501 61.15C44.7301 61.19 51.5201 60.62 62.6301 59.44L62.6401 58.73C57.8601 56.78 54.6 55.8 52.85 55.77L40.93 55.55ZM41.72 51.36L41.7101 52.02L42.42 52.03C50.36 52.5 54.3301 53.05 54.3101 53.67C54.7801 53.68 55.0301 53.45 55.0301 52.97C59.4601 54 62.9501 54.53 65.5001 54.58C61.8901 50.29 57.0301 48.08 50.9001 47.97L50.8901 48.68L49.48 47.94C44.33 48.72 41.74 49.86 41.72 51.36ZM58.41 20.04C58.29 26.71 52.79 33.39 41.91 40.09L41.9001 40.8C44.7101 40.85 46.09 42.04 46.05 44.38L46.7601 44.39C56.2001 38.47 60.9701 32.72 61.0701 27.14C59.7601 23.03 59.1101 20.67 59.12 20.05L58.41 20.04ZM46.66 10.7C46.61 13.33 50.0701 15.74 57.0301 17.94C53.5401 13.17 50.08 10.76 46.66 10.7ZM63.4001 55.96C63.8501 57.35 65.2401 58.07 67.5701 58.11C67.5901 57.16 66.2001 56.44 63.4001 55.96ZM68.2601 59.54L68.2501 60.25C71.4101 64.83 72.9601 68.83 72.9001 72.26L72.85 75.05C72.79 78.55 70.8401 83.2 67.0201 89L67.0101 89.66C73.1501 84.85 76.27 79.76 76.36 74.4C74.64 66.42 72.4001 61.48 69.6301 59.57L68.2601 59.54Z" fill="#00FFAB"/>
<path opacity="0.31" d="M86.7401 5.22996C87.4601 7.90996 87.8101 9.40996 87.8101 9.72996C87.4501 9.71996 87.2601 9.91995 87.2501 10.32L87.8 10.33L92.9001 9.81995L92.92 8.72996L92.3701 5.86996L93.5301 5.33995C94.0701 7.71995 94.9701 9.22996 96.2401 9.86996L97.4001 9.33995L97.9501 9.34995C98.3501 9.35995 98.55 9.53996 98.54 9.90996L99.6401 9.37995L101.33 9.40996C107.64 9.51996 124.17 8.68996 150.93 6.90996C152.45 7.51996 153.21 8.09996 153.2 8.64996C153.19 9.19996 152.61 9.74995 151.47 10.32C151.08 9.57996 150.89 9.01996 150.9 8.60996C149.88 8.58996 145.57 8.89995 137.98 9.52995L137.97 10.08C140.59 10.13 141.9 10.71 141.88 11.84L141.87 12.39C141.08 13.91 139.93 14.65 138.44 14.63L138.46 13.48C139.59 13.5 140.16 13.13 140.18 12.36L128.94 11.06L127.78 11.59C127.42 11.58 127.24 11.4 127.24 11.03L123.29 11.51L118.75 11.43C106.34 11.97 100.13 12.99 100.1 14.49L100.06 16.73C111 16.93 126.97 16.83 147.98 16.44L148.51 17.6C148.51 17.89 147.93 18.45 146.78 19.27L141.16 18.62L135.53 18.52C134.69 18.5 133.94 18.67 133.28 19.03C132.92 19.02 132.74 18.84 132.74 18.47L127.1 18.92L119.23 18.78C117.88 18.76 116.18 18.91 114.14 19.24C113.67 18.87 112.36 18.66 110.21 18.62L107.36 19.12L107.89 23.07L107.85 25.37C107.84 25.74 107.64 25.91 107.24 25.91C107.23 26.28 107.43 26.46 107.83 26.47C107.31 33.24 105.83 42.4199 103.4 54.0099C104.1 53.66 104.65 53.48 105.05 53.49L133.85 51.71L138.33 51.7899C139.1 51.7999 139.46 52.58 139.44 54.11L143.38 54.1799C143.93 54.1899 144.48 54.75 145.05 55.85C145.04 56.4 144.46 56.9499 143.32 57.5099L142.77 57.5L142.79 56.41C141.47 56.75 140.7 56.92 140.48 56.92C140.08 56.91 139.52 56.72 138.79 56.34C113.95 60.63 101.53 63.22 101.51 64.09C98.2201 78.9799 96.52 89.2899 96.41 95.0099L97.0101 95.02C103.27 95.5 108.14 95.77 111.6 95.83L112.75 95.85C117.09 95.93 130.63 95.04 153.38 93.19L155.02 93.22C155.78 93.34 156.16 93.7299 156.15 94.39L135.81 96.81L135.82 96.2599C135.45 96.6199 132.43 96.95 126.78 97.25L126.77 97.8C130.38 97.86 132.82 98.09 134.09 98.4799C136.57 98.16 139.02 98.02 141.43 98.06L143.67 98.1C151.58 98.24 155.52 98.88 155.5 100.01C155.49 100.56 154.91 101.11 153.77 101.67L151.53 101.63L149.86 100.45C149.85 100.89 148.71 101.82 146.42 103.23C147.91 103.26 148.66 103.64 148.64 104.36C148.62 105.49 147.3 106.03 144.67 105.99C144.67 105.77 144.12 105.4 143 104.86C139.79 105.17 137.53 106.06 136.22 107.53L134.53 107.5L136.27 105.29L135.67 105.28C127.26 106.62 120.12 107.24 114.25 107.14L111.41 107.09L108.61 107.59L108.62 107.04L107.46 107.57L97.3401 107.39L97.3 109.69L96.7001 112.47L95.55 112.45C94.78 112.44 94.24 111.29 93.92 109.03C94.28 109.04 94.47 108.86 94.48 108.49L92.2401 108.45L92.23 109C92.58 109.73 92.7501 110.3 92.7501 110.71L91.0901 111.83C90.7201 110.33 90.5401 109.01 90.5601 107.88L89.4601 108.41C90.5501 110.91 91.0801 112.62 91.0601 113.53L89.9001 114.05L86.0301 110.04L86.05 108.89C78.88 110.37 75.2801 111.81 75.2501 113.24L74.16 113.22L74.17 112.62L75.3 110.4L74.7501 110.39C74.0901 110.74 73.3401 110.91 72.5001 110.9L73.0301 112.06C73.0201 112.83 72.63 113.2 71.86 113.19L71.3301 112.03L71.3401 111.48C71.3901 108.93 75.9201 107.13 84.9501 106.09L84.9601 105.49L84.4601 102.69C81.6401 103.4 80.1401 103.76 79.9601 103.76L79.97 103.16C79.98 102.58 81.3101 101.67 83.9601 100.44C82.9601 93.46 82.5 87.25 82.6 81.82L82.86 67.17C80.95 67.76 79.99 68.69 79.97 69.96C79.24 69.95 78.8801 69.5599 78.9001 68.7899L78.91 68.24C78.92 67.77 80.4401 66.48 83.4601 64.38L83.5901 57.05L84.2001 53.67C84.2101 53.31 84.03 53.12 83.66 53.11L84.3101 47.49L84.5801 32.24C84.5901 31.88 84.41 31.69 84.04 31.68C84.05 31.32 84.23 31.14 84.6 31.14C84.26 29.82 84.1101 27.94 84.1501 25.5L83.6 25.49L82.9601 27.72L82.41 27.71C81.68 27.7 81.3201 27.31 81.3401 26.54L81.35 25.99L84.79 20.42L84.3101 16.47L84.3701 13.08L83.8201 13.07C80.7901 13.49 79.25 14.59 79.22 16.38L77.5301 16.35C77.5901 12.96 79.8801 11.31 84.4001 11.39L83.9001 8.58995L83.9401 6.34995C83.9401 5.56995 84.8801 5.19996 86.7401 5.22996ZM89.0601 65C88.2301 68.81 87.7401 74.8 87.5901 82.97L87.5001 88.05C87.4701 89.95 87.6201 92.77 87.9501 96.5399C88.6901 96.1499 89.25 95.96 89.66 95.97L89.16 90.33L89.2401 85.85C89.2901 82.97 89.8001 76.22 90.7501 65.58C91.1101 65.59 91.3001 65.4099 91.3101 65.0399L89.0601 65ZM87.7501 13.13L87.73 14.28L88.79 15.99C90.71 14.53 92.2401 13.81 93.3701 13.83C93.0201 13.09 92.85 12.53 92.85 12.12L92.2501 12.11C91.8901 12.1 91.7001 12.28 91.6901 12.65L90.55 12.08L88.85 12.05C88.13 12.15 87.7601 12.51 87.7501 13.13ZM88.4601 98.25L88.4401 99.34L88.9901 99.35C89.7601 99.36 90.14 99.01 90.16 98.28L88.4601 98.25ZM88.9601 101.05L88.92 103.29C89.32 103.3 89.88 103.51 90.6 103.92L90.6201 102.77C90.2701 102.04 90.1 101.47 90.1 101.07L88.9601 101.05ZM89.1501 59.92L89.1201 61.6199L90.2701 61.64C91.0001 61.65 91.3701 61.2799 91.3801 60.5099L91.42 58.27L90.8701 58.2599C90.3301 58.25 89.7501 58.8 89.1501 59.92ZM89.86 20.5C89.84 21.34 89.6501 22.08 89.2701 22.73C89.5901 25.18 89.7001 29.32 89.5901 35.15L90.1401 35.16C90.6601 28.57 90.9301 24.64 90.9501 23.36L90.3701 22.2C90.7801 21.48 90.9901 20.92 91.0001 20.52L89.86 20.5ZM89.35 18.24L89.9001 18.25C90.6701 18.26 91.0501 17.89 91.0701 17.12L90.47 17.11C89.73 17.25 89.36 17.63 89.35 18.24ZM92.5801 27.33C91.2501 38.5 90.51 48.24 90.36 56.55C91.1 56.2 91.6601 56.03 92.0701 56.03L92.23 47.0099C92.24 46.6499 92.42 46.47 92.79 46.47C92.8 46.11 92.6201 45.92 92.2501 45.91L92.9001 40.29L93.1301 27.33H92.5801ZM92.1201 19.44C92.5101 20.14 92.7001 20.69 92.6901 21.09L93.7801 21.11L93.8101 19.47L92.1201 19.44ZM93.5101 66.78C93.5001 67.15 93.7 67.33 94.1 67.34L93.4301 71.27L93.1801 85.38L93.7801 85.39C95.1301 73.27 95.82 66.14 95.86 63.99L95.2601 63.9799C94.7501 63.9599 94.1601 64.9 93.5101 66.78ZM94.23 60.0099L94.22 60.56C96.08 60.3 97.0401 59.01 97.0801 56.67L96.5301 56.66C95.0301 57.04 94.27 58.1499 94.23 60.0099ZM95.5201 18.9C95.4601 22.4 95.4901 30.6599 95.6201 43.6799C95.1601 49.2499 94.9101 52.9999 94.8701 54.9299L96.0201 54.95C96.6001 54.9599 97.19 53.48 97.8 50.5C97.81 50.14 97.6101 49.95 97.2101 49.94L97.86 47.11L97.9301 43.17C97.9901 39.67 98.2301 36.48 98.6501 33.61C98.0001 27.36 97.7001 22.47 97.7601 18.94L95.5201 18.9ZM95.05 14.41L95.0001 17.2L97.2401 17.24C97.2501 16.84 97.4401 16.28 97.8201 15.56C96.6301 14.8 95.71 14.42 95.05 14.41ZM95.1 11.57L95.0701 13.27C95.8101 12.92 96.3701 12.75 96.7801 12.75L96.8 11.6L95.1 11.57ZM97.4601 99.5C97.4501 99.87 97.6301 100.05 98.0001 100.06C97.2501 101.29 96.86 102.41 96.85 103.43L97.9301 104.05L110.89 104.28L116.53 103.78L116.52 104.38L117.68 103.8L119.38 103.83C132.89 102.94 141.91 101.98 146.45 100.93L146.46 100.38L137.98 100.23L132.34 100.68L132.35 100.13L131.25 100.66C130.89 100.65 130.71 100.47 130.71 100.1C130.31 100.09 130.11 100.27 130.1 100.64C128.83 100.25 121.33 99.57 107.6 98.6C101.61 99.21 98.2301 99.52 97.4601 99.5ZM98.6501 64.03L98.6 66.8699L99.1501 66.88L99.2001 64.0399L98.6501 64.03ZM99.9401 56.17C99.5001 58.13 99.2801 59.26 99.2801 59.55L100.43 59.57C100.44 59.28 100.64 58.15 101.04 56.19L99.9401 56.17ZM100.61 18.45C100.6 18.82 100.4 18.99 100 18.99C100.7 22.65 100.99 27.72 100.88 34.21L100.7 44.38C100.66 46.35 100.42 49.54 99.98 53.94L101.68 53.97C103.71 44.31 105.2 34.38 106.15 24.19C105.76 23.45 105.57 22.89 105.58 22.48C105.99 21.87 106.21 20.94 106.23 19.7L106.24 19.1L102.86 18.49C102.12 18.84 101.56 19.01 101.15 19.01C101.16 18.64 100.98 18.45 100.61 18.45ZM103.34 55.69L102.72 56.77L102.68 59.07C125.66 56.68 137.16 54.7999 137.18 53.45C117.46 55 106.18 55.74 103.34 55.69Z" fill="#00FFAB"/>
<path opacity="0.31" d="M259.88 3.85999C260.57 3.94999 260.87 4.43998 260.78 5.34998C260.07 14.6 254.51 30.55 244.11 53.18C236.64 67.19 227.46 82.75 216.58 99.83C213.24 106.99 211.21 110.58 210.48 110.61L209.77 110.54C209.33 110.5 209.12 110.24 209.13 109.76C209.65 108.97 209.96 108.06 210.05 107.04L210.06 106.71L209.16 105.22L209.17 104.89C209.32 102.89 209.67 101.38 210.24 100.37L209.59 99.98C206.46 109.99 204.8 116.17 204.61 118.54L204.54 119.25L204.92 119.26C205.16 118.13 205.55 117.59 206.1 117.64L206.43 117.65C206.33 118.89 205.66 120.01 204.4 121.01L204.07 121C203.41 120.95 203.03 119.74 202.93 117.37C207.2 98.96 210.93 87.32 214.11 82.46L216.55 77.75C208.42 73.63 202.25 65.77 198.05 54.17C196.1 50.82 193.85 43.63 191.27 32.61C190.76 30.49 189.89 25.27 188.65 16.98L188.79 15.23C188.8 14.87 189.17 14.54 189.9 14.27C190.96 14.33 192.72 15.85 195.18 18.85L195.19 18.52L193.76 9.95998L193.83 8.91998C193.95 8.47998 194.21 8.26998 194.61 8.27998C198.14 8.55998 201.74 13.29 205.4 22.48C206.35 22.53 207.18 23.88 207.9 26.52C207.54 28.15 207.32 29.56 207.22 30.72C206.93 30.68 206.52 30.05 206 28.84L206.01 28.13L206.46 27.48C206.24 27.48 205.41 25.89 203.97 22.73C202.67 22.31 201.65 21.87 200.93 21.42C200.6 25.57 202.23 30.27 205.82 35.51C205.78 35.88 205.97 36.35 206.4 36.94L206.33 37.65L206 37.64C203.78 33.22 202.44 31.01 201.96 31L201.58 30.94L203.29 36.33C202.81 36.39 202.56 36.61 202.51 36.97C202.98 37.02 203.25 38.21 203.32 40.54C205.73 46.31 208.27 51.31 210.93 55.55L216.9 64.08L217.28 64.09C217.38 62.6 216.11 59.35 213.46 54.34C213.51 53.58 212.53 51.15 210.53 47.07L210.54 46.74L211.25 46.81C214.23 53.61 216.15 57.49 217 58.45L217.01 58.12C217.08 48.39 217.02 43.12 216.86 42.31C216.86 42.09 216.99 41.98 217.25 41.99L217.11 34.6L217.49 34.61L217.17 33.89C217.17 33.67 217.3 33.56 217.56 33.57L217.25 32.85C217.25 32.63 217.38 32.52 217.64 32.53L217.4 30.78L217.46 30.4C217.46 30.18 217.58 30.07 217.79 30.08L217.53 29.36L218 27.67C218.04 27.42 217.96 27.05 217.75 26.57C218.16 24.03 218.49 22.77 218.75 22.82L218.43 22.1C218.47 21.85 218.6 21.74 218.82 21.78C218.82 21.53 218.72 21.4 218.5 21.39C219.44 15.83 220.71 13.12 222.31 13.25C223.66 13.35 224.88 15.54 225.97 19.82C228.4 30.69 229.28 40.48 228.62 49.18L228.26 54.04L228.59 54.1C239.66 32.35 247.97 17.44 253.51 9.36999C254.18 6.60999 254.86 5.25999 255.55 5.29999C256.02 5.34999 256.23 5.70999 256.19 6.40999L255.65 8.80998L255.59 9.13998L255.97 9.19998C256.76 7.02998 258.07 5.24999 259.88 3.85999ZM190.39 17.43C190.58 20.93 191.02 22.73 191.72 22.81L191.33 23.46C193.11 33.96 195.64 43.63 198.9 52.48C204.57 65.56 210.63 73.4 217.07 76L217.15 74.63C214.06 74.03 210.96 70.27 207.84 63.36C205.78 60.08 203.51 51.7 201.02 38.24C199.55 35.04 197.77 29.41 195.69 21.35L191.45 16.79C190.74 16.97 190.39 17.18 190.39 17.43ZM196.21 10.15L195.43 11.12C195.46 11.6 195.67 11.85 196.07 11.9L195.68 12.55C196.9 17.57 197.51 20.31 197.5 20.79L198.54 20.86C198.74 19.95 199.11 19.52 199.66 19.57L200.75 19.64C201.15 19.68 202.16 20.1 203.79 20.9C201.92 16.71 199.4 13.13 196.21 10.15ZM204.82 48.38L204.76 48.76C207.85 61.43 211.9 69.58 216.9 73.21L217.28 73.22C217.62 68.45 216.16 64.6 212.89 61.66C209.05 56.3 206.47 51.9 205.14 48.45L204.82 48.38ZM206.33 37.63L206.71 37.64C207.15 37.76 207.36 38.02 207.35 38.42L207.28 39.13C206.95 39.09 206.63 38.7 206.32 37.96L206.33 37.63ZM206.57 115.58L207.28 115.65L207.21 116.3C207.2 116.77 206.96 116.99 206.49 116.94L206.57 115.58ZM206.89 39.44L207.27 39.45C208.14 39.98 208.54 40.71 208.49 41.66C208.13 41.62 207.6 40.88 206.89 39.44ZM209.39 43.81L210.04 43.88L210.6 46.41L209.89 46.34L209.39 43.81ZM221.9 72.2C214.1 88.4 210.15 97.2 210.05 98.62L210.71 98.69C213.28 91.77 217.24 83.07 222.61 72.6L221.9 72.2ZM213.67 101.04L212.87 102.72L212.81 103.05L213.19 103.11C213.2 102.67 213.46 102.09 213.99 101.37L214.05 101.04H213.67ZM256.63 14.14C256.28 15.52 255.86 16.21 255.39 16.2L255.71 16.92L255.64 17.96C255.12 18.5 254.84 18.95 254.79 19.31L254.08 19.24C254.69 17.61 255.03 16.34 255.08 15.43L255.14 15.1L254.76 15.09C253.09 16.48 250.79 22.15 247.84 32.09C246.19 36.8 245.18 39.17 244.81 39.2L245.12 39.97C239.27 55 232.59 68.62 225.08 80.85C218.44 91.09 215.05 97.02 214.91 98.66C226.54 80.67 235.69 65.36 242.37 52.72L249.94 36.45L249.68 35.73C250.42 34.94 251.72 31.65 253.58 25.85C253.76 25.89 254.04 25.44 254.42 24.5L254.1 23.78C254.67 22.66 255.06 22.12 255.28 22.16C255.07 21.68 254.99 21.32 255.03 21.06C255.51 20.6 256.26 18.44 257.28 14.59L256.63 14.14ZM226.32 69.71C223.87 74.04 220.39 81.02 215.88 90.64L215.87 91.02L216.2 91.03C216.24 90.7 218.03 87.45 221.57 81.28C222.09 80.52 223.76 77.04 226.57 70.81C226.79 70.81 226.92 70.71 226.96 70.49C227 70.02 226.79 69.76 226.32 69.71ZM218.45 26.63L218.71 27.35L218.42 31.56C218.38 31.78 218.25 31.89 218.03 31.88L218.35 32.6L217.93 37.84L217.98 41.34L217.65 41.33C217.79 41.81 217.93 43.1 218.07 45.22L217.69 45.16L218.01 45.88C217.97 46.14 217.84 46.24 217.62 46.2C217.81 56.05 218.58 62.79 219.94 66.43C220.63 66.48 220.93 66.96 220.84 67.87L221.88 68C224.28 62.1 225.71 59.04 226.15 58.83C226.15 58.58 226.05 58.45 225.83 58.44L226.91 52.94L226.65 52.22L227.12 50.48L226.8 49.76L227.25 49.06C227.04 48.62 226.94 48.27 226.94 48.02L227.32 48.03C227.11 47.55 227.02 47.2 227.07 46.99C227.45 41.89 226.82 33.42 225.17 21.58C224.34 18.83 223.35 16.52 222.18 14.63C221.4 14.56 220.16 18.57 218.45 26.63ZM219 69.14C218.95 69.61 218.82 69.83 218.61 69.79L218.87 70.56L218.59 74C219.14 74.05 219.71 72.82 220.3 70.31L219 69.14ZM248.26 26.51L221.69 83.74C223.44 81.62 226 77.49 229.35 71.35L230.07 71.03L229.75 70.31C235.65 60.83 241.92 46.33 248.58 26.84L248.64 26.51H248.26ZM223.07 70.86L223.72 71.25C223.76 70.85 224.22 69.6 225.1 67.5C224.51 67.45 223.84 68.57 223.07 70.86ZM228.79 60.08C227.43 62.68 226.75 64.14 226.74 64.47L226.68 64.85L227.06 64.86C227.11 64.1 227.79 62.63 229.11 60.47L229.17 60.09L228.79 60.08ZM229.21 63.97C227.81 66.72 227.11 68.31 227.1 68.74C227.65 68.57 228.46 67.11 229.53 64.35L229.54 64.02L229.21 63.97ZM230.43 57.04C230.42 57.44 230.16 58 229.63 58.72L229.56 59.43L229.89 59.44C229.94 58.82 230.22 58.15 230.75 57.43L230.81 57.1L230.43 57.04ZM232.16 57.89C232.07 58.58 231.5 59.83 230.45 61.63L230.44 61.96L230.77 61.97C230.81 61.53 231.49 60.2 232.81 57.96L232.16 57.89ZM232.42 49.86C232.38 50.26 232.09 50.82 231.57 51.54L231.56 51.87L231.89 51.88C231.93 51.48 232.22 50.92 232.74 50.2L232.75 49.87L232.42 49.86ZM249.61 18.17L232.81 49.15L232.8 49.53C240.08 38.32 245.79 27.99 249.93 18.55L249.99 18.22L249.61 18.17ZM253.68 19.88L254.39 19.95L254.32 20.99C254.28 21.46 254.02 21.68 253.54 21.63L253.68 19.88ZM255.36 11.98L254.5 13.99C254.98 13.78 255.34 13.7 255.6 13.74L255.74 11.99L255.36 11.98ZM256.99 9.59998C257.11 10.88 257.13 11.94 257.04 12.77L256.64 13.47L257.34 13.87L257.67 13.88C257.86 11.33 258.3 10.08 259 10.13L258.74 9.40999L259.28 7.00999C258.91 6.97999 258.15 7.83998 256.99 9.59998Z" fill="#00FFAB"/>
<path opacity="0.31" d="M298.38 7.16992C308.77 7.35992 317.26 20.8899 323.85 47.7699C324.65 52.1999 325.18 58.7699 325.46 67.4899L325.06 68.1899C325.27 68.6999 325.37 69.0899 325.37 69.3399L324.99 69.3299C324.99 69.5899 325.11 69.7099 325.37 69.7199C324.98 72.9999 324.64 74.6299 324.35 74.6299L324.66 75.3999C322.94 83.9399 320.14 91.5799 316.26 98.3299C309.6 109.84 303.48 115.55 297.9 115.45C296.97 116.42 295.17 117.39 292.49 118.36L292.12 117.59L291.35 117.96L290.97 117.95C290.17 117.94 288.71 117.03 286.59 115.25C280.23 114.08 275.29 111.84 271.78 108.53C266.43 101.91 263.08 93.6399 261.72 83.7399C260.16 74.9999 259.64 65.7799 260.14 56.0899C261.07 38.8999 264.94 25.3299 271.76 15.3899C275.6 10.9399 279.63 8.74992 283.86 8.81992L285.01 8.83992C286.4 8.85992 288.27 9.25992 290.62 10.0299L291.39 10.0399C292.94 8.62992 295.27 7.66992 298.38 7.16992ZM267.5 39.5499C267.75 39.5499 267.86 39.6799 267.82 39.9399C267.2 39.9299 266.29 42.6899 265.1 48.2099C265.04 49.2299 264.91 49.7399 264.69 49.7299C264.65 49.9799 264.76 50.1099 265.01 50.1199L264.53 52.7399L264.29 56.9499C264.29 57.2099 264.16 57.3299 263.9 57.3299L264.22 58.0499L264.04 62.1999C264 62.4499 263.85 62.5799 263.6 62.5799L263.97 63.3499C263.92 63.9299 263.77 64.4399 263.51 64.8699L263.82 65.6399C263.82 65.8999 263.68 66.2799 263.42 66.7799C263.78 69.1899 263.93 71.0699 263.87 72.4199L263.49 72.4099C265.21 88.1599 268.43 99.0799 273.13 105.18C276.31 108.77 278.61 110.58 280.03 110.61C272.57 103.51 269.29 91.5799 270.17 74.8199L270.55 74.8299L270.24 74.0599L270.34 71.4399C270.45 69.3999 270.72 66.7399 271.14 63.4699C271.18 63.2199 271.07 63.0899 270.82 63.0799L271.29 61.2299C271.95 48.6599 274.12 38.4699 277.8 30.6599C278.99 27.2499 279.87 25.2499 280.42 24.6399L278.89 24.6099C274.27 24.5199 270.48 29.4999 267.5 39.5499ZM265.54 32.7299L265.53 33.4399L265.91 33.4499C265.92 32.7899 266.37 31.4199 267.24 29.3199C266.66 29.2999 266.09 30.4399 265.54 32.7299ZM279.15 12.1299L278.38 12.1199L277.68 11.7199C276.52 13.4499 275.7 14.3099 275.23 14.2999C275.27 14.0799 275.16 13.9699 274.91 13.9699C272.97 16.3799 271.04 19.2399 269.12 22.5599L269.49 23.3299L269.48 23.6599C268.53 23.6399 267.68 25.3999 266.92 28.9199L267.63 28.9299C270.07 23.0699 274.11 18.4699 279.75 15.1399C284.06 12.4499 286.91 11.1099 288.3 11.1399C288.35 10.5899 286.99 10.1899 284.22 9.91992C282.14 10.1099 280.45 10.8499 279.15 12.1299ZM270.47 26.3599C270.42 26.8699 269.99 27.7399 269.17 28.9599L269.55 28.9699C270.06 28.9799 270.47 28.2399 270.79 26.7499L270.85 26.3699L270.47 26.3599ZM271.74 80.5399C273.19 95.4399 274.69 102.91 276.26 102.94C276.21 103.74 277.13 105.14 279.03 107.15L279.09 106.77C275.7 100.58 273.38 91.8499 272.12 80.5599L271.74 80.5399ZM278.27 36.3499C277.39 36.3299 276.02 40.8499 274.14 49.8899L273.25 66.1699L273.54 68.0299L273.16 68.0199L273.47 68.7899L273.38 70.6999C273.04 77.3999 274.44 87.0199 277.57 99.5399C280.46 106.92 283.3 110.64 286.07 110.69L286.15 109.54L286.86 109.55C286.81 110.53 287.03 111.03 287.54 111.04C289.08 110.49 291.34 108.39 294.33 104.76C290.62 102 287.85 94.8699 286.02 83.3899C285.24 73.8199 284.97 66.7599 285.2 62.2099L285.36 59.5299L285.07 57.6599L285.45 57.6699L285.14 56.8999L285.22 55.7499C285.22 55.4999 285.35 55.3699 285.61 55.3699L285.24 54.5999L285.72 45.9099C285.72 45.6599 285.85 45.5299 286.11 45.5299C286.11 45.2799 285.99 45.1499 285.73 45.1399C286.56 39.4299 287.48 34.1399 288.48 29.2699C286.59 26.9799 285.13 25.8199 284.11 25.7999L283.73 25.7899C280.27 29.0599 278.45 32.5599 278.27 36.3499ZM279.97 17.8399L280.03 17.4599L278.43 18.1999L278.8 18.9199C276.35 21.1699 274.73 23.0399 273.94 24.5199C276 23.5699 277.67 23.1099 278.94 23.1299L281.24 23.1699C281.26 22.2199 282.78 19.4599 285.82 14.8799L285.44 14.8699C284.06 14.8499 282.23 15.8399 279.97 17.8399ZM281.15 110.95L281.09 111.33C281.53 111.34 282.14 111.6 282.94 112.13L283.71 112.14L283.77 111.76C283.08 111.75 282.32 111.48 281.49 110.95H281.15ZM282.72 23.1899L283.48 23.5899C287.26 20.3799 290.75 18.7999 293.96 18.8599C294.52 17.8499 295.17 17.3499 295.9 17.3599L295.96 16.9799C292.56 15.6399 290.05 14.9599 288.45 14.9299C286.68 15.9899 284.77 18.7499 282.72 23.1899ZM285.34 23.6199L285.33 24.3299C286.54 25.8799 287.89 26.6699 289.39 26.6999C289.45 25.5399 290.43 23.5299 292.34 20.6799L291.96 20.6699C289.4 21.2499 288.09 21.9899 288.04 22.8999C286.86 23.3999 285.96 23.6299 285.34 23.6199ZM295.03 20.3499C291.84 23.4699 290.14 26.8399 289.93 30.4899L290.3 31.2599L290.23 32.0199C289.14 31.9999 288.06 38.0299 287.01 50.1199C287.22 50.5999 287.32 50.9799 287.32 51.2699L286.94 51.2599L287.31 52.0299L287.24 53.1199C287.24 53.3799 287.11 53.4999 286.85 53.4999L287.16 54.2699C287.16 54.5299 287.03 54.6499 286.77 54.6499C286.98 55.1599 287.08 55.5499 287.08 55.7999C287.08 56.0499 286.95 56.1799 286.69 56.1799L286.99 57.7199C285.83 79.8699 288.31 94.7899 294.45 102.49L295.58 103.28C302.19 92.6799 305.85 80.8699 306.55 67.8699L306.82 61.8599C307.26 53.6299 304.94 40.3299 299.88 21.9699C298.06 21.1699 296.44 20.6299 295.03 20.3499ZM289.21 115.69C289.16 116.35 290.65 116.86 293.67 117.25C294.84 116.8 295.51 116.32 295.66 115.81L289.21 115.69ZM290.13 12.7099L290.05 13.8599C291.91 13.8899 294.14 14.6799 296.74 16.2199L296.81 15.4599C296.05 15.1199 294.45 14.0899 292 12.3699L290.13 12.7099ZM290.23 110.79L291 110.8C292.93 110.83 295.65 109.61 299.16 107.12L299.17 106.74C298 106.72 296.88 106.33 295.8 105.59L295.42 105.58L290.23 110.79ZM290.92 111.89L290.91 112.27L292.39 112.3L292.45 111.92L290.92 111.89ZM293.22 111.55L293.21 111.93L293.54 111.94C296.92 110.76 298.61 109.92 298.62 109.41C295.72 110.85 293.92 111.56 293.22 111.55ZM293.6 11.6299L293.54 12.0099C293.94 12.0199 295.42 12.9199 297.98 14.7099L305.64 20.5399C312.5 28.2799 317.42 37.5999 320.4 48.4799L321.17 48.4899L321.23 48.1099C318.96 34.1799 314.34 23.7399 307.35 16.7899C303.18 13.4299 298.96 11.7199 294.7 11.6399L293.6 11.6299ZM294.07 9.71992L294.06 10.0999C302.3 10.2499 308.87 14.6699 313.79 23.3599L314.17 23.3699L314.24 22.6099C308.72 13.4299 303.64 8.79992 299.01 8.71992L298.3 8.70992C297.46 8.68992 296.05 9.02992 294.07 9.71992ZM296.65 18.1399L296.2 18.8999C296.19 19.4499 297.44 19.9599 299.95 20.4399L299.96 19.6699C297.97 18.6499 296.87 18.1399 296.65 18.1399ZM302.71 25.0299L302.7 25.7899C304.73 34.8299 306.17 40.6799 307.03 43.3199L306.63 44.0199C307.81 49.5099 308.5 55.7199 308.7 62.6499C308.66 62.8699 308.51 62.9799 308.26 62.9699L308.55 64.8899L308.46 66.7999C308.46 67.0599 308.33 67.1799 308.07 67.1799C308.07 67.4399 308.17 67.5599 308.39 67.5699C307.72 80.3899 303.93 92.2999 297.03 103.3C296.56 103.36 296.3 103.62 296.25 104.05C298.2 105.11 299.81 105.64 301.09 105.67C305.69 101.34 308.32 96.9599 308.98 92.5199C311.11 85.7799 312.34 79.2299 312.67 72.8999L312.83 69.8899C313.5 57.0699 310.25 42.1099 303.08 25.0299H302.71ZM296.91 113.15L297.68 113.16C298.85 112.78 299.78 112.05 300.45 110.97L299.68 110.96C297.84 112.09 296.92 112.82 296.91 113.15ZM301.9 112.47L302.23 112.48C303.69 112.51 306.49 109.91 310.63 104.7C309.79 104.68 306.88 107.28 301.9 112.47ZM302.58 20.0999L306.93 24.7199L306.87 25.0999L307.25 25.1099L307.32 24.3499L302.97 20.1099L302.58 20.0999ZM303.61 108.73L303.99 108.74L305.17 107.23L304.79 107.22C304.42 107.21 304.03 107.72 303.61 108.73ZM306 27.7699L305.99 28.1499C312.24 43.4699 315.06 56.8799 314.46 68.3999L314.32 70.3099C314.31 70.8899 314.41 71.4099 314.62 71.8499C314.36 72.2799 314.22 72.7699 314.21 73.3199L313.9 78.2399C313.9 78.4999 313.77 78.6199 313.51 78.6199L313.88 79.3899L313.82 79.7699L313.42 80.5299L314.19 80.5399L315.94 68.4299C315.73 67.9499 315.63 67.5899 315.63 67.3299L316.01 67.3399C315.8 66.8299 315.7 66.4399 315.7 66.1899C315.75 65.2399 315.79 62.0899 315.81 56.7299L316.58 56.7399L316.57 57.1199C316.68 59.3099 316.73 60.5699 316.72 60.8999L316.34 60.8899L316.71 61.6599L316.56 63.8999L316.7 68.4399L316.32 68.4299L316.69 69.1999L316.68 69.5799C316.64 69.8299 316.49 69.9599 316.24 69.9599C316.24 70.2199 316.36 70.3399 316.62 70.3499C316.39 75.0499 314.77 81.9699 311.76 91.0999L311.7 91.4799L312.08 91.4899C316.57 83.0399 318.98 75.7499 319.31 69.6299L319.69 69.6399L319.32 68.8699L319.38 68.4899C319.38 68.2399 319.51 68.1099 319.77 68.1099L319.4 67.3899C319.45 66.8799 319.6 66.6299 319.85 66.6299C320.4 56.0699 317.09 44.3899 309.92 31.6099L309.59 31.5999L309.52 32.3599C312.8 38.5799 315.18 46.3199 316.65 55.5699L316.27 55.5599C315.94 55.5499 315.19 52.8999 314.01 47.5899L314.15 45.6799L313.38 45.6699L313.47 43.4299C312.78 43.2699 311.79 40.7199 310.49 35.7699C307.9 30.4499 306.4 27.7699 306 27.7699ZM308.32 26.2799L308.31 27.0499C308.64 27.0599 309.23 27.5799 310.09 28.6099C309.81 27.5399 309.22 26.7699 308.32 26.2799ZM319.25 84.3999C316.86 91.7599 314.29 97.3999 311.56 101.33L312.33 101.34C314.6 98.8599 317.03 93.5999 319.61 85.5499L319.63 84.3999H319.25ZM313.41 80.8999C313.36 81.7399 313.2 82.3499 312.94 82.7499L313.71 82.7599L313.8 80.8999H313.41ZM316.94 85.4999C316.89 86.1899 315.6 89.0699 313.07 94.1299L313.06 94.5099L313.44 94.5199C315.41 90.5099 316.7 87.6299 317.31 85.8899L317.32 85.5099L316.94 85.4999ZM320.25 80.6399L320.11 82.5499L320.49 82.5599L320.63 80.6499L320.25 80.6399ZM320.39 48.8099L321.08 49.9699L320.68 50.7299L321.44 51.1299L321.52 49.5999C321.53 49.0899 321.28 48.8299 320.77 48.8199L320.39 48.8099ZM321.7 45.4399C323.06 53.0099 323.38 63.7599 322.65 77.6699L323.03 77.6799C323.5 73.8999 323.77 71.1099 323.84 69.3299C324.27 61.4999 323.81 53.5399 322.46 45.4599L321.7 45.4399Z" fill="#00FFAB"/>
<path opacity="0.31" d="M387.17 3.02002L388.26 3.04002C388.22 3.40002 388.01 3.93003 387.63 4.62003L391.33 36.3C392.02 36.31 392.26 38.47 392.03 42.77L392.58 42.78C392.64 41.69 392.85 41.14 393.21 41.15C391.99 30.12 391.53 21.9 391.85 16.51L393.44 16.54C392.61 11.86 392.25 8.64002 392.36 6.89002L393.46 6.36002C393.97 6.37002 394.57 8.51002 395.26 12.79C395.77 12.8 396.27 13.36 396.76 14.46L396.5 19.82C396.46 20.15 396.62 20.32 396.98 20.32L396.41 21.4L396.35 21.95L397.44 21.97L397.38 22.52L396.26 24.09L397.3 24.11C397.24 25.39 396.99 26.99 396.56 28.91C397.29 35.01 397.81 48.77 398.12 70.18C397.01 91.27 392.96 103.71 385.96 107.48C381.48 109.26 377.98 111.17 375.47 113.2C372.75 114.21 369.86 114.69 366.8 114.63C351.16 114.35 340.73 102.38 335.5 78.73C334.8 71.1 334.42 64.47 334.38 58.85C336.49 32.71 339.23 17.93 342.61 14.53C344.71 11.32 346.79 9.41002 348.84 8.79002C349.53 8.91002 349.87 9.26002 349.86 9.85002C347.34 9.81002 344.39 14.75 341.01 24.68L340.67 31.68L340.99 35.4L341.54 35.41C342.05 25.54 343.8 19.32 346.8 16.74L347.35 16.75C347.86 16.76 348.36 17.31 348.85 18.42L348.84 18.97C345.63 18.91 343.51 28.52 342.47 47.79L342.39 49.37C342.39 49.59 342.45 51.91 342.59 56.32L342.04 56.31C342.47 62.88 342.94 67.36 343.44 69.73L342.95 69.72C344.16 83.34 346.87 92.86 351.08 98.25C354.38 101.52 356.42 103.16 357.23 103.17L357.29 102.68C351.84 97.51 349.59 85.68 350.54 67.17L351.35 52.74C351.36 51.94 351.21 51.21 350.9 50.54C351.31 49.93 351.53 49.22 351.54 48.42L351.85 43.61C352.19 36.83 353.25 33.46 355.04 33.49L356.07 34.06C356.23 33.33 356.62 32.98 357.24 32.99C357.75 33 358.25 33.72 358.73 35.15C356.79 37.3 355.79 39.25 355.73 41L355.65 42.64L354.56 42.62L354.63 41.53L354.08 41.52L353.9 45.29L354.39 45.3L354.53 43.66L355.02 43.67L354.93 45.8C354.92 46.17 354.74 46.34 354.37 46.34L354.84 47.44L354.53 52.79L353.49 52.77L353.42 53.81L354.51 53.83L354.45 54.38L353.41 54.36L353.34 55.45C353.33 55.78 353.51 55.95 353.88 55.95L353.26 57.03L353.19 58.12L354.29 57.59L354.84 57.6L354.82 58.64C353.94 61.18 353.49 62.61 353.48 62.94L353.47 63.49C353.41 64.66 353.54 65.55 353.86 66.18L352.51 71.46C352.61 73.98 352.9 75.24 353.37 75.25L352.8 76.33L352.49 81.68C352.49 83.47 352.81 84.37 353.43 84.38C353.42 84.71 353.24 84.87 352.87 84.86C355.91 98.48 360.2 105.34 365.74 105.44C366.1 105.45 366.64 105.29 367.33 104.98C367.94 105.32 368.65 105.5 369.45 105.51C373.57 105.58 376.31 101.35 377.66 92.8C378.05 91.64 378.92 81.66 380.28 62.87C379.38 30 377.76 13.54 375.42 13.5L375.44 12.41C375.6 11.72 375.99 11.38 376.61 11.39L377.1 11.4C379.14 13.81 380.89 24.54 382.37 43.6C382.72 50.61 382.86 58.12 382.79 66.14L380.28 93.39L380.27 93.94L380.82 93.95C384.84 85.45 387.24 73.72 388.02 58.74C388.9 42.2 388.08 23.97 385.56 4.05003L387.17 3.02002ZM337.95 42.34L337.3 54.09C337.24 55.29 337.03 56.18 336.65 56.76C335.93 70.27 338.11 83.17 343.18 95.44L343.67 95.45L343.74 94.41L341.85 90.05L342.34 90.06C340.66 84.01 339.62 70.07 339.21 48.22C338.85 48.21 338.59 46.26 338.44 42.35L337.95 42.34ZM348.37 98.76L348.3 99.85C350.08 102.14 353.15 105.04 357.5 108.55L358.6 108.02L359.09 108.03C359.03 109.49 360.96 110.25 364.9 110.32C368.84 110.1 370.84 109.59 370.89 108.79C359.92 108.59 352.58 105.25 348.86 98.77L348.37 98.76ZM382.43 102.6C376.85 108.55 373.14 111.51 371.28 111.48L371.22 112.03L371.77 112.04C376.43 110.56 380.17 107.41 382.99 102.61L382.43 102.6ZM394.77 51.9C393.73 65.16 392.23 76.56 390.27 86.11L390.25 87.2L390.74 87.21C392.18 80.38 392.94 76.27 393.04 74.89L393.29 70.08L394.33 70.1L394.08 74.91L393.37 78.12C393.36 78.49 393.54 78.67 393.91 78.68C393.42 87.79 389.69 97.18 382.74 106.87L383.29 106.88C389.61 102.04 392.99 95.5 393.43 87.26L393.98 87.27C393.99 86.91 393.83 86.72 393.5 86.71C394.4 83.26 395 78.44 395.29 72.25L395.6 67.44C395.77 64.05 395.68 58.87 395.33 51.9H394.77Z" fill="#00FFAB"/>
<path opacity="0.31" d="M439.68 8.88995C447.81 8.74995 454.06 12.1 458.42 18.96C459.51 18.94 461.87 20.63 465.49 24.01L467.47 23.61C470.75 23.52 472.61 27.53 473.05 35.63C474.05 53.33 465.54 66.27 447.52 74.44L447.56 75.1C466.52 93.42 476.1 104.31 476.29 107.78C476.87 107.75 477.49 108.97 478.14 111.42L478.13 111.91L477.51 112.99C477.8 112.96 478.2 113.37 478.69 114.21L478.74 114.7L478.4 115.41C482.75 116.73 484.94 117.64 484.97 118.15L484.96 118.7C472.14 115.81 461.58 110.11 453.27 101.61C445.87 95.53 438.63 86.2899 431.56 73.8699C431.56 73.6899 431.46 73.59 431.24 73.59H430.97L430.67 75.1199C430.85 83.1499 430.99 87.85 431.07 89.24L430.63 89.2899C430.66 89.3999 430.81 89.46 431.06 89.46L430.75 91.59L431.13 98C431.18 99.09 431.11 100.17 430.91 101.22C431.95 110.21 432.79 115.42 433.42 116.85L432.2 117.76C431.36 117.78 430.68 116.13 430.16 112.8L430.49 112.75C430 111.65 429.45 108.63 428.85 103.7C428.88 99.95 428.8 96.31 428.61 92.81L428.29 86.3999C428.26 86.0699 428.35 85.89 428.57 85.86L428.2 85.25L428.21 84.81C428.18 84.4399 428.27 84.26 428.49 84.27L428.12 83.61L428.03 82.3999C428.04 82.0399 428.15 81.86 428.37 81.86L428 81.2C427.97 80.84 428.06 80.65 428.28 80.66L427.91 80L427.82 78.7899C427.83 78.4299 427.94 78.25 428.16 78.25L427.73 77.58C427.99 77.04 428.11 76.64 428.08 76.38C427.8 75.87 427.64 75.42 427.61 75.06L427.99 75.07C427.68 73.86 426.85 73.28 425.51 73.33L425.47 72.24L427.49 72.6V72.38C427.17 71.94 427 71.41 426.97 70.78L426.85 68.3699C426.82 68.0099 426.93 67.83 427.19 67.83C426.98 67.35 426.4 64.0799 425.45 58.0099L425.18 58.06L424.3 58.5399L424.21 57.55C424.22 57.22 424.35 57.0399 424.6 57.0099C424.6 56.8999 424.46 56.84 424.17 56.84C424.38 55.31 424.45 54.22 424.39 53.56C424.2 49.84 422.9 43.07 420.49 33.25H420.27C420.58 38.47 420.39 54.24 419.69 80.55C419.72 80.81 419.88 81.19 420.16 81.71C420.19 82.08 420.08 82.25 419.82 82.25C419.88 83.23 420.61 86.8999 422.03 93.2299L422.63 93.24C422.6 93.06 422.44 92.69 422.16 92.14C422.59 90.62 423 86.03 423.39 78.38L424.43 78.34L424.51 80.0399C424.54 80.41 424.45 80.59 424.23 80.58L424.6 81.24C424.16 83.53 423.79 89.03 423.48 97.74C424.68 99.84 426.15 104.24 427.89 110.95L427.01 111.43L426.57 111.48C425.8 111.5 424.7 108.98 423.26 103.93C422.82 103.92 422.47 106.32 422.2 111.13L420.98 111.98L420.43 111.97C420.35 110.55 420.73 107.69 421.57 103.4C421.57 103.22 421.43 103.12 421.14 103.12C421.22 100.83 421.42 99.68 421.75 99.69C420.19 95.32 419.36 92.46 419.28 91.11L418.68 91.1499C418.44 96.4299 418.45 101.12 418.7 105.21L418.37 105.2L418.74 105.86L418.78 106.68C418.77 107.01 418.66 107.19 418.44 107.22L419.37 110.3L419.03 111.11C419.02 111.44 419.36 112.87 420.05 115.39H420.27L420.48 112.55L421.47 112.51L422.03 114.65C421.69 117.42 421.19 118.79 420.53 118.78L420.15 118.83C419.02 118.85 418.07 116.84 417.3 112.82L417.08 112.87C416.74 115.52 416.24 116.86 415.59 116.89L414.77 116.93C412.17 115.68 410.23 107.92 408.95 93.64C408.23 80.72 408.28 74.25 409.08 74.22C409.08 74.11 408.94 74.05 408.65 74.05C409.58 48.43 410.89 35.6 412.57 35.56C412.92 32.39 412.95 28.4 412.68 23.58L413.67 23.05C413.7 23.34 413.79 23.49 413.94 23.49L414.23 22.78L414.24 22.4C414.21 21.93 414 21.7 413.6 21.73L413.69 22.94L412.65 22.92C412.69 18.76 413.15 16.68 414.02 16.65L414.4 16.66C414.73 16.63 415.57 17.27 416.94 18.57C425.9 12.27 433.48 9.03995 439.68 8.88995ZM412.72 42.2599L412.47 44.06L412.91 44.0099C412.15 45.5999 411.84 47.78 411.97 50.56C412.29 51.08 412.45 51.5 412.44 51.83C412.03 52.37 411.77 54.6099 411.66 58.5399L412.04 58.49C410.67 67.76 410.36 79.06 411.1 92.39L411.24 93.9799C411.65 101.43 412.81 108.06 414.71 113.9L415.31 113.91C415.23 112.49 415.7 111.42 416.73 110.71L416.74 110.05L415.48 110.08C415.99 104.22 416.5 94.13 417.01 79.81C415.71 71.07 414.43 60.26 413.16 47.36L413.47 45.34C413.16 44.31 412.98 43.29 412.92 42.27L412.72 42.2599ZM415.1 19.72C415.21 21.58 415.12 22.51 414.83 22.5C414.83 22.65 414.97 22.7 415.26 22.67C414.99 27.33 414.87 29.99 414.9 30.65L415.67 30.23L415.75 31.65C415.77 32.38 415.58 33.16 415.16 33.99L416.47 34.29L416.43 33.2C417.52 29.24 418.05 26.98 418.03 26.39C417.98 25.11 417.07 22.89 415.31 19.72H415.1ZM415.19 35.74L415.6 43.3C415.62 43.92 415.52 44.47 415.3 44.94C415.3 45.12 415.44 45.2 415.73 45.17L415.42 47.3L415.47 47.6799L415.97 50.1C416 50.47 415.89 50.65 415.63 50.64L416.14 52.5099L416.22 54.1499C416.52 59.7699 417.03 64.14 417.74 67.25H417.96C417.82 64.84 417.88 63.64 418.13 63.64C418.13 63.49 417.99 63.44 417.7 63.47C418.09 55.82 418.29 47.11 418.28 37.34C417.48 37.36 417.05 36.83 417 35.73L415.19 35.74ZM417.82 32.51L417.98 35.9H418.2L417.99 32.51H417.82ZM418.4 21.64C418.69 23.65 419.11 24.64 419.66 24.62C419.88 24.62 421.07 23.2 423.24 20.36H423.08C421.38 21.2 419.82 21.63 418.4 21.64ZM418.7 19.78L418.97 19.79C420.51 19.49 421.88 19.33 423.08 19.32L423.13 19.59C428.05 15.81 432.99 13.88 437.95 13.78C440.72 13.72 446.32 14.77 454.74 16.93C450.85 12.41 446.13 10.21 440.58 10.33L439.81 10.75L438.94 10.35C433.31 11.12 426.56 14.19 418.7 19.56V19.78ZM420.37 27.52C421.94 31.67 423.32 37.6199 424.53 45.3699H424.75C424.64 43.5099 424.73 42.58 425.02 42.58C424.99 42.43 424.84 42.38 424.59 42.41C424.71 39.57 424.9 38.15 425.16 38.15C425.16 38 425.02 37.95 424.73 37.98C425.26 32.99 425.41 28.53 425.19 24.59C425.29 22.91 425.69 22.06 426.38 22.04C427 22.12 427.32 22.42 427.35 22.93C428.07 31.51 428.52 37.14 428.69 39.8C428.69 40.06 428.84 40.44 429.16 40.96L428.82 41.77C429.16 43.23 429.34 44.3499 429.36 45.1199L429.03 45.11L429.4 45.77L429.53 47.41C429.52 47.74 429.41 47.8999 429.19 47.8999L429.56 48.56L429.64 50.2C429.67 50.53 429.58 50.69 429.36 50.69L429.73 51.35L430.56 66.24C430.59 66.57 430.99 66.92 431.74 67.3C432.69 66.92 433.17 66.5799 433.18 66.2899C432.63 66.3199 432.35 66.0199 432.32 65.3999L432.23 64.09L436.33 64.38C449.67 54.52 456.08 44.92 455.55 35.57C455.04 31.33 454.29 27.56 453.29 24.26L454.22 24.22C455.06 24.23 456.18 26.79 457.58 31.88C457.46 36.55 457.22 39.51 456.87 40.78L457.29 41.55L457.38 42.81L451.51 52.99C447.11 58.13 442.52 62.3799 437.72 65.7599L437.43 66.47L438.95 67.1499C441.58 66.6099 445.94 63.4499 452.03 57.6499C458.62 51.9299 461.84 47.58 461.67 44.59L462.11 44.5399C462.08 44.4299 461.93 44.3699 461.68 44.3699L461.94 42.24L461.65 37.04C461.4 32.41 459.28 27.66 455.29 22.81C450.59 18.39 445.67 16.22 440.53 16.31L439.76 16.73C439.4 16.72 439.22 16.59 439.22 16.34C429.74 16.57 423.45 20.29 420.37 27.52ZM424.31 69.9299C424.34 70.1899 424.5 70.32 424.8 70.32L424.66 75.24L424.79 77.3699L424.24 77.36C423.66 77.39 423.33 77.09 423.27 76.47C423.5 75.6 423.73 75.15 423.95 75.11L423.58 74.5L423.37 70.83C423.41 70.22 423.73 69.9199 424.31 69.9299ZM424.11 62.71L425.15 62.67C424.77 65.76 424.62 67.8799 424.71 69.0099L423.63 68.5C423.6 67.8 423.77 65.87 424.11 62.71ZM423.95 59.4799L424.94 59.44L425.46 61.2L424.52 61.7299L423.99 60.7899L423.95 59.4799ZM426.45 35.95C426.46 39.71 426.31 41.58 426.02 41.58L426.39 42.24C426.03 43.95 425.71 44.7999 425.41 44.7899L425.78 45.45L425.91 47.4799C425.93 48.0999 425.69 48.4099 425.18 48.3999L425.55 49.06C425.58 49.43 425.49 49.61 425.27 49.6L425.64 50.2599C425.8 53.3999 426.68 59.52 428.26 68.63H428.48L426.61 35.94L426.45 35.95ZM433.52 68.7299V69C433.62 69.48 433.84 69.72 434.16 69.72C434.16 69.47 434.26 69.12 434.45 68.69L433.52 68.7299ZM433.77 73.16V73.4299C434.08 74.1999 435 75.06 436.51 76V75.84C435.37 74.5099 434.78 73.6 434.75 73.13L433.77 73.16ZM436.25 72.28C437.03 73.43 437.44 74.14 437.47 74.44H437.63L437.59 73.89C437.08 73.88 436.8 73.3499 436.74 72.2899L436.25 72.28ZM436.48 77.53C446.43 94.27 459.12 106.36 474.55 113.82H474.82V113.6C467.91 110.27 458.92 102.68 447.83 90.85C442.25 83.06 438.79 78.73 437.45 77.86C436.96 77.61 436.63 77.5 436.48 77.53ZM438.95 71.0099C440.43 73.77 441.37 75.16 441.77 75.16C442.62 74.59 443.39 74.31 444.08 74.33L444.04 73.7299C443.38 73.7599 442.02 72.7299 439.94 70.6499C439.46 70.8999 439.13 71.0199 438.95 71.0099ZM466.47 25.01C466.5 25.56 466.4 25.83 466.18 25.83C467.31 27.93 467.94 30.16 468.08 32.54L468.07 32.92C468.35 37.81 466.63 43.09 462.92 48.74C458.75 57.38 451.65 64.36 441.6 69.69L441.65 70.02L445.75 73.4299C458.48 67.3099 466.55 59.15 469.98 48.92L471.5 40.47C471.5 40.29 471.36 40.19 471.07 40.19L471.38 38.06L471.14 33.3L470.58 31.16L470.96 31.17C469.65 27.06 468.52 25.02 467.57 25.04L466.47 25.01ZM442.83 77.21C455.51 96.18 466.52 107.3 475.87 110.57V110.35L473.07 104.67L473.4 104.62C470.59 100.52 463.94 93.3699 453.44 83.1499C448.42 78.1699 445.77 75.7 445.48 75.7299C443.69 76.35 442.8 76.84 442.83 77.21ZM454.16 18.89C457.21 21.83 458.74 23.73 458.76 24.61L458.98 24.56L458.93 24.29C457.71 20.91 456.29 19.25 454.64 19.29C454.61 19 454.5 18.87 454.32 18.9L454.16 18.89ZM459.48 21.55C460.1 23.57 460.69 25.09 461.26 26.12C462.69 25.49 463.41 24.99 463.42 24.63C461.16 22.58 459.92 21.56 459.7 21.55H459.48ZM462.88 27.14L462 27.12L461.4 26.84C462.93 31.0599 463.79 34.87 463.98 38.26L464.22 42.97L464.44 42.92C465.33 39.95 465.95 36.77 466.31 33.38C466.14 30.61 465.36 28.26 463.98 26.34L462.88 27.14Z" fill="#00FFAB"/>
<path opacity="0.31" d="M518.89 11.9C522.09 12.36 525.64 12.62 529.54 12.69L530.82 14.63C529.82 15.45 526.5 15.81 520.85 15.71L520.81 15.05L519.55 15.03L520.24 16.3C519.8 16.29 519.6 16.51 519.63 16.95C530.64 17.15 538.22 22.28 542.38 32.34L542.44 34.86L541.17 35.44C529.03 27.31 518.53 23.16 509.67 23.01C501.81 24.04 497.7 26.68 497.33 30.94L497.93 30.95C505.35 28.17 510.75 26.8 514.14 26.87L515.4 26.89C526.25 27.74 531.73 31.38 531.83 37.8L532.54 40.93L532.53 41.59L531.27 41.57C530.1 35.82 527.54 32.02 523.6 30.16C520.65 29.82 519.18 29.37 519.19 28.82L517.92 29.4C517.52 29.39 517.3 29.19 517.27 28.79L514.2 29.34C513.87 29.33 512.62 29.11 510.44 28.67C505.91 31.1 503.43 32.32 502.99 32.31C502.97 31.47 502.54 31.04 501.7 31.03L498.63 34.7C500.97 38.17 508.17 43.73 520.21 51.39C533.31 62.78 539.93 72.07 540.06 79.26L539.4 79.25L540.09 80.52L540.12 84.9C540.19 87.27 539.41 90.81 537.8 95.52C538.03 107.3 528.79 115.07 510.09 118.81C507.17 118.76 505.51 118.93 505.1 119.32C496.64 119.17 488.22 114.22 479.82 104.48C478.53 101.43 477.87 99.54 477.84 98.81L477.81 97.55L479.07 97.57C479.17 104.35 485.73 110.53 498.76 116.08C499.37 116.49 501.68 116.95 505.68 117.46C509.87 117.54 515.68 116.18 523.09 113.4L523.1 112.74L523.7 112.75L525 113.43C524.97 112.85 527.03 111 531.17 107.91C533.58 103.91 534.77 101.21 534.76 99.83L534.77 99.17C533.6 99.15 531.97 101 529.86 104.71C529.5 104.7 528.47 105.94 526.78 108.43C521.24 112.49 515.84 114.47 510.59 114.37L506.87 114.3C498.12 114.14 490.53 109.21 484.11 99.51C480.63 92.34 478.86 86.47 478.79 81.91C479.04 78.16 479.64 76.29 480.59 76.31C483.94 78.45 485.64 81.2 485.69 84.55C485.77 87.98 486.23 90.07 487.05 90.81L487.09 91.47C487.08 91.87 486.88 92.07 486.48 92.06C488.6 100.08 498.47 104.64 516.1 105.72L516.7 105.73L517.97 105.15C518.69 105.56 519.53 105.78 520.47 105.8C525.77 103.09 528.64 100.64 529.08 98.46C528.98 91.6 522.18 82.93 508.65 72.44C503.53 71.4 498.46 68.17 493.45 62.76C487.52 57.66 484.51 51.77 484.41 45.09L484.39 43.23C484.26 36.44 491.39 27.18 505.78 15.45C511.57 13.03 515.93 11.85 518.89 11.9ZM488.73 40.13C487.95 43.11 487.55 44.78 487.55 45.14C488.85 53.91 491.63 58.34 495.9 58.42C491.2 51.92 488.83 47.08 488.78 43.91L489.33 40.8L489.34 40.14L488.73 40.13ZM489.73 100.26L489.72 100.86C495.65 107.64 500.71 111.07 504.91 111.14L504.95 111.8C509.94 111.89 515.13 110.52 520.5 107.7L520.51 107.04L517.38 107.64C504.81 107.42 495.59 104.96 489.73 100.26ZM489.93 37.69L489.96 38.89L490.56 38.9C490.54 37.81 491.15 36.58 492.38 35.21L492.35 33.95C491.51 33.94 490.7 35.19 489.93 37.69ZM492.42 38.94C491.64 41.66 491.26 43.53 491.28 44.55C493.4 50.53 497.05 56.45 502.23 62.3C502.8 63.08 507.84 65.46 517.36 69.46C523.53 72.96 527.97 76.8 530.66 80.97C531.5 80.99 531.91 80.35 531.9 79.08C531.78 71.71 528.74 64.37 522.78 57.04C517.9 52.76 513.49 50.58 509.55 50.51L505.78 50.44L503.9 51.66C498.08 49.04 495.13 46.69 495.06 44.61C493.88 40.84 493 38.95 492.42 38.94ZM495.5 34.62C495.52 35.57 495.32 36.4 494.91 37.12C496.48 45.1 499.67 49.13 504.48 49.22L512.63 49.37L512.64 48.71C501.7 42.86 496.18 38.17 496.1 34.63L495.5 34.62ZM495.31 60.92L495.35 61.52C499.61 65.79 502.56 67.94 504.2 67.97C503.1 66.28 500.14 63.93 495.31 60.92ZM516.48 18.09L516.5 20.01L515.24 19.99C514.44 19.98 514.03 19.55 514.01 18.71C508.16 19.44 505.26 20.43 505.32 21.67L508.39 21.12L510.3 21.15C519.84 22.09 529.27 25.59 538.61 31.67L539.21 31.68C536.63 24.96 533.67 21.57 530.31 21.51C529.5 21.9 528.88 22.09 528.44 22.08L527.81 20.81C528.21 20.82 528.41 20.62 528.42 20.22C525.3 19.33 521.32 18.62 516.48 18.09ZM507.7 16.73L507.74 17.33L508.94 17.35C509.75 16.97 510.37 16.77 510.81 16.78L510.82 16.12L510.22 16.11C509.48 16.54 508.64 16.75 507.7 16.73ZM508.58 68.05C513.57 72.3 520.53 76.8 529.45 81.55L529.41 80.95C525.58 77.24 521.15 74.02 516.13 71.3L514.92 71.88L511.09 68.69C510.36 68.28 509.53 68.07 508.58 68.05ZM521.28 79.55L521.27 80.15C527.24 86.53 530.25 90.76 530.29 92.84L530.89 92.85L531.44 89.74L531.39 86.62C529.49 84.33 526.12 81.97 521.28 79.55ZM529.12 63.39L529.16 64.05C531.76 69.53 533.55 77.27 534.54 87.28L537.06 89.84C537.05 88.16 537.67 87.33 538.91 87.36L538.89 85.5L537.63 85.48L537.56 80.45C536.96 75.37 534.36 69.69 529.77 63.41L529.12 63.39ZM531.94 43.42L533.2 43.44L533.22 45.3L531.96 45.28L531.94 43.42ZM533.97 91.64L533.42 94.75L533.45 96.01C533.78 96.02 534.39 95.41 535.29 94.18C534.87 93.44 534.64 92.6 534.62 91.65L533.97 91.64Z" fill="#00FFAB"/>
<path opacity="0.31" d="M559.22 13.72C559.94 16.4 560.29 17.9 560.29 18.22C559.93 18.21 559.74 18.41 559.73 18.81L560.28 18.82L565.38 18.31L565.4 17.22L564.85 14.37L566.01 13.84C566.55 16.22 567.45 17.73 568.72 18.37L569.88 17.84L570.43 17.85C570.83 17.86 571.03 18.04 571.02 18.41L572.12 17.88L573.81 17.91C580.12 18.02 596.65 17.19 623.41 15.41C624.93 16.02 625.69 16.6 625.68 17.15C625.67 17.7 625.1 18.25 623.95 18.82C623.56 18.08 623.37 17.52 623.38 17.11C622.36 17.09 618.05 17.4 610.46 18.03L610.45 18.58C613.07 18.63 614.38 19.21 614.36 20.34L614.35 20.89C613.56 22.41 612.41 23.15 610.92 23.13L610.94 21.98C612.07 22 612.64 21.63 612.66 20.86L601.42 19.56L600.26 20.09C599.9 20.08 599.72 19.9 599.72 19.53L595.77 20.01L591.23 19.93C578.82 20.47 572.61 21.49 572.58 22.99L572.54 25.23C583.48 25.43 599.45 25.33 620.46 24.94L620.99 26.1C620.99 26.39 620.41 26.95 619.26 27.77L613.64 27.12L608.01 27.02C607.17 27 606.42 27.17 605.76 27.53C605.4 27.52 605.22 27.34 605.22 26.97L599.58 27.42L591.71 27.28C590.36 27.26 588.66 27.41 586.62 27.74C586.15 27.37 584.84 27.16 582.69 27.12L579.84 27.62L580.37 31.57L580.33 33.87C580.32 34.24 580.12 34.41 579.72 34.41C579.71 34.78 579.91 34.96 580.31 34.97C579.79 41.74 578.31 50.92 575.88 62.51C576.58 62.16 577.13 61.98 577.53 61.99L606.33 60.21L610.81 60.29C611.58 60.3 611.94 61.08 611.92 62.61L615.86 62.68C616.41 62.69 616.96 63.25 617.53 64.35C617.52 64.9 616.94 65.45 615.8 66.02L615.25 66.01L615.27 64.92C613.95 65.26 613.18 65.43 612.96 65.43C612.56 65.42 612 65.23 611.27 64.85C586.43 69.14 574.01 71.73 573.99 72.6C570.7 87.49 569 97.8 568.89 103.52L569.49 103.53C575.75 104.01 580.62 104.28 584.08 104.34L585.23 104.36C589.57 104.44 603.11 103.55 625.86 101.7L627.5 101.73C628.26 101.85 628.64 102.24 628.63 102.9L608.29 105.32L608.3 104.77C607.93 105.13 604.91 105.46 599.26 105.76L599.25 106.31C602.86 106.37 605.3 106.6 606.57 106.99C609.05 106.67 611.5 106.53 613.91 106.57L616.15 106.61C624.06 106.75 628 107.39 627.98 108.52C627.97 109.07 627.39 109.62 626.25 110.18L624.01 110.14L622.34 108.96C622.33 109.4 621.18 110.33 618.9 111.74C620.39 111.77 621.14 112.15 621.12 112.87C621.1 114 619.78 114.54 617.15 114.5C617.15 114.28 616.6 113.91 615.47 113.37C612.26 113.68 610 114.57 608.69 116.04L607 116.01L608.74 113.8L608.14 113.79C599.73 115.13 592.59 115.75 586.72 115.65L583.88 115.6L581.08 116.1L581.09 115.55L579.93 116.08L569.81 115.9L569.77 118.2L569.17 120.98L568.02 120.96C567.25 120.95 566.71 119.8 566.39 117.54C566.75 117.55 566.94 117.37 566.95 117L564.71 116.96L564.7 117.51C565.05 118.24 565.22 118.81 565.22 119.22L563.56 120.34C563.19 118.84 563.01 117.52 563.03 116.39L561.93 116.92C563.01 119.42 563.55 121.12 563.53 122.04L562.37 122.57L558.5 118.56L558.52 117.41C551.35 118.89 547.75 120.33 547.72 121.76L546.63 121.74L546.64 121.14L547.77 118.92L547.22 118.91C546.56 119.26 545.81 119.43 544.97 119.42L545.5 120.58C545.49 121.35 545.1 121.72 544.33 121.71L543.8 120.55L543.81 120C543.86 117.45 548.39 115.65 557.42 114.61L557.43 114.01L556.93 111.21C554.11 111.92 552.61 112.28 552.43 112.28L552.44 111.68C552.45 111.1 553.78 110.19 556.43 108.96C555.43 101.98 554.97 95.77 555.07 90.34L555.33 75.69C553.42 76.28 552.46 77.21 552.44 78.48C551.71 78.47 551.35 78.08 551.37 77.31L551.38 76.76C551.39 76.29 552.91 75 555.93 72.9L556.06 65.57L556.67 62.19C556.68 61.83 556.5 61.64 556.13 61.63L556.78 56.01L557.05 40.76C557.06 40.4 556.88 40.21 556.51 40.2C556.52 39.84 556.7 39.66 557.07 39.66C556.73 38.34 556.58 36.46 556.62 34.02L556.07 34.01L555.43 36.24L554.88 36.23C554.15 36.22 553.79 35.83 553.81 35.06L553.82 34.51L557.26 28.94L556.78 24.99L556.84 21.6L556.29 21.59C553.26 22.01 551.72 23.11 551.69 24.9L549.99 24.87C550.05 21.48 552.34 19.83 556.86 19.91L556.36 17.11L556.4 14.87C556.42 14.05 557.36 13.68 559.22 13.72ZM561.54 73.49C560.71 77.3 560.22 83.29 560.07 91.46L559.98 96.54C559.95 98.44 560.1 101.26 560.43 105.03C561.17 104.64 561.73 104.45 562.14 104.46L561.64 98.82L561.72 94.34C561.77 91.46 562.28 84.71 563.23 74.07C563.59 74.08 563.78 73.9 563.79 73.53L561.54 73.49ZM560.23 21.61L560.21 22.76L561.27 24.47C563.19 23.01 564.72 22.29 565.85 22.31C565.5 21.57 565.33 21.01 565.33 20.6L564.73 20.59C564.37 20.58 564.18 20.76 564.17 21.13L563.03 20.56L561.33 20.53C560.61 20.63 560.24 20.99 560.23 21.61ZM560.94 106.73L560.92 107.82L561.47 107.83C562.24 107.84 562.62 107.49 562.64 106.76L560.94 106.73ZM561.44 109.53L561.4 111.77C561.8 111.78 562.36 111.99 563.08 112.4L563.1 111.25C562.75 110.52 562.58 109.95 562.58 109.55L561.44 109.53ZM561.63 68.4L561.6 70.1L562.75 70.12C563.48 70.13 563.85 69.76 563.86 68.99L563.9 66.75L563.35 66.74C562.81 66.73 562.23 67.28 561.63 68.4ZM562.34 28.98C562.33 29.82 562.13 30.56 561.75 31.21C562.07 33.66 562.18 37.8 562.07 43.63L562.62 43.64C563.14 37.05 563.41 33.12 563.43 31.84L562.85 30.68C563.26 29.96 563.48 29.4 563.48 29L562.34 28.98ZM561.83 26.73L562.38 26.74C563.15 26.75 563.54 26.38 563.55 25.61L562.95 25.6C562.21 25.73 561.84 26.11 561.83 26.73ZM565.06 35.81C563.73 46.98 562.99 56.72 562.84 65.03C563.57 64.68 564.14 64.51 564.54 64.51L564.7 55.49C564.71 55.13 564.89 54.95 565.26 54.95C565.27 54.59 565.09 54.4 564.72 54.39L565.37 48.77L565.6 35.81H565.06ZM564.6 27.92C564.99 28.62 565.18 29.17 565.17 29.57L566.26 29.59L566.29 27.95L564.6 27.92ZM565.99 75.26C565.98 75.63 566.18 75.81 566.58 75.82L565.91 79.75L565.66 93.86L566.26 93.87C567.61 81.75 568.3 74.62 568.34 72.47L567.74 72.46C567.23 72.44 566.64 73.38 565.99 75.26ZM566.71 68.49L566.7 69.04C568.56 68.78 569.52 67.49 569.56 65.15L569.01 65.14C567.51 65.52 566.75 66.63 566.71 68.49ZM568 27.38C567.94 30.88 567.97 39.14 568.1 52.16C567.64 57.73 567.39 61.48 567.35 63.41L568.5 63.43C569.08 63.44 569.67 61.96 570.28 58.98C570.29 58.62 570.09 58.43 569.69 58.42L570.34 55.59L570.41 51.65C570.47 48.15 570.71 44.96 571.13 42.09C570.48 35.84 570.18 30.95 570.24 27.42L568 27.38ZM567.53 22.89L567.48 25.68L569.72 25.72C569.73 25.32 569.92 24.76 570.3 24.04C569.11 23.29 568.19 22.9 567.53 22.89ZM567.58 20.05L567.55 21.75C568.29 21.4 568.85 21.23 569.26 21.23L569.28 20.08L567.58 20.05ZM569.94 107.99C569.93 108.36 570.11 108.54 570.48 108.55C569.73 109.78 569.34 110.9 569.33 111.92L570.41 112.54L583.37 112.77L589.01 112.27L589 112.87L590.16 112.29L591.86 112.32C605.37 111.43 614.39 110.47 618.93 109.42L618.94 108.87L610.47 108.72L604.83 109.17L604.84 108.62L603.74 109.15C603.38 109.14 603.2 108.96 603.2 108.59C602.8 108.58 602.6 108.76 602.59 109.13C601.32 108.74 593.82 108.06 580.09 107.09C574.09 107.7 570.71 108 569.94 107.99ZM571.13 72.51L571.08 75.35L571.63 75.36L571.68 72.52L571.13 72.51ZM572.42 64.66C571.98 66.62 571.76 67.75 571.76 68.04L572.91 68.06C572.92 67.77 573.12 66.64 573.52 64.68L572.42 64.66ZM573.09 26.93C573.08 27.3 572.88 27.47 572.48 27.47C573.18 31.13 573.47 36.2 573.36 42.69L573.18 52.86C573.14 54.83 572.9 58.02 572.46 62.42L574.15 62.45C576.18 52.79 577.67 42.86 578.62 32.67C578.23 31.93 578.04 31.37 578.05 30.96C578.46 30.35 578.68 29.42 578.7 28.18L578.71 27.58L575.33 26.97C574.59 27.32 574.03 27.49 573.62 27.49C573.64 27.12 573.46 26.94 573.09 26.93ZM575.82 64.17L575.2 65.25L575.16 67.55C598.14 65.16 609.64 63.28 609.66 61.93C589.94 63.48 578.66 64.22 575.82 64.17Z" fill="#00FFAB"/>
<path opacity="0.31" d="M647.39 13.6C650.45 13.66 652.29 24.06 652.9 44.82L652.19 44.8099L652.87 46.35L652.8 50.1799C652.58 62.3199 650.25 79.49 645.8 101.69L645.69 107.76C651.54 110.89 656.33 112.49 660.04 112.56L669.17 112.72L670.69 113.51L671.48 111.99C672.97 112.02 673.71 112.8 673.68 114.33C674.81 114.35 675.83 114.11 676.76 113.62C677.63 114.15 678.62 114.42 679.75 114.44C679.95 113.42 680.47 112.92 681.31 112.94L682.08 112.95C683.3 113.99 684.29 114.52 685.06 114.53C685.83 114.54 691.18 112.62 701.14 108.75L701.11 110.28C696.14 112.71 693.33 113.91 692.68 113.9L692.67 114.67L696.51 113.97L701.81 114.07C702.83 114.23 703.33 114.75 703.31 115.63L703.3 116.4C703.28 117.42 702.51 117.92 700.98 117.89L699.46 117.1C696.74 118.04 688.88 119.41 675.87 121.22C675.43 121.21 673.41 120.92 669.81 120.35C664.52 120.76 660.21 120.94 656.89 120.88L656.9 120.11L655.36 120.85C637.15 119.83 628.07 117.9 628.12 115.06C629.31 113.91 632.86 112.96 638.78 112.19C633.83 107.43 631.53 95.74 631.86 77.11L632.28 53.6C632.29 53.09 632.53 52.84 633 52.85C633.01 52.34 632.78 52.08 632.3 52.07C632.96 41.73 633.87 32.6299 635.03 24.7699C634.53 23.8899 634.3 22.88 634.32 21.75C634.7 18.69 635.5 17.1799 636.7 17.1999C640.74 17.5299 642.73 19.61 642.66 23.43C642.13 24.37 641.86 25.11 641.85 25.66L640.32 25.6299L638.86 24.8399C636.73 29.6899 635.54 39.04 635.29 52.89L634.52 52.88L635.26 54.42C635.23 56.1 634.95 57.3499 634.43 58.1799L635.14 61.2599L634.28 66.55C634.27 67.06 634.52 67.32 635.03 67.33L634.17 72.6199L634.13 74.92C634.09 77.04 634.3 79.83 634.75 83.3L633.96 84.7599C634.36 91.1099 635.5 98.23 637.41 106.1L638.18 106.11C639.16 106.13 639.67 105.63 639.68 104.61C636.74 99.52 635.38 91.4 635.58 80.25L636.4 77.2C636.41 76.7299 636.16 76.4899 635.65 76.4799L636.48 72.67L636.51 71.14C640.7 32.72 644.33 13.55 647.39 13.6ZM634.96 115.17L634.95 115.94C635.97 115.96 636.48 116.22 636.47 116.73C636.98 116.74 637.24 116.49 637.25 115.98C641.28 117.04 644.55 117.59 647.07 117.63L647.84 117.64L647.85 116.93C646.06 116.9 644.56 116.11 643.35 114.55C640.56 115.02 637.76 115.22 634.96 115.17ZM647.97 24.23C644.78 33.58 643.14 40.6399 643.05 45.42C644.07 45.6199 644.57 46.1399 644.55 46.9799C644.53 48.29 643.73 50.05 642.16 52.24C642.67 52.25 642.92 52.51 642.91 53.02L641.37 53.7599C641.36 54.2699 641.61 54.5299 642.12 54.5399C640.96 62.2099 640 73.08 639.24 87.14C639.73 88.5 640.41 92.81 641.3 100.09C642.84 99.39 644.72 93.61 646.92 82.74C646.93 82.23 646.68 81.97 646.17 81.96C647.3 75.93 647.95 68.34 648.11 59.19C648.12 58.68 648.38 58.43 648.89 58.44L648.15 56.95L648.16 56.19C648.17 55.68 648.43 55.43 648.94 55.44C648.95 54.93 648.7 54.67 648.19 54.66L649.02 50.85L649.5 24.28L647.97 24.23ZM643.58 100.89L643.54 103.19L644.31 103.2C644.32 102.65 644.59 101.89 645.12 100.92L643.58 100.89ZM649.65 58.44L649.53 65.27L650.3 65.28C650.89 60.81 651.2 58.04 651.21 56.9799C650.18 57.1199 649.66 57.6 649.65 58.44ZM650.94 114.69L650.93 115.46C655.51 116.56 658.01 117.12 658.45 117.13L659.22 117.14L659.23 116.37C658.79 116.36 656.27 115.81 651.66 114.7L650.94 114.69Z" fill="#00FFAB"/>
<path opacity="0.31" d="M719.08 2.36995L720.39 2.38995C720.97 2.39995 721.33 3.82995 721.46 6.67995C720.89 12.03 720.29 15.0599 719.66 15.78L720.02 16.8799L717.94 23.2399L721 23.29C721.58 23.3 721.9 22.9599 721.95 22.2699L722.02 21.18L721.75 17.9499C722.25 16.5399 722.72 15.8299 723.16 15.8399C724.18 15.8999 725.53 18.07 727.2 22.37C731.61 22.45 733.88 21.23 733.99 18.72C734.41 11.58 735.06 8.01995 735.93 8.03995L736.37 8.04995C737.49 8.79995 738.02 9.69995 737.96 10.76L737.45 11.8399C737.44 12.2099 737.59 12.39 737.88 12.39C737.03 16.9 736.58 19.73 736.52 20.9C737.03 20.91 739.99 20.6199 745.4 20.0199C745.69 20.0199 745.82 20.2099 745.77 20.57C750.12 19.92 754.71 19.45 759.52 19.18L759.46 19.73L760.4 19.1999C770.21 19.0099 776.38 18.5899 778.91 17.9499C779.2 17.9499 779.34 18.14 779.34 18.5L781.54 17.9899L783.34 18.0199C785.71 18.0599 789.4 17.58 794.41 16.58L795.22 17.14C797.6 16.49 799.39 16.1799 800.6 16.1999C801.5 16.9099 802.2 17.2699 802.71 17.28L802.64 18.37C801.65 20.5 799.25 21.54 795.42 21.47C794.84 21.46 794.59 20.91 794.68 19.82C787.84 20.7899 774.3 21.81 754.04 22.86C753.75 22.86 753.61 22.6699 753.61 22.3099L749.17 22.7799L746.98 22.7399C746.1 22.7199 745.19 26.1 744.23 32.86L745.54 32.8799L749.98 32.41L749.92 32.9599C751.79 32.2999 752.98 31.98 753.49 31.98L753.48 32.47L754.42 31.9899L757.92 32.05C758.58 32.06 759.16 31.8899 759.68 31.5299C759.97 31.5299 760.11 31.72 760.11 32.08L773.01 29.6299L773.88 30.1399C775.93 29.4799 777.71 29.1699 779.2 29.1999L784.01 29.29C784.45 29.3 784.86 29.83 785.24 30.9L785.23 31.4499C784.48 32.7899 783.23 34.02 781.5 35.16L781.06 35.15C780.73 35.14 780.2 34.24 779.47 32.44L778.53 32.9199L777.65 32.9C777.36 32.89 777.22 32.73 777.22 32.4C776.62 33.08 765.55 34.49 744 36.62C743.05 36.6 741.72 47.66 740.01 69.8L740.45 69.81C747.32 68.88 751.91 68.06 754.22 67.38C754.51 67.39 754.64 67.5699 754.59 67.9299C760.66 66.9399 765.97 66.49 770.53 66.57L771.32 68.2299L771.31 68.78C771.21 70.35 767.85 72.42 761.24 75L760.88 73.95C760.88 73.66 761.82 72.6 763.67 70.77L763.23 70.7599C756.88 71.0099 751.73 71.45 747.78 72.07L745.16 72.02L743.77 73.09L743.33 73.08C743.04 73.08 742.9 72.89 742.9 72.53C742.31 72.89 741.87 73.06 741.58 73.05L741.52 73.6L743.32 73.63C758.59 73.9 767.97 76.39 771.46 81.08L771.38 82.72C771.33 83.41 771.01 83.75 770.43 83.74L769.99 83.7299C770.09 82.09 764.93 80.03 754.51 77.55C754.22 77.54 754.07 77.7199 754.06 78.09L743.96 76.82C742.86 77.16 741.54 77.32 740.01 77.3L739.13 77.28L739.07 77.83C739.01 79.32 738.78 80.76 738.39 82.14L738.66 85.32C738.65 85.72 738.48 86.27 738.14 86.95L738.41 90.1799L738.16 94.99C738.12 95.35 737.95 95.53 737.66 95.53L738.08 96.58C738.04 96.98 737.86 97.52 737.56 98.21C737.76 99.49 737.93 104.14 738.08 112.17L736.25 113.72C734.79 113.69 734.31 109.04 734.81 99.75L734.98 96.53C735.03 95.7299 734.93 95.02 734.69 94.39C735.03 93.78 735.21 93.07 735.22 92.27L735.38 89.59C735.44 88.5 735.32 87.95 735.03 87.94L735.62 85.27L736.03 77.78C732.49 77.86 729.21 78.88 726.18 80.83C726.62 89.01 726.81 93.66 726.75 94.7899L726.31 94.78C726.72 96.14 727.33 100.98 728.13 109.31L727.69 109.3C728.63 113.95 729.39 116.28 729.97 116.29C730.37 116.3 730.78 116.85 731.2 117.95C731.15 118.5 730.52 119.2 729.3 120.05L727.99 120.03C726.93 120.01 725.96 116.24 725.08 108.71C724.46 108.7 723.94 110.48 723.51 114.04L723.87 115.14C723.86 115.47 723.72 115.63 723.42 115.62L723.7 118.31L723.54 120.99C723.49 121.54 723.03 122.07 722.14 122.61L721.7 122.6C720.13 122.57 719.56 116.84 719.99 105.39L720.24 100.58C720.28 100.22 720.45 100.04 720.74 100.04C720.75 99.6799 720.6 99.49 720.31 99.49C721.28 92.43 722.18 86.72 723.02 82.36C720.29 83.84 718.27 86.14 716.93 89.25L716.87 89.8L717.66 91.3999L717.65 91.95C717.6 92.64 717.28 92.98 716.7 92.97L715.82 92.95C715.17 92.8299 714.52 91.21 713.88 88.1C714.04 85.44 716.41 82.4399 720.99 79.09L721.43 79.1L721.5 78.06C717.65 79.41 714.93 80.62 713.34 81.69C713.48 90.41 713.8 97.91 714.3 104.19L716.19 102.64L716.13 103.19C716.01 105.52 715.97 109.09 715.99 113.91L715.11 114.44L714.24 114.42C713.04 114.4 712.3 111.71 712.03 106.34L711.59 106.33L711.28 111.14C711.22 112.2 711.34 112.73 711.63 112.73L711.09 115.4L710.46 126.16C710.45 126.67 709.98 127.19 709.06 127.72C707.38 127.69 706.15 118.01 705.37 98.67L705.81 98.6799C705.85 98.3499 705.73 98.1899 705.44 98.1799L706.45 63.3L706.89 63.3099L706.53 62.21L707.27 48.2799C707.32 47.4799 707.21 46.77 706.93 46.1399C707.27 45.5299 707.46 44.82 707.51 44.02L707.68 40.8L706.29 41.8699L705.41 41.85L705.13 39.16L705.57 39.1699L705.21 38.07L705.22 37.5199L707.57 34.33L707.89 28.48L708.4 27.4C706.66 27.08 705.84 25.9899 705.94 24.1299L706.88 23.5999L707.75 23.62L708.56 24.18C709.48 15.63 710.3 11.36 711.03 11.37C711.5 11.38 712.06 12.0999 712.69 13.53L712.62 14.62C712.61 14.95 712.47 15.11 712.17 15.0999L712.53 16.1999C711.79 18.8899 711.36 21.3799 711.25 23.6699C711.54 23.6799 711.68 23.86 711.68 24.22L713.88 23.7099L715.19 23.73C716.4 15.18 717.22 10.9099 717.66 10.9199C717.67 10.5599 717.52 10.37 717.23 10.37L717.82 7.69995L718.06 3.43995C718.25 2.71995 718.57 2.35995 719.08 2.36995ZM708.43 83.7299C708.09 90.3999 708.13 95.2299 708.55 98.2299C708.51 98.56 708.34 98.72 708.05 98.71L708.6 104.63L708.16 104.62L709.12 112.19L709.56 112.2L710.14 101.43C710.15 101.1 710.29 100.94 710.59 100.95L710.23 99.85C710.23 99.6 710.44 98.52 710.83 96.63L710.47 95.58C710.77 94.93 710.95 94.2 711 93.3999L710.64 92.35L711.15 91.27C710.79 87.14 710.64 84.28 710.7 82.67C709.23 83.0099 708.47 83.3599 708.43 83.7299ZM709.56 39.22C710.09 40.4 710.32 41.48 710.27 42.46L710.26 42.9499C710.25 43.3199 710.1 43.49 709.81 43.49L710.17 44.5899L708.87 68.14C708.76 69.96 708.77 72.6399 708.89 76.1799L708.45 76.17L708.81 77.27L708.74 78.36C708.73 78.69 708.59 78.85 708.29 78.84C708.53 79.57 708.65 80.12 708.64 80.49C709.7 80.51 710.48 79.45 710.99 77.3L710.71 74.6199L711.37 62.27C711.42 61.47 711.31 60.76 711.03 60.13C711.37 59.52 711.56 58.8099 711.61 58.0099L711.78 54.7899C711.99 51.0399 712.46 45.32 713.18 37.6399L711.43 37.61C710.23 38.33 709.6 38.86 709.56 39.22ZM710.56 29.01L710.54 30.0999L710.75 33.8799L713.81 33.94L714.64 27.5L711.96 27.4499C711.56 27.4499 711.09 27.97 710.56 29.01ZM715.83 37.15L715.66 40.37L715.06 43.5899C715.05 43.9599 715.2 44.1399 715.49 44.1399L714.9 46.8099L714.51 53.2599C714.4 55.2999 714.11 58.16 713.65 61.83L714.01 62.88C714 63.25 713.85 63.4199 713.56 63.4199L713.71 76.28C713.42 76.27 713.27 76.45 713.26 76.82L714.07 77.38C719.95 74.97 723.11 73.77 723.54 73.78L723.56 72.74L723.28 70.05L723.72 70.06C723.36 66.01 722.79 54.9099 722.02 36.7699L715.83 37.15ZM716.81 28.0899C716.77 28.4499 716.89 28.6399 717.18 28.6399L716.59 31.3099L716.5 33.44L722.19 33.54L721.91 30.86L722.16 26.05C720.26 26.02 718.48 26.6999 716.81 28.0899ZM723.57 96.85L723.16 104.34L723.6 104.35C723.61 103.99 723.78 103.46 724.12 102.77C723.98 100.32 723.94 98.35 724.01 96.86L723.57 96.85ZM724.84 26.0999L725.2 27.15L724.53 30.91L724.86 33.5999L725.3 33.61L728.37 33.12L728.36 33.6699L729.24 33.1399L731.48 33.18L731.49 32.6299C731.54 31.8699 731.97 29.19 732.78 24.61C728.56 24.89 725.91 25.3899 724.84 26.0999ZM725.08 36.82L725.94 62.05L726.38 62.0599C726.6 58.0499 728.08 49.6699 730.82 36.9199L725.08 36.82ZM727.12 72.7899C733.64 71.3699 736.92 70.18 736.97 69.19C737.02 68.5 737.19 68.15 737.48 68.16L737.06 67.06C737.4 66.3699 737.57 65.8299 737.58 65.4299C737.62 65.0999 737.5 64.9399 737.21 64.9299C737.72 60.6399 738.13 58.49 738.42 58.5L738.06 57.3999L738.07 56.91C738.11 56.55 738.28 56.3699 738.57 56.3699C738.58 56.0099 738.43 55.82 738.14 55.82C739.66 44.25 740.6 37.8299 740.95 36.5599L737.89 36.51C734.65 36.45 732.99 37.32 732.92 39.0999C732.82 40.4799 730.88 51.7099 727.12 72.7899ZM734.12 33.2099C737.59 32.91 740.09 32.77 741.62 32.8C741.63 32.44 741.51 31.91 741.27 31.2099C741.97 28.74 742.37 26.5999 742.48 24.7799L742.55 23.69L741.24 23.6699C737.41 23.5999 735.46 24.48 735.4 26.3L734.12 33.2099Z" fill="#00FFAB"/>
</g>
</svg>
