<svg width="246" height="130" viewBox="0 0 246 130" fill="none" xmlns="http://www.w3.org/2000/svg">
<g opacity="0.4">
<path opacity="0.31" d="M58.59 6.37L59.68 6.39001C60.19 6.40001 60.4299 7.07999 60.4099 8.42999L61.56 8.45001C64.44 8.50001 67.09 12.94 69.52 21.77L69.51 22.59L68.8 22.58C67.73 21.36 66.6399 18.93 65.5399 15.3C64.0199 12.54 62.68 11.06 61.52 10.85L60.7299 11.98C60.6499 16.43 61.15 22.98 62.24 31.64C62.24 31.9 62.1099 32.02 61.8499 32.02C63.3699 44.96 65.24 66.36 67.4799 96.22L68.57 96.24C68.22 93.57 67.81 88.62 67.36 81.4C67.37 81.11 67.5 80.97 67.75 80.97L67.4 78.99L67.58 68.98C67.59 68.36 67.4699 67.83 67.2299 67.39C67.49 66.92 67.63 66.38 67.64 65.76L67.2899 64.17L67.67 64.18L67.3 63.35L67.31 62.97C67.31 62.72 67.44 62.59 67.7 62.59C67.71 62.3 67.58 62.15 67.33 62.15L67.75 60.19L67.87 53.36C67.87 53.11 68 52.98 68.26 52.98L67.89 52.15C67.89 51.9 68.02 51.77 68.28 51.77C68.28 51.52 68.16 51.39 67.9 51.38C68.49 45.08 69.21 39.63 70.05 35.01C69.8 34.53 69.69 33.98 69.7 33.36L71.37 25.4C71.37 25.15 71.25 25.01 70.99 25.01C71.32 22.61 71.71 21.41 72.15 21.42C72.16 21.13 72.03 20.98 71.77 20.98C72.93 15.42 73.98 12.65 74.93 12.67L76.08 12.69C76.66 12.7 77.26 13.77 77.88 15.89C77.87 16.44 76.9799 17.1 75.2199 17.87C72.0199 29.59 70.24 45.44 69.88 65.41L69.7899 70.6C69.7899 70.86 69.66 70.98 69.4 70.98C69.65 71.53 69.77 71.94 69.76 72.19C70.02 94.11 71.06 105.09 72.89 105.12L73.2299 107.48C73.0499 107.48 72.68 107.87 72.12 108.66C72.37 109.14 72.4799 109.69 72.4699 110.31L73.18 110.32C73.19 109.52 73.47 108.57 74 107.49C73.75 106.98 73.63 106.57 73.64 106.28L75.14 105.16L75.88 106.32L75.5 106.31L75.87 107.14C75.82 109.91 75.03 112.3 73.5 114.32L73.4799 115.14L74.56 119.15L74.18 119.14C75.37 122.12 76.54 125.6 77.71 129.6L77.33 129.59C75.8 129.56 73.65 124.18 70.89 113.45L70.13 113.05L69.42 113.04C68.13 114.07 67.37 114.59 67.15 114.58C63.61 114.52 56.61 107.72 46.13 94.18C34.68 77.71 25.35 62.47 18.13 48.44L17.75 48.43L17.74 48.81C17.83 57.85 18.09 64 18.5 67.26L18.17 67.25C19.24 76.49 20.11 83.06 20.77 86.93L20.39 86.92C22.35 97.53 23.9899 103.96 25.2899 106.21L25.31 105.01L26.08 105.02C26.06 106.26 26.3 107.19 26.8 107.82C26.53 108.36 26.4 108.76 26.4 109.02C26.95 110.89 27.8 112.38 28.94 113.5C29.67 113.51 30.08 110.71 30.18 105.1L30.2 103.9L30.9699 103.91C31.7099 105.2 32.08 106.14 32.07 106.72L31.69 106.71L32.06 107.54C32.06 107.8 31.93 107.92 31.67 107.92L32.0399 108.75L31.9699 112.74C31.9599 113.03 31.83 113.18 31.58 113.17L31.95 113.94C31.92 115.54 31.03 116.33 29.28 116.3C28.51 116.29 27.15 115.2 25.18 113.05C24.54 114.35 23.54 114.99 22.19 114.97C16.03 114.86 12.2 104.93 10.69 85.17C10.31 80.17 9.96997 71.34 9.68997 58.68L10.07 58.69L9.69998 57.92L9.72998 56.34C9.73998 56.05 9.86996 55.9 10.12 55.91L9.74997 55.14L9.75998 54.32C9.75998 54.07 9.88996 53.94 10.15 53.94L9.77997 53.11L10.18 52.3C10.18 52.05 10.06 51.92 9.79996 51.91L10.22 49.89L10.33 43.49C10.33 43.24 10.46 43.11 10.72 43.11L10.35 42.28L10.42 38.29C10.43 37.71 10.57 37.18 10.83 36.71C10.58 36.2 10.46 35.79 10.47 35.5L10.85 35.51C6.23998 26.2 3.69996 21.34 3.23996 20.93C3.16996 24.69 2.87996 26.56 2.36996 26.55L2.73996 27.38L2.57996 36.18C2.53996 38.15 2.64997 39.61 2.87997 40.56C2.58997 42.31 2.42996 44.04 2.39996 45.75L2.19998 56.96C2.18998 57.58 2.30996 58.11 2.54996 58.55C2.53996 58.84 2.40997 58.99 2.15997 58.98L2.50998 60.96L2.26996 74.58C2.24996 75.71 2.34998 77.19 2.56998 79.02L2.16998 79.78L2.51996 81.81C2.50996 82.1 2.37996 82.5 2.11996 83.01L2.77997 89.04L2.39996 89.03L2.76996 89.8L2.75998 90.24C2.54998 101.98 5.13996 110.28 10.52 115.16C12.06 116.46 13.06 117.16 13.49 117.24C14.36 117.26 14.9999 116.21 15.4099 114.1L16.18 113.68L16.55 114.51L15.76 116.08C16.27 116.16 16.52 116.44 16.51 116.91C15.97 118.5 14.95 119.29 13.46 119.26C10.62 119.21 7.29996 115.81 3.51996 109.07C2.07996 106.16 1.03997 100.93 0.409973 93.37L0.789978 93.38C0.059978 93.37 -0.0500391 72.02 0.459961 29.33L0.0899658 28.56C1.28997 20.63 2.10997 16.36 2.55997 15.75L3.70996 15.77C8.61996 20.78 11.06 23.63 11.05 24.33L11.76 24.34L11.77 23.96C12.96 12.24 14.69 6.4 16.95 6.44C18.22 6.86 18.84 7.81001 18.81 9.26001L18.43 9.25C18.91 10.9 19.15 11.96 19.14 12.44L18.76 12.43C19.01 12.73 19.12 13.8 19.08 15.66L20.9799 13.67L23.2199 13.71C24.4399 14.86 25.03 16.48 24.99 18.55L24.9699 19.75C24.9599 20.3 24.7 20.57 24.19 20.56C23.46 20.55 22.99 19.46 22.77 17.31L22.39 17.3C21.88 17.4 21.37 18.07 20.88 19.3C24.87 22.54 28.65 27.41 32.21 33.89C37.66 43.1 43.44 55.22 49.55 70.25C49.88 70.33 52.32 73.31 56.88 79.19C55.59 67.79 54.63 58.04 54.01 49.93L54.39 49.94C54.14 49.46 53.91 48.25 53.69 46.32C53.69 46.07 53.82 45.94 54.08 45.94L53.75 43.09L53.9 34.72C53.91 34.1 53.8099 33.55 53.5999 33.07C53.8299 32.64 53.95 32.11 53.96 31.49L54.01 28.7C54.15 24.69 54.45 22.69 54.88 22.7C54.88 22.45 54.76 22.32 54.5 22.31C54.77 19.36 55.18 17.89 55.7299 17.9C55.7299 17.65 55.6099 17.52 55.3499 17.51C55.3799 15.8 56.2999 13.41 58.0999 10.34C57.8699 8.91 57.76 7.71 57.78 6.72L58.59 6.37ZM8.06998 23.46L8.05997 24.28C8.03997 25.48 9.14999 26.43 11.4 27.13L11.4099 26.36C10.7199 26.35 9.85996 25.53 8.82996 23.91L8.06998 23.46ZM12.6599 39.18L12.55 45.19C12.55 45.45 12.4199 45.57 12.1599 45.57L12.53 46.4L12.12 47.98L12.4699 49.57L12.06 51.15C12.06 51.44 12.18 51.85 12.42 52.36C12.14 53.81 11.9899 55.02 11.9699 55.96L11.93 57.98C11.92 58.56 12.04 59.09 12.28 59.57C12.28 59.83 12.15 59.95 11.89 59.95C12.19 71.7 12.5499 79.05 12.9699 82.01L12.64 82C14.11 97.89 16.0499 107.26 18.4799 110.11C20.1299 111.74 21.12 112.56 21.44 112.57C22.53 112.59 23.4199 111.95 24.0999 110.65C22.0799 107.59 20.09 99.4 18.14 86.09C16.78 78.74 15.86 67.91 15.39 53.6L15.77 53.61L15.4 52.84L15.57 43.6L12.6599 39.18ZM13.2199 29.18L13.21 29.95C14.66 32.27 15.39 33.64 15.38 34.04L16.15 34.05C16.17 32.7 15.1899 31.08 13.2199 29.18ZM16.5399 12.01C15.1999 15.74 14.25 19.99 13.69 24.76L14 25.59C13.77 26.1 13.66 26.5 13.65 26.79C15.12 28.28 15.85 29.35 15.84 30L16.2199 30.01C16.7799 25.03 17.4699 21.05 18.2899 18.07C17.9299 18.06 17.5499 17.66 17.1599 16.85L17.2299 12.86C17.24 12.3 17.0099 12.02 16.5399 12.01ZM18.32 37.7L18.31 38.08L18.99 39.68L17.9 39.66L17.87 41.25C22.34 52.49 32.05 68.01 47.01 87.83C49.32 91.23 52.62 95.15 56.92 99.6L56.9099 100.04L57.2899 100.05L57.3 99.23C50.33 87.18 46.45 80.17 45.64 78.18L46.4099 78.19C48.3599 81.36 50.0699 83.67 51.5399 85.12C52.0299 86.26 52.27 86.92 52.27 87.1L52.65 87.11L52.6599 86.73C49.3599 75.44 46.47 68.86 43.99 66.99C28.46 50.51 19.91 40.75 18.32 37.7ZM19.67 23.28C18.87 27.42 18.45 30.22 18.43 31.68L18.4099 32.88C22.9899 39.56 26.64 44.42 29.36 47.46L43.69 62.92L43.7 62.54C39.23 51.34 33.21 39.76 25.62 27.81C25.4 27.81 24.67 26.99 23.42 25.36L23.39 26.94C22.1 26.94 20.87 25.71 19.67 23.28ZM52.44 77.91L52.43 78.29C55.98 89.69 59.2 98.18 62.09 103.73L62.4699 103.74L62.4799 103.3C61.25 100.94 59.48 94.64 57.19 84.39L52.44 77.91ZM58.03 16.37C57.72 19.58 57.31 21.17 56.8 21.16C56.8 21.42 56.92 21.55 57.18 21.55C56.66 24.2 56.37 26.88 56.33 29.58L56.32 29.96C56.32 30.22 56.19 30.34 55.93 30.34L56.3 31.17L56.27 32.76C55.95 50.8 57.48 68.72 60.88 86.5C62.14 87.43 63.24 89.31 64.17 92.14L64.55 92.15C63.17 71.67 61.12 46.42 58.42 16.39L58.03 16.37ZM61.53 92.51L61.52 92.89C62.79 97.29 64.34 101.33 66.17 105.01L66.1599 105.39L66.5399 105.4L66.55 105.02C66.62 101.52 64.94 97.35 61.53 92.51ZM64.65 107.77L64.64 108.54L65.7199 109.38L65.7299 108.56C65.2599 108.55 65.02 108.29 65.03 107.78L64.65 107.77Z" fill="#00FFAB"/>
<path opacity="0.31" d="M121.44 9.52002C131.83 9.71002 140.32 23.24 146.91 50.12C147.71 54.55 148.24 61.12 148.53 69.84L148.13 70.54C148.34 71.05 148.44 71.44 148.44 71.69L148.06 71.68C148.06 71.94 148.18 72.06 148.44 72.07C148.05 75.35 147.71 76.98 147.42 76.98L147.73 77.75C146.01 86.29 143.21 93.93 139.33 100.68C132.67 112.19 126.55 117.9 120.97 117.8C120.04 118.77 118.24 119.74 115.56 120.71L115.19 119.94L114.42 120.31L114.04 120.3C113.24 120.29 111.78 119.38 109.66 117.6C103.3 116.43 98.3599 114.19 94.8499 110.88C89.4999 104.26 86.15 95.99 84.79 86.09C83.23 77.35 82.71 68.13 83.21 58.44C84.14 41.25 88.01 27.68 94.83 17.74C98.66 13.29 102.7 11.1 106.93 11.17L108.08 11.19C109.47 11.22 111.34 11.61 113.69 12.39L114.46 12.4C116 10.97 118.33 10.01 121.44 9.52002ZM90.55 41.89C90.8 41.89 90.91 42.02 90.87 42.28C90.25 42.27 89.34 45.02 88.15 50.54C88.09 51.56 87.96 52.07 87.74 52.06C87.7 52.32 87.81 52.44 88.06 52.45L87.58 55.07L87.34 59.28C87.34 59.54 87.21 59.66 86.95 59.66L87.27 60.38L87.09 64.53C87.05 64.79 86.9 64.91 86.65 64.91L87.02 65.68C86.97 66.26 86.82 66.77 86.56 67.2L86.87 67.97C86.87 68.23 86.7299 68.61 86.4699 69.11C86.8299 71.52 86.98 73.4 86.92 74.75L86.54 74.74C88.26 90.49 91.48 101.41 96.18 107.51C99.36 111.11 101.66 112.92 103.08 112.94C95.62 105.84 92.3399 93.91 93.2199 77.15L93.5999 77.16L93.29 76.39L93.39 73.77C93.5 71.73 93.77 69.07 94.19 65.8C94.23 65.55 94.12 65.42 93.87 65.41L94.34 63.56C95 50.99 97.1699 40.8 100.85 32.99C102.04 29.58 102.92 27.58 103.47 26.97L101.94 26.94C97.33 26.86 93.54 31.85 90.55 41.89ZM88.5999 35.08L88.59 35.79L88.9699 35.8C88.9799 35.14 89.43 33.77 90.3 31.67C89.72 31.65 89.1499 32.79 88.5999 35.08ZM102.2 14.48L101.43 14.47L100.73 14.07C99.57 15.8 98.75 16.66 98.28 16.65C98.32 16.43 98.21 16.32 97.96 16.32C96.02 18.73 94.09 21.59 92.17 24.91L92.54 25.68L92.53 26.01C91.58 25.99 90.7299 27.75 89.9699 31.27L90.68 31.28C93.12 25.42 97.16 20.82 102.8 17.49C107.11 14.8 109.96 13.46 111.35 13.49C111.4 12.94 110.04 12.54 107.27 12.27C105.19 12.46 103.5 13.19 102.2 14.48ZM93.52 28.71C93.47 29.22 93.04 30.09 92.21 31.31L92.59 31.32C93.1 31.33 93.51 30.59 93.83 29.1L93.89 28.72L93.52 28.71ZM94.79 82.88C96.24 97.78 97.74 105.25 99.31 105.28C99.26 106.08 100.18 107.48 102.08 109.49L102.14 109.11C98.75 102.92 96.43 94.19 95.17 82.89L94.79 82.88ZM101.33 38.7C100.46 38.68 99.08 43.2 97.2 52.24L96.31 68.52L96.5999 70.38L96.2199 70.37L96.53 71.14L96.44 73.05C96.1 79.75 97.5 89.37 100.63 101.9C103.52 109.28 106.36 113 109.13 113.05L109.21 111.9L109.92 111.91C109.87 112.89 110.09 113.39 110.6 113.4C112.14 112.85 114.4 110.75 117.39 107.12C113.68 104.36 110.91 97.23 109.08 85.75C108.3 76.18 108.03 69.12 108.26 64.57L108.42 61.89L108.13 60.02L108.51 60.03L108.2 59.26L108.28 58.11C108.28 57.86 108.41 57.73 108.67 57.73L108.3 56.96L108.78 48.27C108.78 48.02 108.91 47.89 109.17 47.89C109.17 47.64 109.05 47.51 108.79 47.5C109.62 41.79 110.54 36.5 111.54 31.63C109.65 29.34 108.19 28.18 107.17 28.16L106.79 28.15C103.32 31.4 101.51 34.91 101.33 38.7ZM103.03 20.18L103.09 19.8L101.49 20.54L101.86 21.26C99.41 23.51 97.79 25.38 97 26.86C99.06 25.91 100.73 25.45 102 25.47L104.3 25.51C104.32 24.56 105.84 21.8 108.88 17.22L108.5 17.21C107.11 17.19 105.29 18.18 103.03 20.18ZM104.2 113.3L104.14 113.68C104.58 113.69 105.19 113.95 105.99 114.48L106.76 114.49L106.82 114.11C106.13 114.1 105.37 113.83 104.54 113.3H104.2ZM105.78 25.54L106.54 25.94C110.32 22.73 113.81 21.15 117.02 21.21C117.58 20.2 118.23 19.7 118.96 19.71L119.02 19.33C115.62 17.99 113.11 17.31 111.51 17.28C109.74 18.33 107.83 21.09 105.78 25.54ZM108.4 25.97L108.39 26.68C109.6 28.23 110.95 29.02 112.45 29.05C112.51 27.88 113.49 25.88 115.4 23.03L115.02 23.02C112.46 23.59 111.15 24.34 111.1 25.25C109.91 25.74 109.02 25.98 108.4 25.97ZM118.08 22.7C114.89 25.82 113.19 29.19 112.98 32.84L113.35 33.61L113.28 34.37C112.19 34.35 111.11 40.38 110.06 52.47C110.27 52.95 110.37 53.33 110.37 53.62L109.99 53.61L110.36 54.38L110.29 55.47C110.29 55.73 110.16 55.85 109.9 55.85L110.21 56.62C110.21 56.88 110.08 57 109.82 57C110.03 57.51 110.13 57.9 110.13 58.15C110.13 58.4 110 58.53 109.74 58.53L110.04 60.07C108.88 82.22 111.36 97.14 117.5 104.84L118.63 105.63C125.24 95.03 128.9 83.22 129.6 70.22L129.87 64.21C130.31 55.98 128 42.68 122.93 24.32C121.11 23.52 119.5 22.98 118.08 22.7ZM112.27 118.04C112.22 118.7 113.71 119.21 116.73 119.6C117.9 119.15 118.57 118.67 118.72 118.16L112.27 118.04ZM113.19 15.06L113.11 16.21C114.97 16.24 117.2 17.03 119.8 18.57L119.87 17.81C119.11 17.47 117.51 16.44 115.06 14.72L113.19 15.06ZM113.29 113.13L114.06 113.14C115.99 113.17 118.71 111.95 122.22 109.46L122.23 109.08C121.06 109.06 119.94 108.67 118.86 107.92L118.48 107.91L113.29 113.13ZM113.98 114.24L113.97 114.62L115.45 114.65L115.51 114.27L113.98 114.24ZM116.28 113.9L116.27 114.28L116.6 114.29C119.98 113.11 121.67 112.27 121.68 111.76C118.77 113.2 116.97 113.91 116.28 113.9ZM116.65 13.97L116.59 14.35C116.99 14.36 118.47 15.26 121.03 17.05L128.69 22.88C135.55 30.63 140.47 39.94 143.45 50.82L144.22 50.83L144.28 50.45C142.01 36.52 137.39 26.08 130.4 19.13C126.23 15.77 122.01 14.06 117.75 13.98L116.65 13.97ZM117.12 12.07L117.11 12.45C125.35 12.6 131.92 17.02 136.84 25.71L137.22 25.72L137.29 24.96C131.77 15.78 126.69 11.15 122.06 11.07L121.35 11.06C120.52 11.04 119.11 11.38 117.12 12.07ZM119.71 20.48L119.26 21.24C119.25 21.79 120.5 22.3 123.01 22.78L123.02 22.01C121.03 21 119.93 20.49 119.71 20.48ZM125.76 27.38L125.75 28.14C127.78 37.18 129.22 43.03 130.08 45.67L129.68 46.37C130.86 51.86 131.55 58.07 131.75 65C131.71 65.22 131.56 65.33 131.31 65.32L131.6 67.24L131.51 69.15C131.51 69.41 131.38 69.53 131.12 69.53C131.12 69.79 131.22 69.91 131.44 69.92C130.77 82.74 126.98 94.66 120.08 105.65C119.6 105.72 119.34 105.97 119.3 106.4C121.25 107.46 122.86 107.99 124.14 108.02C128.74 103.69 131.37 99.31 132.03 94.87C134.16 88.12 135.39 81.58 135.72 75.24L135.88 72.23C136.55 59.41 133.3 44.45 126.13 27.37L125.76 27.38ZM119.97 115.5L120.74 115.51C121.91 115.13 122.84 114.4 123.51 113.32L122.74 113.31C120.9 114.44 119.98 115.17 119.97 115.5ZM124.96 114.82L125.29 114.83C126.75 114.86 129.55 112.26 133.69 107.05C132.85 107.03 129.94 109.62 124.96 114.82ZM125.63 22.45L129.98 27.07L129.92 27.45L130.3 27.46L130.37 26.7L126.02 22.46L125.63 22.45ZM126.67 111.08L127.05 111.09L128.23 109.58L127.85 109.57C127.48 109.56 127.09 110.06 126.67 111.08ZM129.05 30.11L129.04 30.49C135.29 45.81 138.11 59.22 137.51 70.74L137.37 72.65C137.36 73.23 137.46 73.75 137.67 74.19C137.41 74.62 137.27 75.11 137.26 75.66L136.95 80.58C136.95 80.84 136.82 80.96 136.56 80.96L136.93 81.73L136.87 82.11L136.47 82.87L137.24 82.88L138.99 70.77C138.78 70.29 138.68 69.93 138.68 69.67L139.06 69.68C138.85 69.17 138.75 68.78 138.75 68.53C138.8 67.58 138.84 64.43 138.86 59.07L139.63 59.08L139.62 59.46C139.73 61.65 139.78 62.91 139.77 63.24L139.39 63.23L139.76 64L139.61 66.24L139.75 70.78L139.37 70.77L139.74 71.54L139.73 71.92C139.69 72.18 139.54 72.3 139.29 72.3C139.29 72.56 139.41 72.69 139.67 72.69C139.44 77.39 137.82 84.31 134.81 93.44L134.75 93.82L135.13 93.83C139.62 85.38 142.03 78.09 142.36 71.97L142.74 71.98L142.37 71.21L142.43 70.83C142.43 70.58 142.56 70.45 142.82 70.45L142.45 69.73C142.5 69.22 142.65 68.97 142.9 68.97C143.45 58.41 140.14 46.73 132.97 33.95L132.64 33.94L132.57 34.7C135.85 40.92 138.23 48.66 139.7 57.91L139.32 57.9C138.99 57.89 138.24 55.24 137.06 49.93L137.2 48.02L136.43 48.01L136.52 45.77C135.83 45.61 134.84 43.06 133.54 38.11C130.96 32.79 129.45 30.12 129.05 30.11ZM131.38 28.62L131.37 29.39C131.7 29.4 132.29 29.92 133.15 30.95C132.87 29.89 132.28 29.11 131.38 28.62ZM142.31 86.74C139.92 94.1 137.35 99.74 134.62 103.67L135.39 103.68C137.66 101.21 140.09 95.94 142.67 87.89L142.69 86.74H142.31ZM136.47 83.25C136.42 84.09 136.26 84.71 136 85.1L136.77 85.11L136.86 83.25H136.47ZM139.99 87.85C139.94 88.54 138.65 91.42 136.12 96.48L136.11 96.86L136.49 96.87C138.46 92.86 139.75 89.98 140.36 88.24L140.37 87.86L139.99 87.85ZM143.31 82.99L143.17 84.9L143.55 84.91L143.69 83L143.31 82.99ZM143.44 51.16L144.13 52.32L143.73 53.08L144.49 53.48L144.57 51.95C144.58 51.44 144.33 51.18 143.82 51.17L143.44 51.16ZM144.76 47.79C146.12 55.36 146.44 66.11 145.71 80.02L146.09 80.03C146.56 76.25 146.83 73.46 146.9 71.68C147.33 63.85 146.87 55.89 145.52 47.81L144.76 47.79Z" fill="#00FFAB"/>
<path opacity="0.31" d="M243.46 0.720006L244.33 0.790014L244.19 2.48002C244.18 2.77002 244.04 2.91001 243.74 2.91001L244.11 3.79001C241.6 21.65 239.67 32.85 238.31 37.38L239.13 37.45C241.19 26.4 242.87 20.93 244.18 21.02C244.58 21.03 244.97 21.47 245.36 22.35L245.06 27.1C245.02 27.39 244.85 27.52 244.56 27.47L244.93 28.35L244.91 29.23L244.04 29.16L243.97 30.03L244.84 30.1L244.78 30.48C243.36 50.84 235.61 79.43 221.53 116.26C221.48 117.1 220.85 117.78 219.63 118.3L217.94 118.16C210.15 117.62 204.06 102.27 199.68 72.11L199.17 66.9L199.24 66.03L198.37 65.96C196.75 76.76 195.65 82.14 195.07 82.09L195.44 82.97L195.43 83.41C195.39 83.7 195.24 83.83 194.99 83.79C194.95 84.08 195.07 84.25 195.36 84.29C194.82 87.67 194.41 89.36 194.12 89.35C194.11 89.64 194.26 89.79 194.55 89.8L193.96 91.92L193.59 97.05C193.59 97.34 193.44 97.49 193.14 97.48C193.1 97.74 193.22 97.88 193.52 97.92L192.87 100.86L192.71 103.43C191.78 104.29 191.15 105.26 190.8 106.35C190.86 106.97 191.23 107.85 191.9 108.99C191.51 112.41 190.95 114.1 190.22 114.05C189.38 114 189.01 113.12 189.12 111.4L188.68 111.34C188.58 113.05 188.09 113.88 187.21 113.83L187 117.3C186.95 117.85 186.51 118.09 185.67 118.04C183.41 117.89 180.82 113.98 177.9 106.3L176.23 104.9L176.52 107.04L176.51 107.48C176.47 107.88 176 108.27 175.12 108.66L173.81 108.58C169.31 103.58 166.03 95.31 163.97 83.79C161.72 66.72 160.19 49.81 159.36 33.06L158.18 25.65L157.74 25.64L157.59 27.77C157.3 31.78 157.33 35.37 157.67 38.55L157.23 38.54C157.51 39.09 157.63 39.53 157.59 39.86C157.3 44.08 157.32 47.95 157.66 51.46L157.22 51.45C157.47 51.75 157.62 53.48 157.67 56.65L157.29 56.59C157.44 62.54 158.13 68.91 159.35 75.72C159.06 75.68 158.91 75.8 158.91 76.1C159.6 76.15 160.19 78.06 160.67 81.82L160.61 82.26C160.25 82.25 159.73 81.35 159.07 79.55L159.13 79.17L159.64 78.3C158.77 78.25 157.65 73.58 156.28 64.29L156.72 64.35C155.5 49.27 155.3 35.9 156.13 24.25L157 24.32C157.06 23.12 156.99 21.97 156.79 20.87C157.65 17.75 158.62 16.24 159.72 16.33C159.75 16.91 160.01 17.21 160.52 17.22L160.9 17.28C161.26 15.28 161.92 14.31 162.87 14.36L163.25 14.42C166.27 14.62 169.47 20.15 172.85 31L173.29 31.06C173.44 29.06 173.95 28.08 174.82 28.13C174.88 26.93 174.37 25.75 173.3 24.6L173.44 22.85C173.48 22.56 173.63 22.43 173.88 22.47C173.39 21.37 173.19 20.2 173.29 18.96L173.3 18.52C173.46 17.98 173.77 17.73 174.24 17.77C176.54 21.71 179.84 36.01 184.14 60.67C184.78 63.38 185.32 69.86 185.76 80.12L186.2 80.18L196.84 38.75C196.98 36.89 197.88 34.5 199.54 31.58L199.17 30.7L199.24 29.88C199.36 29.3 199.66 29.03 200.13 29.08C200.94 32.59 202.77 37.17 205.63 42.8C208.12 52.22 210.25 60.84 212 68.68C212.99 74.46 214.19 83.72 215.6 96.48L216.04 96.49C219.22 79.88 220.98 71.13 221.33 70.22C221.37 69.93 221.25 69.76 220.96 69.72C222.52 63.8 223.7 55.42 224.47 44.57L224.85 44.63L224.48 43.69L224.55 42.87C224.59 42.58 224.74 42.44 225 42.44L224.63 41.56L224.92 37.74C224.96 37.45 225.11 37.31 225.37 37.31C225.12 37.23 225.09 35.79 225.28 32.99L224.84 32.98C224.74 34.47 223.88 38.58 222.27 45.3C221.83 45.26 221.42 44.79 221.04 43.91L221.92 43.54L221.55 42.66C222.47 38.12 224.45 30.51 227.48 19.85L228.36 19.48L228.8 19.49C229.75 19.54 230.01 24.01 229.6 32.91L229.16 32.85C229.12 33.14 229.24 33.31 229.53 33.35L228.8 37.6C228.75 38.15 228.88 38.44 229.17 38.48C228.14 44.99 227.48 48.24 227.19 48.24C227.18 48.53 227.33 48.68 227.62 48.68C227.25 51.23 226.86 52.5 226.46 52.49C226.45 52.78 226.6 52.93 226.89 52.94C223.04 70.59 220.84 83.21 220.3 90.78L220.29 91.22L220.43 95.54L219.99 95.53C220.24 95.83 220.36 98.13 220.36 102.43L219.49 102.36L219.7 99.79L219.26 99.78L219.13 101.04L218.31 100.97L218.39 99.28L219.26 99.35L218.9 92L218.52 91.94C217.93 96.2 217.57 99.33 217.42 101.33L217.28 103.08C217.28 103.37 217.13 103.5 216.84 103.46C217.72 107.12 218.16 109.03 218.16 109.17L218.6 109.18L218.61 108.36V102.29L219.48 102.36L219.25 105.8L220.13 105.43C220.38 105.8 220.45 106.8 220.35 108.44L220.79 108.5C221.52 98.12 223.29 87.2 226.08 75.72C226.12 75.43 226 75.26 225.71 75.22L227.76 64.59C227.76 64.34 227.62 64.19 227.33 64.14C228.74 56.87 229.71 49.34 230.25 41.55C230.3 40.89 230.47 40.33 230.77 39.86L230.4 38.98C230.74 38.44 230.91 38.02 230.91 37.73C230.95 37.44 230.83 37.27 230.54 37.23L231.12 35.16L231.19 34.29C231.39 31.08 231.83 26.95 232.51 21.9L232.14 21.02L232.73 18.46L233.1 12.89C233.14 12.6 233.29 12.47 233.54 12.51L233.17 11.63L233.31 9.88001C233.35 9.48001 233.82 9.09002 234.7 8.70002L235.51 9.21L234.86 12.15L233.53 31.43C233.49 31.72 233.34 31.85 233.09 31.81C233.05 32.1 233.17 32.27 233.46 32.31L232.81 35.25L232.51 39.57C232.51 39.86 232.36 39.99 232.07 39.95C232.31 40.54 232.42 40.98 232.37 41.27C232.12 44.8 231.15 52.62 229.43 64.74L229.35 66.05L229.79 66.06C236.05 38.42 239.25 23.44 239.4 21.11L239.84 21.12C239.88 20.87 239.76 20.72 239.46 20.68C241.52 7.32 242.84 0.670006 243.46 0.720006ZM158.62 19.27C158.52 20.69 158.18 21.38 157.6 21.33C157.84 21.92 157.96 22.36 157.96 22.65C159.42 22.39 160.16 22.02 160.17 21.54L158.91 21.41L158.92 21.03L159.87 19.79L159.93 19.35L158.62 19.27ZM160.61 82.26C161.37 82.31 161.88 83.36 162.14 85.4L161.7 85.34C161.04 85.29 160.68 84.27 160.61 82.26ZM161.77 29.83L161.71 30.27C161.61 31.87 161.78 33.46 162.23 35.04C161.93 35.55 161.76 35.96 161.72 36.29L164.86 59.32L165.3 59.33L165.38 58.07C164.26 45.11 163.34 35.72 162.6 29.9L161.77 29.83ZM161.92 27.26L161.77 29.39L162.21 29.4L162.36 27.27L161.92 27.26ZM162.37 20.81L162.29 22.12L163.17 22.14L163.25 20.88L162.37 20.81ZM163.02 60.48L162.94 61.74L163.81 61.81C163.56 61.26 163.44 60.82 163.45 60.49L163.02 60.48ZM163.32 62.23L163.24 63.49C164.98 80.19 167.67 93.02 171.3 101.98C172.86 104.67 173.91 106.04 174.45 106.08L174.52 105.21C171.93 105.02 168.83 94.04 165.21 72.28C165.31 70.82 164.82 67.48 163.75 62.24L163.32 62.23ZM164.41 16.64L164.4 17.08L167.34 42.29C167.63 42.29 167.76 42.44 167.72 42.73L167.28 42.67C167.76 44.5 167.97 45.67 167.93 46.18L167.49 46.17C167.98 47.56 168.42 49.45 168.81 51.83L168.37 51.82L169.7 57.09C169.7 57.35 169.55 57.47 169.26 57.47C172.28 71.78 174.58 86.15 176.14 100.59C176.43 100.59 176.55 100.89 176.51 101.47L177.33 101.54C175.59 90.57 174.35 75.83 173.58 57.33L174.02 57.39C173.78 40.5 172.34 30.34 169.7 26.9C169.2 23.8 167.44 20.37 164.41 16.64ZM166.38 49.93C168.4 69.62 170.11 81.94 171.51 86.89L172.33 86.96C170.91 74.72 169.49 64.43 168.07 56.09C168.12 55.58 167.65 53.97 166.68 51.25L167.19 50.44L167.2 50L166.38 49.93ZM171.15 92.07L171.08 92.89C172.02 95.64 172.46 97.55 172.4 98.6L172.84 98.61L172.85 98.17C172.85 97.92 172.42 95.88 171.54 92.08L171.15 92.07ZM174.74 29.02L174.61 30.28C174.46 32.57 174.92 36.34 175.99 41.57L176.43 41.63L176.44 41.19L175.18 29.02H174.74ZM175.05 42.37L175.03 43.25L175.48 54.91L175.04 54.85C175.53 59.89 176.39 72.16 177.61 91.65L178.48 91.72C178.44 79.8 178.25 72.17 177.91 68.85L178.35 68.91C177.61 55.44 176.65 46.62 175.49 42.44L175.05 42.37ZM178.49 54.68L178.41 56.37C179.54 68.79 179.96 82.89 179.67 98.67L179.66 99.11L179.22 99.05C179.02 97.92 178.95 96.91 179 96.04L178.56 96.03L178.48 97.72C178.39 98.63 178.88 99.68 179.96 100.86C179.96 101.12 179.81 101.24 179.52 101.24C180.01 106.54 181.16 110.49 182.97 113.12C183.15 113.12 183.81 113.88 184.95 115.4L185.39 115.46L185.45 115.02C185.55 113.35 184.67 109.56 182.81 103.65C181.54 80.95 180.25 64.62 178.93 54.68H178.49ZM179 41.79L178.92 43.1L179.73 43.55L179.74 43.17C179.49 42.58 179.39 42.14 179.44 41.85L179 41.79ZM179.29 43.98C179.24 44.67 180.32 51.49 182.53 64.44L182.97 64.45L183.03 64.07C182.23 55.63 181.11 48.94 179.67 43.99L179.29 43.98ZM182.38 67.01L182.37 67.45L182.75 67.46C182.74 67.75 182.6 67.9 182.3 67.89L184.86 105.08L185.68 105.15C185.72 104.86 185.62 104.42 185.38 103.83L185.97 101.27C186.02 100.65 185.92 100.08 185.67 99.57C185.97 99.07 186.14 98.5 186.19 97.88L186.34 95.7C185.63 94.59 185.16 93.13 184.94 91.3L185.59 88.36C185.64 87.48 185.35 85.46 184.71 82.27L184.78 81.4L185.29 80.59C184.49 80.54 183.76 76.61 183.1 68.79C182.81 68.79 182.69 68.49 182.73 67.91C183.02 67.95 183.17 67.83 183.17 67.53L182.38 67.01ZM194.55 53.22C189.42 72.71 186.78 83.58 186.63 85.84C187.27 88.99 187.83 93.32 188.31 98.83L188.75 98.89C191.78 88.44 193.47 80.82 193.81 76.01L193.9 74.26C193.94 73.97 194.11 73.84 194.4 73.89C194.15 73.3 194.04 72.86 194.04 72.57C194.05 72.28 194.19 72.14 194.49 72.14L194.2 70L194.64 63.99C194.68 63.7 194.85 63.57 195.14 63.62L194.72 62.74L195.44 53.29L194.55 53.22ZM189.41 101.54C188.85 104.45 188.43 106.14 188.17 106.6L188.98 107.11L189.78 101.98L189.84 101.54H189.41ZM196.97 49.11L196.74 52.55C196.55 54.95 196.43 58.52 196.38 63.26L196 63.25C196.25 63.44 196.3 64.73 196.15 67.14L196.59 67.15C197.47 62.57 197.99 59.3 198.13 57.33C197.59 52.87 197.35 50.13 197.4 49.11H196.97ZM199.09 37.61C198.72 39.9 198.35 41.03 197.99 40.98C198.63 43.83 198.93 45.72 198.87 46.63L199.31 46.69L200.11 41.56C199.67 39.36 199.48 38.07 199.52 37.67L199.09 37.61ZM200.93 48.09L200.49 54.1C200.48 54.39 200.34 54.52 200.05 54.48L200.42 55.36L200.41 55.8C199.78 64.61 202.37 80.45 208.2 103.31C209.57 106.51 211.25 109.35 213.24 111.82L213.62 111.88L213.25 110.94L213.39 109.25C213.44 108.6 213.63 108.03 213.97 107.57C210.68 104.16 207.75 92.62 205.18 72.95C204.14 67.72 202.87 59.44 201.36 48.1L200.93 48.09ZM202.39 40.02C204.5 54.75 206.04 63.33 207.02 65.76L206.44 67.44L207.32 67.07C207.31 67.36 207.14 67.78 206.81 68.32C208.81 85.09 211.15 96.59 213.85 102.8L214.29 102.86C214.34 102.2 214.53 101.64 214.87 101.17C214.62 100.58 214.51 100.14 214.51 99.85C214.8 99.86 214.95 99.73 214.95 99.47C214.29 99.42 213.63 94.63 212.97 85.1C211.36 71.11 209.06 59.03 206.07 48.88C205.05 46.78 204.1 43.85 203.22 40.08L202.39 40.02ZM220.66 109.75C220.56 111.17 219.95 111.85 218.82 111.8C218.57 111.76 217.76 111.12 216.39 109.9L215.95 109.84L215.58 115.03C217.17 115.71 218.44 116.08 219.39 116.14C220.33 114.81 220.87 112.98 221.02 110.64L221.09 109.82L220.66 109.75ZM220.06 52.04L220 52.42C219.62 55.29 219.23 56.71 218.83 56.67L219.2 57.55C219.15 58.13 218.86 58.4 218.31 58.35L218.68 59.23L218.62 59.67C218.61 60.25 218.31 60.52 217.73 60.47L217.74 60.03C217.89 57.99 218.3 56.45 218.97 55.4L218.6 54.46C219.06 52.81 219.55 51.99 220.06 52.04ZM221.82 45.23L221.75 46.1C221.46 50.11 220.9 52.08 220.06 52.03L219.69 51.15L220.21 49.46L219.84 48.52C220.69 46.33 221.35 45.23 221.82 45.23ZM230.47 69.13C229.94 72.11 228.19 78.59 225.2 88.56C225.19 88.85 225.32 89 225.57 89C224.73 93.03 224.22 96.31 224.03 98.82L224.02 99.26L224.46 99.27L225.43 97.21C225.62 94.66 227.4 85.74 230.78 70.45L230.86 69.14L230.47 69.13ZM226.88 34.44L226.74 36.13L227.18 36.14L227.32 34.45L226.88 34.44ZM237.15 47.21L237.52 48.09C237.21 49.22 236.89 49.77 236.56 49.77L236.93 50.65L232.89 65.4C232.85 65.69 232.97 65.86 233.26 65.9L228.05 90.91L227.97 92.22L228.35 92.23C237.15 65.44 242.03 45.11 243.01 31.23L242.64 30.35C242.98 29.85 243.15 29.43 243.15 29.1C242.49 29.05 240.64 35.09 237.57 47.21H237.15ZM231 67L230.92 68.69L231.36 68.75L231.45 67H231Z" fill="#00FFAB"/>
</g>
</svg>
