<svg width="506" height="118" viewBox="0 0 506 118" fill="none" xmlns="http://www.w3.org/2000/svg">
<g opacity="0.4">
<path opacity="0.31" d="M15.43 0.599974C16.15 3.27997 16.5 4.77997 16.5 5.09997C16.14 5.08997 15.95 5.28997 15.94 5.68997L16.49 5.69997L21.59 5.18997L21.6 4.09997L21.05 1.24997L22.21 0.719974C22.75 3.09997 23.65 4.60997 24.92 5.24997L26.08 4.71997L26.63 4.72997C27.03 4.73997 27.23 4.91997 27.22 5.28997L28.32 4.75997L30.01 4.78997C36.32 4.89997 52.85 4.06997 79.61 2.28997C81.13 2.89997 81.89 3.47997 81.88 4.02997C81.87 4.57997 81.3 5.12997 80.15 5.68997C79.76 4.94997 79.57 4.38997 79.58 3.97997C78.56 3.95997 74.25 4.26997 66.66 4.89997L66.65 5.44997C69.27 5.49997 70.58 6.08997 70.56 7.21997L70.55 7.76997C69.76 9.28997 68.61 10.03 67.12 10.01L67.14 8.85997C68.27 8.87997 68.84 8.50997 68.86 7.73997L57.6 6.43997L56.44 6.96997C56.08 6.95997 55.9 6.77997 55.9 6.40997L51.95 6.88997L47.42 6.79997C35.01 7.34997 28.8 8.36997 28.77 9.85997L28.73 12.1C39.67 12.3 55.64 12.2 76.65 11.81L77.18 12.97C77.17 13.26 76.6 13.82 75.45 14.64L69.83 13.99L64.2 13.89C63.36 13.87 62.61 14.04 61.95 14.4C61.59 14.39 61.41 14.21 61.41 13.84L55.77 14.29L47.9 14.15C46.55 14.13 44.85 14.28 42.81 14.61C42.34 14.24 41.03 14.03 38.88 13.99L36.03 14.49L36.56 18.44L36.52 20.74C36.51 21.11 36.31 21.28 35.91 21.28C35.9 21.65 36.1 21.83 36.5 21.84C35.98 28.61 34.5 37.79 32.07 49.38C32.77 49.03 33.32 48.85 33.72 48.86L62.52 47.08L67 47.16C67.77 47.17 68.13 47.95 68.11 49.48L72.05 49.55C72.6 49.56 73.15 50.12 73.72 51.22C73.71 51.77 73.14 52.32 71.99 52.88L71.44 52.87L71.46 51.78C70.14 52.12 69.37 52.29 69.15 52.29C68.75 52.28 68.19 52.09 67.46 51.71C42.62 56 30.2 58.59 30.18 59.46C26.89 74.35 25.19 84.66 25.08 90.38L25.68 90.39C31.94 90.87 36.81 91.14 40.27 91.2L41.42 91.22C45.76 91.3 59.3 90.41 82.05 88.56L83.69 88.59C84.45 88.71 84.83 89.1 84.82 89.76L64.48 92.18L64.49 91.63C64.12 91.99 61.1 92.32 55.45 92.62L55.44 93.17C59.05 93.23 61.49 93.46 62.76 93.85C65.25 93.53 67.69 93.39 70.1 93.43L72.34 93.47C80.25 93.61 84.2 94.25 84.17 95.38C84.16 95.93 83.58 96.48 82.44 97.04L80.2 97L78.53 95.82C78.52 96.26 77.37 97.18 75.09 98.6C76.58 98.63 77.33 99.01 77.31 99.73C77.29 100.86 75.97 101.4 73.34 101.36C73.34 101.14 72.78 100.77 71.66 100.23C68.45 100.54 66.19 101.43 64.88 102.9L63.19 102.87L64.92 100.66L64.32 100.65C55.91 101.99 48.77 102.61 42.9 102.51L40.06 102.46L37.26 102.96L37.27 102.41L36.11 102.94L25.99 102.76L25.95 105.06L25.35 107.84L24.2 107.82C23.43 107.81 22.89 106.67 22.57 104.4C22.93 104.41 23.12 104.23 23.13 103.86L20.89 103.82L20.88 104.37C21.23 105.1 21.4 105.67 21.4 106.08L19.74 107.2C19.37 105.7 19.19 104.38 19.21 103.25L18.11 103.78C19.2 106.28 19.73 107.98 19.71 108.9L18.55 109.43L14.68 105.42L14.7 104.27C7.53 105.75 3.93 107.19 3.9 108.62L2.81 108.6L2.82 108L3.95 105.78L3.4 105.77C2.74 106.12 1.99 106.29 1.15 106.28L1.68 107.44C1.67 108.21 1.28 108.58 0.51 108.57L0 107.36L0.01 106.81C0.06 104.26 4.59 102.46 13.62 101.42L13.63 100.82L13.13 98.02C10.31 98.73 8.81 99.09 8.63 99.09L8.64 98.49C8.65 97.91 9.98 97 12.63 95.77C11.63 88.79 11.17 82.58 11.27 77.15L11.53 62.5C9.62 63.09 8.66 64.02 8.64 65.29C7.91 65.28 7.55 64.89 7.57 64.12L7.58 63.57C7.59 63.1 9.11 61.81 12.13 59.71L12.26 52.38L12.87 49C12.88 48.64 12.7 48.45 12.33 48.44L12.98 42.82L13.25 27.57C13.26 27.21 13.08 27.02 12.71 27.01C12.72 26.65 12.9 26.47 13.27 26.47C12.93 25.15 12.78 23.27 12.82 20.83L12.27 20.82L11.63 23.05L11.08 23.04C10.35 23.03 9.99 22.64 10.01 21.87L10.02 21.32L13.46 15.75L12.98 11.8L13.04 8.40997L12.5 8.41997C9.47 8.83997 7.93 9.93997 7.9 11.73L6.2 11.7C6.26 8.30997 8.55 6.65997 13.07 6.73997L12.57 3.93997L12.61 1.69997C12.63 0.929974 13.57 0.559974 15.43 0.599974ZM17.75 60.37C16.92 64.18 16.42 70.17 16.28 78.34L16.19 83.42C16.16 85.32 16.31 88.15 16.64 91.91C17.38 91.52 17.94 91.33 18.35 91.34L17.85 85.7L17.93 81.22C17.98 78.34 18.49 71.59 19.44 60.95C19.8 60.96 19.99 60.78 20 60.41L17.75 60.37ZM16.43 8.48997L16.41 9.63997L17.47 11.35C19.39 9.88997 20.92 9.16997 22.05 9.18997C21.7 8.44997 21.53 7.88997 21.53 7.47997L20.93 7.46997C20.57 7.45997 20.38 7.63997 20.37 8.00997L19.23 7.43997L17.53 7.40997C16.82 7.50997 16.44 7.86997 16.43 8.48997ZM17.15 93.61L17.13 94.7L17.68 94.71C18.45 94.72 18.83 94.37 18.85 93.64L17.15 93.61ZM17.65 96.41L17.61 98.65C18.01 98.66 18.57 98.87 19.29 99.28L19.31 98.13C18.96 97.4 18.79 96.83 18.79 96.42L17.65 96.41ZM17.84 55.28L17.81 56.98L18.95 57C19.68 57.01 20.05 56.64 20.06 55.87L20.1 53.63L19.55 53.62C19.01 53.61 18.44 54.16 17.84 55.28ZM18.54 15.86C18.52 16.7 18.33 17.44 17.95 18.09C18.27 20.54 18.38 24.68 18.27 30.51L18.82 30.52C19.34 23.93 19.61 20 19.63 18.72L19.05 17.56C19.46 16.84 19.67 16.28 19.68 15.88L18.54 15.86ZM18.04 13.61L18.59 13.62C19.36 13.63 19.75 13.26 19.76 12.49L19.16 12.48C18.42 12.61 18.05 12.99 18.04 13.61ZM21.27 22.69C19.94 33.86 19.2 43.6 19.05 51.91C19.79 51.56 20.35 51.39 20.76 51.39L20.92 42.37C20.93 42.01 21.11 41.83 21.48 41.83C21.49 41.47 21.31 41.28 20.94 41.27L21.59 35.65L21.82 22.69H21.27ZM20.81 14.8C21.2 15.5 21.39 16.05 21.38 16.45L22.47 16.47L22.5 14.83L20.81 14.8ZM22.2 62.14C22.19 62.51 22.39 62.69 22.79 62.7L22.12 66.63L21.87 80.74L22.47 80.75C23.82 68.63 24.51 61.5 24.55 59.35L23.95 59.34C23.43 59.32 22.85 60.26 22.2 62.14ZM22.92 55.37L22.91 55.92C24.77 55.66 25.73 54.37 25.77 52.03L25.22 52.02C23.72 52.4 22.95 53.51 22.92 55.37ZM24.21 14.26C24.15 17.76 24.18 26.02 24.31 39.04C23.85 44.61 23.6 48.36 23.56 50.29L24.71 50.31C25.29 50.32 25.89 48.84 26.49 45.86C26.5 45.5 26.3 45.31 25.9 45.3L26.55 42.47L26.62 38.53C26.68 35.03 26.92 31.84 27.34 28.97C26.69 22.72 26.39 17.83 26.45 14.3L24.21 14.26ZM23.74 9.76997L23.69 12.56L25.93 12.6C25.94 12.2 26.13 11.64 26.51 10.91C25.32 10.16 24.4 9.77997 23.74 9.76997ZM23.79 6.92997L23.76 8.62997C24.5 8.27997 25.06 8.10997 25.46 8.10997L25.48 6.95997L23.79 6.92997ZM26.15 94.87C26.14 95.23 26.32 95.42 26.69 95.43C25.94 96.66 25.55 97.78 25.54 98.8L26.62 99.42L39.58 99.65L45.22 99.15L45.21 99.75L46.37 99.17L48.07 99.2C61.58 98.31 70.6 97.34 75.14 96.29L75.15 95.74L66.67 95.59L61.03 96.03L61.04 95.48L59.94 96.01C59.58 96 59.4 95.82 59.4 95.45C59 95.44 58.8 95.62 58.79 95.99C57.52 95.6 50.02 94.92 36.29 93.95C30.29 94.58 26.92 94.88 26.15 94.87ZM27.33 59.39L27.28 62.23L27.83 62.24L27.88 59.4L27.33 59.39ZM28.62 51.54C28.18 53.5 27.96 54.63 27.96 54.92L29.11 54.94C29.11 54.65 29.32 53.52 29.72 51.56L28.62 51.54ZM29.3 13.81C29.29 14.18 29.09 14.35 28.69 14.35C29.39 18.01 29.68 23.08 29.57 29.57L29.39 39.74C29.35 41.71 29.11 44.9 28.67 49.3L30.37 49.33C32.4 39.67 33.89 29.74 34.84 19.55C34.45 18.81 34.26 18.25 34.27 17.84C34.68 17.23 34.9 16.3 34.92 15.06L34.93 14.46L31.55 13.85C30.81 14.2 30.25 14.37 29.85 14.37C29.84 14 29.67 13.81 29.3 13.81ZM32.02 51.05L31.4 52.13L31.36 54.43C54.34 52.04 65.84 50.16 65.86 48.81C46.15 50.36 34.87 51.1 32.02 51.05Z" fill="#00FFAB"/>
<path opacity="0.31" d="M145.11 0.459961L146.81 0.489961C147.36 0.569961 147.62 0.869961 147.61 1.37996L147.6 1.75996C143.22 6.19996 137.98 13.79 131.88 24.51C131.21 25.12 129.41 27.79 126.48 32.51C127.54 34.68 128.06 36.11 128.04 36.8C135.54 27.45 140.45 20.72 142.79 16.61C146.84 10.45 150.7 5.82996 154.36 2.75996L156.04 3.66996C149.15 11.61 144.84 17.34 143.1 20.89C140.27 24.38 135.63 30.67 129.2 39.78C130.96 43.49 132.03 45.36 132.44 45.36C133.1 43.37 136.37 38.89 142.25 31.92C142.65 29.92 147.73 23.34 157.48 12.17C159.95 10.54 161.68 9.72996 162.67 9.74996C164.34 10.33 165.17 10.91 165.15 11.49C165.14 12.07 163.41 12.75 159.97 13.53C156.71 16.35 150.47 23.9 141.24 36.17C135.89 43.51 133.2 47.44 133.15 47.95C136.8 53.74 141.04 62.48 145.86 74.16C149.28 82.75 153.24 91.49 157.75 100.36L157.67 102.05C157.66 102.63 157.36 102.92 156.78 102.91C155.54 102.89 153.4 99.29 150.36 92.13L149.92 92.12L149.91 92.56C153.35 100.13 155.04 104.56 154.98 105.83C154.97 106.41 154.55 106.7 153.71 106.68C152.8 106.66 151.31 104.5 149.23 100.2C148.14 100.18 146.9 99.17 145.51 97.18C140.59 92.9 135.68 87.27 130.77 80.29C124.91 69.61 121.69 64.16 121.11 63.93C118.12 67.96 116.62 70.21 116.61 70.69L125.86 85.73C128.46 91.06 133.1 96.96 139.76 103.43C140.51 104.32 141.49 104.77 142.69 104.8L141.11 101.38C141.19 100.8 141.47 100.51 141.95 100.52C141.94 101.18 143.28 103.48 145.98 107.43L145.97 108.25C145.96 108.83 145.66 109.12 145.08 109.11L144.2 109.09C137.34 107.14 129.3 98.05 120.08 81.8C118.17 78.3 116.28 75.3 114.39 72.78C104.4 86.9 96.57 99.81 90.89 111.52C90.29 112.46 89.98 113.31 89.97 114.07L90.8 113.65C91.38 113.73 91.67 114.01 91.66 114.49L91.59 115.36C90.84 116.77 89.67 117.46 88.11 117.43L87.73 117.42C87.15 117.41 86.74 116.54 86.52 114.83C87.36 112.73 89.19 109.08 92.02 103.88C90.6 103.85 89.89 103.55 89.9 102.97L89.99 100.84C90 100.55 90.48 99.14 91.43 96.6L91.44 96.22C89.44 96.18 88.47 95.16 88.54 93.16C88.69 89.04 94.48 78.08 105.92 60.27C106.21 60.27 106.37 59.84 106.38 58.97C87.39 26.01 77.9 8.95996 77.92 7.78996L75.99 2.60996L76.87 2.23996L78.13 2.25996C78.53 2.26996 82.24 9.69996 89.27 24.56C89.95 25.01 94.91 33.19 104.14 49.11C104.13 49.88 105.62 52.18 108.61 56.03L109.05 56.04C109.06 55.53 110.41 53.28 113.11 49.28C113.13 48.4 109.15 40.11 101.2 24.4C98.28 16.44 95.98 9.42996 94.3 3.37996L95.57 2.57996L96.44 2.59996C97.48 3.81996 99.68 9.81996 103.06 20.6C109.19 34.64 113.29 43.08 115.35 45.93L116.7 43.82L116.71 43.38L104.11 14.22C103.35 12.06 102.97 10.9 102.97 10.75C104.12 9.92996 104.98 9.52996 105.56 9.53996C105.55 9.97996 106.11 10.41 107.23 10.83C107.23 11.12 107.08 11.26 106.78 11.26C106.69 13.99 110.61 23.58 118.52 40.02L118.96 40.03C119.21 40.03 120.42 38.07 122.57 34.13L122.58 33.69C116.73 22.5 112.33 14.76 109.38 10.48C109.32 11.61 109.02 12.17 108.47 12.16L108.03 12.15C107.57 9.32996 106.67 6.76996 105.32 4.43996L105.33 3.99996C105.34 3.41996 106.2 3.00996 107.92 2.78996C111.1 6.59996 115.11 13.33 119.97 22.97L119.96 23.41L120.4 23.42L120.41 22.6C118.13 15.63 116.54 8.77996 115.64 2.05996L116.47 1.63996L117.78 1.65996C118.84 1.67996 119.6 4.11996 120.06 8.97996L119.62 8.96996C120.43 10.81 121.43 14.8 122.63 20.95C124.44 25.87 125.34 28.71 125.32 29.48L125.7 29.49L141.06 5.47996C143.59 2.12996 144.93 0.459961 145.11 0.459961ZM107.59 61.54C97.33 78.53 92.14 88.52 92.01 91.51L91.54 93.2C93.11 93.23 96.11 88.6 100.54 79.3C105.78 71.56 108.81 66.36 109.63 63.71C108.93 62.31 108.37 61.59 107.97 61.55L107.59 61.54ZM110.77 67.12C103.82 78.23 97.91 89.06 93.01 99.62L93 100.06L93.44 100.07C93.73 100.04 97.48 94.15 104.7 82.39L113.22 70.62L113.23 70.18C112.21 68.16 111.53 67.14 111.21 67.14L110.77 67.12ZM114.33 51.43C113.68 52.88 112.16 55.27 109.77 58.62C110.87 60.06 111.42 61.06 111.41 61.6L111.79 61.61C111.83 61.17 113.33 58.94 116.29 54.91C115.43 52.6 114.77 51.44 114.33 51.43ZM113.02 63.77C114.29 66.35 115.1 67.64 115.47 67.64C116.81 66.13 118.31 64.03 119.96 61.32C118.62 58.74 117.95 57.31 117.96 57.02C117.63 57.02 115.98 59.27 113.02 63.77ZM117.94 45.54C117.93 45.91 117.48 46.9 116.57 48.52C117.35 49.96 117.73 50.95 117.72 51.49L118.16 51.5C118.52 51.51 119.12 50.68 119.95 49.02L119.97 48.14C118.98 46.41 118.31 45.54 117.94 45.54ZM121.12 51.56L119.77 53.67C119.76 54.43 120.4 56.16 121.7 58.85L122.14 58.86C122.15 58.5 122.75 57.5 123.94 55.88C122.42 53 121.48 51.56 121.12 51.56ZM123.79 36.73C123.79 36.88 122.58 38.84 120.18 42.63C121.24 44.36 121.77 45.5 121.76 46.05L122.2 46.06C124.6 42.2 125.81 39.94 125.82 39.29C124.9 37.58 124.23 36.73 123.79 36.73ZM124.7 58.89C124.69 59.69 124.24 60.39 123.35 61C127.85 70.31 133.37 78.92 139.9 86.84L139.91 86.4C133.01 72.64 128.09 63.47 125.14 58.9L124.7 58.89ZM123.35 48.64C124.75 52.06 125.68 53.77 126.16 53.78C128.26 50.5 129.32 48.53 129.33 47.87C128.03 45 127.39 43.29 127.4 42.75C127.03 42.75 125.69 44.71 123.35 48.64ZM127.37 56.37C131.89 64.4 137.87 75.72 145.3 90.33L145.74 90.34L145.75 89.9C141.61 78.56 136.67 65.69 130.91 51.29C128.69 53.26 127.51 54.95 127.37 56.37Z" fill="#00FFAB"/>
<path opacity="0.31" d="M175.07 4.56L175.81 5.72L175.83 7.58C174.34 7.55 173.58 13.23 173.56 24.6C173.6 26.42 173.46 33.35 173.13 45.38L172.8 45.37C172.8 45.63 172.92 45.75 173.18 45.76L171.65 66.85C171.65 67.11 171.77 67.23 172.03 67.24C171.59 69.46 171.39 72.42 171.43 76.14C171.46 76.4 171.35 76.52 171.1 76.52C171.35 77 171.47 77.37 171.46 77.62L171.11 79.09L171.53 79.86C171.28 81.35 171.05 82.09 170.83 82.09L171.2 82.81L170.86 83.57C171.11 84.01 171.23 84.51 171.22 85.05L170.89 85.04L171.26 85.81L171.25 86.52C171.25 86.78 171.13 86.9 170.92 86.9C170.92 87.16 171.04 87.28 171.3 87.29L170.94 89.14L171.02 93.95C171.06 95.92 171.35 98.15 171.88 100.64L171.5 100.63C172.13 103.85 172.54 105.46 172.73 105.46C172.88 105.46 173.24 106.22 173.84 107.72L173.88 108.49C173.88 108.71 173.75 108.82 173.49 108.81L173.91 109.58L173.89 110.67C173.92 111.04 173.57 111.41 172.83 111.8L173.23 113.67L173.22 114C173.21 114.51 172.97 114.76 172.5 114.75L172.12 114.74C169.88 113.35 167.86 104.03 166.06 86.79L166.07 86.02L165.66 84.54L166.04 84.55L165.67 83.83C165.67 83.58 165.79 83.45 166 83.45C166.01 82.94 165.89 82.68 165.63 82.68C165.78 78.13 165.84 74.79 165.81 72.67L165.68 64.9C165.68 64.65 165.81 64.52 166.07 64.52C166.07 64.27 165.95 64.14 165.69 64.13C166.99 28.53 168.91 10.75 171.46 10.8L172.23 10.81L172.94 11.15C173.26 6.75 173.98 4.54 175.07 4.56ZM171.14 13.02C170.38 16.98 169.92 19.09 169.77 19.34C169.77 19.6 169.89 19.72 170.15 19.73C168.01 39.35 167.1 58.87 167.4 78.31L167.02 78.3L167.44 79.02L167.48 82.74C167.48 83 167.35 83.12 167.09 83.12C167.37 83.6 167.51 83.97 167.51 84.22C167.6 89.07 168.45 95.65 170.05 103.96L170.43 103.97L170.44 103.59C169.88 100.26 169.56 96.68 169.48 92.85L169.47 90.61C169.4 86.23 169.73 76.21 170.45 60.54L170.83 60.55C170.8 60.29 170.67 60.16 170.45 60.16C170.85 56.3 171.21 49.14 171.55 38.68L171.93 38.69C171.93 38.44 171.81 38.31 171.55 38.3L171.86 36.45L171.8 33.49C171.8 33.24 171.93 33.11 172.19 33.11C172.19 32.86 172.07 32.73 171.81 32.72C171.81 32.54 171.92 31.79 172.12 30.48C172.11 29.13 172.14 24.06 172.23 15.28C171.99 13.78 171.62 13.03 171.14 13.02ZM170.47 105.44L170.5 106.92C170.75 107.43 170.87 107.82 170.86 108.08L171.24 108.09L171.25 107.71L170.85 105.46L170.47 105.44ZM189.43 0L191.67 0.04C193.27 0.07 194.89 0.23 196.53 0.51L198.34 0.16C207.27 0.32 214.9 5.65 221.24 16.16C223.31 20.79 224.37 25.39 224.44 29.95L224.47 31.1C224.56 36.13 221.98 43.74 216.73 53.93C213.71 57.81 210.05 61.21 205.77 64.13C205.79 65.22 204.44 66.08 201.73 66.68C196.09 70.22 191.04 72.23 186.58 72.7L182.86 72.63C182.62 78.09 182.29 80.82 181.89 80.82C181.92 81.04 182.05 81.15 182.27 81.15C181.85 84.21 181.67 88.05 181.73 92.68L181.35 92.67L181.77 93.39L181.79 95.25C181.79 95.51 181.66 95.63 181.4 95.63C181.4 95.89 181.52 96.01 181.78 96.02L181.47 97.87L181.52 101.21C181.51 101.68 181.27 101.92 180.8 101.91L180.03 101.9C180.04 101.61 180.13 100.39 180.31 98.24C180.33 97.4 180.21 96.78 179.96 96.37C180.14 94.26 180.23 92.53 180.22 91.18L180.11 85.22C180.11 84.97 180.24 84.84 180.5 84.84C180.47 84.58 180.34 84.45 180.12 84.45L181.37 72.6L180.66 72.59C180.15 72.65 179.91 72.9 179.94 73.34C179.94 73.59 180.06 73.72 180.32 73.73L179.95 76.29L180.06 82.25C180.09 82.72 179.85 82.96 179.34 82.95C178.87 82.94 178.61 82.7 178.59 82.23L178.43 72.93L177.72 72.92C176.88 73.09 176.23 78.89 175.77 90.33L176.14 91.1C175.91 91.53 175.8 92.02 175.79 92.57L175.82 94.05C176.36 94.64 176.62 95.14 176.61 95.54C176.38 96.27 176.13 96.63 175.88 96.62C176.13 97.06 176.52 98.56 177.06 101.13C176.83 101.6 176.72 101.96 176.71 102.22C176.71 102.48 176.83 102.61 177.09 102.61L176.78 104.46C177.47 108.78 178.12 111.14 178.73 111.55L178.74 113.79C178.77 114.26 178.53 114.5 178.02 114.49C176.78 114.47 175.48 110.74 174.12 103.32C173.67 89.82 173.41 81.76 173.35 79.13C173.53 75.23 173.63 72.88 173.64 72.08C173.35 71.78 173.22 71.18 173.23 70.27L173.56 70.28L173.17 67.65L173.88 67.66C175.45 43.37 176.21 29.4 176.16 25.75C176.16 25.5 176.28 25.13 176.51 24.66C176.51 24.41 176.39 24.28 176.13 24.27L177.72 8.71L177.67 5.37C177.67 5.12 177.79 4.99 178 4.99L177.63 4.22L178.3 0.57L179.07 0.58L179.22 10.59L179.99 10.22L180.32 10.23L180.35 11.32C179.62 11.31 179.14 11.92 178.89 13.15L179.29 15.02L179.28 15.4L178.97 17.64L179.34 18.36C179.37 18.61 179.26 18.74 179.01 18.74L179.44 22.47L179.6 31.77C179.59 32.32 179.73 32.81 180.01 33.25C180.01 33.51 179.88 33.63 179.62 33.63C180.24 39.88 180.6 46.32 180.7 52.96L180.35 54.43C180.35 54.65 180.47 54.76 180.73 54.76L180.42 56.61L180.45 61.1C180.47 62.12 180.37 63.49 180.16 65.2C180.16 65.42 180.28 65.53 180.54 65.53L180.23 67.38V70.39C181.8 70.42 182.68 63.74 182.89 50.36C183.53 45.16 183.75 36.87 183.56 25.48L183.38 14L182.99 11.37L183.32 11.38C183.32 11.16 183.2 11.05 182.94 11.05L183.3 9.2L183.31 8.82L182.91 6.95L182.53 6.94C182.55 7.71 182.07 8.32 181.07 8.77L180.72 10.24C180.25 10.23 179.99 9.97 179.97 9.46C181.76 5.3 183.58 3.23 185.44 3.27C186.65 2.82 187.5 1.98 188 0.74C188.35 0.75 188.83 0.5 189.43 0ZM175.38 66.2L175.39 68.77L175.77 68.78L175.71 66.21L175.38 66.2ZM176.55 49.87C176.33 51.84 176.05 56.53 175.7 63.97L175.69 64.74L176.07 64.75L176.93 50.27L176.94 49.89L176.55 49.87ZM176.54 47.3L176.57 48.78L176.9 48.79L176.87 47.31L176.54 47.3ZM178.4 47.33C178.49 54.26 178.3 57.72 177.83 57.71C177.83 57.97 177.95 58.1 178.21 58.1C177.76 61.05 177.45 65.13 177.28 70.34L178.81 70.7L178.76 70.37C178.73 68.18 178.76 62.24 178.86 52.54L178.73 47.34L178.4 47.33ZM183.55 1.37C184.02 1.45 184.27 1.71 184.3 2.15L184.33 3.63L183.95 3.62C183.48 3.36 183.1 3.22 182.81 3.22L182.83 2.13C182.87 1.62 183.11 1.36 183.55 1.37ZM182.89 71.54L184.75 71.57L188.82 70.55L188.77 70.17C188.48 70.16 187.24 70.01 185.06 69.72L185.07 68.95L186.92 69.37L187.3 69.38L186.88 68.66L186.89 68.28C188.38 68.78 189.13 69.16 189.17 69.42C193.95 69.5 198.94 65.27 204.17 56.73L203.79 56.72C201.06 58.64 197.13 60.3 192 61.7C191.32 63.15 188.4 65.94 183.26 70.08C182.98 70.5 182.86 70.99 182.89 71.54ZM189.52 3.72L189.53 3.34C189.09 3.33 187.36 4.05 184.35 5.49C184.69 10.82 184.88 14.78 184.9 17.37L185.14 28.53C185.3 38.09 184.77 51.06 183.57 67.45L183.9 67.46C185.89 66.15 188.08 63.96 190.47 60.91C190.25 60.91 190.13 60.78 190.09 60.52C193.66 58.47 196.56 53.45 198.78 45.47C199.4 43.33 199.83 40 200.05 35.48C199.8 35 199.68 34.62 199.69 34.32L200.07 34.33L199.65 33.61L199.66 33.23C199.61 30.17 199.05 25.84 197.98 20.24C200 23.7 201.08 29.52 201.22 37.69C201.34 45.35 198.87 52.74 193.82 59.87C196.56 59.63 200.59 57.48 205.91 53.41C207.35 50.15 208.06 47.43 208.03 45.24L207.94 41.19C207.68 33.16 202.45 23.04 192.24 10.83L187.34 6.26C187.38 5.79 187.63 5.55 188.06 5.56C190.81 6.56 195.34 11.34 201.64 19.92C201.67 20.36 202.43 21.48 203.93 23.3C203.93 23.56 203.81 23.68 203.6 23.68C207.64 30.13 209.73 37.46 209.88 45.67L210.26 45.68C210.69 42.15 210.9 39.67 210.89 38.25L210.82 36.06C210.67 26.14 207.43 16.8 201.09 8.04C200.61 8.25 200.25 8.35 199.99 8.35L199.19 7.24C199.2 6.88 199.57 6.52 200.3 6.17L201.07 6.18C205.24 9.32 208.69 16.42 211.41 27.48C211.97 30.55 212.41 33.66 212.72 36.8C212.54 40.95 212.09 44.54 211.38 47.55C215.04 42.95 216.82 38.02 216.73 32.77C216.56 24.05 211.2 14.57 200.67 4.31C198.72 3.29 197.47 2.77 196.92 2.77L192.82 2.7C191.55 2.66 190.45 3.01 189.52 3.72ZM202.87 3.96C212.94 13.77 218.06 23.89 218.24 34.32C218.32 39.9 214.98 46.51 208.2 54.16C208.22 55.33 205.3 59.23 199.46 65.87L199.51 66.25C213.93 57.03 221.02 45.89 220.78 32.83C220.53 32.35 220.41 31.98 220.42 31.73L220.8 31.74C220.71 26.49 219.01 20.77 215.69 14.58C210.39 7.56 206.11 4.02 202.87 3.96ZM201.37 2.07L201.36 2.45C202.16 2.46 204.16 3.12 207.34 4.42C207.31 3.84 205.45 3.06 201.75 2.08L201.37 2.07ZM208.1 4.77C214.36 9.48 218.53 15.62 220.62 23.21C221.42 25.38 221.87 29.83 221.97 36.58L222.35 36.59C222.81 33.42 223.02 31.59 223 31.08C222.81 19.11 217.85 10.34 208.1 4.77Z" fill="#00FFAB"/>
<path opacity="0.31" d="M255.9 2.23003C264.03 2.08003 270.28 5.44003 274.64 12.3C275.73 12.28 278.09 13.97 281.71 17.35L283.69 16.95C286.97 16.86 288.83 20.87 289.27 28.97C290.26 46.67 281.75 59.61 263.74 67.78L263.78 68.44C282.74 86.76 292.32 97.65 292.51 101.12C293.09 101.09 293.71 102.31 294.36 104.76L294.35 105.25L293.73 106.33C294.02 106.3 294.42 106.71 294.91 107.55L294.96 108.04L294.62 108.75C298.97 110.07 301.16 110.98 301.19 111.49L301.18 112.04C288.36 109.15 277.8 103.45 269.49 94.95C262.09 88.87 254.85 79.63 247.78 67.21C247.78 67.03 247.68 66.93 247.46 66.93H247.19L246.89 68.46C247.07 76.49 247.21 81.19 247.29 82.58L246.85 82.63C246.88 82.74 247.03 82.8 247.28 82.8L246.97 84.93L247.35 91.34C247.4 92.43 247.33 93.51 247.13 94.56C248.17 103.55 249.01 108.76 249.64 110.19L248.42 111.1C247.58 111.12 246.9 109.47 246.38 106.14L246.71 106.09C246.22 104.99 245.67 101.97 245.07 97.04C245.1 93.28 245.02 89.66 244.83 86.15L244.51 79.74C244.48 79.41 244.57 79.23 244.79 79.2L244.42 78.59L244.43 78.15C244.4 77.78 244.49 77.6 244.71 77.61L244.34 76.95L244.25 75.74C244.26 75.38 244.37 75.2 244.59 75.2L244.22 74.54C244.19 74.17 244.28 73.99 244.5 74L244.13 73.34L244.04 72.13C244.05 71.77 244.16 71.59 244.38 71.59L243.95 70.93C244.21 70.39 244.33 69.99 244.3 69.73C244.02 69.21 243.86 68.77 243.83 68.41L244.21 68.42C243.9 67.21 243.08 66.63 241.73 66.68L241.69 65.59L243.71 65.95V65.73C243.39 65.29 243.22 64.75 243.19 64.13L243.07 61.72C243.04 61.35 243.15 61.17 243.41 61.18C243.2 60.7 242.62 57.43 241.67 51.36L241.4 51.41L240.52 51.89L240.43 50.9C240.44 50.57 240.57 50.39 240.82 50.36C240.82 50.25 240.68 50.19 240.39 50.19C240.6 48.66 240.67 47.57 240.61 46.91C240.42 43.19 239.12 36.42 236.71 26.6H236.49C236.8 31.82 236.61 47.59 235.91 73.9C235.94 74.16 236.1 74.54 236.38 75.06C236.41 75.43 236.3 75.61 236.04 75.6C236.1 76.59 236.83 80.25 238.25 86.58L238.85 86.59C238.82 86.41 238.66 86.04 238.38 85.49C238.81 83.97 239.22 79.38 239.61 71.73L240.65 71.69L240.73 73.39C240.76 73.76 240.67 73.94 240.45 73.93L240.82 74.59C240.38 76.88 240.01 82.38 239.7 91.09C240.9 93.19 242.37 97.59 244.11 104.3L243.23 104.78L242.79 104.83C242.02 104.85 240.92 102.33 239.48 97.28C239.04 97.27 238.69 99.67 238.42 104.48L237.2 105.33L236.65 105.32C236.57 103.9 236.95 101.04 237.79 96.75C237.79 96.57 237.65 96.47 237.36 96.47C237.44 94.17 237.64 93.03 237.97 93.03C236.41 88.66 235.58 85.81 235.5 84.45L234.9 84.49C234.66 89.77 234.67 94.46 234.92 98.55L234.59 98.54L234.96 99.2L235 100.02C234.99 100.35 234.88 100.53 234.66 100.56L235.59 103.64L235.25 104.45C235.24 104.78 235.58 106.21 236.27 108.73H236.49L236.71 105.89L237.69 105.85L238.25 107.99C237.91 110.76 237.41 112.13 236.75 112.12L236.37 112.17C235.24 112.19 234.29 110.18 233.52 106.16L233.3 106.21C232.96 108.87 232.46 110.21 231.81 110.23L230.99 110.27C228.39 109.02 226.45 101.25 225.17 86.97C224.45 74.05 224.5 67.58 225.3 67.56C225.3 67.45 225.16 67.39 224.87 67.39C225.8 41.77 227.11 28.94 228.79 28.9C229.14 25.73 229.17 21.74 228.9 16.92L229.89 16.39C229.92 16.68 230.01 16.83 230.16 16.83L230.45 16.12L230.46 15.74C230.43 15.27 230.22 15.04 229.82 15.07L229.91 16.28L228.87 16.26C228.91 12.1 229.36 10.02 230.24 9.99003L230.62 10C230.95 9.97003 231.79 10.61 233.16 11.91C242.11 5.61003 249.7 2.38003 255.9 2.23003ZM228.93 35.61L228.68 37.41L229.12 37.36C228.36 38.95 228.05 41.13 228.18 43.91C228.5 44.43 228.66 44.85 228.65 45.18C228.24 45.72 227.98 47.96 227.87 51.89L228.25 51.84C226.88 61.11 226.57 72.41 227.31 85.74L227.45 87.33C227.86 94.78 229.02 101.42 230.92 107.25L231.52 107.26C231.44 105.84 231.91 104.77 232.95 104.06L232.96 103.4L231.7 103.43C232.21 97.57 232.72 87.48 233.23 73.16C231.93 64.42 230.65 53.61 229.38 40.71L229.69 38.69C229.38 37.66 229.2 36.64 229.14 35.62L228.93 35.61ZM231.31 13.06C231.42 14.92 231.33 15.85 231.04 15.84C231.04 15.99 231.18 16.04 231.47 16.01C231.2 20.67 231.08 23.33 231.11 23.99L231.88 23.57L231.96 24.99C231.98 25.72 231.79 26.5 231.37 27.33L232.68 27.63L232.64 26.54C233.73 22.58 234.27 20.32 234.24 19.73C234.19 18.45 233.28 16.23 231.52 13.06H231.31ZM231.4 29.09L231.81 36.65C231.83 37.27 231.73 37.82 231.51 38.28C231.51 38.46 231.65 38.54 231.94 38.51L231.63 40.64L231.68 41.02L232.18 43.44C232.21 43.81 232.1 43.98 231.84 43.98L232.35 45.85L232.43 47.49C232.73 53.11 233.24 57.48 233.95 60.59H234.17C234.03 58.18 234.09 56.98 234.34 56.98C234.34 56.83 234.2 56.78 233.91 56.81C234.3 49.16 234.5 40.45 234.49 30.68C233.69 30.7 233.26 30.17 233.21 29.07L231.4 29.09ZM234.03 25.85L234.19 29.24H234.41L234.2 25.84L234.03 25.85ZM234.61 14.98C234.9 16.99 235.32 17.98 235.87 17.96C236.09 17.96 237.28 16.54 239.45 13.7H239.29C237.59 14.54 236.03 14.97 234.61 14.98ZM234.92 13.12H235.19C236.73 12.82 238.1 12.66 239.3 12.65L239.35 12.92C244.27 9.14003 249.21 7.21003 254.17 7.12003C256.94 7.06003 262.54 8.11003 270.96 10.26C267.07 5.74003 262.35 3.54003 256.8 3.66003L256.03 4.08003L255.16 3.68003C249.53 4.45003 242.78 7.52003 234.92 12.89V13.12ZM236.58 20.87C238.15 25.02 239.53 30.97 240.74 38.72H240.96C240.85 36.86 240.94 35.93 241.23 35.94C241.2 35.79 241.05 35.74 240.8 35.77C240.92 32.93 241.11 31.51 241.37 31.51C241.37 31.36 241.23 31.31 240.94 31.34C241.47 26.35 241.62 21.89 241.4 17.95C241.5 16.28 241.9 15.43 242.59 15.4C243.21 15.48 243.53 15.78 243.56 16.29C244.28 24.87 244.73 30.5 244.9 33.16C244.9 33.42 245.05 33.8 245.37 34.32L245.03 35.13C245.37 36.59 245.55 37.71 245.57 38.48L245.24 38.47L245.61 39.13L245.74 40.77C245.73 41.1 245.62 41.26 245.4 41.26L245.77 41.92L245.85 43.56C245.88 43.89 245.79 44.05 245.57 44.05L245.94 44.71L246.77 59.6C246.8 59.93 247.2 60.28 247.95 60.66C248.91 60.28 249.39 59.94 249.39 59.65C248.84 59.68 248.56 59.38 248.53 58.76L248.44 57.45L252.54 57.74C265.88 47.88 272.29 38.28 271.76 28.93C271.25 24.69 270.5 20.92 269.5 17.62L270.43 17.58C271.27 17.6 272.39 20.15 273.79 25.24C273.67 29.91 273.43 32.87 273.08 34.14L273.5 34.91L273.59 36.17L267.72 46.35C263.32 51.49 258.73 55.74 253.93 59.12L253.64 59.83L255.16 60.51C257.8 59.97 262.15 56.81 268.24 51.01C274.83 45.29 278.05 40.94 277.88 37.95L278.32 37.9C278.29 37.79 278.14 37.73 277.89 37.73L278.15 35.6L277.86 30.4C277.61 25.77 275.49 21.02 271.5 16.17C266.8 11.75 261.88 9.58003 256.74 9.67003L255.97 10.09C255.61 10.08 255.43 9.95003 255.43 9.70003C245.95 9.91003 239.67 13.63 236.58 20.87ZM240.53 63.27C240.56 63.53 240.72 63.66 241.02 63.66L240.88 68.58L241.01 70.72L240.46 70.71C239.88 70.74 239.55 70.44 239.49 69.82C239.72 68.95 239.95 68.5 240.17 68.47L239.8 67.86L239.59 64.19C239.63 63.57 239.94 63.26 240.53 63.27ZM240.33 56.05L241.37 56.01C240.99 59.1 240.84 61.22 240.93 62.35L239.85 61.84C239.82 61.14 239.98 59.21 240.33 56.05ZM240.17 52.82L241.16 52.78L241.67 54.54L240.73 55.07L240.2 54.13L240.17 52.82ZM242.67 29.29C242.68 33.05 242.53 34.92 242.24 34.92L242.61 35.58C242.25 37.29 241.93 38.14 241.63 38.13L242 38.79L242.13 40.82C242.15 41.44 241.91 41.75 241.4 41.74L241.77 42.4C241.8 42.77 241.71 42.94 241.49 42.94L241.86 43.6C242.02 46.74 242.9 52.86 244.48 61.97H244.7L242.83 29.28L242.67 29.29ZM249.74 62.07V62.34C249.84 62.82 250.06 63.06 250.38 63.06C250.38 62.81 250.48 62.46 250.67 62.03L249.74 62.07ZM249.98 66.5V66.77C250.29 67.54 251.21 68.4 252.72 69.34V69.18C251.58 67.85 250.99 66.94 250.96 66.47L249.98 66.5ZM252.46 65.62C253.24 66.76 253.65 67.48 253.68 67.78H253.84L253.8 67.23C253.29 67.22 253.01 66.69 252.95 65.63L252.46 65.62ZM252.7 70.87C262.65 87.6 275.34 99.7 290.77 107.16H291.04V106.94C284.13 103.61 275.14 96.03 264.05 84.19C258.47 76.4 255.01 72.07 253.67 71.2C253.17 70.96 252.84 70.84 252.7 70.87ZM255.17 64.35C256.65 67.11 257.59 68.5 257.99 68.5C258.84 67.93 259.61 67.65 260.3 67.67L260.26 67.07C259.6 67.1 258.24 66.07 256.16 63.99C255.68 64.24 255.35 64.36 255.17 64.35ZM282.68 18.36C282.71 18.91 282.61 19.18 282.39 19.18C283.52 21.28 284.15 23.51 284.29 25.89L284.28 26.27C284.56 31.16 282.84 36.44 279.13 42.09C274.96 50.73 267.86 57.71 257.81 63.04L257.86 63.37L261.96 66.78C274.69 60.66 282.76 52.49 286.19 42.27L287.71 33.82C287.71 33.64 287.57 33.54 287.28 33.54L287.59 31.41L287.35 26.65L286.79 24.51L287.17 24.52C285.86 20.41 284.73 18.37 283.78 18.39L282.68 18.36ZM259.05 70.55C271.73 89.52 282.74 100.64 292.09 103.91V103.69L289.29 98.01L289.62 97.96C286.81 93.86 280.16 86.71 269.66 76.49C264.64 71.51 261.99 69.04 261.7 69.07C259.9 69.69 259.02 70.19 259.05 70.55ZM270.38 12.23C273.43 15.17 274.96 17.07 274.98 17.95L275.2 17.9L275.15 17.63C273.93 14.25 272.51 12.59 270.86 12.63C270.83 12.34 270.72 12.21 270.54 12.24L270.38 12.23ZM275.69 14.89C276.31 16.91 276.9 18.43 277.47 19.46C278.9 18.83 279.62 18.33 279.63 17.97C277.37 15.92 276.13 14.9 275.91 14.89H275.69ZM279.09 20.48L278.22 20.46L277.62 20.18C279.15 24.4 280.01 28.21 280.2 31.6L280.44 36.31L280.66 36.26C281.55 33.29 282.17 30.11 282.53 26.72C282.36 23.95 281.58 21.6 280.2 19.68L279.09 20.48Z" fill="#00FFAB"/>
<path opacity="0.31" d="M306.43 5.81996C307.15 8.49996 307.5 9.99996 307.5 10.32C307.14 10.31 306.95 10.51 306.94 10.91L307.49 10.92L312.59 10.41L312.61 9.31996L312.06 6.46996L313.22 5.93996C313.76 8.31996 314.66 9.82996 315.93 10.47L317.09 9.93996L317.64 9.94996C318.04 9.95996 318.24 10.14 318.23 10.51L319.33 9.97996L321.03 10.01C327.34 10.12 343.87 9.28996 370.63 7.50996C372.15 8.11996 372.91 8.69996 372.9 9.24996C372.89 9.79996 372.32 10.35 371.17 10.91C370.78 10.17 370.59 9.60996 370.6 9.19996C369.58 9.17996 365.27 9.48996 357.68 10.12L357.67 10.67C360.29 10.72 361.6 11.31 361.58 12.44L361.57 12.99C360.78 14.51 359.63 15.25 358.14 15.23L358.16 14.08C359.29 14.1 359.86 13.73 359.88 12.96L348.64 11.66L347.48 12.19C347.12 12.18 346.94 12 346.94 11.63L342.99 12.11L338.45 12.03C326.04 12.57 319.82 13.59 319.8 15.09L319.76 17.33C330.7 17.53 346.67 17.43 367.68 17.04L368.21 18.2C368.2 18.49 367.63 19.05 366.48 19.87L360.86 19.22L355.23 19.12C354.39 19.11 353.64 19.27 352.98 19.63C352.62 19.62 352.44 19.44 352.44 19.07L346.8 19.52L338.93 19.38C337.58 19.36 335.88 19.51 333.83 19.84C333.36 19.47 332.05 19.26 329.9 19.22L327.05 19.72L327.58 23.67L327.54 25.97C327.53 26.34 327.33 26.51 326.93 26.51C326.92 26.88 327.12 27.06 327.52 27.07C327 33.84 325.52 43.02 323.09 54.61C323.79 54.26 324.34 54.09 324.74 54.09L353.54 52.31L358.02 52.39C358.79 52.4 359.15 53.18 359.13 54.71L363.07 54.78C363.62 54.79 364.17 55.35 364.74 56.45C364.73 57 364.16 57.55 363.01 58.12L362.46 58.11L362.48 57.02C361.16 57.36 360.39 57.53 360.17 57.53C359.77 57.52 359.21 57.33 358.48 56.95C333.64 61.24 321.22 63.83 321.2 64.7C317.91 79.59 316.21 89.9 316.11 95.62L316.71 95.63C322.97 96.11 327.84 96.38 331.3 96.44L332.45 96.46C336.79 96.54 350.33 95.65 373.08 93.8L374.72 93.83C375.48 93.95 375.86 94.34 375.85 95L355.51 97.42L355.52 96.87C355.15 97.23 352.13 97.56 346.48 97.86L346.47 98.41C350.08 98.47 352.52 98.7 353.79 99.09C356.28 98.77 358.72 98.63 361.13 98.67L363.37 98.71C371.28 98.85 375.23 99.49 375.2 100.62C375.19 101.17 374.62 101.72 373.47 102.28L371.23 102.24L369.56 101.06C369.55 101.5 368.41 102.42 366.12 103.84C367.61 103.87 368.36 104.25 368.34 104.97C368.32 106.1 367 106.64 364.37 106.59C364.37 106.37 363.81 106 362.69 105.47C359.48 105.78 357.22 106.67 355.92 108.14L354.22 108.11L355.96 105.9L355.36 105.89C346.95 107.23 339.81 107.85 333.94 107.75L331.1 107.7L328.3 108.2L328.31 107.65L327.15 108.18L317.03 108L316.99 110.3L316.39 113.08L315.24 113.06C314.47 113.05 313.93 111.91 313.61 109.64C313.97 109.65 314.16 109.47 314.17 109.1L311.93 109.06L311.92 109.61C312.27 110.35 312.44 110.91 312.44 111.32L310.78 112.44C310.41 110.94 310.23 109.62 310.25 108.49L309.15 109.02C310.24 111.52 310.77 113.22 310.75 114.14L309.59 114.67L305.72 110.66L305.74 109.51C298.57 110.98 294.97 112.43 294.94 113.86L293.85 113.84L293.86 113.24L294.99 111.02L294.44 111.01C293.78 111.36 293.03 111.53 292.19 111.52L292.72 112.68C292.71 113.45 292.32 113.82 291.55 113.81L291.02 112.65L291.03 112.1C291.08 109.55 295.61 107.75 304.64 106.71L304.65 106.11L304.15 103.31C301.33 104.02 299.83 104.38 299.65 104.38L299.66 103.78C299.67 103.2 301 102.29 303.65 101.06C302.64 94.08 302.19 87.87 302.29 82.44L302.55 67.79C300.64 68.38 299.68 69.31 299.66 70.58C298.93 70.57 298.57 70.18 298.59 69.41L298.6 68.86C298.61 68.39 300.13 67.1 303.15 65L303.28 57.67L303.89 54.29C303.9 53.93 303.72 53.74 303.35 53.73L304 48.11L304.27 32.86C304.28 32.5 304.1 32.31 303.73 32.3C303.74 31.94 303.92 31.76 304.29 31.76C303.95 30.44 303.8 28.56 303.84 26.12L303.29 26.11L302.65 28.34L302.1 28.33C301.37 28.32 301.01 27.93 301.03 27.16L301.04 26.61L304.48 21.04L304 17.09L304.06 13.7L303.51 13.69C300.48 14.11 298.94 15.21 298.91 17L297.21 16.97C297.27 13.58 299.56 11.93 304.08 12.01L303.58 9.20996L303.62 6.96996C303.63 6.14996 304.57 5.78996 306.43 5.81996ZM308.75 65.59C307.92 69.4 307.43 75.39 307.28 83.56L307.19 88.64C307.16 90.54 307.31 93.36 307.64 97.13C308.38 96.74 308.94 96.55 309.35 96.56L308.85 90.92L308.93 86.44C308.98 83.56 309.49 76.81 310.44 66.17C310.8 66.18 310.99 66 311 65.63L308.75 65.59ZM307.43 13.71L307.41 14.86L308.47 16.57C310.39 15.11 311.92 14.39 313.05 14.41C312.7 13.68 312.53 13.11 312.53 12.7L311.93 12.69C311.57 12.68 311.38 12.86 311.37 13.23L310.23 12.66L308.54 12.63C307.82 12.74 307.44 13.1 307.43 13.71ZM308.15 98.83L308.13 99.92L308.68 99.93C309.45 99.94 309.83 99.59 309.85 98.86L308.15 98.83ZM308.65 101.63L308.61 103.87C309.01 103.88 309.57 104.09 310.29 104.5L310.31 103.35C309.96 102.61 309.79 102.05 309.79 101.64L308.65 101.63ZM308.84 60.5L308.81 62.2L309.96 62.22C310.69 62.23 311.06 61.86 311.07 61.09L311.11 58.85L310.56 58.84C310.02 58.83 309.44 59.39 308.84 60.5ZM309.54 21.08C309.52 21.92 309.33 22.66 308.95 23.31C309.27 25.76 309.38 29.9 309.27 35.73L309.82 35.74C310.34 29.15 310.61 25.22 310.63 23.94L310.05 22.78C310.46 22.06 310.67 21.5 310.68 21.1L309.54 21.08ZM309.04 18.83L309.59 18.84C310.36 18.85 310.75 18.48 310.76 17.71L310.16 17.7C309.42 17.83 309.05 18.21 309.04 18.83ZM312.27 27.91C310.94 39.08 310.2 48.82 310.05 57.13C310.79 56.78 311.35 56.61 311.75 56.61L311.91 47.59C311.92 47.23 312.1 47.05 312.47 47.05C312.48 46.69 312.3 46.5 311.93 46.49L312.58 40.87L312.81 27.91H312.27ZM311.81 20.03C312.2 20.73 312.39 21.28 312.38 21.68L313.47 21.7L313.5 20.06L311.81 20.03ZM313.2 67.37C313.19 67.74 313.39 67.92 313.79 67.93L313.12 71.86L312.87 85.97L313.47 85.98C314.82 73.86 315.51 66.73 315.55 64.58L314.95 64.57C314.43 64.54 313.85 65.48 313.2 67.37ZM313.92 60.6L313.91 61.15C315.77 60.89 316.73 59.6 316.77 57.26L316.22 57.25C314.72 57.62 313.96 58.74 313.92 60.6ZM315.21 19.49C315.15 22.99 315.18 31.25 315.31 44.27C314.85 49.84 314.6 53.59 314.56 55.52L315.71 55.54C316.29 55.55 316.89 54.07 317.49 51.09C317.5 50.73 317.3 50.54 316.9 50.53L317.55 47.7L317.62 43.76C317.68 40.26 317.92 37.07 318.34 34.2C317.69 27.95 317.39 23.06 317.45 19.53L315.21 19.49ZM314.74 14.99L314.69 17.78L316.93 17.82C316.94 17.42 317.13 16.86 317.51 16.13C316.32 15.39 315.4 15 314.74 14.99ZM314.79 12.15L314.76 13.85C315.5 13.5 316.06 13.33 316.47 13.33L316.49 12.18L314.79 12.15ZM317.15 100.09C317.14 100.45 317.32 100.64 317.69 100.65C316.94 101.88 316.55 103 316.54 104.02L317.62 104.64L330.58 104.87L336.22 104.37L336.21 104.97L337.37 104.39L339.06 104.42C352.57 103.53 361.59 102.56 366.13 101.51L366.14 100.96L357.66 100.81L352.02 101.25L352.03 100.7L350.93 101.23C350.57 101.22 350.39 101.04 350.39 100.67C349.99 100.66 349.79 100.84 349.78 101.21C348.51 100.82 341.01 100.14 327.28 99.17C321.29 99.8 317.92 100.1 317.15 100.09ZM318.33 64.61L318.28 67.45L318.83 67.46L318.88 64.62L318.33 64.61ZM319.62 56.76C319.18 58.72 318.96 59.85 318.96 60.14L320.11 60.16C320.11 59.87 320.32 58.74 320.72 56.78L319.62 56.76ZM320.3 19.03C320.29 19.4 320.09 19.57 319.69 19.57C320.39 23.23 320.68 28.3 320.57 34.79L320.39 44.96C320.35 46.93 320.12 50.12 319.67 54.52L321.36 54.55C323.39 44.89 324.88 34.96 325.83 24.77C325.44 24.03 325.25 23.47 325.26 23.06C325.67 22.45 325.89 21.52 325.91 20.28L325.92 19.68L322.54 19.07C321.8 19.42 321.24 19.59 320.84 19.59C320.85 19.22 320.67 19.04 320.3 19.03ZM323.02 56.27L322.4 57.35L322.36 59.65C345.34 57.26 356.84 55.38 356.86 54.03C337.15 55.58 325.87 56.33 323.02 56.27Z" fill="#00FFAB"/>
<path opacity="0.31" d="M412.8 6.63999C416 7.09999 419.55 7.35999 423.45 7.42999L424.73 9.36999C423.73 10.19 420.41 10.55 414.76 10.45L414.72 9.78999L413.46 9.76999L414.15 11.04C413.71 11.03 413.51 11.25 413.54 11.69C424.55 11.89 432.13 17.02 436.29 27.09L436.35 29.61L435.08 30.19C422.94 22.06 412.44 17.91 403.58 17.76C395.72 18.79 391.61 21.43 391.24 25.69L391.84 25.7C399.26 22.92 404.66 21.55 408.05 21.62L409.31 21.64C420.16 22.49 425.64 26.13 425.74 32.55L426.45 35.68L426.44 36.34L425.18 36.32C424.01 30.57 421.45 26.77 417.51 24.91C414.56 24.57 413.09 24.12 413.1 23.57L411.83 24.15C411.43 24.14 411.21 23.94 411.18 23.54L408.11 24.09C407.78 24.08 406.53 23.86 404.35 23.42C399.82 25.86 397.34 27.07 396.9 27.06C396.88 26.22 396.45 25.79 395.61 25.78L392.54 29.44C394.88 32.91 402.08 38.47 414.12 46.13C427.22 57.52 433.84 66.81 433.97 74L433.31 73.99L434 75.26L434.03 79.64C434.1 82.01 433.32 85.55 431.71 90.27C431.94 102.05 422.7 109.82 404 113.56C401.08 113.51 399.42 113.68 399.01 114.07C390.55 113.92 382.13 108.97 373.73 99.23C372.44 96.18 371.78 94.29 371.75 93.56L371.72 92.3L372.98 92.32C373.08 99.1 379.64 105.28 392.67 110.83C393.28 111.24 395.59 111.7 399.59 112.21C403.78 112.29 409.59 110.93 417 108.15L417.01 107.49L417.61 107.5L418.91 108.18C418.88 107.6 420.94 105.76 425.08 102.66C427.49 98.66 428.68 95.96 428.67 94.58L428.68 93.92C427.51 93.9 425.88 95.75 423.77 99.47C423.41 99.46 422.38 100.7 420.69 103.19C415.15 107.25 409.75 109.23 404.5 109.13L400.78 109.06C392.03 108.9 384.44 103.97 378.02 94.27C374.54 87.1 372.77 81.23 372.7 76.67C372.95 72.92 373.55 71.05 374.5 71.07C377.85 73.21 379.55 75.96 379.6 79.31C379.68 82.74 380.14 84.83 380.96 85.57L381 86.23C380.99 86.63 380.79 86.83 380.39 86.82C382.51 94.84 392.38 99.4 410.01 100.48L410.61 100.49L411.88 99.91C412.6 100.32 413.44 100.54 414.38 100.56C419.68 97.85 422.55 95.4 422.99 93.22C422.89 86.36 416.08 77.69 402.56 67.2C397.44 66.16 392.37 62.93 387.36 57.52C381.44 52.42 378.42 46.53 378.32 39.85L378.3 37.99C378.17 31.21 385.3 21.95 399.69 10.21C405.48 7.75999 409.84 6.57999 412.8 6.63999ZM382.64 34.86C381.86 37.84 381.46 39.51 381.46 39.87C382.76 48.64 385.54 53.07 389.81 53.15C385.11 46.65 382.74 41.81 382.69 38.64L383.24 35.53L383.25 34.87L382.64 34.86ZM383.64 94.99L383.63 95.59C389.56 102.37 394.62 105.8 398.82 105.87L398.86 106.53C403.85 106.62 409.04 105.25 414.41 102.43L414.42 101.77L411.29 102.37C398.72 102.16 389.5 99.69 383.64 94.99ZM383.84 32.42L383.87 33.62L384.47 33.63C384.45 32.54 385.06 31.31 386.29 29.94L386.26 28.68C385.42 28.68 384.61 29.92 383.84 32.42ZM386.33 33.67C385.55 36.39 385.17 38.26 385.19 39.28C387.31 45.26 390.96 51.18 396.14 57.03C396.71 57.81 401.75 60.19 411.27 64.19C417.44 67.69 421.88 71.53 424.57 75.7C425.41 75.71 425.82 75.08 425.81 73.81C425.69 66.44 422.65 59.1 416.69 51.77C411.81 47.49 407.4 45.31 403.46 45.24L399.69 45.17L397.81 46.39C391.99 43.77 389.04 41.42 388.97 39.34C387.79 35.58 386.91 33.68 386.33 33.67ZM389.42 29.35C389.44 30.3 389.24 31.13 388.83 31.85C390.4 39.83 393.59 43.86 398.4 43.95L406.55 44.1L406.56 43.44C395.62 37.59 390.1 32.9 390.02 29.36L389.42 29.35ZM389.22 55.66L389.26 56.26C393.52 60.53 396.47 62.68 398.11 62.71C397.02 61.01 394.05 58.66 389.22 55.66ZM410.39 12.83L410.41 14.75L409.15 14.73C408.35 14.72 407.94 14.29 407.91 13.45C402.06 14.18 399.16 15.17 399.21 16.41L402.28 15.87L404.19 15.9C413.73 16.84 423.16 20.34 432.5 26.42L433.1 26.43C430.52 19.71 427.56 16.32 424.2 16.26C423.39 16.65 422.77 16.84 422.33 16.83L421.7 15.56C422.1 15.57 422.3 15.37 422.31 14.97C419.21 14.06 415.23 13.35 410.39 12.83ZM401.61 11.47L401.65 12.07L402.85 12.09C403.66 11.7 404.28 11.51 404.72 11.52L404.73 10.86L404.13 10.85C403.4 11.28 402.55 11.48 401.61 11.47ZM402.49 62.79C407.48 67.04 414.44 71.54 423.36 76.29L423.32 75.69C419.48 71.97 415.06 68.76 410.04 66.04L408.83 66.62L405 63.43C404.27 63.02 403.44 62.8 402.49 62.79ZM415.19 74.28L415.18 74.88C421.16 81.26 424.16 85.49 424.2 87.57L424.8 87.58L425.35 84.47L425.3 81.35C423.4 79.06 420.03 76.71 415.19 74.28ZM423.03 58.13L423.07 58.79C425.67 64.27 427.46 72.01 428.45 82.02L430.97 84.58C430.96 82.9 431.58 82.08 432.82 82.1L432.8 80.24L431.54 80.22L431.47 75.19C430.87 70.11 428.27 64.43 423.68 58.15L423.03 58.13ZM425.85 38.16L427.11 38.18L427.13 40.04L425.87 40.02L425.85 38.16ZM427.88 86.38L427.33 89.49L427.36 90.75C427.69 90.76 428.3 90.15 429.2 88.92C428.78 88.18 428.55 87.34 428.53 86.39L427.88 86.38Z" fill="#00FFAB"/>
<path opacity="0.31" d="M481.8 7.87005C485 8.33005 488.55 8.59005 492.45 8.66005L493.73 10.6001C492.73 11.4201 489.41 11.7801 483.76 11.6801L483.72 11.0201L482.46 11.0001L483.15 12.2701C482.71 12.2601 482.51 12.4801 482.54 12.9201C493.55 13.1201 501.13 18.2501 505.29 28.3201L505.35 30.8401L504.08 31.4201C491.94 23.2901 481.44 19.1401 472.58 18.9901C464.72 20.0201 460.61 22.6601 460.24 26.9201L460.84 26.9301C468.26 24.1501 473.66 22.7901 477.05 22.8501L478.31 22.8701C489.16 23.7201 494.64 27.3601 494.74 33.7801L495.45 36.9101L495.44 37.5701L494.18 37.5501C493.01 31.8001 490.45 28.0001 486.51 26.1401C483.56 25.8001 482.09 25.3501 482.1 24.8001L480.83 25.3801C480.43 25.3701 480.21 25.1701 480.18 24.7701L477.11 25.3201C476.78 25.3101 475.53 25.0901 473.35 24.6501C468.82 27.0901 466.34 28.3001 465.9 28.2901C465.88 27.4501 465.45 27.0201 464.61 27.0101L461.54 30.6701C463.88 34.1401 471.08 39.7001 483.12 47.3601C496.22 58.7501 502.84 68.0401 502.97 75.2301L502.31 75.2201L503 76.4901L503.03 80.8701C503.1 83.2401 502.32 86.7801 500.71 91.5001C500.94 103.28 491.7 111.05 473 114.8C470.08 114.75 468.42 114.92 468.01 115.31C459.55 115.16 451.13 110.21 442.73 100.47C441.44 97.4201 440.78 95.5301 440.75 94.8001L440.72 93.5401L441.98 93.5601C442.08 100.34 448.64 106.52 461.67 112.07C462.28 112.48 464.59 112.94 468.59 113.45C472.78 113.53 478.59 112.17 486 109.39L486.01 108.73L486.61 108.74L487.91 109.42C487.88 108.84 489.94 107 494.08 103.9C496.49 99.9001 497.68 97.2001 497.67 95.8201L497.68 95.1601C496.51 95.1401 494.88 96.9901 492.77 100.7C492.4 100.69 491.38 101.93 489.69 104.42C484.15 108.48 478.75 110.46 473.5 110.37L469.78 110.3C461.03 110.14 453.44 105.21 447.02 95.5101C443.54 88.3401 441.77 82.4701 441.7 77.9101C441.95 74.1601 442.55 72.2901 443.5 72.3101C446.85 74.4501 448.55 77.2001 448.6 80.5501C448.68 83.9801 449.14 86.0701 449.96 86.8101L450 87.4701C449.99 87.8701 449.79 88.0701 449.39 88.0601C451.51 96.08 461.38 100.64 479.01 101.72L479.61 101.73L480.88 101.15C481.6 101.57 482.44 101.78 483.38 101.8C488.68 99.0901 491.55 96.6401 491.99 94.4601C491.89 87.6001 485.08 78.9301 471.56 68.4401C466.44 67.4001 461.37 64.1701 456.36 58.7601C450.44 53.6601 447.42 47.7701 447.32 41.0901L447.3 39.2301C447.17 32.4401 454.3 23.1801 468.69 11.4501C474.49 9.00005 478.85 7.82005 481.8 7.87005ZM451.65 36.1001C450.87 39.0801 450.47 40.7501 450.47 41.1101C451.77 49.8801 454.55 54.3101 458.82 54.3901C454.12 47.8901 451.75 43.0501 451.7 39.8801L452.25 36.7701L452.26 36.1101L451.65 36.1001ZM452.65 96.2301L452.64 96.8301C458.57 103.61 463.63 107.04 467.83 107.11L467.87 107.77C472.86 107.86 478.05 106.49 483.42 103.67L483.43 103.01L480.3 103.61C467.73 103.39 458.51 100.93 452.65 96.2301ZM452.84 33.6601L452.87 34.8601L453.47 34.8701C453.45 33.7801 454.06 32.5501 455.29 31.1801L455.26 29.9201C454.42 29.9201 453.62 31.1601 452.84 33.6601ZM455.33 34.9101C454.55 37.6301 454.17 39.5001 454.19 40.5201C456.31 46.5001 459.96 52.4201 465.14 58.2701C465.71 59.0501 470.75 61.4301 480.27 65.4301C486.44 68.9301 490.88 72.7701 493.57 76.9401C494.41 76.9501 494.82 76.3201 494.81 75.0501C494.69 67.6801 491.65 60.34 485.69 53.0101C480.81 48.7301 476.4 46.5501 472.46 46.4801L468.69 46.4101L466.81 47.6301C460.99 45.0101 458.04 42.6601 457.97 40.5801C456.8 36.8201 455.92 34.9201 455.33 34.9101ZM458.42 30.5901C458.44 31.5401 458.24 32.3701 457.83 33.1001C459.4 41.0801 462.59 45.1101 467.4 45.2001L475.55 45.3501L475.56 44.6901C464.62 38.8401 459.1 34.1501 459.02 30.6101L458.42 30.5901ZM458.22 56.9001L458.26 57.5001C462.52 61.7701 465.47 63.9201 467.11 63.9501C466.02 62.2501 463.05 59.9001 458.22 56.9001ZM479.39 14.0701L479.41 15.9901L478.15 15.9701C477.35 15.9601 476.94 15.5301 476.92 14.6901C471.07 15.4201 468.17 16.4101 468.22 17.6501L471.29 17.1001L473.2 17.1301C482.74 18.0701 492.17 21.5701 501.51 27.6501L502.11 27.6601C499.53 20.9401 496.57 17.5501 493.21 17.4901C492.4 17.8801 491.78 18.0701 491.34 18.0601L490.71 16.7901C491.11 16.8001 491.32 16.6001 491.32 16.2001C488.21 15.3001 484.23 14.5901 479.39 14.0701ZM470.61 12.7101L470.65 13.3101L471.85 13.3301C472.66 12.9401 473.28 12.7501 473.72 12.7601L473.73 12.1001L473.13 12.0901C472.4 12.5201 471.56 12.7201 470.61 12.7101ZM471.49 64.0301C476.48 68.2801 483.44 72.7801 492.36 77.5301L492.32 76.9301C488.48 73.2201 484.06 70.0001 479.04 67.2801L477.83 67.8601L474 64.6701C473.28 64.2601 472.44 64.0401 471.49 64.0301ZM484.2 75.5201L484.19 76.1201C490.17 82.5001 493.17 86.73 493.21 88.8101L493.81 88.8201L494.36 85.7101L494.31 82.59C492.41 80.3 489.04 77.94 484.2 75.5201ZM492.03 59.3601L492.07 60.0201C494.67 65.5001 496.46 73.2401 497.45 83.2501L499.97 85.8101C499.96 84.1301 500.58 83.3101 501.82 83.3301L501.8 81.4701L500.54 81.4501L500.47 76.4201C499.87 71.34 497.27 65.6601 492.68 59.3801L492.03 59.3601ZM494.85 39.4001L496.11 39.4201L496.13 41.2801L494.87 41.2601L494.85 39.4001ZM496.89 87.6201L496.34 90.7301L496.37 91.9901C496.7 92.0001 497.31 91.3901 498.21 90.1601C497.79 89.4201 497.56 88.58 497.54 87.6301L496.89 87.6201Z" fill="#00FFAB"/>
</g>
</svg>
