<svg width="43" height="32" viewBox="0 0 43 32" fill="none" xmlns="http://www.w3.org/2000/svg">
<path d="M12.9799 18.8401C14.2599 25.5201 20.49 30.2601 27.0599 30.9401C33.88 31.6501 39.69 27.1402 41.78 20.8102C43.87 14.4902 41.9299 7.46014 36.3599 3.65014C30.5899 -0.309864 22.5199 0.0301461 16.4699 3.16015C8.34992 7.36015 3.69993 16.1301 1.03993 24.5101C0.44993 26.3501 3.34994 27.1402 3.92994 25.3102C5.98994 18.8102 9.18998 12.3401 14.59 7.97008C19.31 4.15008 25.89 2.63013 31.7 4.64013C37.11 6.51013 40.2 11.6502 39.5 17.2902C38.8499 22.5402 35.04 27.4701 29.53 27.9601C23.35 28.5201 17.0299 24.2202 15.8499 18.0402C15.5099 16.1502 12.6199 16.9501 12.9799 18.8401Z" fill="#00FFAB"/>
</svg>
