<svg width="1701" height="907" viewBox="0 0 1701 907" fill="none" xmlns="http://www.w3.org/2000/svg">
<path fill-rule="evenodd" clip-rule="evenodd" d="M560.471 19.5109C563.124 26.6826 563.256 35.7292 560.225 46.6413C546.374 96.5003 520.994 122.262 482.182 156.758C429.096 203.94 376.927 252.042 324.734 300.166C290.463 331.766 256.181 363.375 221.622 394.741C220.277 395.961 218.572 397.531 216.543 399.4C201.677 413.091 169.429 442.789 134.315 468.065C122.925 498.59 113.927 529.753 108.225 561.291C95.4381 632.018 82.8064 712.445 89.2478 784.365C91.7093 811.848 106.009 838.216 126.711 857.983C147.413 877.75 174.381 890.786 202.014 891.786C251.971 893.594 302.806 869.186 345.469 844.857C398.142 814.82 444.85 774.285 488.731 731.841C486.236 680.815 498.56 627.367 518.133 576.252C540.447 517.982 572.235 462.602 602.467 417.075C686.686 290.246 805.927 181.065 929.516 93.5998C934.02 90.4123 969.726 67.7595 1002.17 53.5081C1010.29 49.9407 1018.24 46.8828 1025.48 44.7881C1032.68 42.7017 1039.31 41.5302 1044.73 41.8404C1050.15 42.151 1054.76 43.9885 1057.21 48.3154C1059.59 52.5201 1059.6 58.5081 1057.36 66.2824C1049.54 93.474 1032.21 116.476 1015.7 138.315C986.625 176.786 955.69 213.891 924.821 250.917C915.893 261.627 906.969 272.33 898.098 283.058C778.891 427.213 657.115 568.601 525.071 701.354C514.434 712.048 503.659 722.776 492.697 733.401C493.055 739.829 493.654 746.214 494.508 752.546C499.848 792.122 527.671 821.7 563.237 841.97C598.794 862.236 641.81 873.019 676.857 875.086C725.703 877.968 769.911 864.115 811.894 839.442C864.423 808.571 911.749 770.045 956.837 728.956C957.427 712.543 959.386 696.388 962.136 681.268C981.149 576.71 1030.42 479.674 1088.96 392.433C1168.61 273.746 1261.95 173.386 1382.24 95.0192C1387.84 91.3765 1393.58 87.5607 1399.45 83.6586C1415.86 72.7513 1433.29 61.1701 1451.28 50.8128C1475.71 36.7418 1501.35 24.8203 1527.21 19.7924C1533.37 18.5943 1540.62 18.2495 1547.32 19.7315C1554.04 21.217 1560.35 24.5782 1564.3 30.8979C1569.64 39.4383 1570.09 49.3349 1568.23 58.7718C1566.36 68.206 1562.14 77.3684 1557.86 84.6802C1535.17 123.446 1505.36 159.104 1476.6 193.517C1473.68 197.003 1470.78 200.477 1467.89 203.94C1334 364.672 1186.04 512.844 1036.39 658.578C1011.54 682.77 986.482 707.142 960.659 730.721C959.538 767.744 965.574 805.654 985.288 835.451C1017 883.387 1077.99 903.339 1133.99 903.058C1174.29 902.856 1214.92 892.5 1253.75 881.833C1329.22 861.106 1401.48 833.457 1469.41 794.546C1527.11 761.492 1580.58 722.292 1632 680.115C1633.39 678.972 1634.77 677.843 1636.14 676.726C1663.28 654.518 1684.45 637.193 1697.2 605.32C1697.6 604.325 1698.73 603.842 1699.72 604.24C1700.71 604.637 1701.2 605.766 1700.8 606.761C1687.67 639.585 1665.77 657.499 1638.79 679.573C1637.36 680.741 1635.92 681.92 1634.46 683.114C1582.94 725.376 1529.28 764.716 1471.33 797.912C1403.06 837.02 1330.48 864.781 1254.78 885.573C1215.97 896.233 1174.88 906.731 1134.01 906.937C1077.31 907.222 1014.77 887.043 982.053 837.591C962.434 807.938 956.065 770.714 956.694 734.33C912.31 774.589 865.609 812.373 813.859 842.786C771.376 867.753 726.411 881.896 676.629 878.958C641.07 876.86 597.46 865.94 561.316 845.34C525.181 824.746 496.228 794.298 490.664 753.064C489.943 747.724 489.402 742.348 489.031 736.944C445.744 778.644 399.496 818.513 347.391 848.227C304.718 872.561 253.03 897.514 201.874 895.662C173.132 894.622 145.295 881.091 124.033 860.789C102.77 840.487 87.9434 813.282 85.3844 784.711C78.8906 712.205 91.626 631.301 104.408 560.601C109.823 530.65 118.183 501.054 128.72 472.036C125.636 474.194 122.536 476.31 119.43 478.37C96.714 493.439 73.4511 505.692 53.4827 509.593C43.4776 511.548 34.1502 511.436 26.0922 508.394C17.9821 505.332 11.3444 499.37 6.65723 489.997C-1.87774 472.929 -1.10956 451.299 3.21334 430.336C7.54809 409.315 15.5372 388.602 21.8381 373.157C43.7903 319.345 72.5863 279.336 111.563 236.467C112.283 235.675 113.51 235.616 114.303 236.337C115.095 237.058 115.153 238.284 114.433 239.077C75.6544 281.728 47.1587 321.357 25.4296 374.622C19.1399 390.04 11.2699 410.473 7.01226 431.119C2.74276 451.824 2.18524 472.382 10.1265 488.262C14.4211 496.85 20.3533 502.081 27.4623 504.765C34.6235 507.469 43.1647 507.657 52.7389 505.786C71.9289 502.037 94.6671 490.142 117.285 475.138C121.913 472.068 126.527 468.874 131.095 465.602C155.08 401.677 189.411 340.655 225.793 284.937C267.187 221.545 318.8 167.121 370.504 112.602C374.121 108.788 377.738 104.974 381.352 101.156C413.215 67.4985 454.325 27.3495 497.197 7.41151C514.336 -0.559391 533.018 -2.15076 546.078 4.05651C552.664 7.18704 557.805 12.3053 560.471 19.5109ZM136.829 461.437C160.551 399.903 193.783 341.055 229.041 287.058C270.235 223.972 321.617 169.789 373.372 115.215C376.97 111.421 380.57 107.624 384.169 103.823C416.057 70.1388 456.712 30.517 498.833 10.9286C515.357 3.24395 532.761 2.02189 544.413 7.55982C550.182 10.3019 554.554 14.6958 556.833 20.8568C559.125 27.0515 559.371 35.2256 556.488 45.603C542.949 94.3366 518.293 119.474 479.605 153.859C426.505 201.053 374.278 249.209 322.055 297.36C287.788 328.956 253.523 360.55 219.015 391.869C217.656 393.102 215.939 394.683 213.9 396.56C199.686 409.649 169.837 437.134 136.829 461.437ZM960.876 725.263C985.631 702.556 1009.73 679.118 1033.68 655.799C1183.32 510.078 1331.16 362.024 1464.91 201.458C1467.79 197.998 1470.69 194.531 1473.6 191.054C1502.4 156.597 1531.99 121.19 1554.51 82.7209C1558.66 75.6257 1562.67 66.8801 1564.42 58.0185C1566.18 49.1594 1565.65 40.3722 1561.01 32.9539C1557.77 27.7691 1552.52 24.8532 1546.49 23.5189C1540.44 22.1811 1533.74 22.4737 1527.95 23.6C1502.7 28.5089 1477.49 40.1907 1453.21 54.1742C1435.34 64.4642 1418.07 75.9413 1401.69 86.8294C1395.79 90.7465 1390.01 94.5873 1384.36 98.2692C1264.6 176.294 1171.6 276.244 1092.18 394.594C1033.8 481.599 984.833 578.128 965.952 681.962C963.437 695.791 961.604 710.42 960.876 725.263ZM492.46 728.223C502.547 718.408 512.488 708.505 522.321 698.619C654.241 565.99 775.928 424.708 895.109 280.586C904.003 269.831 912.941 259.11 921.879 248.389C952.737 211.375 983.592 174.365 1012.61 135.976C1029.19 114.036 1046.05 91.5952 1053.63 65.2105C1055.77 57.7614 1055.44 53.0562 1053.83 50.2277C1052.3 47.5215 1049.27 45.9858 1044.51 45.7129C1039.73 45.4397 1033.6 46.4745 1026.55 48.5139C1019.54 50.5449 1011.76 53.5323 1003.73 57.0594C971.57 71.1858 936.092 93.698 931.757 96.7659C808.417 184.054 689.572 292.912 605.698 419.221C575.561 464.605 543.933 519.724 521.756 577.639C502.731 627.323 490.702 678.96 492.46 728.223Z" fill="#00FFAB"/>
</svg>
