<svg width="20" height="22" viewBox="0 0 20 22" fill="none" xmlns="http://www.w3.org/2000/svg">
<path d="M7.27987 6.2557C6.03987 6.03649 4.94984 6.35312 3.99984 7.38831C3.18985 8.27736 2.62987 9.58054 2.39987 10.8715C1.94987 13.3925 2.60982 15.9013 3.90982 17.8742C6.18982 21.3452 10.5598 22.9771 13.9998 21.3451C17.9198 19.4818 19.5698 14.4154 18.9198 9.58047C18.2598 4.66027 15.0598 0.872709 10.9398 0.543884C6.38985 0.178523 1.72987 4.13665 0.649871 9.56835C0.189871 11.8579 3.08982 12.8322 3.53982 10.5426C4.20982 7.19349 6.67985 4.75775 9.56985 4.23407C9.37985 4.27061 9.75984 4.20969 9.80984 4.20969C9.99984 4.19751 10.1898 4.18531 10.3698 4.18531C10.5598 4.18531 10.7498 4.18533 10.9298 4.20969C11.0098 4.22187 11.0898 4.22189 11.1698 4.23407C11.3098 4.24625 11.0899 4.20966 11.3299 4.25838C12.0999 4.42888 12.6598 4.67251 13.2298 5.0744C13.7998 5.48848 14.1899 5.89036 14.6999 6.65762C14.8099 6.81594 14.7199 6.68198 14.6999 6.65762C14.7599 6.75505 14.8198 6.85248 14.8698 6.96209C14.9498 7.12041 15.0398 7.26657 15.1098 7.43708C15.1998 7.61976 15.2898 7.81458 15.3698 8.00944C15.3998 8.09469 15.4398 8.17997 15.4698 8.26522C15.6798 8.80108 15.4299 8.11908 15.5299 8.42355C15.6599 8.82545 15.7698 9.25165 15.8598 9.66573C15.8998 9.87277 15.9398 10.092 15.9798 10.3112C15.9898 10.4087 16.0099 10.4939 16.0199 10.5913C16.0599 10.908 15.9999 10.3477 16.0299 10.6644C16.0699 11.1028 16.0799 11.5291 16.0799 11.9675C16.0799 12.1867 16.0698 12.406 16.0498 12.613C16.0398 12.7105 16.0399 12.7957 16.0299 12.8931C16.0099 13.088 16.0598 12.7226 16.0098 13.0514C15.7499 14.7443 15.2998 15.9256 14.3098 17.0095C13.9698 17.3871 13.2698 17.8499 12.8498 18.0204C12.5498 18.1422 12.2398 18.2274 11.9198 18.3005C11.6198 18.3614 11.8198 18.3127 11.8798 18.3127C11.8098 18.3248 11.7298 18.337 11.6598 18.337C11.4598 18.3491 11.2698 18.3613 11.0698 18.3613C10.2998 18.3492 10.0098 18.3005 9.18985 17.996C9.04985 17.9473 8.89985 17.8864 8.75985 17.8255C8.66985 17.7889 8.56982 17.7402 8.47982 17.6915C8.50982 17.7037 8.64983 17.7768 8.48983 17.6915C8.14983 17.4967 7.81985 17.2775 7.50985 17.0339C7.44985 16.9852 7.02987 16.632 7.20987 16.7903C7.04987 16.6442 6.90985 16.4858 6.75985 16.3275C6.61985 16.1692 6.47982 15.9987 6.34982 15.816C6.29982 15.743 5.98985 15.268 6.12985 15.4994C5.89985 15.1218 5.69982 14.7078 5.53982 14.2815C5.63982 14.5494 5.44984 13.9649 5.42984 13.8918C5.36984 13.6604 5.32987 13.429 5.27987 13.1976C5.27987 13.1854 5.23985 12.8931 5.25985 13.0758C5.27985 13.2463 5.24983 12.8688 5.23983 12.8322C5.22983 12.6496 5.23983 12.2233 5.23983 12.1624C5.25983 11.8945 5.45987 11.1394 5.52987 10.9689C5.71987 10.5182 5.87986 10.2381 6.07986 10.0555C5.97986 10.1529 6.17983 9.98239 6.16983 9.98239C6.54983 9.6901 6.04987 10.0311 6.27987 9.90932C6.34987 9.87278 6.41983 9.87278 6.48983 9.83625C6.20983 9.94586 6.69987 9.87278 6.45987 9.83625C7.25987 9.97021 8.06984 9.59269 8.30984 8.5575C8.51984 7.64409 8.07987 6.40185 7.27987 6.2557Z" fill="#00FFAB"/>
</svg>
