<svg width="438" height="219" viewBox="0 0 438 219" fill="none" xmlns="http://www.w3.org/2000/svg">
<g opacity="0.4">
<path opacity="0.31" d="M50.74 67.9918L52.09 67.7482L54.32 78.1854C52.84 78.4533 54.97 97.1964 60.7 134.402L61.58 138.421C63.34 146.679 68.86 162.864 78.14 186.978C79.64 195.588 79.89 199.997 78.88 200.18C77.98 200.35 73.91 188.878 66.67 165.775L65.17 165.239L64.52 165.361L67.57 179.756C70.4 188.671 71.92 193.664 72.13 194.748C72.37 195.832 72.04 196.453 71.14 196.611C62.16 184.835 56.84 174.982 55.16 167.078C50.23 166.859 44.77 167.297 38.79 168.393C38.65 167.882 38.37 167.663 37.94 167.736L34.01 195.053C34.5 197.208 34.29 198.365 33.39 198.536L31.39 198.901C31.25 198.341 30.86 197.586 30.22 196.624C30.29 188.257 31.13 179.22 32.73 169.489L26.08 170.707C24.68 174.02 23.44 185.626 22.36 205.538L21.21 206.561L22.22 208.059C22.03 213.077 21.43 215.683 20.42 215.866L18.55 213.71L17.7 206.391L17.33 204.771L16.68 204.893C16.81 213.759 16.16 218.326 14.72 218.582L14.07 218.704L13.7 217.084C14.58 206.013 16.76 192.3 20.24 175.944L20.22 172.644C18.81 172.899 15.8 173.996 11.17 175.92L10.87 174.361C12.46 173.484 14.17 172.887 16.01 172.546L15.88 171.767C11.77 172.522 8.6 172.826 6.37 172.692C4.81 173.521 2.86 174.142 0.52 174.568L0 172.181C0.29 172.132 3.12 171.316 8.49 169.745C8.63 170.305 8.92 170.537 9.35 170.464C9.11 169.392 10.93 168.223 14.84 166.968L15.05 167.736L16.2 166.713L21.55 165.738C25.2 114.965 27.66 88.4277 28.92 86.1259C29.82 85.9676 30.43 86.6862 30.74 88.2816L28.57 130.298L28.78 131.065L29.43 130.944C29.18 129.775 31.86 116.268 37.48 90.4007L35.77 82.3627C35.67 81.2544 36 80.6333 36.76 80.4994C37.92 81.5467 38.7 83.0691 39.09 85.0542L40.44 84.8106C40.46 81.6685 42.28 77.1746 45.91 71.3531L49.41 71.5236C49.18 69.3802 49.62 68.1988 50.74 67.9918ZM16.06 169.234L16.21 170.013L19.56 169.404L19.35 168.637L16.06 169.234ZM19.85 196.831C20.16 198.438 20.11 200.399 19.69 202.713L19.84 203.492L20.54 203.358L20.64 197.476L20.49 196.697L19.85 196.831ZM20.67 190.887C20.78 191.448 20.71 192.288 20.48 193.408L20.63 194.188L21.33 194.054C21.19 193.494 21.23 192.653 21.46 191.533L21.31 190.753L20.67 190.887ZM37.33 99.6078C31.85 124.818 27.97 146.873 25.7 165.787L33.76 164.313C36.04 155.593 38.76 140.114 41.91 117.9C41.24 116.95 40.85 116.183 40.74 115.623C40.12 112.724 39.27 107.609 38.18 100.265L37.97 99.4982L37.33 99.6078ZM42.78 128.52C40.82 139.785 39.41 151.696 38.56 164.24L50.75 159.515C50.89 160.075 51.18 160.307 51.61 160.234C51.5 159.673 51.67 159.345 52.1 159.271C49.87 153.121 47.72 146.313 45.65 138.836L46.35 138.702L45.34 137.204L43.48 128.386L42.78 128.52ZM39.99 92.4589C40.45 94.6632 40.85 97.647 41.2 101.398L42.21 102.835C41.67 104.772 41.57 106.452 41.89 107.877L43.4 108.474L44.5 100.801L40.64 92.3493L39.99 92.4589ZM41.78 84.5914C41.96 85.4561 41.74 86.6253 41.11 88.0867C42.88 91.9352 43.84 94.2492 44.01 95.0286L44.66 94.9068L42.43 84.4696L41.78 84.5914ZM44.62 81.5711L45.45 85.5901C46.46 85.4074 46.91 81.9973 46.79 75.3721L46.09 75.5061C44.49 76.6996 44.01 78.7213 44.62 81.5711ZM44.78 163.985L44.93 164.764C48.18 164.167 51.2 164.179 54 164.788L53.27 161.549L52.62 161.671L44.78 163.985ZM45.89 107.134C44.91 115.623 44.59 120.689 44.94 122.321L45.77 126.34C48.49 139.128 51.5 149.943 54.81 158.76C58.24 157.591 59.85 156.47 59.65 155.386L58.13 151.562L58.78 151.441C58.11 150.491 57.72 149.711 57.61 149.102C56.74 145.047 53.5 130.932 47.9 106.769L45.89 107.134ZM48.53 96.6849L51.07 108.742C53.09 113.759 54.28 117.133 54.64 118.862L55.29 118.741C54.95 117.182 53.39 103.322 50.6 77.1746C48.43 86.4669 47.74 92.9704 48.53 96.6849ZM55.12 160.404L55.49 162.024C55.66 162.803 56.5 163.485 58.01 164.058L60.01 163.692C60.88 163.534 61.2 162.913 61 161.829L60.48 159.43L55.12 160.404ZM57.82 166.579L58.03 167.346C61.97 177.174 65.01 183.848 67.14 187.368L67.79 187.246L65.43 179.33L63.57 170.512C62.87 167.322 60.95 166.006 57.82 166.579ZM60.43 152.768L60.8 154.388C61.15 155.447 61.71 155.91 62.46 155.764L61.78 152.524L60.43 152.768ZM62.32 158.273L63.15 162.292L65.15 161.926L64.62 159.466C64.42 158.431 63.87 157.993 62.96 158.151L62.32 158.273Z" fill="#00FFAB"/>
<path opacity="0.31" d="M101.37 60.1365C109.37 58.3097 116.09 61.0865 121.53 68.4302C122.61 68.1867 125.21 69.7334 129.35 73.0581L131.23 72.1691C134.45 71.4018 136.95 75.8349 138.73 85.4805C142.66 106.537 136.42 123.795 120.01 137.264L120.16 138.044C141.9 156.202 153.16 167.334 153.93 171.462C154.5 171.316 155.31 172.644 156.36 175.457L156.43 176.054L156 177.479C156.28 177.381 156.74 177.795 157.37 178.709L157.5 179.293L157.28 180.207C161.79 180.913 164.1 181.559 164.21 182.167L164.29 182.825C151.17 181.948 139.8 177.247 130.2 168.722C121.89 162.925 113.22 153.292 104.18 139.81C104.15 139.591 104.03 139.505 103.81 139.542L103.54 139.591L103.5 141.49C105.02 151.087 105.93 156.714 106.25 158.37L105.83 158.516C105.88 158.638 106.04 158.675 106.29 158.638L106.34 161.257L107.78 168.868C108.01 170.171 108.12 171.475 108.1 172.778C110.62 183.361 112.31 189.45 113.18 191.046L112.13 192.385C111.31 192.58 110.36 190.729 109.29 186.844L109.61 186.722C108.94 185.492 107.9 181.985 106.48 176.188C105.89 171.669 105.2 167.334 104.43 163.156L103.05 155.533C102.97 155.143 103.03 154.911 103.24 154.826L102.77 154.169L102.7 153.645C102.61 153.219 102.67 152.975 102.89 152.938L102.41 152.22L102.12 150.795C102.07 150.357 102.15 150.113 102.36 150.076L101.88 149.358C101.79 148.932 101.85 148.688 102.07 148.652L101.59 147.933L101.3 146.508C101.25 146.07 101.33 145.826 101.54 145.79L101.01 145.083C101.18 144.377 101.23 143.877 101.16 143.573C100.79 143.013 100.57 142.513 100.48 142.087L100.86 142.014C100.36 140.626 99.44 140.09 98.12 140.431L97.9 139.128L99.95 139.152L99.92 138.884C99.53 138.421 99.27 137.812 99.14 137.07L98.62 134.195C98.53 133.769 98.61 133.526 98.86 133.477C98.57 132.953 97.46 129.129 95.51 122.041L95.25 122.151L94.46 122.906L94.21 121.737C94.16 121.335 94.26 121.103 94.51 121.006C94.49 120.872 94.34 120.835 94.05 120.884C94 119.009 93.89 117.681 93.72 116.902C92.92 112.469 90.51 104.601 86.49 93.2992L86.27 93.3357C87.44 99.5469 89.88 118.521 93.57 150.259C93.64 150.564 93.86 150.99 94.23 151.55C94.32 151.989 94.24 152.22 93.99 152.269C94.21 153.438 95.54 157.688 97.99 165.008L98.59 164.898C98.53 164.691 98.31 164.277 97.94 163.668C98.11 161.756 97.75 156.154 96.86 146.886L97.88 146.63L98.24 148.652C98.33 149.09 98.27 149.321 98.05 149.358L98.53 150.076C98.47 152.914 99.02 159.6 100.17 170.11C101.71 172.388 103.89 177.381 106.72 185.078L105.93 185.833L105.51 185.979C104.76 186.162 103.25 183.361 100.99 177.576C100.56 177.649 100.61 180.609 101.14 186.442L100.08 187.709L99.54 187.806C99.22 186.113 99.12 182.606 99.24 177.284C99.21 177.065 99.06 176.979 98.77 177.028C98.46 174.251 98.48 172.839 98.8 172.778C96.53 167.845 95.24 164.581 94.94 162.974L94.35 163.144C94.99 169.538 95.78 175.165 96.71 180.024L96.39 180.085L96.87 180.803L97.05 181.778C97.1 182.167 97.02 182.411 96.81 182.496L98.24 186.004L98.04 187.051C98.09 187.441 98.66 189.097 99.76 191.996L99.98 191.959L99.72 188.5L100.68 188.257L101.59 190.717C101.71 194.103 101.45 195.856 100.8 195.978L100.43 196.112C99.32 196.356 98.05 194.139 96.62 189.463L96.41 189.572C96.52 192.824 96.25 194.541 95.61 194.699L94.81 194.919C92.04 193.944 88.83 185.017 85.2 168.125C82.34 152.756 81.31 144.974 82.1 144.779C82.08 144.645 81.93 144.608 81.64 144.657C78.3 113.699 77.45 98.0246 79.1 97.6348C78.92 93.762 78.29 88.9636 77.21 83.2274L78.1 82.3871C78.18 82.7281 78.29 82.8864 78.43 82.862L78.6 81.9608L78.54 81.498C78.43 80.9378 78.18 80.7064 77.79 80.8282L78.08 82.2531L77.05 82.4358C76.4 77.4425 76.5 74.8362 77.36 74.6292L77.74 74.5561C78.06 74.4587 79 75.0433 80.56 76.3342C88.33 66.9931 95.27 61.5736 101.37 60.1365ZM78.92 78.1245C79.34 80.341 79.41 81.4737 79.12 81.5224C79.14 81.7051 79.29 81.7416 79.58 81.6442C80.09 87.2951 80.42 90.5103 80.55 91.3019L81.24 90.6321L81.56 92.3249C81.7 93.2018 81.64 94.1761 81.37 95.26L82.71 95.3574L82.49 94.0543C82.91 89.0854 83.06 86.2477 82.93 85.5535C82.67 84.0312 81.4 81.5467 79.13 78.1001L78.92 78.1245ZM80.33 105.685L80.38 107.902L80.8 107.755C80.32 109.826 80.37 112.505 80.97 115.806C81.37 116.366 81.59 116.841 81.64 117.23C81.33 117.961 81.44 120.701 81.99 125.451L82.36 125.317C82.55 136.729 84.12 150.369 87.08 166.213L87.48 168.089C89.13 176.943 91.37 184.688 94.22 191.301L94.81 191.192C94.49 189.499 94.78 188.123 95.68 187.063L95.58 186.272L94.34 186.564C93.86 179.427 92.69 167.2 90.81 149.894C88.07 139.664 85.01 126.937 81.62 111.701L81.59 109.217C81.11 108.048 80.76 106.854 80.54 105.636L80.33 105.685ZM81.68 97.3547L83.34 106.343C83.47 107.086 83.46 107.755 83.31 108.364C83.34 108.584 83.49 108.644 83.77 108.547L83.82 111.165L83.93 111.616L84.83 114.417C84.92 114.856 84.84 115.087 84.59 115.136L85.41 117.279L85.76 119.24C86.99 125.926 88.22 131.065 89.43 134.658L89.65 134.622C89.11 131.76 88.97 130.298 89.22 130.262C89.2 130.091 89.05 130.042 88.76 130.14C87.87 120.872 86.61 110.374 84.98 98.6335C84.19 98.8283 83.68 98.2681 83.45 96.965L81.68 97.3547ZM82.49 77.4668L82.76 77.4181C84.22 76.7483 85.55 76.2855 86.73 76.0176L86.82 76.3342C91.04 70.8051 95.59 67.4803 100.47 66.3598C103.19 65.7265 108.89 65.8483 117.55 66.7374C112.96 62.0973 107.94 60.4166 102.49 61.6832L101.8 62.353L100.88 62.0486C95.46 64.119 89.32 69.1731 82.46 77.2111L82.49 77.4668ZM82.5 79.7564C83.12 82.1069 83.7 83.2152 84.24 83.0812C84.46 83.0447 85.4 81.0961 87.06 77.2476L86.9 77.272C85.36 78.6238 83.9 79.452 82.5 79.7564ZM83.73 92.9338L84.45 96.9772L84.67 96.9406L83.9 92.9095L83.73 92.9338ZM85.42 86.4304C87.66 91.0949 90.01 97.9637 92.5 107.025L92.72 106.988C92.3 104.772 92.23 103.639 92.52 103.59C92.46 103.42 92.31 103.383 92.06 103.468C91.71 100.034 91.66 98.2925 91.91 98.2438C91.89 98.0733 91.74 98.0246 91.45 98.122C91.14 92.0326 90.55 86.6374 89.67 81.9486C89.49 79.9148 89.74 78.8187 90.42 78.6482C91.04 78.6238 91.41 78.9161 91.52 79.5251C93.66 89.6821 95.03 96.3439 95.65 99.5104C95.69 99.8148 95.91 100.253 96.31 100.801L96.11 101.849C96.69 103.542 97.05 104.845 97.2 105.758L96.88 105.819L97.36 106.537L97.77 108.486C97.82 108.876 97.73 109.095 97.52 109.144L98 109.862L98.35 111.823C98.43 112.213 98.37 112.432 98.15 112.469L98.63 113.187L101.92 130.907C102 131.297 102.45 131.638 103.26 131.942C104.14 131.285 104.55 130.785 104.51 130.432C103.97 130.578 103.64 130.274 103.51 129.531L103.21 127.972L107.3 127.497C118.81 112.956 123.53 100.119 121.46 89.0123C120.25 84.019 118.89 79.6468 117.35 75.8836L118.26 75.6522C119.09 75.4939 120.62 78.3437 122.85 84.1773C123.51 89.8039 123.77 93.421 123.63 95.0164L124.18 95.8567L124.47 97.3547L120.37 110.764C116.89 117.815 113.06 123.868 108.89 128.898L108.73 129.799L110.34 130.31C112.85 129.129 116.62 124.44 121.66 116.256C127.21 108.06 129.66 102.178 128.99 98.6091L129.41 98.463C129.36 98.3412 129.2 98.2925 128.95 98.3412L128.85 95.735L127.7 89.5482C126.69 84.0312 123.81 78.77 119.06 73.7523C113.69 69.3923 108.48 67.7848 103.42 68.9417L102.73 69.6116C102.37 69.6725 102.17 69.5628 102.13 69.2462C92.83 71.3775 87.26 77.1137 85.42 86.4304ZM92.82 95.3087C93.45 99.8148 93.62 102.104 93.33 102.153L93.81 102.872C93.74 104.991 93.56 106.087 93.27 106.136L93.75 106.854L94.21 109.266C94.34 110.008 94.15 110.423 93.64 110.508L94.12 111.226C94.21 111.653 94.15 111.896 93.93 111.933L94.41 112.651C95.09 116.39 96.97 123.563 100.05 134.183L100.27 134.147L92.98 95.2843L92.82 95.3087ZM94.27 124.075L95.23 123.831L96.03 125.841L95.19 126.669L94.51 125.646L94.27 124.075ZM94.96 127.923L95.98 127.668C96.12 131.455 96.32 134.025 96.6 135.365L95.44 134.975C95.31 134.147 95.15 131.796 94.96 127.923ZM96.36 136.558C96.43 136.863 96.61 136.984 96.9 136.936L97.58 142.879L98.06 145.412L97.52 145.509C96.95 145.656 96.58 145.363 96.42 144.633C96.51 143.536 96.66 142.952 96.87 142.867L96.4 142.209L95.59 137.849C95.53 137.094 95.79 136.656 96.36 136.558ZM105.25 133.245L105.29 133.574C105.47 134.122 105.72 134.366 106.04 134.317C106 134.013 106.04 133.574 106.16 133.014L105.25 133.245ZM106.23 138.519L106.27 138.848C106.71 139.712 107.75 140.553 109.4 141.369L109.38 141.174C108.03 139.81 107.3 138.836 107.2 138.275L106.23 138.519ZM108.52 136.96C109.48 138.178 110 138.957 110.08 139.298L110.24 139.274L110.1 138.628C109.6 138.726 109.23 138.141 109 136.875L108.52 136.96ZM109.63 143.22C122.22 161.305 136.75 173.253 153.21 179.086L153.48 179.038L153.45 178.77C146.09 176.163 135.95 168.88 123.05 156.921C116.25 148.688 112.11 144.194 110.66 143.427C110.11 143.22 109.77 143.147 109.63 143.22ZM110.98 134.89C112.9 137.91 114.06 139.371 114.46 139.31C115.2 138.458 115.92 137.971 116.6 137.837L116.46 137.118C115.82 137.277 114.3 136.327 111.9 134.244C111.46 134.646 111.16 134.853 110.98 134.89ZM130.46 74.0812C130.58 74.7388 130.53 75.0798 130.31 75.1164C131.77 77.406 132.77 79.9635 133.3 82.789L133.36 83.2517C134.45 89.0732 133.63 95.7471 130.91 103.298C128.24 114.515 122.39 124.343 113.37 132.783L113.47 133.172L118.08 136.436C129.61 126.511 136.22 115.063 137.9 102.092L137.99 91.6307C137.96 91.4115 137.8 91.3262 137.52 91.375L137.47 88.7565L136.44 83.0812L135.53 80.6211L135.91 80.5481C133.93 75.8836 132.48 73.6549 131.55 73.8741L130.46 74.0812ZM115.84 141.539C131.5 161.756 144.21 172.875 153.97 174.897L153.94 174.629L150.24 168.369L150.56 168.247C147.11 163.899 139.36 156.653 127.3 146.508C121.53 141.551 118.5 139.116 118.22 139.213C116.54 140.333 115.75 141.113 115.84 141.539ZM117.31 69.2097C120.8 72.1204 122.63 74.0933 122.8 75.1407L123.01 75.0311L122.92 74.7145C121.16 70.9025 119.47 69.1975 117.86 69.575C117.78 69.234 117.65 69.1001 117.48 69.1731L117.31 69.2097ZM122.99 71.3409C123.94 73.6427 124.78 75.3477 125.5 76.4682C126.81 75.4208 127.44 74.6779 127.38 74.2395C124.81 72.2422 123.42 71.2557 123.2 71.3044L122.99 71.3409ZM127.27 77.3572L126.4 77.5156L125.76 77.2963C127.97 82.0582 129.45 86.4548 130.21 90.4859L131.23 96.0881L131.44 95.9785C131.82 92.2275 131.91 88.2816 131.69 84.1408C131.06 80.8404 129.9 78.1854 128.22 76.1515L127.27 77.3572Z" fill="#00FFAB"/>
<path opacity="0.31" d="M224.49 38.3365C226.83 38.4462 228.05 38.9211 228.15 39.7493C227.41 40.6018 226.21 41.5152 224.56 42.4895L224.5 42.0267C224.41 41.3203 224.8 40.8941 225.67 40.7358L225.61 40.2121L225.18 40.2973C217.38 43.1228 212.52 44.706 210.61 45.047L210.68 45.5707L211.24 46.545C210.68 47.361 209.87 47.8725 208.83 48.0674L208.89 48.5302C210.87 48.1648 211.91 48.3353 211.99 49.0417C212.13 50.1377 206.53 52.9145 195.21 57.3597L195.27 57.8834L197.81 57.4206C200.37 56.9578 204.4 55.7034 209.9 53.6574L210.45 54.5708L210.58 55.6304C202.86 58.4802 194.06 60.8063 184.18 62.621L185.01 90.425C185.05 90.7782 185.2 90.9243 185.45 90.8878C185.28 94.0177 185.52 98.195 186.17 103.42L186.62 107.037L187.37 106.367L187.8 106.282L187.87 106.805C187.99 107.816 187.64 108.401 186.81 108.547C186.9 109.253 187.08 109.57 187.37 109.521L187.38 113.224C190.41 134.804 192.16 145.546 192.63 145.461C192.42 146.131 192.36 146.861 192.46 147.653C192.83 148.262 193.04 148.737 193.08 149.09L192.65 149.175L195.04 157.761L194.86 159.88L196.49 165.909L195.69 166.591C195.04 166.713 193.66 162.56 191.55 154.144C191.26 154.193 191.03 153.523 190.86 152.11L190.43 152.196L190.76 154.826C191.71 157.749 192.25 159.759 192.39 160.855C191.56 161.001 191.21 161.585 191.33 162.596L190.46 162.755L190.39 162.231C190.35 161.926 190.48 161.744 190.77 161.695C190 160.221 189.5 158.541 189.26 156.653L188.83 156.726L189.03 158.309C189.83 162.389 190.35 165.458 190.61 167.516L191.48 167.358L191.16 164.788L191.97 164.642L192.35 167.736C192.44 168.479 192.67 169.136 193.03 169.696C193.04 174.276 192.76 176.614 192.18 176.724C191.27 176.529 190.71 175.579 190.5 173.862L190.12 173.935C190.59 177.71 190.39 179.683 189.52 179.841L189.09 179.927C187.39 180.231 184.77 174.203 181.22 161.841L181.15 161.317L181.58 161.232L181.03 160.319L178.73 141.685C178.15 136.984 177.53 130.773 176.87 123.027C170.8 99.5834 166.98 81.4615 165.41 68.686L164.48 68.3206C156.62 69.7577 148.32 72.6928 139.57 77.1258C138.66 79.0379 138.23 80.1827 138.28 80.5237C138.83 80.5115 139.14 80.7916 139.21 81.364L139.41 82.9473L139.03 83.0203C136.21 81.3762 134.78 80.4141 134.74 80.0974L134.61 79.0379C135.25 77.9296 138.22 75.1042 143.52 70.5371C143.2 67.9431 149.91 63.7292 163.64 57.8956L163.32 55.3259C153.56 57.8347 146.89 59.9294 143.3 61.6223C142.75 61.3665 142.17 61.2935 141.56 61.4031L141.49 60.8794C141.41 60.2705 144.26 58.8699 150.04 56.6899L150.11 57.2136L150.91 56.5316C151.2 56.4829 151.37 56.629 151.41 56.9822L164.3 52.537C164.81 52.8049 165.39 52.878 166.04 52.7562L167.65 51.928L167.71 52.4517C168 52.403 168.12 52.1959 168.08 51.8428L171.12 51.8306L186.37 49.0417C187.02 48.9199 187.56 48.6398 187.98 48.2135C188.53 48.4693 189.13 48.5423 189.77 48.4205L195.72 47.3366C195.97 47.2879 196.12 47.4219 196.16 47.7264C208 44.1458 217.44 41.028 224.49 38.3365ZM141.13 61.4761C143.32 62.828 144.44 63.6805 144.49 64.0215L144.06 64.1068C141.82 63.5709 140.58 62.9254 140.34 62.1582L141.13 61.4761ZM145.76 71.207L145.83 71.7306C158.32 67.4681 164.49 64.7401 164.34 63.5587C164.15 62.0242 164.17 60.9646 164.39 60.3801L163.96 60.4653C161.5 60.9159 155.44 64.4965 145.76 71.207ZM164.62 55.0945L164.87 57.1405L165.68 56.9944L165.62 56.4707C165.25 55.8618 165.04 55.3868 165 55.0336L164.62 55.0945ZM165.18 59.6981C165.49 60.1365 165.77 61.3178 166.01 63.2542C167.8 61.8902 169.3 61.0986 170.53 60.8794C170.18 60.4044 169.9 59.4058 169.72 57.8591C169.13 58.2366 167.62 58.8577 165.18 59.6981ZM165.86 54.8631C166.23 55.472 166.44 55.947 166.48 56.3002L168.16 55.9957C168.74 55.8861 168.98 55.5086 168.9 54.8509L168.77 53.7914L166.66 54.1811L165.86 54.8631ZM166.59 67.9309L166.65 68.4546C166.72 69.027 167.11 69.8308 167.83 70.866C167.77 72.7658 167.81 74.3247 167.97 75.5548C168.1 76.6143 168.54 77.7591 169.28 79.0135L168.98 80.1461L175.47 111.689L175.9 111.616L175.14 105.429L175.57 105.344C175.53 104.991 175.36 104.845 175.07 104.893C174.74 99.2059 174.66 96.2343 174.85 95.9785C174.81 95.6253 174.64 95.4792 174.35 95.5279C173.53 81.4006 173.15 72.4857 173.21 68.7956C172.71 67.1393 172.32 66.3355 172.03 66.3842C171.89 66.4207 170.08 66.9322 166.59 67.9309ZM166.64 64.7522L166.7 65.2759L170.97 64.4965C171.51 64.399 171.74 63.9971 171.65 63.2908L171.52 62.2312C169.13 63.7658 167.5 64.5939 166.64 64.7522ZM170.45 53.4869L170.58 54.5464L171.01 54.4612C171.37 54.4003 172.77 53.9619 175.22 53.1459L175.15 52.6222L170.45 53.4869ZM171.46 58.0905C171.83 58.6994 172.04 59.1744 172.08 59.5275C178.5 56.2393 182.04 54.5343 182.73 54.4125L182.66 53.8888L182.23 53.974C174.93 55.74 171.34 57.1162 171.46 58.0905ZM172.76 61.4883L172.89 62.5479L173.45 63.5222C173.62 63.1325 176.8 62.012 182.99 60.1608C182.86 59.15 182.86 57.92 182.98 56.4585L182.55 56.5438C181.82 56.6534 178.56 58.3097 172.76 61.4883ZM175.36 78.9892C175.46 79.7808 175.4 80.4872 175.18 81.1083L176.05 80.9499L175.8 78.9039L175.36 78.9892ZM175.31 82.1678L176.22 96.7458L176.65 96.6605L176.35 97.7931L176.48 98.8527C176.57 99.5956 176.8 100.253 177.16 100.813C176.75 102.287 176.7 104.224 176.99 106.635L177.37 109.728C177.41 110.081 177.29 110.289 177 110.337L177.56 111.312L177.62 111.835C177.66 112.188 177.54 112.395 177.25 112.444C177.29 112.749 177.45 112.883 177.74 112.822L177.63 115.538C178.73 124.452 181.5 137.484 185.94 154.631L186.37 154.546C186.24 153.487 186.32 152.938 186.61 152.89L186.06 151.976C185.5 147.458 184.92 141.564 184.32 134.317C184.28 134.013 184.12 133.879 183.83 133.94L183.94 131.224L182.06 115.745C181.97 115.002 182.03 114.295 182.24 113.625C182.2 113.272 182.03 113.126 181.74 113.175L181.73 109.473L181.22 105.32L180.35 101.836L180.78 101.763L176.18 81.9973L175.31 82.1678ZM178.29 64.1798L178.36 64.7035C178.99 64.9958 179.99 68.5155 181.38 75.2625C181.16 75.8836 181.1 76.59 181.2 77.3816L182.07 77.2233L182.14 77.7469C182.18 78.1001 182.06 78.3072 181.77 78.3559C181.81 78.7091 181.98 78.8552 182.27 78.8065L182.28 82.4479L183.36 87.5752L183.79 87.4899C183.02 78.8796 182.76 73.2895 182.99 70.732C182.95 70.3788 182.8 70.2327 182.55 70.2692C182.65 66.5669 182.64 64.2773 182.53 63.4004L178.29 64.1798ZM178.32 71.5723L179.78 83.4222C179.96 84.8715 180.34 86.7592 180.92 89.0732C180.69 89.609 180.67 90.6686 180.87 92.2518L181.94 97.306L181.51 97.3791C181.88 97.988 182.09 98.463 182.13 98.8162C182.38 100.838 183.05 105.113 184.16 111.64L185.03 111.482L184.58 107.865C184.43 106.635 184.36 105.076 184.39 103.188C184.06 102.579 183.87 102.068 183.82 101.678L184.2 101.605L183.7 100.692C181.44 87.1855 180.2 79.4885 179.97 77.6008L179.41 76.6265C179.37 76.322 179.5 76.1393 179.79 76.0906C179.34 74.824 179 73.3017 178.78 71.4992L178.32 71.5723ZM180.15 138.799L182.19 155.325C183.56 166.396 185.9 173.703 189.21 177.272L188.62 168.893C183.84 153.779 181.14 143.719 180.53 138.726L180.15 138.799ZM183.73 55.8374L184.11 58.9308L183.85 59.9903C196.03 55.2894 204.1 51.7088 208.07 49.2243L208 48.7007C207.71 48.7494 207.55 48.6276 207.51 48.3231C206.01 49.6262 204.38 50.4422 202.61 50.771C202.32 50.8198 201.89 50.7223 201.3 50.4666L196 53.0485L195.87 51.9889L201.58 49.3948L201.52 48.8712L198.6 49.407C197.65 49.5897 192.7 51.721 183.73 55.8374ZM184.28 112.712L185.49 122.528L185.92 122.455L184.71 112.639L184.28 112.712ZM187.32 148.055L187.95 153.194L188.7 155.679L189.13 155.606L189.07 155.143C188.57 153.523 188.13 151.136 187.74 147.982L187.32 148.055ZM189.53 141.32L190.04 145.473L190.47 145.4L189.96 141.247L189.53 141.32Z" fill="#00FFAB"/>
<path opacity="0.31" d="M241.44 36.3758L243.89 36.5341L262.06 33.2093C262.38 33.1484 262.57 33.3189 262.62 33.7086C262.91 33.6599 263.03 33.4285 262.98 33.0388L266.41 33.0145L273.12 31.7844C273.84 31.6504 274.49 31.7113 275.08 31.9671C275.4 31.9062 275.54 31.6992 275.5 31.346L277.94 31.4434L282.27 30.6518C282.7 30.5665 283.24 31.078 283.9 32.1741C282.77 33.4529 272.64 38.4827 253.52 47.227C253.67 48.4084 253.58 49.0295 253.25 49.0904L253.88 50.1256L253.69 52.5857C254.1 53.1824 254.35 53.9253 254.46 54.8022C254.13 54.8631 254 55.0945 254.05 55.4842C254.72 55.4964 255.09 55.8374 255.17 56.4951C254.53 56.7021 254.25 57.1405 254.33 57.7982C255.87 72.6441 256.97 82.7524 257.63 88.1111L257.14 88.1963C257.19 88.586 257.38 88.7565 257.7 88.6956C258.34 97.1964 258.53 102.738 258.26 105.295L258.89 106.33L260.47 119.179L261.31 121.992L260.82 122.078L261.45 123.113L263.53 139.968C263.94 143.305 264.56 145.777 265.38 147.373L266.28 146.606C266.6 146.545 266.79 146.715 266.84 147.105L267.74 146.338C268.03 146.289 268.2 146.459 268.24 146.849L269.14 146.082L280.12 144.072C280.84 143.938 281.51 144.024 282.14 144.304C282.63 143.804 283.24 143.5 283.96 143.366C289.46 143.159 292.31 143.829 292.5 145.375L292.65 146.557C292.78 147.616 291.29 148.664 288.18 149.735C286.85 149.979 285.54 150.04 284.27 149.918C281.55 151.185 277.77 152.256 272.94 153.133L270.63 154.169L270.56 153.572L269.66 154.339L268.74 154.51C268.42 154.57 268.23 154.4 268.18 154.01L267.28 154.777L263.93 155.386C262.35 155.764 261.61 156.3 261.7 157.006C262.36 158.455 262.94 159.137 263.44 159.04L268.2 158.175C268.52 158.114 268.71 158.285 268.76 158.675C269.09 158.614 269.22 158.382 269.17 157.993C272.93 157.713 275.66 157.408 277.36 157.104L287.85 155.179L290.79 155.252C291.28 154.753 292.05 154.412 293.1 154.229L293.17 154.826L294.07 154.059L301.7 152.658L301.91 154.376L297.22 155.837L296.25 156.02C295.93 156.081 295.74 155.91 295.69 155.52L294.84 156.275L278.56 159.259C275.39 159.844 270.59 160.514 264.16 161.293L263.87 162.56C264.16 162.511 265.35 164.265 267.45 167.833L267.6 169.014L267.11 169.1C263.38 165.47 261.42 162.864 261.22 161.281C249.13 163.096 240.99 164.374 236.81 165.142C236.25 165.653 235.8 165.933 235.48 165.994L235.41 165.397C234.02 166.42 228.99 167.918 220.32 169.916L219.69 168.88C219.57 167.918 226.91 165.385 241.7 161.281C248.23 158.066 253.52 156.081 257.56 155.35L259.02 155.082C258.3 152.841 257.67 151.757 257.13 151.855C252.85 153.036 250.38 154.095 249.72 155.033L248.73 154.607C240.45 157.42 235.54 159.917 234 162.085L233.37 160.989L220.44 166.92C218.16 166.932 216.97 166.566 216.88 165.824C216.77 164.898 224.49 161.488 240.06 155.581C240.03 155.313 242.66 154.254 247.96 152.378C245.39 144.681 242.86 134.841 240.39 122.845L240.88 122.76L240.25 121.663L239.96 119.362C239.91 118.972 240.05 118.741 240.37 118.68L239.74 117.584L239.16 112.907C238.9 110.8 238.73 108.072 238.65 104.723C238.6 104.333 238.41 104.163 238.09 104.224L237.86 98.3412L232.83 57.579L233.18 56.3733L232.69 56.4585C223.07 62.1703 216.3 65.3855 212.37 66.1041C212.42 66.4938 211.02 66.9566 208.17 67.4803L207.54 66.3842L232.89 53.9984C232.9 47.7994 233.1 44.1945 233.49 43.1837C233.4 42.4408 233.03 42.1241 232.38 42.2459L229.08 42.8549C229.27 44.3894 228.72 45.2784 227.42 45.522L227.35 44.9253L227.7 43.7196C221.49 46.0213 214.23 49.1269 205.9 53.0363L205.97 53.6331C211.48 54.376 214.49 55.0092 215 55.5451L214.1 56.3124C210.04 56.2515 207.58 56.0932 206.74 55.8374L205.27 56.0688C204.21 55.2772 203.6 54.1933 203.43 52.8414C203.21 51.0877 212.76 46.7521 232.08 39.8467C234.09 39.116 236.77 38.4462 240.13 37.8372L240.62 37.752C241.27 37.6302 241.54 37.1674 241.44 36.3758ZM234.74 41.1742L234.81 41.771C236.76 41.4178 238.23 42.9158 239.24 46.2771L239.46 48.0552C239.55 48.7981 239.29 49.2365 238.68 49.3461C238.03 49.4679 237.64 48.9564 237.5 47.8116L236.6 48.5789L235.61 48.1526L235.76 49.334L236.55 52.1472L235.63 52.3177L235.7 52.9145L236.62 52.744L238.98 51.7088L238.35 50.6127L238.28 50.016C239.42 50.6127 240.43 50.8319 241.29 50.6736C241.66 48.5911 241.54 45.0349 240.92 40.0294L234.74 41.1742ZM235 55.4111L235.28 57.7129C235.43 58.8943 235.34 59.5154 235.01 59.5763L235.85 62.3896L236.92 71.0852C236.97 71.4749 236.83 71.7063 236.51 71.7672L237.14 72.8633L237.29 74.0446L236.94 75.2503L237.91 75.0676C237.72 78.9161 237.73 81.705 237.95 83.4101C238.62 86.1137 238.97 87.6239 239.01 87.9284L238.67 89.2071L239.44 91.4237C239.54 94.9555 239.65 97.1355 239.75 97.9637C239.89 99.1085 240.12 99.6443 240.45 99.5834L240.68 105.466L242.55 120.616C242.66 121.493 242.92 122.236 243.32 122.833C243.37 123.222 243.23 123.454 242.91 123.515L243.75 126.328L244.25 130.408C246.27 140.772 248.19 145.79 250.03 145.449L250.74 151.246L256.4 149.601L256.25 148.42C253.93 145.436 251.7 139.31 249.56 130.042L249.07 130.128L249.52 141.356L248.06 141.624C247.5 115.866 246.27 95.2843 244.36 79.8661C244.31 79.4276 244.4 78.8065 244.63 78.0027L244 76.9066C244 74.2151 243.9 72.0595 243.7 70.4275L243.07 69.3923C243.3 68.5398 243.39 67.9187 243.34 67.529C243.29 67.1393 243.1 66.9688 242.78 67.0297L242.91 64.0459L242.2 58.2488L241.91 52.3056L235 55.4111ZM242.92 40.2852L243.2 42.5869C243.31 43.4638 243.55 44.2067 243.92 44.8156C243.72 45.5707 243.67 46.3867 243.78 47.2636L243.99 48.9808L246.37 48.5423C246.08 46.2162 246.41 44.9618 247.35 44.7913L250.02 46.7277C250.03 45.9117 250.31 45.4611 250.85 45.3637C250.8 44.974 250.61 44.8035 250.29 44.8644C250.3 41.6735 250.76 39.9929 251.66 39.8345C252.74 43.2324 253.59 44.8644 254.2 44.7548C260.11 42.4652 267.8 38.8724 277.26 34.0009L277.19 33.4042L275.3 33.7452C274.98 33.8061 274.84 34.0375 274.89 34.4272L272.44 34.2689L263.84 35.8399C263.52 35.9008 263.33 35.7303 263.28 35.3406C262.99 35.3893 262.87 35.6207 262.92 36.0104L259.49 36.0348L243.7 38.9211C243.1 39.1769 242.84 39.6275 242.92 40.2852ZM243.8 51.4409L245.59 65.9336C245.64 66.3233 245.5 66.5547 245.18 66.6156C245.23 67.0175 245.42 67.1758 245.74 67.1149L245.97 72.9972L246.34 75.9567L247.31 75.774L247.24 75.1772C246.19 66.7008 245.98 58.4193 246.6 50.3083L246.11 50.3935L243.8 51.4409ZM246.39 76.4925L247.18 82.8864L247.67 82.8011L246.88 76.4073L246.39 76.4925ZM248.23 55.947L249.71 83.6293L250.21 87.7092C250.26 88.0989 250.12 88.3303 249.8 88.3912C249.85 88.7931 250.04 88.9514 250.36 88.8905C250.53 95.6375 251.02 102.287 251.82 108.827C254.8 130.871 256.97 141.758 258.34 141.515L257.48 134.536C257.46 133.781 257.72 133.343 258.26 133.245C258.3 133.599 258.49 133.745 258.81 133.684L258.67 132.563L257.7 132.746L257.46 126.791L257.1 123.892C257.06 123.539 257.2 123.332 257.52 123.271C257.47 122.881 257.28 122.711 256.96 122.772L255.67 96.1977C255.29 95.7715 254.96 94.444 254.68 92.2031L255.17 92.1179C254.75 91.4358 254.52 90.8878 254.47 90.4981C254.04 86.9906 252.11 75.433 248.7 55.8618L248.23 55.947ZM248.81 108.169L249.6 114.563C250.08 118.473 250.96 124.258 252.24 131.93L253.29 132.344L252.45 129.531L251.74 123.734C251.47 121.578 250.98 118.887 250.24 115.659C250.48 114.941 250.53 113.942 250.37 112.676C249.95 111.994 249.72 111.421 249.66 110.983L250.15 110.897C249.75 110.337 249.47 109.412 249.31 108.084L248.81 108.169ZM249.46 49.7967L249.53 50.3935L250.88 57.2867L250.39 57.3719L251.81 61.2204L251.67 63.6683C252.49 67.9187 253.11 71.755 253.53 75.1772L254.02 75.092L252.16 60.0147C252.11 59.6128 252.25 59.3936 252.57 59.3327C252.52 58.943 252.33 58.7725 252.01 58.8334L251.99 54.6561L251.2 48.2622L250.23 48.4449C249.63 48.6885 249.38 49.1391 249.46 49.7967ZM249.82 159.783L249.96 160.903L260.02 159.064L259.95 158.468C259.53 157.786 259.3 157.238 259.25 156.848C254.29 158.565 251.15 159.539 249.82 159.783ZM252.87 133.026L253.23 135.925L253.72 135.84L253.36 132.941L252.87 133.026ZM256.21 37.2527L257.62 36.9969L257.77 38.1782C257.11 37.8981 256.61 37.7885 256.29 37.8372L256.21 37.2527ZM259.04 135.462C259.28 140.09 259.34 144.438 259.21 148.493L262.08 147.97C260.8 143.001 259.95 138.799 259.53 135.377L259.04 135.462ZM259.71 125.244L260.14 128.739L260.63 128.654L260.2 125.159L259.71 125.244ZM264.47 151.708C263.82 151.83 263.43 151.319 263.29 150.174L260.91 150.612C260.27 150.819 259.99 151.246 260.08 151.915L260.23 153.097L260.86 154.193C269.25 152.256 274.93 150.807 277.91 149.857L277.98 150.454L278.88 149.687L283.15 148.907C285.2 148.53 287.39 147.726 289.71 146.496L289.64 145.899C286.37 145.741 283.14 145.948 279.93 146.532L270.41 148.274C267.49 148.798 265.51 149.955 264.47 151.708Z" fill="#00FFAB"/>
<path opacity="0.31" d="M320.89 21.9075C324.12 21.81 327.67 21.4081 331.53 20.7018L333.11 22.7722C332.26 23.9657 329.04 25.0618 323.45 26.0848L323.3 25.3053L322.06 25.5367L322.95 26.9251C322.52 26.9982 322.35 27.3027 322.45 27.8263C333.34 25.829 341.67 30.457 347.45 41.7101L347.93 44.7183L346.78 45.6682C333.45 38.361 322.41 35.5111 313.65 37.1187C306.07 39.9442 302.46 43.951 302.8 49.1391L303.39 49.0295C310.24 44.1824 315.34 41.4544 318.69 40.8454L319.93 40.614C330.77 39.4327 336.78 42.6966 337.95 50.3814L339.17 53.9984L339.27 54.7901L338.03 55.0215C335.92 48.3597 332.76 44.3164 328.57 42.8793C325.61 43.0619 324.08 42.8305 324 42.1729L322.84 43.1228C322.44 43.1959 322.2 42.9889 322.1 42.5139L319.16 43.7927C318.84 43.8536 317.56 43.8414 315.34 43.7561C311.28 47.5924 309.03 49.5532 308.6 49.6385C308.44 48.6398 307.94 48.2135 307.11 48.3597L304.69 53.3895C307.58 57.0797 315.6 62.3043 328.74 69.0514C343.56 80.0731 351.63 89.8892 352.95 98.4995L352.3 98.6213L353.19 100.01L353.95 105.259C354.41 108.096 354.24 112.505 353.43 118.485C355.61 132.588 347.8 143.78 329.98 152.074C327.1 152.598 325.48 153.146 325.15 153.694C316.78 155.228 307.65 150.99 297.76 140.991C295.98 137.593 295.01 135.45 294.87 134.585L294.63 133.075L295.87 132.844C297.09 140.967 304.59 147.056 318.36 151.087C319.03 151.453 321.38 151.55 325.41 151.343C329.56 150.588 335.05 147.787 341.9 142.94L341.8 142.148L342.39 142.039L343.79 142.587C343.67 141.892 345.39 139.262 348.96 134.707C350.67 129.409 351.4 125.926 351.16 124.27L351.06 123.478C349.91 123.685 348.6 126.243 347.14 131.139C346.78 131.199 345.97 132.904 344.73 136.229C339.94 142.221 334.95 145.692 329.76 146.642L326.08 147.312C317.43 148.895 309.12 144.511 301.17 134.159C296.54 126.255 293.82 119.569 293 114.101C292.62 109.546 292.9 107.183 293.84 107.012C297.5 108.9 299.64 111.86 300.24 115.879C300.89 119.983 301.69 122.394 302.63 123.125L302.78 123.904C302.84 124.392 302.67 124.672 302.27 124.733C305.69 133.94 316.19 137.411 333.75 135.133L334.35 135.024L335.5 134.074C336.28 134.427 337.14 134.512 338.08 134.342C342.85 130.006 345.28 126.486 345.35 123.783C344.11 115.574 335.96 106.538 320.88 96.6727C315.66 96.4657 310.12 93.6159 304.29 88.1233C297.6 83.2031 293.65 76.7362 292.44 68.7347L292.11 66.506C290.85 58.3828 296.34 45.8143 308.58 28.8006C313.87 24.7329 317.97 22.4433 320.89 21.9075ZM295.86 61.9146C295.58 65.6535 295.47 67.7361 295.53 68.1745C298.27 78.4534 301.75 83.2031 305.97 82.4236C300.26 75.567 297.11 70.2449 296.53 66.4329L296.55 62.5845L296.45 61.7928L295.86 61.9146ZM296.63 58.736L296.86 60.1731L297.45 60.0635C297.25 58.7482 297.64 57.1527 298.63 55.265L298.39 53.7549C297.56 53.9254 296.98 55.5817 296.63 58.736ZM299.3 59.7346C298.98 63.1569 298.92 65.483 299.11 66.7009C302.19 73.4601 306.78 79.8295 312.86 85.8093C313.55 86.6253 318.92 88.4765 328.97 91.3506C335.64 94.3101 340.65 98.0124 344 102.47C344.83 102.312 345.13 101.471 344.91 99.9488C343.56 91.1314 339.34 82.923 332.25 75.3234C326.72 71.1705 322.01 69.4533 318.12 70.1596L314.39 70.8416L312.74 72.6928C306.56 70.7199 303.26 68.5033 302.85 66.0189C301.05 61.7319 299.87 59.625 299.3 59.7346ZM301.62 53.9254C301.8 55.058 301.74 56.1054 301.45 57.0553C304.33 66.3112 308.14 70.5128 312.9 69.6359L320.96 68.1623L320.86 67.3707C309.1 62.5723 302.88 58.0418 302.21 53.8158L301.62 53.9254ZM305.8 85.5536L305.94 86.2721C310.85 90.5347 314.12 92.5198 315.74 92.2275C314.38 90.4007 311.07 88.1842 305.8 85.5536ZM306.85 133.915L306.94 134.634C313.92 141.576 319.48 144.669 323.62 143.902L323.77 144.681C328.71 143.78 333.59 141.089 338.43 136.607L338.33 135.815L335.34 137.167C322.91 139.469 313.41 138.373 306.85 133.915ZM319.55 29.8237L319.89 32.1133L318.65 32.3447C317.86 32.4908 317.38 32.0645 317.22 31.0537C311.58 33.1241 308.88 34.89 309.14 36.3758L312.08 35.0971L313.97 34.756C323.53 33.9522 333.42 36.2419 343.63 41.6492L344.22 41.5396C340.56 33.9888 337.07 30.53 333.76 31.1268C333.03 31.7601 332.44 32.1133 332.01 32.1863L331.17 30.7858C331.57 30.7127 331.74 30.4326 331.67 29.9576C328.45 29.5192 324.41 29.4827 319.55 29.8237ZM310.66 29.9698L310.8 30.6883L311.99 30.4691C312.72 29.8358 313.31 29.4827 313.74 29.4096L313.64 28.618L313.05 28.7276C312.4 29.3852 311.6 29.7993 310.66 29.9698ZM320.07 91.4237C325.7 95.5158 333.31 99.5104 342.9 103.408L342.76 102.689C338.36 98.9989 333.46 96.0395 328.06 93.7986L326.96 94.7363L322.66 91.6916C321.87 91.3385 321.01 91.2532 320.07 91.4237ZM334.51 102.653L334.6 103.371C341.55 109.826 345.22 114.295 345.6 116.78L346.19 116.67L346.21 112.822L345.64 109.083C343.4 106.732 339.69 104.577 334.51 102.653ZM339.01 57.1162L340.25 56.8848L340.58 59.1135L339.34 59.3449L339.01 57.1162ZM339.55 81.6685L339.7 82.448C343.18 88.5008 346.23 97.44 348.87 109.253L351.79 111.823C351.5 109.814 351.97 108.693 353.2 108.462L352.87 106.233L351.63 106.464L350.72 100.436C349.28 94.4562 345.78 88.1598 340.2 81.5467L339.55 81.6685ZM349.04 114.612L349.02 118.461L349.26 119.971C349.58 119.91 350.09 119.057 350.77 117.401C350.23 116.597 349.87 115.635 349.69 114.502L349.04 114.612Z" fill="#00FFAB"/>
<path opacity="0.31" d="M433.67 0.0466309C436.01 0.156239 437.23 0.63121 437.33 1.45936C436.59 2.31188 435.39 3.22528 433.74 4.19958L433.68 3.73679C433.59 3.03042 433.98 2.60417 434.85 2.44584L434.78 1.92216L434.35 2.00741C426.55 4.83287 421.69 6.41611 419.78 6.75712L419.84 7.2808L420.4 8.2551C419.85 9.08325 419.05 9.59476 418 9.78962L418.06 10.2524C420.04 9.88705 421.08 10.0576 421.16 10.7639C421.3 11.86 415.7 14.6368 404.38 19.082L404.45 19.6057L406.99 19.1429C409.55 18.6801 413.58 17.4257 419.08 15.3797L419.63 16.2931L419.76 17.3526C412.04 20.2024 403.24 22.5286 393.36 24.3432L394.19 52.1473C394.23 52.5005 394.38 52.6466 394.63 52.6101C394.46 55.74 394.7 59.9173 395.35 65.142L395.8 68.7591L396.55 68.0892L396.98 68.004L397.05 68.5277C397.17 69.5385 396.82 70.1231 395.99 70.2692C396.08 70.9756 396.26 71.2922 396.55 71.2435L396.56 74.9459C399.59 96.5266 401.34 107.268 401.81 107.183C401.6 107.853 401.54 108.584 401.64 109.375C402.01 109.984 402.22 110.459 402.26 110.812L401.83 110.873L404.22 119.459L404.04 121.578L405.67 127.607L404.87 128.289C404.22 128.411 402.84 124.258 400.74 115.842C400.45 115.891 400.22 115.221 400.05 113.808L399.62 113.893L399.95 116.524C400.9 119.447 401.44 121.456 401.58 122.553C400.75 122.699 400.4 123.283 400.52 124.294L399.65 124.452L399.59 123.929C399.55 123.624 399.68 123.442 399.97 123.393C399.2 121.919 398.7 120.239 398.46 118.351L398.03 118.436L398.22 120.019C399.02 124.099 399.55 127.168 399.8 129.226L400.67 129.068L400.35 126.498L401.16 126.352L401.54 129.446C401.63 130.189 401.86 130.846 402.22 131.406C402.23 135.986 401.95 138.324 401.37 138.434C400.46 138.239 399.9 137.289 399.69 135.572L399.31 135.645C399.78 139.42 399.58 141.393 398.71 141.551L398.28 141.637C396.59 141.941 393.96 135.913 390.41 123.551L390.35 123.028L390.78 122.942L390.23 122.029L387.93 103.395C387.35 98.6944 386.73 92.4832 386.07 84.7376C380 61.2935 376.18 43.1715 374.61 30.396L373.68 30.0307C365.82 31.4678 357.52 34.4028 348.77 38.8359C347.86 40.748 347.43 41.8928 347.48 42.2338C348.03 42.2216 348.34 42.5017 348.41 43.0741L348.6 44.6573L348.22 44.7304C345.4 43.0863 343.97 42.1242 343.93 41.8075L343.8 40.748C344.44 39.6397 347.41 36.8142 352.71 32.2472C352.39 29.6531 359.1 25.4393 372.83 19.6057L372.51 17.036C362.75 19.5448 356.08 21.6395 352.49 23.3324C351.94 23.0766 351.36 23.0036 350.75 23.1132L350.69 22.5895C350.61 21.9805 353.46 20.58 359.24 18.4L359.31 18.9237L360.11 18.2417C360.4 18.1929 360.56 18.3391 360.61 18.6923L373.5 14.247C374.01 14.515 374.59 14.588 375.24 14.4663L376.85 13.6381L376.92 14.1618C377.21 14.1131 377.33 13.906 377.29 13.5529L380.33 13.5407L395.58 10.7517C396.23 10.63 396.77 10.3498 397.19 9.92359C397.74 10.1793 398.34 10.2524 398.99 10.1306L404.94 9.04672C405.19 8.998 405.34 9.13197 405.38 9.43644C417.18 5.84371 426.62 2.72595 433.67 0.0466309ZM350.31 23.1862C352.5 24.5381 353.62 25.3906 353.67 25.7316L353.24 25.8047C351 25.2688 349.76 24.6233 349.52 23.8561L350.31 23.1862ZM354.94 32.917L355 33.4407C367.49 29.1782 373.66 26.4501 373.51 25.2688C373.32 23.7343 373.34 22.6747 373.56 22.0901L373.13 22.1754C370.68 22.626 364.62 26.2066 354.94 32.917ZM373.8 16.7924L374.05 18.8384L374.86 18.6923L374.79 18.1686C374.42 17.5597 374.21 17.0847 374.17 16.7315L373.8 16.7924ZM374.37 21.4081C374.68 21.8466 374.96 23.0279 375.2 24.9643C376.99 23.6003 378.49 22.8087 379.72 22.5895C379.37 22.1145 379.09 21.1037 378.9 19.5691C378.31 19.9467 376.8 20.5556 374.37 21.4081ZM375.04 16.5732C375.41 17.1821 375.62 17.6571 375.66 18.0103L377.34 17.7058C377.92 17.5962 378.17 17.2187 378.08 16.561L377.95 15.5014L375.84 15.879L375.04 16.5732ZM375.77 29.641L375.84 30.1646C375.91 30.737 376.3 31.5408 377.02 32.576C376.96 34.4759 377.01 36.0348 377.16 37.2649C377.29 38.3244 377.73 39.4692 378.47 40.7236L378.17 41.8562L384.66 73.3992L385.09 73.3261L384.33 67.1393L384.76 67.054C384.72 66.7009 384.55 66.5547 384.26 66.6034C383.93 60.916 383.85 57.9443 384.04 57.6886C384 57.3354 383.83 57.1893 383.54 57.238C382.72 43.1106 382.34 34.1958 382.4 30.5057C381.9 28.8493 381.51 28.0455 381.22 28.0943C381.08 28.1308 379.26 28.6423 375.77 29.641ZM375.82 26.4623L375.89 26.986L380.16 26.2066C380.7 26.1091 380.93 25.7072 380.84 25.0009L380.71 23.9413C378.31 25.4637 376.68 26.304 375.82 26.4623ZM379.63 15.197L379.76 16.2565L380.19 16.1713C380.55 16.1104 381.95 15.672 384.4 14.8682L384.34 14.3445L379.63 15.197ZM380.64 19.7884C381.01 20.3973 381.22 20.8723 381.26 21.2255C387.68 17.9372 391.22 16.2322 391.91 16.1104L391.85 15.5867L391.42 15.672C384.11 17.45 380.52 18.8262 380.64 19.7884ZM381.94 23.1862L382.07 24.2458L382.63 25.2201C382.8 24.8304 385.98 23.7099 392.17 21.8587C392.05 20.8479 392.04 19.6179 392.16 18.1564L391.73 18.2417C391 18.3635 387.74 20.0198 381.94 23.1862ZM384.54 40.6993C384.64 41.4909 384.58 42.1972 384.36 42.8184L385.23 42.66L384.98 40.614L384.54 40.6993ZM384.49 43.8657L385.41 58.4437L385.84 58.3584L385.54 59.491L385.67 60.5506C385.76 61.2935 385.99 61.9512 386.35 62.5114C385.94 63.985 385.89 65.9214 386.18 68.3328L386.56 71.4262C386.6 71.7794 386.48 71.9743 386.19 72.0351L386.75 73.0094L386.82 73.5331C386.86 73.8863 386.74 74.0812 386.45 74.1421C386.49 74.4465 386.65 74.5805 386.94 74.5196L386.83 77.2355C387.93 86.1503 390.7 99.1816 395.14 116.329L395.57 116.244C395.44 115.184 395.52 114.636 395.81 114.588L395.26 113.674C394.7 109.156 394.12 103.261 393.52 96.0151C393.48 95.7106 393.32 95.5766 393.03 95.6375L393.14 92.9217L391.23 77.4425C391.14 76.6996 391.2 75.9932 391.41 75.3234C391.37 74.9702 391.2 74.8241 390.91 74.8728L390.9 71.1705L390.39 67.0297L389.52 63.5466L389.95 63.4613L385.35 43.6952L384.49 43.8657ZM387.47 25.8777L387.54 26.4014C388.17 26.6937 389.17 30.2134 390.56 36.9604C390.34 37.5815 390.28 38.2879 390.38 39.0795L391.25 38.9212L391.31 39.4448C391.35 39.798 391.23 39.9929 390.94 40.0538C390.98 40.407 391.15 40.5531 391.44 40.5044L391.45 44.1458L392.53 49.2731L392.96 49.1878C392.19 40.5775 391.93 34.9874 392.16 32.4299C392.12 32.0767 391.97 31.9306 391.72 31.9671C391.82 28.2648 391.81 25.9752 391.7 25.0983L387.47 25.8777ZM387.5 33.2824L388.96 45.1323C389.14 46.5816 389.52 48.4693 390.1 50.7832C389.87 51.3191 389.85 52.3787 390.05 53.9619L391.12 59.0161L390.69 59.1013C391.06 59.7103 391.27 60.1852 391.31 60.5384C391.56 62.5601 392.23 66.8348 393.34 73.3626L394.21 73.2043L393.76 69.5872C393.61 68.3572 393.54 66.7983 393.57 64.9106C393.24 64.3016 393.04 63.7901 393 63.4004L393.38 63.3273L392.88 62.4139C390.62 48.9077 389.38 41.2108 389.14 39.3231L388.58 38.3488C388.54 38.0443 388.67 37.8616 388.96 37.8129C388.51 36.5463 388.17 35.024 387.95 33.2215L387.5 33.2824ZM389.33 100.497L391.37 117.023C392.74 128.094 395.08 135.401 398.39 138.969L397.8 130.591C393.02 115.477 390.33 105.417 389.71 100.412L389.33 100.497ZM392.91 17.5475L393.29 20.6409L393.03 21.7004C405.21 16.9994 413.28 13.4189 417.25 10.9344L417.19 10.4107C416.9 10.4595 416.74 10.3377 416.7 10.0332C415.2 11.3363 413.57 12.1523 411.8 12.4811C411.51 12.5298 411.08 12.4324 410.49 12.1767L405.17 14.7707L405.04 13.7112L410.75 11.1171L410.68 10.5934L407.76 11.1293C406.83 11.2876 401.88 13.4311 392.91 17.5475ZM393.46 74.4222L394.67 84.2382L395.1 84.1652L393.9 74.3369L393.46 74.4222ZM396.5 109.765L397.13 114.904L397.88 117.389L398.31 117.304L398.25 116.841C397.75 115.221 397.31 112.834 396.92 109.68L396.5 109.765ZM398.71 103.03L399.22 107.183L399.65 107.11L399.14 102.957L398.71 103.03Z" fill="#00FFAB"/>
</g>
</svg>
