<svg width="45" height="57" viewBox="0 0 45 57" fill="none" xmlns="http://www.w3.org/2000/svg">
<path d="M3.31995 11.41C3.23995 11.51 4.64993 11.47 4.17993 11.28C4.21993 11.3 4.14991 11.21 4.15991 11.22C4.01991 10.71 4.24993 11.17 4.11993 11.2C3.68993 11.32 4.37996 11.4 4.32996 11.36C4.50996 11.48 4.81996 11.54 5.01996 11.66C5.60996 12.01 6.07996 12.54 6.51996 13.05C7.66996 14.38 8.69995 15.82 9.69995 17.26C11.83 20.32 13.78 23.51 15.77 26.66C19.48 32.54 23.4199 38.61 29.1199 42.77C32.2699 45.07 35.8899 46.45 39.7499 46.9C41.6599 47.13 41.6499 44.13 39.7499 43.9C31.5599 42.93 25.92 36.42 21.53 30.01C19.08 26.43 16.8599 22.69 14.4999 19.05C13.3299 17.25 12.1399 15.47 10.8499 13.75C9.46991 11.9 8.01996 9.64996 5.82996 8.71996C3.62996 7.77996 0.779961 8.89996 1.20996 11.62C1.51996 13.54 3.80995 15.44 5.44995 13.53C6.68995 12.07 4.57995 9.93996 3.31995 11.41Z" fill="#00FFAB"/>
<path d="M41.75 0.47C29.88 13.29 18.97 27 9.13998 41.45C6.31998 45.6 3.58997 49.82 0.949974 54.09C-0.0700257 55.74 2.52994 57.24 3.53994 55.6C12.6399 40.89 22.82 26.86 34.02 13.69C37.22 9.92 40.51 6.23 43.87 2.6C45.18 1.18 43.07 -0.95 41.75 0.47Z" fill="#00FFAB"/>
</svg>
