<svg width="45" height="57" viewBox="0 0 45 57" fill="none" xmlns="http://www.w3.org/2000/svg">
<path d="M3.18005 11.6101C3.10005 11.7101 4.51004 11.6702 4.04004 11.4802C4.08004 11.5002 4.01002 11.4102 4.02002 11.4202C3.88002 10.9102 4.10998 11.3701 3.97998 11.4001C3.54998 11.5201 4.23994 11.6001 4.18994 11.5601C4.36994 11.6801 4.68 11.7401 4.88 11.8601C5.47 12.2101 5.94 12.7401 6.38 13.2501C7.53 14.5801 8.56006 16.0201 9.56006 17.4601C11.6901 20.5201 13.64 23.7101 15.63 26.8601C19.34 32.7401 23.28 38.8101 28.98 42.9701C32.13 45.2701 35.75 46.6502 39.61 47.1002C41.52 47.3302 41.51 44.3302 39.61 44.1002C31.42 43.1301 25.78 36.6201 21.39 30.2101C18.94 26.6301 16.72 22.8901 14.36 19.2501C13.19 17.4501 12 15.6702 10.71 13.9502C9.32996 12.1002 7.87994 9.85016 5.68994 8.92016C3.48994 7.98016 0.639946 9.10015 1.06995 11.8202C1.37995 13.7402 3.67006 15.6402 5.31006 13.7302C6.55006 12.2702 4.43005 10.1401 3.18005 11.6101Z" fill="#00FFAB"/>
<path d="M41.6 0.680193C29.73 13.5002 18.82 27.2102 8.99001 41.6602C6.17001 45.8102 3.44007 50.0302 0.800072 54.3002C-0.219928 55.9502 2.38004 57.4502 3.39004 55.8102C12.49 41.1002 22.67 27.0702 33.87 13.9002C37.07 10.1302 40.36 6.4402 43.72 2.8102C45.04 1.3802 42.92 -0.749806 41.6 0.680193Z" fill="#00FFAB"/>
</svg>
