<svg width="278" height="136" viewBox="0 0 278 136" fill="none" xmlns="http://www.w3.org/2000/svg">
<path d="M3.41 135.129C14.44 120.587 25.48 106.058 36.51 91.5165C41.85 84.4772 47.0399 77.1821 52.5899 70.3986C54.6799 67.8532 57.28 65.04 60.4 64.9425C62.89 64.8695 64.9199 66.6719 66.2099 69.1563C72.3599 80.9819 63.2799 99.8102 75.0899 108.165C79.8799 111.563 86.0599 111.1 90.9899 108.396C97.1599 104.998 101.64 98.4462 106.02 92.4178C116 78.668 126.86 65.8681 138.48 54.1765C141.02 51.6311 143.86 48.3307 147.28 47.8192C149.45 47.4904 151.48 48.4525 153 50.3402C156.38 54.5541 157.22 61.4716 157 67.1103C156.73 73.9426 155.21 80.58 155.85 87.4732C156.49 94.3664 159.55 100.687 165.3 102.684C171.24 104.743 177.63 101.515 182.72 97.9713C189.02 93.5869 194.87 88.0334 200.74 82.8452C224.91 61.4837 247.88 38.1127 269.43 12.9271C272.1 9.80936 274.74 6.66725 277.36 3.4886C278.73 1.83229 276.61 -0.749595 275.24 0.906713C253.93 26.6647 231.17 50.6568 207.14 72.5907C201.16 78.0468 195.1 83.3811 188.96 88.5936C183.58 93.1607 177.83 98.3732 171.14 99.4936C168.25 99.9808 165.25 99.4205 162.91 97.204C160.8 95.2189 159.63 92.3081 159.08 89.1904C157.88 82.2729 159.42 75.2092 159.92 68.3282C160.35 62.4337 159.54 55.8693 156.99 50.7543C154.29 45.3347 149.31 42.6189 144.29 45.0303C141.13 46.5526 138.54 49.3781 135.96 51.9843C133.09 54.8829 130.27 57.8423 127.5 60.8748C121.83 67.0738 116.36 73.5407 111.1 80.2633C106.27 86.438 101.92 93.2946 96.79 99.0917C92.35 104.109 86.5799 108.092 80.3199 106.643C77.6699 106.034 75.19 104.45 73.63 101.698C71.87 98.5924 71.47 94.7438 71.42 91.0659C71.32 83.9291 72.3199 76.9264 69.9699 70.1185C67.9199 64.1753 63.3199 59.7787 57.8199 61.776C54.7999 62.8721 52.32 65.4905 50.16 68.182C47.48 71.519 44.9399 75.0265 42.3399 78.4487C31.3699 92.9049 20.4 107.361 9.42 121.817C6.71001 125.386 3.99999 128.966 1.27999 132.535C-0.0200082 134.264 2.1 136.858 3.41 135.129Z" fill="#00FFAB"/>
</svg>
