<svg width="20" height="17" viewBox="0 0 20 17" fill="none" xmlns="http://www.w3.org/2000/svg">
<path d="M3.41003 7.53014C4.52003 11.0001 6.10003 15.0201 9.91003 16.2001C13.31 17.2601 17.09 15.1101 18.66 12.0801C20.36 8.80013 19.31 4.9601 16.49 2.6701C13.63 0.350095 9.73003 -0.219875 6.41003 1.45012C2.63003 3.34012 0.390014 7.71009 0.520014 11.8501C0.580014 13.7801 3.58001 13.7801 3.52001 11.8501C3.44001 9.17009 4.56998 6.41013 6.73998 4.77013C8.71998 3.27013 11.29 3.0601 13.48 4.2401C15.46 5.3101 17.04 7.4701 16.38 9.8001C15.78 11.8901 13.51 13.7501 11.29 13.4501C8.28003 13.0501 7.09005 9.18009 6.31005 6.73009C5.72005 4.90009 2.82003 5.68014 3.41003 7.53014Z" fill="#00FFAB"/>
</svg>
