<svg id="Layer_1" data-name="Layer 1" xmlns="http://www.w3.org/2000/svg" viewBox="0 0 676.93 682.31"><defs><style>.cls-1{fill:#7cffa4;}</style></defs><path class="cls-1" d="M507.38,666.09H169.55c-85.49,0-155-69.56-155-155V173.22c0-85.48,69.55-155,155-155H507.38c85.49,0,155,69.56,155,155V511C662.42,596.53,592.87,666.09,507.38,666.09ZM169.55,50.36A123,123,0,0,0,46.68,173.22V511A123,123,0,0,0,169.55,633.91H507.38A123,123,0,0,0,630.24,511V173.22A123,123,0,0,0,507.38,50.36Z"/><path class="cls-1" d="M338.47,504c-80.41,0-145.82-65.41-145.82-145.81s65.41-145.82,145.82-145.82,145.81,65.41,145.81,145.82S418.87,504,338.47,504Zm0-259.45A113.64,113.64,0,1,0,452.1,358.23,113.77,113.77,0,0,0,338.47,244.59Z"/><path class="cls-1" d="M528.63,186.39a36.88,36.88,0,1,1,36.86-36.59A36.91,36.91,0,0,1,528.63,186.39Z"/></svg>