<svg id="Layer_1" data-name="Layer 1" xmlns="http://www.w3.org/2000/svg" viewBox="0 0 676.93 682.31"><defs><style>.cls-1{fill:#7cffa4;}</style></defs><path class="cls-1" d="M351.43,276c0-50.28.08-92.17-.11-134.06,0-5,1.05-6.85,6.47-6.74q27.58.51,55.19,0c5.53-.1,7.19,2,7.7,7.1,3.39,33.63,19.08,59.63,48.45,77,12.78,7.55,26.79,11.14,41.42,12.3,3.66.29,5,1.22,4.94,5-.16,18.17-.23,36.35,0,54.52.08,5.56-3.18,6.28-7.16,6.13-11.49-.43-22.7-3-34-4.82-17.66-2.91-33.42-10.65-49-18.94-4.51-2.41-5.85-2-5.83,3.5q.29,56.19.05,112.37c-.13,25.53-2.55,50.78-13.53,74.31-19,40.78-50.51,66.28-94.33,77.13-49,12.13-104.54-14.11-129-57.21-14.4-25.39-21.46-53-18.64-82,3.28-33.85,17.52-62.86,43.51-85.72,26.74-23.52,58.55-32.14,93.19-33.41,4.47-.17,5.15,1.42,5.12,5.21q-.18,27.93,0,55.86c0,4.81-2.07,7.29-6.62,8.39-11.12,2.67-22,6.22-32.81,9.87-20.91,7-34.71,20.3-37.28,42.61-3.07,26.62,5.92,48,29.87,62.13,22.65,13.4,44.79,13.47,66.12-2.12C339.7,453.83,347.05,439,348.85,421,354,370,349.88,318.74,351.43,276Z"/><path class="cls-1" d="M509.22,665H169.81C83.92,665,14,595.07,14,509.18V169.77C14,83.88,83.92,14,169.81,14H509.22C595.11,14,665,83.88,665,169.77V509.18C665,595.07,595.11,665,509.22,665ZM169.81,46.32A123.58,123.58,0,0,0,46.37,169.77V509.18A123.58,123.58,0,0,0,169.81,632.63H509.22A123.58,123.58,0,0,0,632.66,509.18V169.77A123.58,123.58,0,0,0,509.22,46.32Z"/></svg>