<svg width="588" height="271" viewBox="0 0 588 271" fill="none" xmlns="http://www.w3.org/2000/svg">
<path d="M213.57 270.84L213.46 268.84C295.15 264.42 372.89 246.65 438.28 217.45C493.18 192.93 537.45 161.38 562.92 128.61C578.62 108.42 585.65 89.1501 582.73 74.3501C571.2 16.0201 431.89 -5.73989 272.18 25.8301C194.66 41.1501 123.99 66.6401 73.1901 97.6001C22.6701 128.38 -2.09992 160.8 3.45008 188.87C6.29008 203.26 15.3901 215.61 30.4901 225.6C78.3901 257.28 179.89 260.88 302.02 235.24L302.43 237.2C179.79 262.95 77.7201 259.24 29.3901 227.28C13.8301 216.99 4.45012 204.2 1.49012 189.27C-4.22988 160.31 20.8602 127.15 72.1502 95.9001C123.15 64.8201 194.06 39.2501 271.8 23.8801C349.54 8.5101 424.84 5.19011 483.83 14.5201C543.15 23.9001 578.98 45.0201 584.7 73.9801C587.74 89.3601 580.57 109.2 564.51 129.86C538.84 162.88 494.3 194.65 439.1 219.3C373.49 248.58 295.5 266.41 213.57 270.84Z" fill="url(#paint0_linear_2_800)"/>
<path d="M166.29 252.4C147.43 252.4 129.52 251.38 112.87 249.31C53.58 241.94 17.26 222.13 10.61 193.53C3.96003 164.92 27.8101 131.12 77.7801 98.3603C127.46 65.7803 197.11 38.0001 273.9 20.1501C350.69 2.30012 425.45 -3.49971 484.41 3.83029C543.71 11.2003 580.02 31.0103 586.67 59.6103C593.32 88.2203 569.47 122.02 519.5 154.78C469.82 187.36 400.17 215.14 323.38 232.99C268.28 245.8 214.22 252.4 166.29 252.4ZM431.34 2.75022C384.62 2.75022 330.68 9.00031 274.35 22.0903C116.6 58.7603 -0.839911 135.47 12.5501 193.08C21.1601 230.12 81.8101 250.38 165.93 250.39C212.65 250.39 266.59 244.14 322.92 231.05C480.67 194.38 598.11 117.67 584.72 60.0603C576.12 23.0203 515.47 2.75022 431.34 2.75022Z" fill="url(#paint1_linear_2_800)"/>
<defs>
<linearGradient id="paint0_linear_2_800" x1="95.6673" y1="307.306" x2="492.829" y2="-40.1472" gradientUnits="userSpaceOnUse">
<stop stop-color="#00FFFF"/>
<stop offset="1" stop-color="#00FF00"/>
</linearGradient>
<linearGradient id="paint1_linear_2_800" x1="47.8322" y1="50.223" x2="549.117" y2="202.662" gradientUnits="userSpaceOnUse">
<stop stop-color="#00FFFF"/>
<stop offset="1" stop-color="#00FF00"/>
</linearGradient>
</defs>
</svg>
