<svg width="592" height="274" viewBox="0 0 592 274" fill="none" xmlns="http://www.w3.org/2000/svg">
<path d="M159.93 273.25C145.73 273.25 132.13 272.63 119.25 271.36C59.4801 265.5 22.4701 246.54 15.0401 217.97C11.2101 203.24 14.1101 187.65 23.6501 171.62C53.2901 121.83 143.61 74.1298 265.25 44.0298L265.73 45.9698C144.6 75.9498 54.7401 123.3 25.3701 172.65C16.1101 188.2 13.2901 203.28 16.9801 217.48C24.1801 245.18 60.5701 263.61 119.45 269.38C178.66 275.19 253.39 267.43 329.86 247.55C406.33 227.67 475.37 198.04 524.26 164.14C572.87 130.42 595.68 96.5998 588.48 68.8998C584.68 54.2998 569.97 39.9998 547.06 28.6298C509.88 10.1898 456.3 1.00981 396.19 2.77981C324.61 4.88981 246.87 22.6698 171.38 54.1898L170.61 52.3398C246.32 20.7298 324.31 2.89981 396.13 0.779812C456.55 -1.00019 510.47 8.24981 547.94 26.8398C571.38 38.4698 586.46 53.2198 590.4 68.3898C597.83 96.9598 574.74 131.54 525.39 165.77C476.31 199.81 407.05 229.53 330.35 249.48C270.29 265.09 211.26 273.25 159.93 273.25Z" fill="url(#paint0_linear_2_798)"/>
<path d="M157.42 269.39C138.56 269.39 120.65 268.37 104 266.3C44.7 258.93 8.38997 239.12 1.73997 210.52C-4.91003 181.91 18.94 148.11 68.91 115.35C118.59 82.7701 188.24 54.9899 265.03 37.1399C341.82 19.2899 416.58 13.49 475.54 20.82C534.83 28.19 571.15 48.0001 577.8 76.6001C584.45 105.21 560.6 139.01 510.63 171.77C460.95 204.35 391.3 232.13 314.51 249.98C259.4 262.79 205.34 269.39 157.42 269.39ZM422.47 19.73C375.75 19.73 321.8 25.98 265.48 39.07C107.73 75.74 -9.71003 152.45 3.67997 210.05C17.07 267.66 156.31 284.69 314.05 248.02C471.8 211.35 589.24 134.64 575.85 77.03C567.24 40 506.59 19.73 422.47 19.73Z" fill="url(#paint1_linear_2_798)"/>
<defs>
<linearGradient id="paint0_linear_2_798" x1="48.4627" y1="70.6633" x2="557.138" y2="211.037" gradientUnits="userSpaceOnUse">
<stop stop-color="#00FFFF"/>
<stop offset="1" stop-color="#00FF00"/>
</linearGradient>
<linearGradient id="paint1_linear_2_798" x1="38.9829" y1="67.1765" x2="540.268" y2="219.616" gradientUnits="userSpaceOnUse">
<stop stop-color="#00FFFF"/>
<stop offset="1" stop-color="#00FF00"/>
</linearGradient>
</defs>
</svg>
